<svg version="1.1" viewBox="0.0 0.0 600.0 371.0" fill="none" stroke="none" stroke-linecap="square" stroke-miterlimit="10" width="600" height="371" xmlns:xlink="http://www.w3.org/1999/xlink" xmlns="http://www.w3.org/2000/svg"><path fill="#ffffff" d="M0 0L600.0 0L600.0 371.0L0 371.0L0 0Z" fill-rule="nonzero"/><path stroke="#333333" stroke-width="1.0" stroke-linecap="butt" d="M65.5 27.5L65.5 326.5" fill-rule="nonzero"/><path fill="#eeeeee" d="M56.5 18.5L64.5 27.5L64.5 326.5L56.5 317.5Z" fill-rule="nonzero"/><path stroke="#cccccc" stroke-width="1.0" stroke-linecap="butt" d="M168.5 27.5L168.5 326.5" fill-rule="nonzero"/><path stroke="#cccccc" stroke-width="1.0" stroke-linecap="butt" d="M271.5 27.5L271.5 326.5" fill-rule="nonzero"/><path stroke="#cccccc" stroke-width="1.0" stroke-linecap="butt" d="M375.5 27.5L375.5 326.5" fill-rule="nonzero"/><path stroke="#cccccc" stroke-width="1.0" stroke-linecap="butt" d="M478.5 27.5L478.5 326.5" fill-rule="nonzero"/><path stroke="#cccccc" stroke-width="1.0" stroke-linecap="butt" d="M581.5 27.5L581.5 326.5" fill-rule="nonzero"/><path stroke="#e6e6e6" stroke-width="1.0" stroke-linecap="butt" d="M99.5 27.5L99.5 326.5" fill-rule="nonzero"/><path stroke="#e6e6e6" stroke-width="1.0" stroke-linecap="butt" d="M134.5 27.5L134.5 326.5" fill-rule="nonzero"/><path stroke="#e6e6e6" stroke-width="1.0" stroke-linecap="butt" d="M203.5 27.5L203.5 326.5" fill-rule="nonzero"/><path stroke="#e6e6e6" stroke-width="1.0" stroke-linecap="butt" d="M237.5 27.5L237.5 326.5" fill-rule="nonzero"/><path stroke="#e6e6e6" stroke-width="1.0" stroke-linecap="butt" d="M306.5 27.5L306.5 326.5" fill-rule="nonzero"/><path stroke="#e6e6e6" stroke-width="1.0" stroke-linecap="butt" d="M340.5 27.5L340.5 326.5" fill-rule="nonzero"/><path stroke="#e6e6e6" stroke-width="1.0" stroke-linecap="butt" d="M409.5 27.5L409.5 326.5" fill-rule="nonzero"/><path stroke="#e6e6e6" stroke-width="1.0" stroke-linecap="butt" d="M443.5 27.5L443.5 326.5" fill-rule="nonzero"/><path stroke="#e6e6e6" stroke-width="1.0" stroke-linecap="butt" d="M512.5 27.5L512.5 326.5" fill-rule="nonzero"/><path stroke="#e6e6e6" stroke-width="1.0" stroke-linecap="butt" d="M547.5 27.5L547.5 326.5" fill-rule="nonzero"/><path stroke="#000000" stroke-width="1.0" stroke-linecap="butt" d="M581.5 326.5L54.5 326.5" fill-rule="nonzero"/><path stroke="#000000" stroke-width="1.0" stroke-linecap="butt" d="M54.5 326.5L54.5 18.5" fill-rule="nonzero"/><clipPath id="id_0"><path d="M54.55 18.55L581.45 18.55L581.45 326.45L54.55 326.45L54.55 18.55Z" clip-rule="nonzero"/></clipPath><path fill="#2b569f" clip-path="url(#id_0)" d="M144.0 58.0L66.0 58.0L60.0 52.0L138.0 52.0Z" fill-rule="nonzero"/><path fill="#689df6" clip-path="url(#id_0)" d="M138.0 52.0L138.0 28.0L144.0 34.0L144.0 58.0Z" fill-rule="nonzero"/><path stroke="#000000" stroke-width="2.0" stroke-linecap="butt" stroke-opacity="0.0" clip-path="url(#id_0)" d="M60.0 52.0L60.0 28.0L138.0 28.0L138.0 52.0Z" fill-rule="nonzero"/><path fill="#4285f4" clip-path="url(#id_0)" d="M60.0 52.0L60.0 28.0L138.0 28.0L138.0 52.0Z" fill-rule="nonzero"/><path fill="#2b569f" clip-path="url(#id_0)" d="M142.0 95.0L66.0 95.0L60.0 89.0L136.0 89.0Z" fill-rule="nonzero"/><path fill="#689df6" clip-path="url(#id_0)" d="M136.0 89.0L136.0 65.0L142.0 71.0L142.0 95.0Z" fill-rule="nonzero"/><path stroke="#000000" stroke-width="2.0" stroke-linecap="butt" stroke-opacity="0.0" clip-path="url(#id_0)" d="M60.0 89.0L60.0 65.0L136.0 65.0L136.0 89.0Z" fill-rule="nonzero"/><path fill="#4285f4" clip-path="url(#id_0)" d="M60.0 89.0L60.0 65.0L136.0 65.0L136.0 89.0Z" fill-rule="nonzero"/><path fill="#2b569f" clip-path="url(#id_0)" d="M93.0 132.0L66.0 132.0L60.0 126.0L87.0 126.0Z" fill-rule="nonzero"/><path fill="#689df6" clip-path="url(#id_0)" d="M87.0 126.0L87.0 102.0L93.0 108.0L93.0 132.0Z" fill-rule="nonzero"/><path stroke="#000000" stroke-width="2.0" stroke-linecap="butt" stroke-opacity="0.0" clip-path="url(#id_0)" d="M60.0 126.0L60.0 102.0L87.0 102.0L87.0 126.0Z" fill-rule="nonzero"/><path fill="#4285f4" clip-path="url(#id_0)" d="M60.0 126.0L60.0 102.0L87.0 102.0L87.0 126.0Z" fill-rule="nonzero"/><path fill="#2b569f" clip-path="url(#id_0)" d="M319.0 169.0L66.0 169.0L60.0 163.0L313.0 163.0Z" fill-rule="nonzero"/><path fill="#689df6" clip-path="url(#id_0)" d="M313.0 163.0L313.0 139.0L319.0 145.0L319.0 169.0Z" fill-rule="nonzero"/><path stroke="#000000" stroke-width="2.0" stroke-linecap="butt" stroke-opacity="0.0" clip-path="url(#id_0)" d="M60.0 163.0L60.0 139.0L313.0 139.0L313.0 163.0Z" fill-rule="nonzero"/><path fill="#4285f4" clip-path="url(#id_0)" d="M60.0 163.0L60.0 139.0L313.0 139.0L313.0 163.0Z" fill-rule="nonzero"/><path fill="#2b569f" clip-path="url(#id_0)" d="M138.0 206.0L66.0 206.0L60.0 200.0L132.0 200.0Z" fill-rule="nonzero"/><path fill="#689df6" clip-path="url(#id_0)" d="M132.0 200.0L132.0 176.0L138.0 182.0L138.0 206.0Z" fill-rule="nonzero"/><path stroke="#000000" stroke-width="2.0" stroke-linecap="butt" stroke-opacity="0.0" clip-path="url(#id_0)" d="M60.0 200.0L60.0 176.0L132.0 176.0L132.0 200.0Z" fill-rule="nonzero"/><path fill="#4285f4" clip-path="url(#id_0)" d="M60.0 200.0L60.0 176.0L132.0 176.0L132.0 200.0Z" fill-rule="nonzero"/><path fill="#2b569f" clip-path="url(#id_0)" d="M537.0 243.0L66.0 243.0L60.0 237.0L531.0 237.0Z" fill-rule="nonzero"/><path fill="#689df6" clip-path="url(#id_0)" d="M531.0 237.0L531.0 213.0L537.0 219.0L537.0 243.0Z" fill-rule="nonzero"/><path stroke="#000000" stroke-width="2.0" stroke-linecap="butt" stroke-opacity="0.0" clip-path="url(#id_0)" d="M60.0 237.0L60.0 213.0L531.0 213.0L531.0 237.0Z" fill-rule="nonzero"/><path fill="#4285f4" clip-path="url(#id_0)" d="M60.0 237.0L60.0 213.0L531.0 213.0L531.0 237.0Z" fill-rule="nonzero"/><path fill="#2b569f" clip-path="url(#id_0)" d="M138.0 280.0L66.0 280.0L60.0 274.0L132.0 274.0Z" fill-rule="nonzero"/><path fill="#689df6" clip-path="url(#id_0)" d="M132.0 274.0L132.0 250.0L138.0 256.0L138.0 280.0Z" fill-rule="nonzero"/><path stroke="#000000" stroke-width="2.0" stroke-linecap="butt" stroke-opacity="0.0" clip-path="url(#id_0)" d="M60.0 274.0L60.0 250.0L132.0 250.0L132.0 274.0Z" fill-rule="nonzero"/><path fill="#4285f4" clip-path="url(#id_0)" d="M60.0 274.0L60.0 250.0L132.0 250.0L132.0 274.0Z" fill-rule="nonzero"/><path fill="#2b569f" clip-path="url(#id_0)" d="M93.0 317.0L66.0 317.0L60.0 311.0L87.0 311.0Z" fill-rule="nonzero"/><path fill="#689df6" clip-path="url(#id_0)" d="M87.0 311.0L87.0 287.0L93.0 293.0L93.0 317.0Z" fill-rule="nonzero"/><path stroke="#000000" stroke-width="2.0" stroke-linecap="butt" stroke-opacity="0.0" clip-path="url(#id_0)" d="M60.0 311.0L60.0 287.0L87.0 287.0L87.0 311.0Z" fill-rule="nonzero"/><path fill="#4285f4" clip-path="url(#id_0)" d="M60.0 311.0L60.0 287.0L87.0 287.0L87.0 311.0Z" fill-rule="nonzero"/><path stroke="#000000" stroke-width="1.0" stroke-linecap="butt" d="M99.5 329.5L99.5 323.5" fill-rule="nonzero"/><path stroke="#000000" stroke-width="1.0" stroke-linecap="butt" d="M134.5 329.5L134.5 323.5" fill-rule="nonzero"/><path stroke="#000000" stroke-width="1.0" stroke-linecap="butt" d="M203.5 329.5L203.5 323.5" fill-rule="nonzero"/><path stroke="#000000" stroke-width="1.0" stroke-linecap="butt" d="M237.5 329.5L237.5 323.5" fill-rule="nonzero"/><path stroke="#000000" stroke-width="1.0" stroke-linecap="butt" d="M306.5 329.5L306.5 323.5" fill-rule="nonzero"/><path stroke="#000000" stroke-width="1.0" stroke-linecap="butt" d="M340.5 329.5L340.5 323.5" fill-rule="nonzero"/><path stroke="#000000" stroke-width="1.0" stroke-linecap="butt" d="M409.5 329.5L409.5 323.5" fill-rule="nonzero"/><path stroke="#000000" stroke-width="1.0" stroke-linecap="butt" d="M443.5 329.5L443.5 323.5" fill-rule="nonzero"/><path stroke="#000000" stroke-width="1.0" stroke-linecap="butt" d="M512.5 329.5L512.5 323.5" fill-rule="nonzero"/><path stroke="#000000" stroke-width="1.0" stroke-linecap="butt" d="M547.5 329.5L547.5 323.5" fill-rule="nonzero"/><path stroke="#000000" stroke-width="1.0" stroke-linecap="butt" d="M65.5 332.5L65.5 320.5" fill-rule="nonzero"/><path stroke="#000000" stroke-width="1.0" stroke-linecap="butt" d="M168.5 332.5L168.5 320.5" fill-rule="nonzero"/><path stroke="#000000" stroke-width="1.0" stroke-linecap="butt" d="M271.5 332.5L271.5 320.5" fill-rule="nonzero"/><path stroke="#000000" stroke-width="1.0" stroke-linecap="butt" d="M375.5 332.5L375.5 320.5" fill-rule="nonzero"/><path stroke="#000000" stroke-width="1.0" stroke-linecap="butt" d="M478.5 332.5L478.5 320.5" fill-rule="nonzero"/><path stroke="#000000" stroke-width="1.0" stroke-linecap="butt" d="M581.5 332.5L581.5 320.5" fill-rule="nonzero"/><path stroke="#000000" stroke-width="1.0" stroke-linecap="butt" d="M48.5 40.5L60.5 40.5" fill-rule="nonzero"/><path stroke="#000000" stroke-width="1.0" stroke-linecap="butt" d="M48.5 77.5L60.5 77.5" fill-rule="nonzero"/><path stroke="#000000" stroke-width="1.0" stroke-linecap="butt" d="M48.5 114.5L60.5 114.5" fill-rule="nonzero"/><path stroke="#000000" stroke-width="1.0" stroke-linecap="butt" d="M48.5 151.5L60.5 151.5" fill-rule="nonzero"/><path stroke="#000000" stroke-width="1.0" stroke-linecap="butt" d="M48.5 187.5L60.5 187.5" fill-rule="nonzero"/><path stroke="#000000" stroke-width="1.0" stroke-linecap="butt" d="M48.5 224.5L60.5 224.5" fill-rule="nonzero"/><path stroke="#000000" stroke-width="1.0" stroke-linecap="butt" d="M48.5 261.5L60.5 261.5" fill-rule="nonzero"/><path stroke="#000000" stroke-width="1.0" stroke-linecap="butt" d="M48.5 298.5L60.5 298.5" fill-rule="nonzero"/><path stroke="#4285f4" stroke-width="3.0" stroke-linejoin="round" stroke-linecap="round" d="M125.38555 36.578125L121.8543 44.5L120.71368 44.5L124.2293 36.859375L119.61993 36.859375L119.61993 35.96875L125.38555 35.96875L125.38555 36.578125ZM131.13554 35.96875L131.13554 36.875L130.93242 36.875Q129.6668 36.90625 128.9168 37.640625Q128.1668 38.359375 128.0418 39.671875Q128.7293 38.90625 129.88554 38.90625Q130.99492 38.90625 131.6668 39.6875Q132.33867 40.46875 132.33867 41.71875Q132.33867 43.03125 131.61992 43.828125Q130.90117 44.625 129.68242 44.625Q128.46367 44.625 127.69805 43.6875Q126.94805 42.734375 126.94805 41.25L126.94805 40.84375Q126.94805 38.484375 127.94805 37.234375Q128.94804 35.984375 130.93242 35.96875L131.13554 35.96875ZM129.71367 39.8125Q129.15117 39.8125 128.68242 40.140625Q128.21367 40.46875 128.02617 40.984375L128.02617 41.375Q128.02617 42.4375 128.49492 43.078125Q128.9793 43.71875 129.68242 43.71875Q130.4168 43.71875 130.83867 43.1875Q131.26054 42.640625 131.26054 41.765625Q131.26054 40.890625 130.83867 40.359375Q130.4168 39.8125 129.71367 39.8125Z" fill-rule="nonzero"/><path fill="#ffffff" d="M125.38555 36.578125L121.8543 44.5L120.71368 44.5L124.2293 36.859375L119.61993 36.859375L119.61993 35.96875L125.38555 35.96875L125.38555 36.578125ZM131.13556 35.96875L131.13556 36.875L130.93243 36.875Q129.66681 36.90625 128.91681 37.640625Q128.16681 38.359375 128.04181 39.671875Q128.72931 38.90625 129.88556 38.90625Q130.99493 38.90625 131.66681 39.6875Q132.33868 40.46875 132.33868 41.71875Q132.33868 43.03125 131.61993 43.828125Q130.90118 44.625 129.68243 44.625Q128.46368 44.625 127.69805 43.6875Q126.94805 42.734375 126.94805 41.25L126.94805 40.84375Q126.94805 38.484375 127.94805 37.234375Q128.94806 35.984375 130.93243 35.96875L131.13556 35.96875ZM129.71368 39.8125Q129.15118 39.8125 128.68243 40.140625Q128.21368 40.46875 128.02618 40.984375L128.02618 41.375Q128.02618 42.4375 128.49493 43.078125Q128.97931 43.71875 129.68243 43.71875Q130.41681 43.71875 130.83868 43.1875Q131.26056 42.640625 131.26056 41.765625Q131.26056 40.890625 130.83868 40.359375Q130.41681 39.8125 129.71368 39.8125Z" fill-rule="nonzero"/><path stroke="#4285f4" stroke-width="3.0" stroke-linejoin="round" stroke-linecap="round" d="M123.32195 73.578125L119.7907 81.5L118.65008 81.5L122.1657 73.859375L117.55633 73.859375L117.55633 72.96875L123.32195 72.96875L123.32195 73.578125ZM129.38445 78.640625L130.57195 78.640625L130.57195 79.515625L129.38445 79.515625L129.38445 81.5L128.30632 81.5L128.30632 79.515625L124.4157 79.515625L124.4157 78.875L128.2282 72.96875L129.38445 72.96875L129.38445 78.640625ZM125.65008 78.640625L128.30632 78.640625L128.30632 74.453125L128.1657 74.6875L125.65008 78.640625Z" fill-rule="nonzero"/><path fill="#ffffff" d="M123.32195 73.578125L119.7907 81.5L118.65008 81.5L122.1657 73.859375L117.55633 73.859375L117.55633 72.96875L123.32195 72.96875L123.32195 73.578125ZM129.38446 78.640625L130.57196 78.640625L130.57196 79.515625L129.38446 79.515625L129.38446 81.5L128.30634 81.5L128.30634 79.515625L124.4157 79.515625L124.4157 78.875L128.22821 72.96875L129.38446 72.96875L129.38446 78.640625ZM125.65008 78.640625L128.30634 78.640625L128.30634 74.453125L128.16571 74.6875L125.65008 78.640625Z" fill-rule="nonzero"/><path stroke="#4285f4" stroke-width="3.0" stroke-linejoin="round" stroke-linecap="round" d="M74.90547 118.5L69.31172 118.5L69.31172 117.71875L72.26485 114.4375Q72.9211 113.6875 73.1711 113.234375Q73.4211 112.765625 73.4211 112.265625Q73.4211 111.59375 73.01485 111.171875Q72.62422 110.734375 71.93672 110.734375Q71.13985 110.734375 70.68672 111.203125Q70.2336 111.65625 70.2336 112.484375L69.15547 112.484375Q69.15547 111.296875 69.90547 110.578125Q70.6711 109.84375 71.93672 109.84375Q73.13985 109.84375 73.82735 110.46875Q74.51485 111.09375 74.51485 112.140625Q74.51485 113.390625 72.90547 115.140625L70.62422 117.609375L74.90547 117.609375L74.90547 118.5ZM81.82735 110.578125L78.2961 118.5L77.15547 118.5L80.6711 110.859375L76.06172 110.859375L76.06172 109.96875L81.82735 109.96875L81.82735 110.578125Z" fill-rule="nonzero"/><path fill="#ffffff" d="M74.90547 118.5L69.31172 118.5L69.31172 117.71875L72.26485 114.4375Q72.9211 113.6875 73.1711 113.234375Q73.4211 112.765625 73.4211 112.265625Q73.4211 111.59375 73.01485 111.171875Q72.62422 110.734375 71.93672 110.734375Q71.13985 110.734375 70.68672 111.203125Q70.2336 111.65625 70.2336 112.484375L69.15547 112.484375Q69.15547 111.296875 69.90547 110.578125Q70.6711 109.84375 71.93672 109.84375Q73.13985 109.84375 73.82735 110.46875Q74.51485 111.09375 74.51485 112.140625Q74.51485 113.390625 72.90547 115.140625L70.62422 117.609375L74.90547 117.609375L74.90547 118.5ZM81.82735 110.578125L78.2961 118.5L77.15547 118.5L80.6711 110.859375L76.06172 110.859375L76.06172 109.96875L81.82735 109.96875L81.82735 110.578125Z" fill-rule="nonzero"/><path stroke="#4285f4" stroke-width="3.0" stroke-linejoin="round" stroke-linecap="round" d="M293.8697 155.5L288.27594 155.5L288.27594 154.71875L291.22906 151.4375Q291.8853 150.6875 292.1353 150.23438Q292.3853 149.76562 292.3853 149.26562Q292.3853 148.59375 291.97906 148.17188Q291.58844 147.73438 290.90094 147.73438Q290.10406 147.73438 289.65094 148.20312Q289.1978 148.65625 289.1978 149.48438L288.1197 149.48438Q288.1197 148.29688 288.8697 147.57812Q289.6353 146.84375 290.90094 146.84375Q292.10406 146.84375 292.79156 147.46875Q293.47906 148.09375 293.47906 149.14062Q293.47906 150.39062 291.8697 152.14062L289.58844 154.60938L293.8697 154.60938L293.8697 155.5ZM299.85406 152.64062L301.04156 152.64062L301.04156 153.51562L299.85406 153.51562L299.85406 155.5L298.77594 155.5L298.77594 153.51562L294.8853 153.51562L294.8853 152.875L298.6978 146.96875L299.85406 146.96875L299.85406 152.64062ZM296.1197 152.64062L298.77594 152.64062L298.77594 148.45312L298.6353 148.6875L296.1197 152.64062ZM306.54156 146.96875L306.54156 147.875L306.33844 147.875Q305.0728 147.90625 304.3228 148.64062Q303.5728 149.35938 303.4478 150.67188Q304.1353 149.90625 305.29156 149.90625Q306.40094 149.90625 307.0728 150.6875Q307.7447 151.46875 307.7447 152.71875Q307.7447 154.03125 307.02594 154.82812Q306.3072 155.625 305.08844 155.625Q303.8697 155.625 303.10406 154.6875Q302.35406 153.73438 302.35406 152.25L302.35406 151.84375Q302.35406 149.48438 303.35406 148.23438Q304.35406 146.98438 306.33844 146.96875L306.54156 146.96875ZM305.1197 150.8125Q304.5572 150.8125 304.08844 151.14062Q303.6197 151.46875 303.4322 151.98438L303.4322 152.375Q303.4322 153.4375 303.90094 154.07812Q304.3853 154.71875 305.08844 154.71875Q305.8228 154.71875 306.2447 154.1875Q306.66656 153.64062 306.66656 152.76562Q306.66656 151.89062 306.2447 151.35938Q305.8228 150.8125 305.1197 150.8125Z" fill-rule="nonzero"/><path fill="#ffffff" d="M293.8697 155.5L288.27594 155.5L288.27594 154.71875L291.22906 151.4375Q291.8853 150.6875 292.1353 150.23438Q292.3853 149.76562 292.3853 149.26562Q292.3853 148.59375 291.97906 148.17188Q291.58844 147.73438 290.90094 147.73438Q290.10406 147.73438 289.65094 148.20312Q289.1978 148.65625 289.1978 149.48438L288.1197 149.48438Q288.1197 148.29688 288.8697 147.57812Q289.6353 146.84375 290.90094 146.84375Q292.10406 146.84375 292.79156 147.46875Q293.47906 148.09375 293.47906 149.14062Q293.47906 150.39062 291.8697 152.14062L289.58844 154.60938L293.8697 154.60938L293.8697 155.5ZM299.85406 152.64062L301.04156 152.64062L301.04156 153.51562L299.85406 153.51562L299.85406 155.5L298.77594 155.5L298.77594 153.51562L294.8853 153.51562L294.8853 152.875L298.6978 146.96875L299.85406 146.96875L299.85406 152.64062ZM296.1197 152.64062L298.77594 152.64062L298.77594 148.45312L298.6353 148.6875L296.1197 152.64062ZM306.54156 146.96875L306.54156 147.875L306.33844 147.875Q305.0728 147.90625 304.3228 148.64062Q303.5728 149.35938 303.4478 150.67188Q304.1353 149.90625 305.29156 149.90625Q306.40094 149.90625 307.0728 150.6875Q307.7447 151.46875 307.7447 152.71875Q307.7447 154.03125 307.02594 154.82812Q306.3072 155.625 305.08844 155.625Q303.8697 155.625 303.10406 154.6875Q302.35406 153.73438 302.35406 152.25L302.35406 151.84375Q302.35406 149.48438 303.35406 148.23438Q304.35406 146.98438 306.33844 146.96875L306.54156 146.96875ZM305.1197 150.8125Q304.5572 150.8125 304.08844 151.14062Q303.6197 151.46875 303.4322 151.98438L303.4322 152.375Q303.4322 153.4375 303.90094 154.07812Q304.3853 154.71875 305.08844 154.71875Q305.8228 154.71875 306.2447 154.1875Q306.66656 153.64062 306.66656 152.76562Q306.66656 151.89062 306.2447 151.35938Q305.8228 150.8125 305.1197 150.8125Z" fill-rule="nonzero"/><path stroke="#4285f4" stroke-width="3.0" stroke-linejoin="round" stroke-linecap="round" d="M119.19475 184.57812L115.6635 192.5L114.52287 192.5L118.0385 184.85938L113.42912 184.85938L113.42912 183.96875L119.19475 183.96875L119.19475 184.57812ZM126.0385 188.85938Q126.0385 190.76562 125.38225 191.70312Q124.74162 192.625 123.351 192.625Q121.99162 192.625 121.33537 191.71875Q120.67912 190.8125 120.64787 189.0L120.64787 187.5625Q120.64787 185.67188 121.2885 184.76562Q121.94475 183.84375 123.33537 183.84375Q124.71037 183.84375 125.36662 184.73438Q126.02287 185.60938 126.0385 187.45312L126.0385 188.85938ZM124.94475 187.375Q124.94475 186.0 124.55412 185.375Q124.17912 184.73438 123.33537 184.73438Q122.50725 184.73438 122.11662 185.375Q121.74162 186.0 121.74162 187.29688L121.74162 189.03125Q121.74162 190.40625 122.13225 191.07812Q122.5385 191.73438 123.351 191.73438Q124.14787 191.73438 124.5385 191.10938Q124.92912 190.48438 124.94475 189.15625L124.94475 187.375Z" fill-rule="nonzero"/><path fill="#ffffff" d="M119.19475 184.57812L115.6635 192.5L114.52287 192.5L118.0385 184.85938L113.42912 184.85938L113.42912 183.96875L119.19475 183.96875L119.19475 184.57812ZM126.0385 188.85938Q126.0385 190.76562 125.38225 191.70312Q124.74162 192.625 123.351 192.625Q121.99162 192.625 121.33537 191.71875Q120.67912 190.8125 120.64787 189.0L120.64787 187.5625Q120.64787 185.67188 121.2885 184.76562Q121.94475 183.84375 123.33537 183.84375Q124.71037 183.84375 125.36662 184.73438Q126.02287 185.60938 126.0385 187.45312L126.0385 188.85938ZM124.94475 187.375Q124.94475 186.0 124.55412 185.375Q124.17912 184.73438 123.33537 184.73438Q122.50725 184.73438 122.11662 185.375Q121.74162 186.0 121.74162 187.29688L121.74162 189.03125Q121.74162 190.40625 122.13225 191.07812Q122.5385 191.73438 123.351 191.73438Q124.14787 191.73438 124.5385 191.10938Q124.92912 190.48438 124.94475 189.15625L124.94475 187.375Z" fill-rule="nonzero"/><path stroke="#4285f4" stroke-width="3.0" stroke-linejoin="round" stroke-linecap="round" d="M510.56384 226.64062L511.75134 226.64062L511.75134 227.51562L510.56384 227.51562L510.56384 229.5L509.48572 229.5L509.48572 227.51562L505.5951 227.51562L505.5951 226.875L509.4076 220.96875L510.56384 220.96875L510.56384 226.64062ZM506.82947 226.64062L509.48572 226.64062L509.48572 222.45312L509.3451 222.6875L506.82947 226.64062ZM513.4857 225.21875L513.9232 220.96875L518.2982 220.96875L518.2982 221.96875L514.8451 221.96875L514.57947 224.29688Q515.2201 223.92188 516.01697 223.92188Q517.1732 223.92188 517.8607 224.70312Q518.5482 225.46875 518.5482 226.78125Q518.5482 228.09375 517.82947 228.85938Q517.12634 229.625 515.8451 229.625Q514.7201 229.625 514.00134 229.0Q513.2826 228.35938 513.18884 227.25L514.20447 227.25Q514.31384 227.98438 514.7357 228.35938Q515.1576 228.73438 515.8451 228.73438Q516.5951 228.73438 517.0326 228.21875Q517.4701 227.70312 517.4701 226.79688Q517.4701 225.9375 517.00134 225.42188Q516.5326 224.90625 515.75134 224.90625Q515.0482 224.90625 514.64197 225.20312L514.3607 225.4375L513.4857 225.21875ZM525.50134 221.57812L521.9701 229.5L520.82947 229.5L524.3451 221.85938L519.7357 221.85938L519.7357 220.96875L525.50134 220.96875L525.50134 221.57812Z" fill-rule="nonzero"/><path fill="#ffffff" d="M510.56384 226.64062L511.75134 226.64062L511.75134 227.51562L510.56384 227.51562L510.56384 229.5L509.48572 229.5L509.48572 227.51562L505.5951 227.51562L505.5951 226.875L509.4076 220.96875L510.56384 220.96875L510.56384 226.64062ZM506.82947 226.64062L509.48572 226.64062L509.48572 222.45312L509.3451 222.6875L506.82947 226.64062ZM513.4857 225.21875L513.9232 220.96875L518.2982 220.96875L518.2982 221.96875L514.8451 221.96875L514.57947 224.29688Q515.2201 223.92188 516.01697 223.92188Q517.1732 223.92188 517.8607 224.70312Q518.5482 225.46875 518.5482 226.78125Q518.5482 228.09375 517.82947 228.85938Q517.12634 229.625 515.8451 229.625Q514.7201 229.625 514.00134 229.0Q513.2826 228.35938 513.18884 227.25L514.20447 227.25Q514.31384 227.98438 514.7357 228.35938Q515.1576 228.73438 515.8451 228.73438Q516.5951 228.73438 517.0326 228.21875Q517.4701 227.70312 517.4701 226.79688Q517.4701 225.9375 517.00134 225.42188Q516.5326 224.90625 515.75134 224.90625Q515.0482 224.90625 514.64197 225.20312L514.3607 225.4375L513.4857 225.21875ZM525.50134 221.57812L521.9701 229.5L520.82947 229.5L524.3451 221.85938L519.7357 221.85938L519.7357 220.96875L525.50134 220.96875L525.50134 221.57812Z" fill-rule="nonzero"/><path stroke="#4285f4" stroke-width="3.0" stroke-linejoin="round" stroke-linecap="round" d="M119.19475 258.57812L115.6635 266.5L114.52287 266.5L118.0385 258.85938L113.42912 258.85938L113.42912 257.96875L119.19475 257.96875L119.19475 258.57812ZM126.0385 262.85938Q126.0385 264.76562 125.38225 265.70312Q124.74162 266.625 123.351 266.625Q121.99162 266.625 121.33537 265.71875Q120.67912 264.8125 120.64787 263.0L120.64787 261.5625Q120.64787 259.67188 121.2885 258.76562Q121.94475 257.84375 123.33537 257.84375Q124.71037 257.84375 125.36662 258.73438Q126.02287 259.60938 126.0385 261.45312L126.0385 262.85938ZM124.94475 261.375Q124.94475 260.0 124.55412 259.375Q124.17912 258.73438 123.33537 258.73438Q122.50725 258.73438 122.11662 259.375Q121.74162 260.0 121.74162 261.29688L121.74162 263.03125Q121.74162 264.40625 122.13225 265.07812Q122.5385 265.73438 123.351 265.73438Q124.14787 265.73438 124.5385 265.10938Q124.92912 264.48438 124.94475 263.15625L124.94475 261.375Z" fill-rule="nonzero"/><path fill="#ffffff" d="M119.19475 258.57812L115.6635 266.5L114.52287 266.5L118.0385 258.85938L113.42912 258.85938L113.42912 257.96875L119.19475 257.96875L119.19475 258.57812ZM126.0385 262.85938Q126.0385 264.76562 125.38225 265.70312Q124.74162 266.625 123.351 266.625Q121.99162 266.625 121.33537 265.71875Q120.67912 264.8125 120.64787 263.0L120.64787 261.5625Q120.64787 259.67188 121.2885 258.76562Q121.94475 257.84375 123.33537 257.84375Q124.71037 257.84375 125.36662 258.73438Q126.02287 259.60938 126.0385 261.45312L126.0385 262.85938ZM124.94475 261.375Q124.94475 260.0 124.55412 259.375Q124.17912 258.73438 123.33537 258.73438Q122.50725 258.73438 122.11662 259.375Q121.74162 260.0 121.74162 261.29688L121.74162 263.03125Q121.74162 264.40625 122.13225 265.07812Q122.5385 265.73438 123.351 265.73438Q124.14787 265.73438 124.5385 265.10938Q124.92912 264.48438 124.94475 263.15625L124.94475 261.375Z" fill-rule="nonzero"/><path stroke="#4285f4" stroke-width="3.0" stroke-linejoin="round" stroke-linecap="round" d="M74.90547 303.5L69.31172 303.5L69.31172 302.71875L72.26485 299.4375Q72.9211 298.6875 73.1711 298.23438Q73.4211 297.76562 73.4211 297.26562Q73.4211 296.59375 73.01485 296.17188Q72.62422 295.73438 71.93672 295.73438Q71.13985 295.73438 70.68672 296.20312Q70.2336 296.65625 70.2336 297.48438L69.15547 297.48438Q69.15547 296.29688 69.90547 295.57812Q70.6711 294.84375 71.93672 294.84375Q73.13985 294.84375 73.82735 295.46875Q74.51485 296.09375 74.51485 297.14062Q74.51485 298.39062 72.90547 300.14062L70.62422 302.60938L74.90547 302.60938L74.90547 303.5ZM81.82735 295.57812L78.2961 303.5L77.15547 303.5L80.6711 295.85938L76.06172 295.85938L76.06172 294.96875L81.82735 294.96875L81.82735 295.57812Z" fill-rule="nonzero"/><path fill="#ffffff" d="M74.90547 303.5L69.31172 303.5L69.31172 302.71875L72.26485 299.4375Q72.9211 298.6875 73.1711 298.23438Q73.4211 297.76562 73.4211 297.26562Q73.4211 296.59375 73.01485 296.17188Q72.62422 295.73438 71.93672 295.73438Q71.13985 295.73438 70.68672 296.20312Q70.2336 296.65625 70.2336 297.48438L69.15547 297.48438Q69.15547 296.29688 69.90547 295.57812Q70.6711 294.84375 71.93672 294.84375Q73.13985 294.84375 73.82735 295.46875Q74.51485 296.09375 74.51485 297.14062Q74.51485 298.39062 72.90547 300.14062L70.62422 302.60938L74.90547 302.60938L74.90547 303.5ZM81.82735 295.57812L78.2961 303.5L77.15547 303.5L80.6711 295.85938L76.06172 295.85938L76.06172 294.96875L81.82735 294.96875L81.82735 295.57812Z" fill-rule="nonzero"/><path fill="#000000" d="M20.471874 44.44012L20.471874 35.84637L23.721874 35.84637Q24.565624 35.84637 25.01875 35.924496Q25.659374 36.03387 26.08125 36.330746Q26.51875 36.62762 26.76875 37.15887Q27.034374 37.69012 27.034374 38.330746Q27.034374 39.424496 26.33125 40.19012Q25.64375 40.94012 23.815624 40.94012L21.6125 40.94012L21.6125 44.44012L20.471874 44.44012ZM21.6125 39.94012L23.83125 39.94012Q24.940624 39.94012 25.39375 39.53387Q25.8625 39.111996 25.8625 38.361996Q25.8625 37.830746 25.58125 37.455746Q25.315624 37.06512 24.878124 36.94012Q24.58125 36.861996 23.815624 36.861996L21.6125 36.861996L21.6125 39.94012ZM28.096874 41.674496L29.159374 41.580746Q29.2375 42.236996 29.51875 42.643246Q29.8 43.049496 30.378124 43.31512Q30.971874 43.56512 31.70625 43.56512Q32.346874 43.56512 32.846874 43.37762Q33.346874 43.174496 33.58125 42.84637Q33.83125 42.50262 33.83125 42.111996Q33.83125 41.705746 33.596874 41.40887Q33.3625 41.09637 32.83125 40.893246Q32.471874 40.75262 31.284374 40.47137Q30.1125 40.19012 29.64375 39.94012Q29.01875 39.611996 28.721874 39.143246Q28.425 38.65887 28.425 38.06512Q28.425 37.424496 28.784374 36.861996Q29.159374 36.28387 29.8625 36.00262Q30.58125 35.705746 31.440624 35.705746Q32.39375 35.705746 33.128124 36.018246Q33.8625 36.31512 34.253124 36.924496Q34.64375 37.518246 34.675 38.268246L33.58125 38.34637Q33.4875 37.53387 32.971874 37.12762Q32.471874 36.705746 31.4875 36.705746Q30.45625 36.705746 29.9875 37.080746Q29.51875 37.455746 29.51875 37.986996Q29.51875 38.455746 29.846874 38.75262Q30.175 39.049496 31.55 39.361996Q32.940624 39.674496 33.45625 39.90887Q34.20625 40.268246 34.565624 40.799496Q34.925 41.31512 34.925 42.018246Q34.925 42.705746 34.534374 43.31512Q34.14375 43.90887 33.409374 44.25262Q32.675 44.580746 31.753124 44.580746Q30.58125 44.580746 29.784374 44.25262Q29.003124 43.90887 28.55 43.22137Q28.1125 42.53387 28.096874 41.674496ZM40.01875 44.44012L38.971874 44.44012L38.971874 37.72137Q38.58125 38.080746 37.95625 38.455746Q37.346874 38.81512 36.8625 38.986996L36.8625 37.97137Q37.7375 37.549496 38.39375 36.97137Q39.065624 36.37762 39.346874 35.81512L40.01875 35.81512L40.01875 44.44012Z" fill-rule="nonzero"/><path fill="#000000" d="M20.471874 81.31437L20.471874 72.72062L23.721874 72.72062Q24.565624 72.72062 25.01875 72.798744Q25.659374 72.90812 26.08125 73.204994Q26.51875 73.50187 26.76875 74.03312Q27.034374 74.56437 27.034374 75.204994Q27.034374 76.298744 26.33125 77.06437Q25.64375 77.81437 23.815624 77.81437L21.6125 77.81437L21.6125 81.31437L20.471874 81.31437ZM21.6125 76.81437L23.83125 76.81437Q24.940624 76.81437 25.39375 76.40812Q25.8625 75.986244 25.8625 75.236244Q25.8625 74.704994 25.58125 74.329994Q25.315624 73.93937 24.878124 73.81437Q24.58125 73.736244 23.815624 73.736244L21.6125 73.736244L21.6125 76.81437ZM28.096874 78.548744L29.159374 78.454994Q29.2375 79.111244 29.51875 79.517494Q29.8 79.923744 30.378124 80.18937Q30.971874 80.43937 31.70625 80.43937Q32.346874 80.43937 32.846874 80.25187Q33.346874 80.048744 33.58125 79.72062Q33.83125 79.37687 33.83125 78.986244Q33.83125 78.579994 33.596874 78.28312Q33.3625 77.97062 32.83125 77.767494Q32.471874 77.62687 31.284374 77.34562Q30.1125 77.06437 29.64375 76.81437Q29.01875 76.486244 28.721874 76.017494Q28.425 75.53312 28.425 74.93937Q28.425 74.298744 28.784374 73.736244Q29.159374 73.15812 29.8625 72.87687Q30.58125 72.579994 31.440624 72.579994Q32.39375 72.579994 33.128124 72.892494Q33.8625 73.18937 34.253124 73.798744Q34.64375 74.392494 34.675 75.142494L33.58125 75.22062Q33.4875 74.40812 32.971874 74.00187Q32.471874 73.579994 31.4875 73.579994Q30.45625 73.579994 29.9875 73.954994Q29.51875 74.329994 29.51875 74.861244Q29.51875 75.329994 29.846874 75.62687Q30.175 75.923744 31.55 76.236244Q32.940624 76.548744 33.45625 76.78312Q34.20625 77.142494 34.565624 77.673744Q34.925 78.18937 34.925 78.892494Q34.925 79.579994 34.534374 80.18937Q34.14375 80.78312 33.409374 81.12687Q32.675 81.454994 31.753124 81.454994Q30.58125 81.454994 29.784374 81.12687Q29.003124 80.78312 28.55 80.09562Q28.1125 79.40812 28.096874 78.548744ZM41.596874 80.298744L41.596874 81.31437L35.909374 81.31437Q35.909374 80.93937 36.034374 80.579994Q36.253124 80.00187 36.721874 79.43937Q37.20625 78.87687 38.1125 78.142494Q39.51875 76.986244 40.003124 76.31437Q40.503124 75.642494 40.503124 75.048744Q40.503124 74.423744 40.05 74.00187Q39.596874 73.56437 38.878124 73.56437Q38.1125 73.56437 37.659374 74.017494Q37.20625 74.47062 37.190624 75.28312L36.1125 75.173744Q36.221874 73.954994 36.940624 73.329994Q37.675 72.68937 38.909374 72.68937Q40.14375 72.68937 40.8625 73.37687Q41.58125 74.06437 41.58125 75.079994Q41.58125 75.59562 41.3625 76.09562Q41.159374 76.579994 40.659374 77.142494Q40.175 77.68937 39.05 78.642494Q38.096874 79.43937 37.815624 79.736244Q37.55 80.017494 37.378124 80.298744L41.596874 80.298744Z" fill-rule="nonzero"/><path fill="#000000" d="M19.471874 118.18862L19.471874 109.59487L22.721874 109.59487Q23.565624 109.59487 24.01875 109.673Q24.659374 109.78237 25.08125 110.07925Q25.51875 110.37612 25.76875 110.90737Q26.034374 111.43862 26.034374 112.07925Q26.034374 113.173 25.33125 113.93862Q24.64375 114.68862 22.815624 114.68862L20.6125 114.68862L20.6125 118.18862L19.471874 118.18862ZM20.6125 113.68862L22.83125 113.68862Q23.940624 113.68862 24.39375 113.28237Q24.8625 112.8605 24.8625 112.1105Q24.8625 111.57925 24.58125 111.20425Q24.315624 110.81362 23.878124 110.68862Q23.58125 110.6105 22.815624 110.6105L20.6125 110.6105L20.6125 113.68862ZM27.096874 115.423L28.159374 115.32925Q28.2375 115.9855 28.51875 116.39175Q28.8 116.798 29.378124 117.06362Q29.971874 117.31362 30.70625 117.31362Q31.346874 117.31362 31.846874 117.12612Q32.346874 116.923 32.58125 116.59487Q32.83125 116.25112 32.83125 115.8605Q32.83125 115.45425 32.596874 115.15737Q32.3625 114.84487 31.83125 114.64175Q31.471874 114.50112 30.284374 114.21987Q29.1125 113.93862 28.64375 113.68862Q28.01875 113.3605 27.721874 112.89175Q27.425 112.40737 27.425 111.81362Q27.425 111.173 27.784374 110.6105Q28.159374 110.03237 28.8625 109.75112Q29.58125 109.45425 30.440624 109.45425Q31.39375 109.45425 32.128124 109.76675Q32.8625 110.06362 33.253124 110.673Q33.64375 111.26675 33.675 112.01675L32.58125 112.09487Q32.4875 111.28237 31.971874 110.87612Q31.471874 110.45425 30.4875 110.45425Q29.45625 110.45425 28.9875 110.82925Q28.51875 111.20425 28.51875 111.7355Q28.51875 112.20425 28.846874 112.50112Q29.175 112.798 30.55 113.1105Q31.940624 113.423 32.45625 113.65737Q33.20625 114.01675 33.565624 114.548Q33.925 115.06362 33.925 115.76675Q33.925 116.45425 33.534374 117.06362Q33.14375 117.65737 32.409374 118.00112Q31.675 118.32925 30.753124 118.32925Q29.58125 118.32925 28.784374 118.00112Q28.003124 117.65737 27.55 116.96987Q27.1125 116.28237 27.096874 115.423ZM35.471874 118.18862L35.471874 109.59487L38.721874 109.59487Q39.565624 109.59487 40.01875 109.673Q40.659374 109.78237 41.08125 110.07925Q41.51875 110.37612 41.76875 110.90737Q42.034374 111.43862 42.034374 112.07925Q42.034374 113.173 41.33125 113.93862Q40.64375 114.68862 38.815624 114.68862L36.6125 114.68862L36.6125 118.18862L35.471874 118.18862ZM36.6125 113.68862L38.83125 113.68862Q39.940624 113.68862 40.39375 113.28237Q40.8625 112.8605 40.8625 112.1105Q40.8625 111.57925 40.58125 111.20425Q40.315624 110.81362 39.878124 110.68862Q39.58125 110.6105 38.815624 110.6105L36.6125 110.6105L36.6125 113.68862Z" fill-rule="nonzero"/><path fill="#000000" d="M20.471874 155.06288L20.471874 146.46913L23.721874 146.46913Q24.565624 146.46913 25.01875 146.54726Q25.659374 146.65663 26.08125 146.9535Q26.51875 147.25038 26.76875 147.78163Q27.034374 148.31288 27.034374 148.9535Q27.034374 150.04726 26.33125 150.81288Q25.64375 151.56288 23.815624 151.56288L21.6125 151.56288L21.6125 155.06288L20.471874 155.06288ZM21.6125 150.56288L23.83125 150.56288Q24.940624 150.56288 25.39375 150.15663Q25.8625 149.73476 25.8625 148.98476Q25.8625 148.4535 25.58125 148.0785Q25.315624 147.68788 24.878124 147.56288Q24.58125 147.48476 23.815624 147.48476L21.6125 147.48476L21.6125 150.56288ZM28.096874 152.29726L29.159374 152.2035Q29.2375 152.85976 29.51875 153.266Q29.8 153.67226 30.378124 153.93788Q30.971874 154.18788 31.70625 154.18788Q32.346874 154.18788 32.846874 154.00038Q33.346874 153.79726 33.58125 153.46913Q33.83125 153.12538 33.83125 152.73476Q33.83125 152.3285 33.596874 152.03163Q33.3625 151.71913 32.83125 151.516Q32.471874 151.37538 31.284374 151.09413Q30.1125 150.81288 29.64375 150.56288Q29.01875 150.23476 28.721874 149.766Q28.425 149.28163 28.425 148.68788Q28.425 148.04726 28.784374 147.48476Q29.159374 146.90663 29.8625 146.62538Q30.58125 146.3285 31.440624 146.3285Q32.39375 146.3285 33.128124 146.641Q33.8625 146.93788 34.253124 147.54726Q34.64375 148.141 34.675 148.891L33.58125 148.96913Q33.4875 148.15663 32.971874 147.75038Q32.471874 147.3285 31.4875 147.3285Q30.45625 147.3285 29.9875 147.7035Q29.51875 148.0785 29.51875 148.60976Q29.51875 149.0785 29.846874 149.37538Q30.175 149.67226 31.55 149.98476Q32.940624 150.29726 33.45625 150.53163Q34.20625 150.891 34.565624 151.42226Q34.925 151.93788 34.925 152.641Q34.925 153.3285 34.534374 153.93788Q34.14375 154.53163 33.409374 154.87538Q32.675 155.2035 31.753124 155.2035Q30.58125 155.2035 29.784374 154.87538Q29.003124 154.53163 28.55 153.84413Q28.1125 153.15663 28.096874 152.29726ZM36.05 152.79726L37.1125 152.65663Q37.284374 153.54726 37.721874 153.9535Q38.159374 154.34413 38.784374 154.34413Q39.534374 154.34413 40.05 153.8285Q40.565624 153.31288 40.565624 152.54726Q40.565624 151.8285 40.08125 151.35976Q39.6125 150.87538 38.878124 150.87538Q38.58125 150.87538 38.128124 151.00038L38.253124 150.06288Q38.3625 150.0785 38.425 150.0785Q39.096874 150.0785 39.628124 149.73476Q40.175 149.37538 40.175 148.641Q40.175 148.06288 39.784374 147.68788Q39.39375 147.29726 38.76875 147.29726Q38.159374 147.29726 37.7375 147.68788Q37.33125 148.0785 37.221874 148.84413L36.159374 148.65663Q36.346874 147.60976 37.034374 147.03163Q37.721874 146.43788 38.7375 146.43788Q39.440624 146.43788 40.034374 146.75038Q40.628124 147.04726 40.940624 147.56288Q41.253124 148.0785 41.253124 148.67226Q41.253124 149.21913 40.95625 149.68788Q40.659374 150.141 40.08125 150.40663Q40.83125 150.5785 41.253124 151.141Q41.675 151.68788 41.675 152.53163Q41.675 153.65663 40.846874 154.43788Q40.034374 155.21913 38.784374 155.21913Q37.659374 155.21913 36.909374 154.54726Q36.159374 153.85976 36.05 152.79726Z" fill-rule="nonzero"/><path fill="#000000" d="M21.925 191.93712L18.596874 183.34337L19.83125 183.34337L22.065624 189.59337Q22.33125 190.34337 22.51875 190.99962Q22.721874 190.2965 22.9875 189.59337L25.3 183.34337L26.45625 183.34337L23.096874 191.93712L21.925 191.93712ZM26.675 191.93712L26.675 183.34337L27.8 183.34337L27.8 191.93712L26.675 191.93712ZM31.659374 191.93712L31.659374 184.359L28.83125 184.359L28.83125 183.34337L35.64375 183.34337L35.64375 184.359L32.8 184.359L32.8 191.93712L31.659374 191.93712ZM35.534374 191.93712L38.83125 183.34337L40.05 183.34337L43.565624 191.93712L42.284374 191.93712L41.26875 189.32774L37.690624 189.32774L36.7375 191.93712L35.534374 191.93712ZM38.01875 188.40587L40.925 188.40587L40.034374 186.03087Q39.6125 184.95274 39.425 184.24962Q39.253124 185.07774 38.95625 185.89024L38.01875 188.40587Z" fill-rule="nonzero"/><path fill="#000000" d="M20.471874 228.81137L20.471874 220.21762L23.721874 220.21762Q24.565624 220.21762 25.01875 220.29575Q25.659374 220.40512 26.08125 220.702Q26.51875 220.99887 26.76875 221.53012Q27.034374 222.06137 27.034374 222.702Q27.034374 223.79575 26.33125 224.56137Q25.64375 225.31137 23.815624 225.31137L21.6125 225.31137L21.6125 228.81137L20.471874 228.81137ZM21.6125 224.31137L23.83125 224.31137Q24.940624 224.31137 25.39375 223.90512Q25.8625 223.48325 25.8625 222.73325Q25.8625 222.202 25.58125 221.827Q25.315624 221.43637 24.878124 221.31137Q24.58125 221.23325 23.815624 221.23325L21.6125 221.23325L21.6125 224.31137ZM28.096874 226.04575L29.159374 225.952Q29.2375 226.60825 29.51875 227.0145Q29.8 227.42075 30.378124 227.68637Q30.971874 227.93637 31.70625 227.93637Q32.346874 227.93637 32.846874 227.74887Q33.346874 227.54575 33.58125 227.21762Q33.83125 226.87387 33.83125 226.48325Q33.83125 226.077 33.596874 225.78012Q33.3625 225.46762 32.83125 225.2645Q32.471874 225.12387 31.284374 224.84262Q30.1125 224.56137 29.64375 224.31137Q29.01875 223.98325 28.721874 223.5145Q28.425 223.03012 28.425 222.43637Q28.425 221.79575 28.784374 221.23325Q29.159374 220.65512 29.8625 220.37387Q30.58125 220.077 31.440624 220.077Q32.39375 220.077 33.128124 220.3895Q33.8625 220.68637 34.253124 221.29575Q34.64375 221.8895 34.675 222.6395L33.58125 222.71762Q33.4875 221.90512 32.971874 221.49887Q32.471874 221.077 31.4875 221.077Q30.45625 221.077 29.9875 221.452Q29.51875 221.827 29.51875 222.35825Q29.51875 222.827 29.846874 223.12387Q30.175 223.42075 31.55 223.73325Q32.940624 224.04575 33.45625 224.28012Q34.20625 224.6395 34.565624 225.17075Q34.925 225.68637 34.925 226.3895Q34.925 227.077 34.534374 227.68637Q34.14375 228.28012 33.409374 228.62387Q32.675 228.952 31.753124 228.952Q30.58125 228.952 29.784374 228.62387Q29.003124 228.28012 28.55 227.59262Q28.1125 226.90512 28.096874 226.04575ZM39.425 228.81137L39.425 226.74887L35.70625 226.74887L35.70625 225.78012L39.628124 220.21762L40.4875 220.21762L40.4875 225.78012L41.64375 225.78012L41.64375 226.74887L40.4875 226.74887L40.4875 228.81137L39.425 228.81137ZM39.425 225.78012L39.425 221.92075L36.7375 225.78012L39.425 225.78012Z" fill-rule="nonzero"/><path fill="#000000" d="M29.925 265.68564L26.596874 257.0919L27.83125 257.0919L30.065624 263.3419Q30.33125 264.0919 30.51875 264.74814Q30.721874 264.045 30.9875 263.3419L33.3 257.0919L34.45625 257.0919L31.096874 265.68564L29.925 265.68564ZM34.4875 265.68564L34.4875 257.0919L38.3 257.0919Q39.45625 257.0919 40.05 257.32626Q40.64375 257.56064 41.003124 258.1544Q41.3625 258.7325 41.3625 259.43564Q41.3625 260.3575 40.76875 260.9825Q40.175 261.6075 38.940624 261.7794Q39.39375 261.99814 39.628124 262.20126Q40.128124 262.6544 40.565624 263.3419L42.065624 265.68564L40.628124 265.68564L39.503124 263.9044Q39.003124 263.12314 38.675 262.7169Q38.3625 262.31064 38.096874 262.1544Q37.846874 261.9825 37.58125 261.9044Q37.39375 261.87314 36.95625 261.87314L35.628124 261.87314L35.628124 265.68564L34.4875 265.68564ZM35.628124 260.88876L38.08125 260.88876Q38.846874 260.88876 39.284374 260.7325Q39.7375 260.56064 39.95625 260.2169Q40.190624 259.8575 40.190624 259.43564Q40.190624 258.82626 39.7375 258.43564Q39.3 258.045 38.346874 258.045L35.628124 258.045L35.628124 260.88876Z" fill-rule="nonzero"/><path fill="#000000" d="M20.471874 302.55988L20.471874 293.96613L23.721874 293.96613Q24.565624 293.96613 25.01875 294.04425Q25.659374 294.15363 26.08125 294.4505Q26.51875 294.74738 26.76875 295.27863Q27.034374 295.80988 27.034374 296.4505Q27.034374 297.54425 26.33125 298.30988Q25.64375 299.05988 23.815624 299.05988L21.6125 299.05988L21.6125 302.55988L20.471874 302.55988ZM21.6125 298.05988L23.83125 298.05988Q24.940624 298.05988 25.39375 297.65363Q25.8625 297.23175 25.8625 296.48175Q25.8625 295.9505 25.58125 295.5755Q25.315624 295.18488 24.878124 295.05988Q24.58125 294.98175 23.815624 294.98175L21.6125 294.98175L21.6125 298.05988ZM28.096874 299.79425L29.159374 299.7005Q29.2375 300.35675 29.51875 300.763Q29.8 301.16925 30.378124 301.43488Q30.971874 301.68488 31.70625 301.68488Q32.346874 301.68488 32.846874 301.49738Q33.346874 301.29425 33.58125 300.96613Q33.83125 300.62238 33.83125 300.23175Q33.83125 299.8255 33.596874 299.52863Q33.3625 299.21613 32.83125 299.013Q32.471874 298.87238 31.284374 298.59113Q30.1125 298.30988 29.64375 298.05988Q29.01875 297.73175 28.721874 297.263Q28.425 296.77863 28.425 296.18488Q28.425 295.54425 28.784374 294.98175Q29.159374 294.40363 29.8625 294.12238Q30.58125 293.8255 31.440624 293.8255Q32.39375 293.8255 33.128124 294.138Q33.8625 294.43488 34.253124 295.04425Q34.64375 295.638 34.675 296.388L33.58125 296.46613Q33.4875 295.65363 32.971874 295.24738Q32.471874 294.8255 31.4875 294.8255Q30.45625 294.8255 29.9875 295.2005Q29.51875 295.5755 29.51875 296.10675Q29.51875 296.5755 29.846874 296.87238Q30.175 297.16925 31.55 297.48175Q32.940624 297.79425 33.45625 298.02863Q34.20625 298.388 34.565624 298.91925Q34.925 299.43488 34.925 300.138Q34.925 300.8255 34.534374 301.43488Q34.14375 302.02863 33.409374 302.37238Q32.675 302.7005 31.753124 302.7005Q30.58125 302.7005 29.784374 302.37238Q29.003124 302.02863 28.55 301.34113Q28.1125 300.65363 28.096874 299.79425ZM36.05 300.30988L37.159374 300.21613Q37.284374 301.02863 37.721874 301.43488Q38.175 301.84113 38.815624 301.84113Q39.565624 301.84113 40.096874 301.263Q40.628124 300.68488 40.628124 299.74738Q40.628124 298.84113 40.1125 298.3255Q39.6125 297.79425 38.784374 297.79425Q38.284374 297.79425 37.8625 298.02863Q37.45625 298.263 37.221874 298.62238L36.2375 298.49738L37.065624 294.09113L41.346874 294.09113L41.346874 295.09113L37.909374 295.09113L37.45625 297.40363Q38.221874 296.85675 39.065624 296.85675Q40.190624 296.85675 40.95625 297.638Q41.7375 298.41925 41.7375 299.65363Q41.7375 300.80988 41.065624 301.66925Q40.2375 302.7005 38.815624 302.7005Q37.64375 302.7005 36.89375 302.04425Q36.159374 301.388 36.05 300.30988Z" fill-rule="nonzero"/><path fill="#000000" d="M62.55 345.21564Q62.55 343.6844 62.8625 342.7625Q63.175 341.825 63.784374 341.325Q64.40938 340.825 65.34688 340.825Q66.03438 340.825 66.55 341.10626Q67.08125 341.3875 67.425 341.91876Q67.76875 342.4344 67.95625 343.1844Q68.14375 343.9344 68.14375 345.21564Q68.14375 346.73126 67.83125 347.65314Q67.53438 348.575 66.90938 349.09064Q66.3 349.59064 65.34688 349.59064Q64.1125 349.59064 63.39375 348.7Q62.55 347.6375 62.55 345.21564ZM63.628124 345.21564Q63.628124 347.325 64.12813 348.02814Q64.62813 348.73126 65.34688 348.73126Q66.08125 348.73126 66.56563 348.02814Q67.06563 347.325 67.06563 345.21564Q67.06563 343.09064 66.56563 342.40314Q66.08125 341.7 65.33125 341.7Q64.6125 341.7 64.175 342.3094Q63.628124 343.09064 63.628124 345.21564Z" fill-rule="nonzero"/><path fill="#000000" d="M162.69875 349.45L161.65187 349.45L161.65187 342.73126Q161.26125 343.09064 160.63625 343.46564Q160.02687 343.825 159.5425 343.9969L159.5425 342.98126Q160.4175 342.5594 161.07375 341.98126Q161.74562 341.3875 162.02687 340.825L162.69875 340.825L162.69875 349.45ZM165.73 345.21564Q165.73 343.6844 166.0425 342.7625Q166.355 341.825 166.96437 341.325Q167.58937 340.825 168.52687 340.825Q169.21437 340.825 169.73 341.10626Q170.26125 341.3875 170.605 341.91876Q170.94875 342.4344 171.13625 343.1844Q171.32375 343.9344 171.32375 345.21564Q171.32375 346.73126 171.01125 347.65314Q170.71437 348.575 170.08937 349.09064Q169.48 349.59064 168.52687 349.59064Q167.2925 349.59064 166.57375 348.7Q165.73 347.6375 165.73 345.21564ZM166.80812 345.21564Q166.80812 347.325 167.30812 348.02814Q167.80812 348.73126 168.52687 348.73126Q169.26125 348.73126 169.74562 348.02814Q170.24562 347.325 170.24562 345.21564Q170.24562 343.09064 169.74562 342.40314Q169.26125 341.7 168.51125 341.7Q167.7925 341.7 167.355 342.3094Q166.80812 343.09064 166.80812 345.21564ZM172.73 345.21564Q172.73 343.6844 173.0425 342.7625Q173.355 341.825 173.96437 341.325Q174.58937 340.825 175.52687 340.825Q176.21437 340.825 176.73 341.10626Q177.26125 341.3875 177.605 341.91876Q177.94875 342.4344 178.13625 343.1844Q178.32375 343.9344 178.32375 345.21564Q178.32375 346.73126 178.01125 347.65314Q177.71437 348.575 177.08937 349.09064Q176.48 349.59064 175.52687 349.59064Q174.2925 349.59064 173.57375 348.7Q172.73 347.6375 172.73 345.21564ZM173.80812 345.21564Q173.80812 347.325 174.30812 348.02814Q174.80812 348.73126 175.52687 348.73126Q176.26125 348.73126 176.74562 348.02814Q177.24562 347.325 177.24562 345.21564Q177.24562 343.09064 176.74562 342.40314Q176.26125 341.7 175.51125 341.7Q174.7925 341.7 174.355 342.3094Q173.80812 343.09064 173.80812 345.21564Z" fill-rule="nonzero"/><path fill="#000000" d="M267.45688 348.4344L267.45688 349.45L261.76938 349.45Q261.76938 349.075 261.89438 348.71564Q262.11313 348.1375 262.58188 347.575Q263.06625 347.0125 263.9725 346.27814Q265.37875 345.1219 265.86313 344.45Q266.36313 343.77814 266.36313 343.1844Q266.36313 342.5594 265.91 342.1375Q265.45688 341.7 264.73813 341.7Q263.9725 341.7 263.51938 342.15314Q263.06625 342.60626 263.05063 343.41876L261.9725 343.3094Q262.08188 342.09064 262.80063 341.46564Q263.535 340.825 264.76938 340.825Q266.00375 340.825 266.7225 341.5125Q267.44125 342.2 267.44125 343.21564Q267.44125 343.73126 267.2225 344.23126Q267.01938 344.71564 266.51938 345.27814Q266.035 345.825 264.91 346.77814Q263.95688 347.575 263.67563 347.8719Q263.41 348.15314 263.23813 348.4344L267.45688 348.4344ZM268.91 345.21564Q268.91 343.6844 269.2225 342.7625Q269.535 341.825 270.14438 341.325Q270.76938 340.825 271.70688 340.825Q272.39438 340.825 272.91 341.10626Q273.44125 341.3875 273.785 341.91876Q274.12875 342.4344 274.31625 343.1844Q274.50375 343.9344 274.50375 345.21564Q274.50375 346.73126 274.19125 347.65314Q273.89438 348.575 273.26938 349.09064Q272.66 349.59064 271.70688 349.59064Q270.4725 349.59064 269.75375 348.7Q268.91 347.6375 268.91 345.21564ZM269.98813 345.21564Q269.98813 347.325 270.48813 348.02814Q270.98813 348.73126 271.70688 348.73126Q272.44125 348.73126 272.92563 348.02814Q273.42563 347.325 273.42563 345.21564Q273.42563 343.09064 272.92563 342.40314Q272.44125 341.7 271.69125 341.7Q270.9725 341.7 270.535 342.3094Q269.98813 343.09064 269.98813 345.21564ZM275.91 345.21564Q275.91 343.6844 276.2225 342.7625Q276.535 341.825 277.14438 341.325Q277.76938 340.825 278.70688 340.825Q279.39438 340.825 279.91 341.10626Q280.44125 341.3875 280.785 341.91876Q281.12875 342.4344 281.31625 343.1844Q281.50375 343.9344 281.50375 345.21564Q281.50375 346.73126 281.19125 347.65314Q280.89438 348.575 280.26938 349.09064Q279.66 349.59064 278.70688 349.59064Q277.4725 349.59064 276.75375 348.7Q275.91 347.6375 275.91 345.21564ZM276.98813 345.21564Q276.98813 347.325 277.48813 348.02814Q277.98813 348.73126 278.70688 348.73126Q279.44125 348.73126 279.92563 348.02814Q280.42563 347.325 280.42563 345.21564Q280.42563 343.09064 279.92563 342.40314Q279.44125 341.7 278.69125 341.7Q277.9725 341.7 277.535 342.3094Q276.98813 343.09064 276.98813 345.21564Z" fill-rule="nonzero"/><path fill="#000000" d="M365.09 347.1844L366.1525 347.04376Q366.32437 347.9344 366.76187 348.34064Q367.19937 348.73126 367.82437 348.73126Q368.57437 348.73126 369.09 348.21564Q369.60562 347.7 369.60562 346.9344Q369.60562 346.21564 369.12125 345.7469Q368.6525 345.2625 367.91812 345.2625Q367.62125 345.2625 367.16812 345.3875L367.29312 344.45Q367.4025 344.46564 367.465 344.46564Q368.13687 344.46564 368.66812 344.1219Q369.215 343.7625 369.215 343.02814Q369.215 342.45 368.82437 342.075Q368.43375 341.6844 367.80875 341.6844Q367.19937 341.6844 366.7775 342.075Q366.37125 342.46564 366.26187 343.23126L365.19937 343.04376Q365.38687 341.9969 366.07437 341.41876Q366.76187 340.825 367.7775 340.825Q368.48062 340.825 369.07437 341.1375Q369.66812 341.4344 369.98062 341.95Q370.29312 342.46564 370.29312 343.0594Q370.29312 343.60626 369.99625 344.075Q369.69937 344.52814 369.12125 344.79376Q369.87125 344.96564 370.29312 345.52814Q370.715 346.075 370.715 346.91876Q370.715 348.04376 369.88687 348.825Q369.07437 349.60626 367.82437 349.60626Q366.69937 349.60626 365.94937 348.9344Q365.19937 348.2469 365.09 347.1844ZM372.09 345.21564Q372.09 343.6844 372.4025 342.7625Q372.715 341.825 373.32437 341.325Q373.94937 340.825 374.88687 340.825Q375.57437 340.825 376.09 341.10626Q376.62125 341.3875 376.965 341.91876Q377.30875 342.4344 377.49625 343.1844Q377.68375 343.9344 377.68375 345.21564Q377.68375 346.73126 377.37125 347.65314Q377.07437 348.575 376.44937 349.09064Q375.84 349.59064 374.88687 349.59064Q373.6525 349.59064 372.93375 348.7Q372.09 347.6375 372.09 345.21564ZM373.16812 345.21564Q373.16812 347.325 373.66812 348.02814Q374.16812 348.73126 374.88687 348.73126Q375.62125 348.73126 376.10562 348.02814Q376.60562 347.325 376.60562 345.21564Q376.60562 343.09064 376.10562 342.40314Q375.62125 341.7 374.87125 341.7Q374.1525 341.7 373.715 342.3094Q373.16812 343.09064 373.16812 345.21564ZM379.09 345.21564Q379.09 343.6844 379.4025 342.7625Q379.715 341.825 380.32437 341.325Q380.94937 340.825 381.88687 340.825Q382.57437 340.825 383.09 341.10626Q383.62125 341.3875 383.965 341.91876Q384.30875 342.4344 384.49625 343.1844Q384.68375 343.9344 384.68375 345.21564Q384.68375 346.73126 384.37125 347.65314Q384.07437 348.575 383.44937 349.09064Q382.84 349.59064 381.88687 349.59064Q380.6525 349.59064 379.93375 348.7Q379.09 347.6375 379.09 345.21564ZM380.16812 345.21564Q380.16812 347.325 380.66812 348.02814Q381.16812 348.73126 381.88687 348.73126Q382.62125 348.73126 383.10562 348.02814Q383.60562 347.325 383.60562 345.21564Q383.60562 343.09064 383.10562 342.40314Q382.62125 341.7 381.87125 341.7Q381.1525 341.7 380.715 342.3094Q380.16812 343.09064 380.16812 345.21564Z" fill-rule="nonzero"/><path fill="#000000" d="M471.645 349.45L471.645 347.3875L467.92624 347.3875L467.92624 346.41876L471.8481 340.85626L472.7075 340.85626L472.7075 346.41876L473.86374 346.41876L473.86374 347.3875L472.7075 347.3875L472.7075 349.45L471.645 349.45ZM471.645 346.41876L471.645 342.5594L468.9575 346.41876L471.645 346.41876ZM475.27 345.21564Q475.27 343.6844 475.5825 342.7625Q475.895 341.825 476.50436 341.325Q477.12936 340.825 478.06686 340.825Q478.75436 340.825 479.27 341.10626Q479.80124 341.3875 480.145 341.91876Q480.48874 342.4344 480.67624 343.1844Q480.86374 343.9344 480.86374 345.21564Q480.86374 346.73126 480.55124 347.65314Q480.25436 348.575 479.62936 349.09064Q479.02 349.59064 478.06686 349.59064Q476.8325 349.59064 476.11374 348.7Q475.27 347.6375 475.27 345.21564ZM476.3481 345.21564Q476.3481 347.325 476.8481 348.02814Q477.3481 348.73126 478.06686 348.73126Q478.80124 348.73126 479.2856 348.02814Q479.7856 347.325 479.7856 345.21564Q479.7856 343.09064 479.2856 342.40314Q478.80124 341.7 478.05124 341.7Q477.3325 341.7 476.895 342.3094Q476.3481 343.09064 476.3481 345.21564ZM482.27 345.21564Q482.27 343.6844 482.5825 342.7625Q482.895 341.825 483.50436 341.325Q484.12936 340.825 485.06686 340.825Q485.75436 340.825 486.27 341.10626Q486.80124 341.3875 487.145 341.91876Q487.48874 342.4344 487.67624 343.1844Q487.86374 343.9344 487.86374 345.21564Q487.86374 346.73126 487.55124 347.65314Q487.25436 348.575 486.62936 349.09064Q486.02 349.59064 485.06686 349.59064Q483.8325 349.59064 483.11374 348.7Q482.27 347.6375 482.27 345.21564ZM483.3481 345.21564Q483.3481 347.325 483.8481 348.02814Q484.3481 348.73126 485.06686 348.73126Q485.80124 348.73126 486.2856 348.02814Q486.7856 347.325 486.7856 345.21564Q486.7856 343.09064 486.2856 342.40314Q485.80124 341.7 485.05124 341.7Q484.3325 341.7 483.895 342.3094Q483.3481 343.09064 483.3481 345.21564Z" fill-rule="nonzero"/><path fill="#000000" d="M571.45 347.2L572.5594 347.10626Q572.6844 347.91876 573.1219 348.325Q573.575 348.73126 574.21564 348.73126Q574.96564 348.73126 575.4969 348.15314Q576.02814 347.575 576.02814 346.6375Q576.02814 345.73126 575.5125 345.21564Q575.0125 344.6844 574.1844 344.6844Q573.6844 344.6844 573.2625 344.91876Q572.85626 345.15314 572.6219 345.5125L571.6375 345.3875L572.46564 340.98126L576.7469 340.98126L576.7469 341.98126L573.3094 341.98126L572.85626 344.29376Q573.6219 343.7469 574.46564 343.7469Q575.59064 343.7469 576.35626 344.52814Q577.1375 345.3094 577.1375 346.54376Q577.1375 347.7 576.46564 348.5594Q575.6375 349.59064 574.21564 349.59064Q573.04376 349.59064 572.29376 348.9344Q571.5594 348.27814 571.45 347.2ZM578.45 345.21564Q578.45 343.6844 578.7625 342.7625Q579.075 341.825 579.6844 341.325Q580.3094 340.825 581.2469 340.825Q581.9344 340.825 582.45 341.10626Q582.98126 341.3875 583.325 341.91876Q583.66876 342.4344 583.85626 343.1844Q584.04376 343.9344 584.04376 345.21564Q584.04376 346.73126 583.73126 347.65314Q583.4344 348.575 582.8094 349.09064Q582.2 349.59064 581.2469 349.59064Q580.0125 349.59064 579.29376 348.7Q578.45 347.6375 578.45 345.21564ZM579.52814 345.21564Q579.52814 347.325 580.02814 348.02814Q580.52814 348.73126 581.2469 348.73126Q581.98126 348.73126 582.46564 348.02814Q582.96564 347.325 582.96564 345.21564Q582.96564 343.09064 582.46564 342.40314Q581.98126 341.7 581.23126 341.7Q580.5125 341.7 580.075 342.3094Q579.52814 343.09064 579.52814 345.21564ZM585.45 345.21564Q585.45 343.6844 585.7625 342.7625Q586.075 341.825 586.6844 341.325Q587.3094 340.825 588.2469 340.825Q588.9344 340.825 589.45 341.10626Q589.98126 341.3875 590.325 341.91876Q590.66876 342.4344 590.85626 343.1844Q591.04376 343.9344 591.04376 345.21564Q591.04376 346.73126 590.73126 347.65314Q590.4344 348.575 589.8094 349.09064Q589.2 349.59064 588.2469 349.59064Q587.0125 349.59064 586.29376 348.7Q585.45 347.6375 585.45 345.21564ZM586.52814 345.21564Q586.52814 347.325 587.02814 348.02814Q587.52814 348.73126 588.2469 348.73126Q588.98126 348.73126 589.46564 348.02814Q589.96564 347.325 589.96564 345.21564Q589.96564 343.09064 589.46564 342.40314Q588.98126 341.7 588.23126 341.7Q587.5125 341.7 587.075 342.3094Q586.52814 343.09064 586.52814 345.21564Z" fill-rule="nonzero"/></svg>