<svg version="1.1" viewBox="0.0 0.0 600.0 371.0" fill="none" stroke="none" stroke-linecap="square" stroke-miterlimit="10" width="600" height="371" xmlns:xlink="http://www.w3.org/1999/xlink" xmlns="http://www.w3.org/2000/svg"><path fill="#ffffff" d="M0 0L600.0 0L600.0 371.0L0 371.0L0 0Z" fill-rule="nonzero"/><path fill="#d9d9d9" d="M300.0 56.11375C325.76483 56.11375 351.18002 60.288025 374.256 68.3098L300.0 172.97874Z" fill-rule="nonzero"/><path fill="#000000" d="M374.256 68.3098C395.80167 75.79958 414.78052 86.46025 429.89307 99.56182L300.0 172.97874Z" fill-rule="nonzero"/><path fill="#666666" d="M429.89307 99.56182C435.62106 104.52762 440.7583 109.813545 445.25323 115.36657L300.0 172.97874Z" fill-rule="nonzero"/><path fill="#8f0000" d="M466.95 198.02126C466.95 236.8325 439.42422 273.1117 393.4878 294.84503L393.4878 269.80252C439.42422 248.0692 466.95 211.79001 466.95 172.97874Z" fill-rule="nonzero"/><path fill="#cc0000" d="M445.25323 115.36657C488.19406 168.41566 465.65472 235.6591 393.4878 269.80252L300.0 172.97874Z" fill-rule="nonzero"/><path fill="#b34c01" d="M393.4878 294.84503C373.8399 304.14078 351.58832 310.39978 328.2147 313.20526L328.2147 288.16275C351.58832 285.3573 373.8399 279.0983 393.4878 269.80252Z" fill-rule="nonzero"/><path fill="#ff6d01" d="M393.4878 269.80252C373.8399 279.0983 351.58832 285.3573 328.2147 288.16275L300.0 172.97874Z" fill-rule="nonzero"/><path fill="#f3f3f3" d="M277.79044 57.152462C285.15237 56.46076 292.57205 56.11375 300.0 56.11375L300.0 172.97874Z" fill-rule="nonzero"/><path fill="#ff00ff" d="M211.60632 73.83824C231.72433 65.049 254.28648 59.360825 277.79044 57.152462L300.0 172.97874Z" fill-rule="nonzero"/><path fill="#345ea2" d="M328.2147 313.20526C279.711 319.027 230.00879 309.5726 192.38527 287.3676C154.76175 265.16263 133.05 232.46933 133.05 198.02126L133.05 172.97874C133.05 207.42683 154.76175 240.12013 192.38527 262.3251C230.00879 284.5301 279.711 293.9845 328.2147 288.16275Z" fill-rule="nonzero"/><path fill="#4a86e8" d="M328.2147 288.16275C249.57205 297.602 172.38048 266.76846 143.98206 214.57254C115.58361 162.37662 143.91748 103.41041 211.60632 73.83824L300.0 172.97874Z" fill-rule="nonzero"/><path fill="#1a1a1a" d="M19.471874 45.364525L19.471874 36.770775L22.721874 36.770775Q23.565624 36.770775 24.01875 36.8489Q24.659374 36.958275 25.08125 37.25515Q25.51875 37.552025 25.76875 38.083275Q26.034374 38.614525 26.034374 39.25515Q26.034374 40.3489 25.33125 41.114525Q24.64375 41.864525 22.815624 41.864525L20.6125 41.864525L20.6125 45.364525L19.471874 45.364525ZM20.6125 40.864525L22.83125 40.864525Q23.940624 40.864525 24.39375 40.458275Q24.8625 40.0364 24.8625 39.2864Q24.8625 38.75515 24.58125 38.38015Q24.315624 37.989525 23.878124 37.864525Q23.58125 37.7864 22.815624 37.7864L20.6125 37.7864L20.6125 40.864525ZM27.096874 42.5989L28.159374 42.50515Q28.2375 43.1614 28.51875 43.56765Q28.8 43.9739 29.378124 44.239525Q29.971874 44.489525 30.70625 44.489525Q31.346874 44.489525 31.846874 44.302025Q32.346874 44.0989 32.58125 43.770775Q32.83125 43.427025 32.83125 43.0364Q32.83125 42.63015 32.596874 42.333275Q32.3625 42.020775 31.83125 41.81765Q31.471874 41.677025 30.284374 41.395775Q29.1125 41.114525 28.64375 40.864525Q28.01875 40.5364 27.721874 40.06765Q27.425 39.583275 27.425 38.989525Q27.425 38.3489 27.784374 37.7864Q28.159374 37.208275 28.8625 36.927025Q29.58125 36.63015 30.440624 36.63015Q31.39375 36.63015 32.128124 36.94265Q32.8625 37.239525 33.253124 37.8489Q33.64375 38.44265 33.675 39.19265L32.58125 39.270775Q32.4875 38.458275 31.971874 38.052025Q31.471874 37.63015 30.4875 37.63015Q29.45625 37.63015 28.9875 38.00515Q28.51875 38.38015 28.51875 38.9114Q28.51875 39.38015 28.846874 39.677025Q29.175 39.9739 30.55 40.2864Q31.940624 40.5989 32.45625 40.833275Q33.20625 41.19265 33.565624 41.7239Q33.925 42.239525 33.925 42.94265Q33.925 43.63015 33.534374 44.239525Q33.14375 44.833275 32.409374 45.177025Q31.675 45.50515 30.753124 45.50515Q29.58125 45.50515 28.784374 45.177025Q28.003124 44.833275 27.55 44.145775Q27.1125 43.458275 27.096874 42.5989ZM35.05 43.114525L36.159374 43.020775Q36.284374 43.833275 36.721874 44.239525Q37.175 44.645775 37.815624 44.645775Q38.565624 44.645775 39.096874 44.06765Q39.628124 43.489525 39.628124 42.552025Q39.628124 41.645775 39.1125 41.13015Q38.6125 40.5989 37.784374 40.5989Q37.284374 40.5989 36.8625 40.833275Q36.45625 41.06765 36.221874 41.427025L35.2375 41.302025L36.065624 36.895775L40.346874 36.895775L40.346874 37.895775L36.909374 37.895775L36.45625 40.208275Q37.221874 39.6614 38.065624 39.6614Q39.190624 39.6614 39.95625 40.44265Q40.7375 41.2239 40.7375 42.458275Q40.7375 43.614525 40.065624 44.4739Q39.2375 45.50515 37.815624 45.50515Q36.64375 45.50515 35.89375 44.8489Q35.159374 44.19265 35.05 43.114525Z" fill-rule="nonzero"/><path fill="#9e9e9e" d="M24.596874 61.3489L24.596874 62.364525L18.909374 62.364525Q18.909374 61.989525 19.034374 61.63015Q19.253124 61.052025 19.721874 60.489525Q20.20625 59.927025 21.1125 59.19265Q22.51875 58.0364 23.003124 57.364525Q23.503124 56.69265 23.503124 56.0989Q23.503124 55.4739 23.05 55.052025Q22.596874 54.614525 21.878124 54.614525Q21.1125 54.614525 20.659374 55.06765Q20.20625 55.520775 20.190624 56.333275L19.1125 56.2239Q19.221874 55.00515 19.940624 54.38015Q20.675 53.739525 21.909374 53.739525Q23.14375 53.739525 23.8625 54.427025Q24.58125 55.114525 24.58125 56.13015Q24.58125 56.645775 24.3625 57.145775Q24.159374 57.63015 23.659374 58.19265Q23.175 58.739525 22.05 59.69265Q21.096874 60.489525 20.815624 60.7864Q20.55 61.06765 20.378124 61.3489L24.596874 61.3489ZM26.64375 62.364525L26.64375 61.1614L27.846874 61.1614L27.846874 62.364525L26.64375 62.364525ZM33.01875 62.364525L31.971874 62.364525L31.971874 55.645775Q31.58125 56.00515 30.95625 56.38015Q30.346874 56.739525 29.8625 56.9114L29.8625 55.895775Q30.7375 55.4739 31.39375 54.895775Q32.065624 54.302025 32.346874 53.739525L33.01875 53.739525L33.01875 62.364525ZM36.253124 55.833275Q36.253124 54.9114 36.70625 54.270775Q37.175 53.63015 38.05 53.63015Q38.8625 53.63015 39.39375 54.208275Q39.925 54.7864 39.925 55.895775Q39.925 56.989525 39.378124 57.583275Q38.846874 58.1614 38.065624 58.1614Q37.284374 58.1614 36.76875 57.583275Q36.253124 57.00515 36.253124 55.833275ZM38.08125 54.3489Q37.690624 54.3489 37.425 54.69265Q37.175 55.0364 37.175 55.94265Q37.175 56.770775 37.425 57.114525Q37.690624 57.44265 38.08125 57.44265Q38.4875 57.44265 38.7375 57.0989Q39.003124 56.75515 39.003124 55.864525Q39.003124 55.020775 38.7375 54.69265Q38.471874 54.3489 38.08125 54.3489ZM38.08125 62.677025L42.784374 53.63015L43.64375 53.63015L38.95625 62.677025L38.08125 62.677025ZM41.8 60.3489Q41.8 59.427025 42.253124 58.7864Q42.721874 58.145775 43.6125 58.145775Q44.425 58.145775 44.95625 58.7239Q45.4875 59.2864 45.4875 60.4114Q45.4875 61.50515 44.940624 62.0989Q44.409374 62.677025 43.6125 62.677025Q42.846874 62.677025 42.315624 62.0989Q41.8 61.520775 41.8 60.3489ZM43.64375 58.864525Q43.2375 58.864525 42.971874 59.208275Q42.721874 59.552025 42.721874 60.458275Q42.721874 61.270775 42.9875 61.614525Q43.253124 61.958275 43.64375 61.958275Q44.034374 61.958275 44.3 61.614525Q44.565624 61.270775 44.565624 60.364525Q44.565624 59.5364 44.3 59.208275Q44.034374 58.864525 43.64375 58.864525Z" fill-rule="nonzero"/><path stroke="#757575" stroke-width="1.0" stroke-linecap="butt" d="M18.55 49.864525L127.05 49.864525L289.42694 62.203968" fill-rule="nonzero"/><path fill="#9e9e9e" d="M291.42694 62.203968C291.42694 61.0994 290.53152 60.203968 289.42694 60.203968C288.32236 60.203968 287.42694 61.0994 287.42694 62.203968C287.42694 63.30854 288.32236 64.20397 289.42694 64.20397C290.53152 64.20397 291.42694 63.30854 291.42694 62.203968" fill-rule="nonzero"/><path fill="#1a1a1a" d="M21.925 76.364525L18.596874 67.770775L19.83125 67.770775L22.065624 74.020775Q22.33125 74.770775 22.51875 75.427025Q22.721874 74.7239 22.9875 74.020775L25.3 67.770775L26.45625 67.770775L23.096874 76.364525L21.925 76.364525ZM26.4875 76.364525L26.4875 67.770775L30.3 67.770775Q31.45625 67.770775 32.05 68.00515Q32.64375 68.239525 33.003124 68.833275Q33.3625 69.4114 33.3625 70.114525Q33.3625 71.0364 32.76875 71.6614Q32.175 72.2864 30.940624 72.458275Q31.39375 72.677025 31.628124 72.88015Q32.128124 73.333275 32.565624 74.020775L34.065624 76.364525L32.628124 76.364525L31.503124 74.583275Q31.003124 73.802025 30.675 73.395775Q30.3625 72.989525 30.096874 72.833275Q29.846874 72.6614 29.58125 72.583275Q29.39375 72.552025 28.95625 72.552025L27.628124 72.552025L27.628124 76.364525L26.4875 76.364525ZM27.628124 71.56765L30.08125 71.56765Q30.846874 71.56765 31.284374 71.4114Q31.7375 71.239525 31.95625 70.895775Q32.190624 70.5364 32.190624 70.114525Q32.190624 69.50515 31.7375 69.114525Q31.3 68.7239 30.346874 68.7239L27.628124 68.7239L27.628124 71.56765Z" fill-rule="nonzero"/><path fill="#9e9e9e" d="M24.51875 86.88015L23.471874 86.958275Q23.33125 86.333275 23.08125 86.052025Q22.64375 85.5989 22.01875 85.5989Q21.51875 85.5989 21.128124 85.88015Q20.64375 86.25515 20.346874 86.958275Q20.065624 87.645775 20.05 88.927025Q20.425 88.3489 20.971874 88.06765Q21.534374 87.7864 22.14375 87.7864Q23.190624 87.7864 23.925 88.56765Q24.675 89.3489 24.675 90.56765Q24.675 91.38015 24.315624 92.083275Q23.971874 92.770775 23.3625 93.145775Q22.753124 93.50515 21.9875 93.50515Q20.659374 93.50515 19.83125 92.5364Q19.003124 91.56765 19.003124 89.3489Q19.003124 86.8489 19.925 85.7239Q20.721874 84.739525 22.08125 84.739525Q23.096874 84.739525 23.7375 85.31765Q24.39375 85.88015 24.51875 86.88015ZM20.221874 90.583275Q20.221874 91.13015 20.440624 91.63015Q20.675 92.114525 21.08125 92.38015Q21.503124 92.645775 21.971874 92.645775Q22.628124 92.645775 23.1125 92.114525Q23.596874 91.56765 23.596874 90.645775Q23.596874 89.75515 23.1125 89.239525Q22.64375 88.7239 21.925 88.7239Q21.20625 88.7239 20.70625 89.239525Q20.221874 89.75515 20.221874 90.583275ZM26.64375 93.364525L26.64375 92.1614L27.846874 92.1614L27.846874 93.364525L26.64375 93.364525ZM30.675 88.708275Q30.01875 88.458275 29.690624 88.020775Q29.378124 87.56765 29.378124 86.958275Q29.378124 86.020775 30.05 85.38015Q30.7375 84.739525 31.846874 84.739525Q32.971874 84.739525 33.659374 85.395775Q34.346874 86.052025 34.346874 86.989525Q34.346874 87.583275 34.034374 88.020775Q33.721874 88.458275 33.08125 88.708275Q33.878124 88.958275 34.284374 89.5364Q34.690624 90.114525 34.690624 90.9114Q34.690624 92.00515 33.909374 92.75515Q33.14375 93.50515 31.8625 93.50515Q30.596874 93.50515 29.815624 92.75515Q29.034374 92.00515 29.034374 90.88015Q29.034374 90.0364 29.45625 89.4739Q29.89375 88.9114 30.675 88.708275ZM30.45625 86.9114Q30.45625 87.520775 30.846874 87.9114Q31.253124 88.302025 31.878124 88.302025Q32.4875 88.302025 32.878124 87.927025Q33.26875 87.5364 33.26875 86.9739Q33.26875 86.395775 32.8625 86.00515Q32.45625 85.5989 31.8625 85.5989Q31.253124 85.5989 30.846874 85.989525Q30.45625 86.38015 30.45625 86.9114ZM30.128124 90.88015Q30.128124 91.333275 30.33125 91.75515Q30.55 92.177025 30.971874 92.4114Q31.39375 92.645775 31.878124 92.645775Q32.628124 92.645775 33.1125 92.1614Q33.6125 91.677025 33.6125 90.927025Q33.6125 90.1614 33.1125 89.6614Q32.6125 89.1614 31.846874 89.1614Q31.096874 89.1614 30.6125 89.6614Q30.128124 90.145775 30.128124 90.88015ZM36.253124 86.833275Q36.253124 85.9114 36.70625 85.270775Q37.175 84.63015 38.05 84.63015Q38.8625 84.63015 39.39375 85.208275Q39.925 85.7864 39.925 86.895775Q39.925 87.989525 39.378124 88.583275Q38.846874 89.1614 38.065624 89.1614Q37.284374 89.1614 36.76875 88.583275Q36.253124 88.00515 36.253124 86.833275ZM38.08125 85.3489Q37.690624 85.3489 37.425 85.69265Q37.175 86.0364 37.175 86.94265Q37.175 87.770775 37.425 88.114525Q37.690624 88.44265 38.08125 88.44265Q38.4875 88.44265 38.7375 88.0989Q39.003124 87.75515 39.003124 86.864525Q39.003124 86.020775 38.7375 85.69265Q38.471874 85.3489 38.08125 85.3489ZM38.08125 93.677025L42.784374 84.63015L43.64375 84.63015L38.95625 93.677025L38.08125 93.677025ZM41.8 91.3489Q41.8 90.427025 42.253124 89.7864Q42.721874 89.145775 43.6125 89.145775Q44.425 89.145775 44.95625 89.7239Q45.4875 90.2864 45.4875 91.4114Q45.4875 92.50515 44.940624 93.0989Q44.409374 93.677025 43.6125 93.677025Q42.846874 93.677025 42.315624 93.0989Q41.8 92.520775 41.8 91.3489ZM43.64375 89.864525Q43.2375 89.864525 42.971874 90.208275Q42.721874 90.552025 42.721874 91.458275Q42.721874 92.270775 42.9875 92.614525Q43.253124 92.958275 43.64375 92.958275Q44.034374 92.958275 44.3 92.614525Q44.565624 92.270775 44.565624 91.364525Q44.565624 90.5364 44.3 90.208275Q44.034374 89.864525 43.64375 89.864525Z" fill-rule="nonzero"/><path stroke="#757575" stroke-width="1.0" stroke-linecap="butt" d="M18.55 80.864525L127.05 80.864525L246.25722 68.525085" fill-rule="nonzero"/><path fill="#9e9e9e" d="M248.25722 68.525085C248.25722 67.42052 247.36179 66.525085 246.25722 66.525085C245.15265 66.525085 244.25722 67.42052 244.25722 68.525085C244.25722 69.629654 245.15265 70.525085 246.25722 70.525085C247.36179 70.525085 248.25722 69.629654 248.25722 68.525085" fill-rule="nonzero"/><path fill="#1a1a1a" d="M19.471874 207.99286L19.471874 199.39911L22.721874 199.39911Q23.565624 199.39911 24.01875 199.47723Q24.659374 199.58661 25.08125 199.88348Q25.51875 200.18036 25.76875 200.71161Q26.034374 201.24286 26.034374 201.88348Q26.034374 202.97723 25.33125 203.74286Q24.64375 204.49286 22.815624 204.49286L20.6125 204.49286L20.6125 207.99286L19.471874 207.99286ZM20.6125 203.49286L22.83125 203.49286Q23.940624 203.49286 24.39375 203.08661Q24.8625 202.66473 24.8625 201.91473Q24.8625 201.38348 24.58125 201.00848Q24.315624 200.61786 23.878124 200.49286Q23.58125 200.41473 22.815624 200.41473L20.6125 200.41473L20.6125 203.49286ZM27.096874 205.22723L28.159374 205.13348Q28.2375 205.78973 28.51875 206.19598Q28.8 206.60223 29.378124 206.86786Q29.971874 207.11786 30.70625 207.11786Q31.346874 207.11786 31.846874 206.93036Q32.346874 206.72723 32.58125 206.39911Q32.83125 206.05536 32.83125 205.66473Q32.83125 205.25848 32.596874 204.96161Q32.3625 204.64911 31.83125 204.44598Q31.471874 204.30536 30.284374 204.02411Q29.1125 203.74286 28.64375 203.49286Q28.01875 203.16473 27.721874 202.69598Q27.425 202.21161 27.425 201.61786Q27.425 200.97723 27.784374 200.41473Q28.159374 199.83661 28.8625 199.55536Q29.58125 199.25848 30.440624 199.25848Q31.39375 199.25848 32.128124 199.57098Q32.8625 199.86786 33.253124 200.47723Q33.64375 201.07098 33.675 201.82098L32.58125 201.89911Q32.4875 201.08661 31.971874 200.68036Q31.471874 200.25848 30.4875 200.25848Q29.45625 200.25848 28.9875 200.63348Q28.51875 201.00848 28.51875 201.53973Q28.51875 202.00848 28.846874 202.30536Q29.175 202.60223 30.55 202.91473Q31.940624 203.22723 32.45625 203.46161Q33.20625 203.82098 33.565624 204.35223Q33.925 204.86786 33.925 205.57098Q33.925 206.25848 33.534374 206.86786Q33.14375 207.46161 32.409374 207.80536Q31.675 208.13348 30.753124 208.13348Q29.58125 208.13348 28.784374 207.80536Q28.003124 207.46161 27.55 206.77411Q27.1125 206.08661 27.096874 205.22723ZM38.425 207.99286L38.425 205.93036L34.70625 205.93036L34.70625 204.96161L38.628124 199.39911L39.4875 199.39911L39.4875 204.96161L40.64375 204.96161L40.64375 205.93036L39.4875 205.93036L39.4875 207.99286L38.425 207.99286ZM38.425 204.96161L38.425 201.10223L35.7375 204.96161L38.425 204.96161Z" fill-rule="nonzero"/><path fill="#9e9e9e" d="M22.425 224.99286L22.425 222.93036L18.70625 222.93036L18.70625 221.96161L22.628124 216.39911L23.4875 216.39911L23.4875 221.96161L24.64375 221.96161L24.64375 222.93036L23.4875 222.93036L23.4875 224.99286L22.425 224.99286ZM22.425 221.96161L22.425 218.10223L19.7375 221.96161L22.425 221.96161ZM26.05 222.72723L27.1125 222.58661Q27.284374 223.47723 27.721874 223.88348Q28.159374 224.27411 28.784374 224.27411Q29.534374 224.27411 30.05 223.75848Q30.565624 223.24286 30.565624 222.47723Q30.565624 221.75848 30.08125 221.28973Q29.6125 220.80536 28.878124 220.80536Q28.58125 220.80536 28.128124 220.93036L28.253124 219.99286Q28.3625 220.00848 28.425 220.00848Q29.096874 220.00848 29.628124 219.66473Q30.175 219.30536 30.175 218.57098Q30.175 217.99286 29.784374 217.61786Q29.39375 217.22723 28.76875 217.22723Q28.159374 217.22723 27.7375 217.61786Q27.33125 218.00848 27.221874 218.77411L26.159374 218.58661Q26.346874 217.53973 27.034374 216.96161Q27.721874 216.36786 28.7375 216.36786Q29.440624 216.36786 30.034374 216.68036Q30.628124 216.97723 30.940624 217.49286Q31.253124 218.00848 31.253124 218.60223Q31.253124 219.14911 30.95625 219.61786Q30.659374 220.07098 30.08125 220.33661Q30.83125 220.50848 31.253124 221.07098Q31.675 221.61786 31.675 222.46161Q31.675 223.58661 30.846874 224.36786Q30.034374 225.14911 28.784374 225.14911Q27.659374 225.14911 26.909374 224.47723Q26.159374 223.78973 26.05 222.72723ZM33.64375 224.99286L33.64375 223.78973L34.846874 223.78973L34.846874 224.99286L33.64375 224.99286ZM37.675 220.33661Q37.01875 220.08661 36.690624 219.64911Q36.378124 219.19598 36.378124 218.58661Q36.378124 217.64911 37.05 217.00848Q37.7375 216.36786 38.846874 216.36786Q39.971874 216.36786 40.659374 217.02411Q41.346874 217.68036 41.346874 218.61786Q41.346874 219.21161 41.034374 219.64911Q40.721874 220.08661 40.08125 220.33661Q40.878124 220.58661 41.284374 221.16473Q41.690624 221.74286 41.690624 222.53973Q41.690624 223.63348 40.909374 224.38348Q40.14375 225.13348 38.8625 225.13348Q37.596874 225.13348 36.815624 224.38348Q36.034374 223.63348 36.034374 222.50848Q36.034374 221.66473 36.45625 221.10223Q36.89375 220.53973 37.675 220.33661ZM37.45625 218.53973Q37.45625 219.14911 37.846874 219.53973Q38.253124 219.93036 38.878124 219.93036Q39.4875 219.93036 39.878124 219.55536Q40.26875 219.16473 40.26875 218.60223Q40.26875 218.02411 39.8625 217.63348Q39.45625 217.22723 38.8625 217.22723Q38.253124 217.22723 37.846874 217.61786Q37.45625 218.00848 37.45625 218.53973ZM37.128124 222.50848Q37.128124 222.96161 37.33125 223.38348Q37.55 223.80536 37.971874 224.03973Q38.39375 224.27411 38.878124 224.27411Q39.628124 224.27411 40.1125 223.78973Q40.6125 223.30536 40.6125 222.55536Q40.6125 221.78973 40.1125 221.28973Q39.6125 220.78973 38.846874 220.78973Q38.096874 220.78973 37.6125 221.28973Q37.128124 221.77411 37.128124 222.50848ZM43.253124 218.46161Q43.253124 217.53973 43.70625 216.89911Q44.175 216.25848 45.05 216.25848Q45.8625 216.25848 46.39375 216.83661Q46.925 217.41473 46.925 218.52411Q46.925 219.61786 46.378124 220.21161Q45.846874 220.78973 45.065624 220.78973Q44.284374 220.78973 43.76875 220.21161Q43.253124 219.63348 43.253124 218.46161ZM45.08125 216.97723Q44.690624 216.97723 44.425 217.32098Q44.175 217.66473 44.175 218.57098Q44.175 219.39911 44.425 219.74286Q44.690624 220.07098 45.08125 220.07098Q45.4875 220.07098 45.7375 219.72723Q46.003124 219.38348 46.003124 218.49286Q46.003124 217.64911 45.7375 217.32098Q45.471874 216.97723 45.08125 216.97723ZM45.08125 225.30536L49.784374 216.25848L50.64375 216.25848L45.95625 225.30536L45.08125 225.30536ZM48.8 222.97723Q48.8 222.05536 49.253124 221.41473Q49.721874 220.77411 50.6125 220.77411Q51.425 220.77411 51.95625 221.35223Q52.4875 221.91473 52.4875 223.03973Q52.4875 224.13348 51.940624 224.72723Q51.409374 225.30536 50.6125 225.30536Q49.846874 225.30536 49.315624 224.72723Q48.8 224.14911 48.8 222.97723ZM50.64375 221.49286Q50.2375 221.49286 49.971874 221.83661Q49.721874 222.18036 49.721874 223.08661Q49.721874 223.89911 49.9875 224.24286Q50.253124 224.58661 50.64375 224.58661Q51.034374 224.58661 51.3 224.24286Q51.565624 223.89911 51.565624 222.99286Q51.565624 222.16473 51.3 221.83661Q51.034374 221.49286 50.64375 221.49286Z" fill-rule="nonzero"/><path stroke="#757575" stroke-width="1.0" stroke-linecap="butt" d="M18.55 212.49286L127.05 212.49286L151.78294 212.49286" fill-rule="nonzero"/><path fill="#9e9e9e" d="M153.78294 212.49286C153.78294 211.38829 152.88751 210.49286 151.78294 210.49286C150.67838 210.49286 149.78294 211.38829 149.78294 212.49286C149.78294 213.59743 150.67838 214.49286 151.78294 214.49286C152.88751 214.49286 153.78294 213.59743 153.78294 212.49286" fill-rule="nonzero"/><path fill="#1a1a1a" d="M559.3719 52.211548L559.3719 43.617798L562.6219 43.617798Q563.46564 43.617798 563.91876 43.695923Q564.5594 43.805298 564.98126 44.102173Q565.41876 44.399048 565.66876 44.930298Q565.9344 45.461548 565.9344 46.102173Q565.9344 47.195923 565.23126 47.961548Q564.54376 48.711548 562.71564 48.711548L560.5125 48.711548L560.5125 52.211548L559.3719 52.211548ZM560.5125 47.711548L562.73126 47.711548Q563.84064 47.711548 564.29376 47.305298Q564.7625 46.883423 564.7625 46.133423Q564.7625 45.602173 564.48126 45.227173Q564.21564 44.836548 563.77814 44.711548Q563.48126 44.633423 562.71564 44.633423L560.5125 44.633423L560.5125 47.711548ZM566.9969 49.445923L568.0594 49.352173Q568.1375 50.008423 568.41876 50.414673Q568.7 50.820923 569.27814 51.086548Q569.8719 51.336548 570.60626 51.336548Q571.2469 51.336548 571.7469 51.149048Q572.2469 50.945923 572.48126 50.617798Q572.73126 50.274048 572.73126 49.883423Q572.73126 49.477173 572.4969 49.180298Q572.2625 48.867798 571.73126 48.664673Q571.3719 48.524048 570.1844 48.242798Q569.0125 47.961548 568.54376 47.711548Q567.91876 47.383423 567.6219 46.914673Q567.325 46.430298 567.325 45.836548Q567.325 45.195923 567.6844 44.633423Q568.0594 44.055298 568.7625 43.774048Q569.48126 43.477173 570.34064 43.477173Q571.29376 43.477173 572.02814 43.789673Q572.7625 44.086548 573.15314 44.695923Q573.54376 45.289673 573.575 46.039673L572.48126 46.117798Q572.3875 45.305298 571.8719 44.899048Q571.3719 44.477173 570.3875 44.477173Q569.35626 44.477173 568.8875 44.852173Q568.41876 45.227173 568.41876 45.758423Q568.41876 46.227173 568.7469 46.524048Q569.075 46.820923 570.45 47.133423Q571.84064 47.445923 572.35626 47.680298Q573.10626 48.039673 573.46564 48.570923Q573.825 49.086548 573.825 49.789673Q573.825 50.477173 573.4344 51.086548Q573.04376 51.680298 572.3094 52.024048Q571.575 52.352173 570.65314 52.352173Q569.48126 52.352173 568.6844 52.024048Q567.90314 51.680298 567.45 50.992798Q567.0125 50.305298 566.9969 49.445923ZM578.91876 52.211548L577.8719 52.211548L577.8719 45.492798Q577.48126 45.852173 576.85626 46.227173Q576.2469 46.586548 575.7625 46.758423L575.7625 45.742798Q576.6375 45.320923 577.29376 44.742798Q577.96564 44.149048 578.2469 43.586548L578.91876 43.586548L578.91876 52.211548Z" fill-rule="nonzero"/><path fill="#9e9e9e" d="M554.0125 61.742798L554.0125 60.727173L559.575 60.727173L559.575 61.555298Q558.7625 62.430298 557.95 63.883423Q557.15314 65.32092 556.71564 66.85217Q556.3875 67.9303 556.3094 69.21155L555.21564 69.21155Q555.23126 68.19592 555.60626 66.75842Q555.9969 65.32092 556.7 63.992798Q557.41876 62.664673 558.23126 61.742798L554.0125 61.742798ZM561.54376 69.21155L561.54376 68.00842L562.7469 68.00842L562.7469 69.21155L561.54376 69.21155ZM563.95 66.94592L565.0125 66.8053Q565.1844 67.69592 565.6219 68.10217Q566.0594 68.4928 566.6844 68.4928Q567.4344 68.4928 567.95 67.97717Q568.46564 67.46155 568.46564 66.69592Q568.46564 65.97717 567.98126 65.50842Q567.5125 65.02405 566.77814 65.02405Q566.48126 65.02405 566.02814 65.14905L566.15314 64.21155Q566.2625 64.22717 566.325 64.22717Q566.9969 64.22717 567.52814 63.883423Q568.075 63.524048 568.075 62.789673Q568.075 62.211548 567.6844 61.836548Q567.29376 61.445923 566.66876 61.445923Q566.0594 61.445923 565.6375 61.836548Q565.23126 62.227173 565.1219 62.992798L564.0594 62.805298Q564.2469 61.758423 564.9344 61.180298Q565.6219 60.586548 566.6375 60.586548Q567.34064 60.586548 567.9344 60.899048Q568.52814 61.195923 568.84064 61.711548Q569.15314 62.227173 569.15314 62.820923Q569.15314 63.367798 568.85626 63.836548Q568.5594 64.28967 567.98126 64.5553Q568.73126 64.72717 569.15314 65.28967Q569.575 65.83655 569.575 66.6803Q569.575 67.8053 568.7469 68.58655Q567.9344 69.3678 566.6844 69.3678Q565.5594 69.3678 564.8094 68.69592Q564.0594 68.00842 563.95 66.94592ZM571.15314 62.680298Q571.15314 61.758423 571.60626 61.117798Q572.075 60.477173 572.95 60.477173Q573.7625 60.477173 574.29376 61.055298Q574.825 61.633423 574.825 62.742798Q574.825 63.836548 574.27814 64.4303Q573.7469 65.00842 572.96564 65.00842Q572.1844 65.00842 571.66876 64.4303Q571.15314 63.852173 571.15314 62.680298ZM572.98126 61.195923Q572.59064 61.195923 572.325 61.539673Q572.075 61.883423 572.075 62.789673Q572.075 63.617798 572.325 63.961548Q572.59064 64.28967 572.98126 64.28967Q573.3875 64.28967 573.6375 63.945923Q573.90314 63.602173 573.90314 62.711548Q573.90314 61.867798 573.6375 61.539673Q573.3719 61.195923 572.98126 61.195923ZM572.98126 69.52405L577.6844 60.477173L578.54376 60.477173L573.85626 69.52405L572.98126 69.52405ZM576.7 67.19592Q576.7 66.27405 577.15314 65.63342Q577.6219 64.9928 578.5125 64.9928Q579.325 64.9928 579.85626 65.57092Q580.3875 66.13342 580.3875 67.25842Q580.3875 68.35217 579.84064 68.94592Q579.3094 69.52405 578.5125 69.52405Q577.7469 69.52405 577.21564 68.94592Q576.7 68.3678 576.7 67.19592ZM578.54376 65.71155Q578.1375 65.71155 577.8719 66.0553Q577.6219 66.39905 577.6219 67.3053Q577.6219 68.1178 577.8875 68.46155Q578.15314 68.8053 578.54376 68.8053Q578.9344 68.8053 579.2 68.46155Q579.46564 68.1178 579.46564 67.21155Q579.46564 66.38342 579.2 66.0553Q578.9344 65.71155 578.54376 65.71155Z" fill-rule="nonzero"/><path stroke="#757575" stroke-width="1.0" stroke-linecap="butt" d="M581.45 56.711548L472.95 56.711548L336.2295 64.892365" fill-rule="nonzero"/><path fill="#9e9e9e" d="M338.2295 64.892365C338.2295 63.787796 337.33408 62.89237 336.2295 62.89237C335.12494 62.89237 334.2295 63.787796 334.2295 64.892365C334.2295 65.99693 335.12494 66.892365 336.2295 66.892365C337.33408 66.892365 338.2295 65.99693 338.2295 64.892365" fill-rule="nonzero"/><path fill="#1a1a1a" d="M559.3719 83.21155L559.3719 74.6178L562.6219 74.6178Q563.46564 74.6178 563.91876 74.69592Q564.5594 74.8053 564.98126 75.10217Q565.41876 75.39905 565.66876 75.9303Q565.9344 76.46155 565.9344 77.10217Q565.9344 78.19592 565.23126 78.96155Q564.54376 79.71155 562.71564 79.71155L560.5125 79.71155L560.5125 83.21155L559.3719 83.21155ZM560.5125 78.71155L562.73126 78.71155Q563.84064 78.71155 564.29376 78.3053Q564.7625 77.88342 564.7625 77.13342Q564.7625 76.60217 564.48126 76.22717Q564.21564 75.83655 563.77814 75.71155Q563.48126 75.63342 562.71564 75.63342L560.5125 75.63342L560.5125 78.71155ZM566.9969 80.44592L568.0594 80.35217Q568.1375 81.00842 568.41876 81.41467Q568.7 81.82092 569.27814 82.08655Q569.8719 82.33655 570.60626 82.33655Q571.2469 82.33655 571.7469 82.14905Q572.2469 81.94592 572.48126 81.6178Q572.73126 81.27405 572.73126 80.88342Q572.73126 80.47717 572.4969 80.1803Q572.2625 79.8678 571.73126 79.66467Q571.3719 79.52405 570.1844 79.2428Q569.0125 78.96155 568.54376 78.71155Q567.91876 78.38342 567.6219 77.91467Q567.325 77.4303 567.325 76.83655Q567.325 76.19592 567.6844 75.63342Q568.0594 75.0553 568.7625 74.77405Q569.48126 74.47717 570.34064 74.47717Q571.29376 74.47717 572.02814 74.78967Q572.7625 75.08655 573.15314 75.69592Q573.54376 76.28967 573.575 77.03967L572.48126 77.1178Q572.3875 76.3053 571.8719 75.89905Q571.3719 75.47717 570.3875 75.47717Q569.35626 75.47717 568.8875 75.85217Q568.41876 76.22717 568.41876 76.75842Q568.41876 77.22717 568.7469 77.52405Q569.075 77.82092 570.45 78.13342Q571.84064 78.44592 572.35626 78.6803Q573.10626 79.03967 573.46564 79.57092Q573.825 80.08655 573.825 80.78967Q573.825 81.47717 573.4344 82.08655Q573.04376 82.6803 572.3094 83.02405Q571.575 83.35217 570.65314 83.35217Q569.48126 83.35217 568.6844 83.02405Q567.90314 82.6803 567.45 81.9928Q567.0125 81.3053 566.9969 80.44592ZM580.4969 82.19592L580.4969 83.21155L574.8094 83.21155Q574.8094 82.83655 574.9344 82.47717Q575.15314 81.89905 575.6219 81.33655Q576.10626 80.77405 577.0125 80.03967Q578.41876 78.88342 578.90314 78.21155Q579.40314 77.53967 579.40314 76.94592Q579.40314 76.32092 578.95 75.89905Q578.4969 75.46155 577.77814 75.46155Q577.0125 75.46155 576.5594 75.91467Q576.10626 76.3678 576.09064 77.1803L575.0125 77.07092Q575.1219 75.85217 575.84064 75.22717Q576.575 74.58655 577.8094 74.58655Q579.04376 74.58655 579.7625 75.27405Q580.48126 75.96155 580.48126 76.97717Q580.48126 77.4928 580.2625 77.9928Q580.0594 78.47717 579.5594 79.03967Q579.075 79.58655 577.95 80.53967Q576.9969 81.33655 576.71564 81.63342Q576.45 81.91467 576.27814 82.19592L580.4969 82.19592Z" fill-rule="nonzero"/><path fill="#9e9e9e" d="M559.41876 93.72717L558.3719 93.8053Q558.23126 93.1803 557.98126 92.89905Q557.54376 92.44592 556.91876 92.44592Q556.41876 92.44592 556.02814 92.72717Q555.54376 93.10217 555.2469 93.8053Q554.96564 94.4928 554.95 95.77405Q555.325 95.19592 555.8719 94.91467Q556.4344 94.63342 557.04376 94.63342Q558.09064 94.63342 558.825 95.41467Q559.575 96.19592 559.575 97.41467Q559.575 98.22717 559.21564 98.9303Q558.8719 99.6178 558.2625 99.9928Q557.65314 100.35217 556.8875 100.35217Q555.5594 100.35217 554.73126 99.38342Q553.90314 98.41467 553.90314 96.19592Q553.90314 93.69592 554.825 92.57092Q555.6219 91.58655 556.98126 91.58655Q557.9969 91.58655 558.6375 92.16467Q559.29376 92.72717 559.41876 93.72717ZM555.1219 97.4303Q555.1219 97.97717 555.34064 98.47717Q555.575 98.96155 555.98126 99.22717Q556.40314 99.4928 556.8719 99.4928Q557.52814 99.4928 558.0125 98.96155Q558.4969 98.41467 558.4969 97.4928Q558.4969 96.60217 558.0125 96.08655Q557.54376 95.57092 556.825 95.57092Q556.10626 95.57092 555.60626 96.08655Q555.1219 96.60217 555.1219 97.4303ZM561.54376 100.21155L561.54376 99.00842L562.7469 99.00842L562.7469 100.21155L561.54376 100.21155ZM564.10626 98.22717L565.1219 98.13342Q565.2469 98.85217 565.60626 99.1803Q565.98126 99.4928 566.54376 99.4928Q567.02814 99.4928 567.3875 99.27405Q567.7625 99.03967 567.9969 98.6803Q568.23126 98.3053 568.3875 97.6803Q568.54376 97.03967 568.54376 96.38342Q568.54376 96.3053 568.54376 96.16467Q568.23126 96.66467 567.6844 96.9928Q567.1375 97.3053 566.4969 97.3053Q565.41876 97.3053 564.6844 96.53967Q563.95 95.75842 563.95 94.4928Q563.95 93.1803 564.71564 92.38342Q565.4969 91.58655 566.65314 91.58655Q567.48126 91.58655 568.16876 92.03967Q568.8719 92.4928 569.23126 93.33655Q569.59064 94.16467 569.59064 95.7428Q569.59064 97.38342 569.23126 98.3678Q568.8875 99.33655 568.16876 99.85217Q567.46564 100.35217 566.52814 100.35217Q565.5125 100.35217 564.8719 99.8053Q564.23126 99.2428 564.10626 98.22717ZM568.41876 94.4303Q568.41876 93.52405 567.9344 92.9928Q567.46564 92.46155 566.77814 92.46155Q566.075 92.46155 565.54376 93.03967Q565.02814 93.60217 565.02814 94.52405Q565.02814 95.33655 565.52814 95.85217Q566.02814 96.3678 566.7469 96.3678Q567.48126 96.3678 567.95 95.85217Q568.41876 95.33655 568.41876 94.4303ZM571.15314 93.6803Q571.15314 92.75842 571.60626 92.1178Q572.075 91.47717 572.95 91.47717Q573.7625 91.47717 574.29376 92.0553Q574.825 92.63342 574.825 93.7428Q574.825 94.83655 574.27814 95.4303Q573.7469 96.00842 572.96564 96.00842Q572.1844 96.00842 571.66876 95.4303Q571.15314 94.85217 571.15314 93.6803ZM572.98126 92.19592Q572.59064 92.19592 572.325 92.53967Q572.075 92.88342 572.075 93.78967Q572.075 94.6178 572.325 94.96155Q572.59064 95.28967 572.98126 95.28967Q573.3875 95.28967 573.6375 94.94592Q573.90314 94.60217 573.90314 93.71155Q573.90314 92.8678 573.6375 92.53967Q573.3719 92.19592 572.98126 92.19592ZM572.98126 100.52405L577.6844 91.47717L578.54376 91.47717L573.85626 100.52405L572.98126 100.52405ZM576.7 98.19592Q576.7 97.27405 577.15314 96.63342Q577.6219 95.9928 578.5125 95.9928Q579.325 95.9928 579.85626 96.57092Q580.3875 97.13342 580.3875 98.25842Q580.3875 99.35217 579.84064 99.94592Q579.3094 100.52405 578.5125 100.52405Q577.7469 100.52405 577.21564 99.94592Q576.7 99.3678 576.7 98.19592ZM578.54376 96.71155Q578.1375 96.71155 577.8719 97.0553Q577.6219 97.39905 577.6219 98.3053Q577.6219 99.1178 577.8875 99.46155Q578.15314 99.8053 578.54376 99.8053Q578.9344 99.8053 579.2 99.46155Q579.46564 99.1178 579.46564 98.21155Q579.46564 97.38342 579.2 97.0553Q578.9344 96.71155 578.54376 96.71155Z" fill-rule="nonzero"/><path stroke="#757575" stroke-width="1.0" stroke-linecap="butt" d="M581.45 87.71155L472.95 87.71155L399.2626 86.388756" fill-rule="nonzero"/><path fill="#9e9e9e" d="M401.2626 86.388756C401.2626 85.28419 400.3672 84.388756 399.2626 84.388756C398.15805 84.388756 397.2626 85.28419 397.2626 86.388756C397.2626 87.493324 398.15805 88.388756 399.2626 88.388756C400.3672 88.388756 401.2626 87.493324 401.2626 86.388756" fill-rule="nonzero"/><path fill="#1a1a1a" d="M558.3719 114.21155L558.3719 105.6178L561.6219 105.6178Q562.46564 105.6178 562.91876 105.69592Q563.5594 105.8053 563.98126 106.10217Q564.41876 106.39905 564.66876 106.9303Q564.9344 107.46155 564.9344 108.10217Q564.9344 109.19592 564.23126 109.96155Q563.54376 110.71155 561.71564 110.71155L559.5125 110.71155L559.5125 114.21155L558.3719 114.21155ZM559.5125 109.71155L561.73126 109.71155Q562.84064 109.71155 563.29376 109.3053Q563.7625 108.88342 563.7625 108.13342Q563.7625 107.60217 563.48126 107.22717Q563.21564 106.83655 562.77814 106.71155Q562.48126 106.63342 561.71564 106.63342L559.5125 106.63342L559.5125 109.71155ZM565.9969 111.44592L567.0594 111.35217Q567.1375 112.00842 567.41876 112.41467Q567.7 112.82092 568.27814 113.08655Q568.8719 113.33655 569.60626 113.33655Q570.2469 113.33655 570.7469 113.14905Q571.2469 112.94592 571.48126 112.6178Q571.73126 112.27405 571.73126 111.88342Q571.73126 111.47717 571.4969 111.1803Q571.2625 110.8678 570.73126 110.66467Q570.3719 110.52405 569.1844 110.2428Q568.0125 109.96155 567.54376 109.71155Q566.91876 109.38342 566.6219 108.91467Q566.325 108.4303 566.325 107.83655Q566.325 107.19592 566.6844 106.63342Q567.0594 106.0553 567.7625 105.77405Q568.48126 105.47717 569.34064 105.47717Q570.29376 105.47717 571.02814 105.78967Q571.7625 106.08655 572.15314 106.69592Q572.54376 107.28967 572.575 108.03967L571.48126 108.1178Q571.3875 107.3053 570.8719 106.89905Q570.3719 106.47717 569.3875 106.47717Q568.35626 106.47717 567.8875 106.85217Q567.41876 107.22717 567.41876 107.75842Q567.41876 108.22717 567.7469 108.52405Q568.075 108.82092 569.45 109.13342Q570.84064 109.44592 571.35626 109.6803Q572.10626 110.03967 572.46564 110.57092Q572.825 111.08655 572.825 111.78967Q572.825 112.47717 572.4344 113.08655Q572.04376 113.6803 571.3094 114.02405Q570.575 114.35217 569.65314 114.35217Q568.48126 114.35217 567.6844 114.02405Q566.90314 113.6803 566.45 112.9928Q566.0125 112.3053 565.9969 111.44592ZM574.3719 114.21155L574.3719 105.6178L577.6219 105.6178Q578.46564 105.6178 578.91876 105.69592Q579.5594 105.8053 579.98126 106.10217Q580.41876 106.39905 580.66876 106.9303Q580.9344 107.46155 580.9344 108.10217Q580.9344 109.19592 580.23126 109.96155Q579.54376 110.71155 577.71564 110.71155L575.5125 110.71155L575.5125 114.21155L574.3719 114.21155ZM575.5125 109.71155L577.73126 109.71155Q578.84064 109.71155 579.29376 109.3053Q579.7625 108.88342 579.7625 108.13342Q579.7625 107.60217 579.48126 107.22717Q579.21564 106.83655 578.77814 106.71155Q578.48126 106.63342 577.71564 106.63342L575.5125 106.63342L575.5125 109.71155Z" fill-rule="nonzero"/><path fill="#9e9e9e" d="M559.4969 130.19592L559.4969 131.21155L553.8094 131.21155Q553.8094 130.83655 553.9344 130.47717Q554.15314 129.89905 554.6219 129.33655Q555.10626 128.77405 556.0125 128.03967Q557.41876 126.88342 557.90314 126.21155Q558.40314 125.53967 558.40314 124.94592Q558.40314 124.32092 557.95 123.89905Q557.4969 123.46155 556.77814 123.46155Q556.0125 123.46155 555.5594 123.91467Q555.10626 124.3678 555.09064 125.1803L554.0125 125.07092Q554.1219 123.85217 554.84064 123.22717Q555.575 122.58655 556.8094 122.58655Q558.04376 122.58655 558.7625 123.27405Q559.48126 123.96155 559.48126 124.97717Q559.48126 125.4928 559.2625 125.9928Q559.0594 126.47717 558.5594 127.03967Q558.075 127.58655 556.95 128.53967Q555.9969 129.33655 555.71564 129.63342Q555.45 129.91467 555.27814 130.19592L559.4969 130.19592ZM561.54376 131.21155L561.54376 130.00842L562.7469 130.00842L562.7469 131.21155L561.54376 131.21155ZM569.41876 124.72717L568.3719 124.8053Q568.23126 124.1803 567.98126 123.89905Q567.54376 123.44592 566.91876 123.44592Q566.41876 123.44592 566.02814 123.72717Q565.54376 124.10217 565.2469 124.8053Q564.96564 125.4928 564.95 126.77405Q565.325 126.19592 565.8719 125.91467Q566.4344 125.63342 567.04376 125.63342Q568.09064 125.63342 568.825 126.41467Q569.575 127.19592 569.575 128.41467Q569.575 129.22717 569.21564 129.9303Q568.8719 130.6178 568.2625 130.9928Q567.65314 131.35217 566.8875 131.35217Q565.5594 131.35217 564.73126 130.38342Q563.90314 129.41467 563.90314 127.19592Q563.90314 124.69592 564.825 123.57092Q565.6219 122.58655 566.98126 122.58655Q567.9969 122.58655 568.6375 123.16467Q569.29376 123.72717 569.41876 124.72717ZM565.1219 128.4303Q565.1219 128.97717 565.34064 129.47717Q565.575 129.96155 565.98126 130.22717Q566.40314 130.4928 566.8719 130.4928Q567.52814 130.4928 568.0125 129.96155Q568.4969 129.41467 568.4969 128.4928Q568.4969 127.60217 568.0125 127.08655Q567.54376 126.57092 566.825 126.57092Q566.10626 126.57092 565.60626 127.08655Q565.1219 127.60217 565.1219 128.4303ZM571.15314 124.6803Q571.15314 123.75842 571.60626 123.1178Q572.075 122.47717 572.95 122.47717Q573.7625 122.47717 574.29376 123.0553Q574.825 123.63342 574.825 124.7428Q574.825 125.83655 574.27814 126.4303Q573.7469 127.00842 572.96564 127.00842Q572.1844 127.00842 571.66876 126.4303Q571.15314 125.85217 571.15314 124.6803ZM572.98126 123.19592Q572.59064 123.19592 572.325 123.53967Q572.075 123.88342 572.075 124.78967Q572.075 125.6178 572.325 125.96155Q572.59064 126.28967 572.98126 126.28967Q573.3875 126.28967 573.6375 125.94592Q573.90314 125.60217 573.90314 124.71155Q573.90314 123.8678 573.6375 123.53967Q573.3719 123.19592 572.98126 123.19592ZM572.98126 131.52405L577.6844 122.47717L578.54376 122.47717L573.85626 131.52405L572.98126 131.52405ZM576.7 129.19592Q576.7 128.27405 577.15314 127.63342Q577.6219 126.9928 578.5125 126.9928Q579.325 126.9928 579.85626 127.57092Q580.3875 128.13342 580.3875 129.25842Q580.3875 130.35217 579.84064 130.94592Q579.3094 131.52405 578.5125 131.52405Q577.7469 131.52405 577.21564 130.94592Q576.7 130.3678 576.7 129.19592ZM578.54376 127.71155Q578.1375 127.71155 577.8719 128.0553Q577.6219 128.39905 577.6219 129.3053Q577.6219 130.1178 577.8875 130.46155Q578.15314 130.8053 578.54376 130.8053Q578.9344 130.8053 579.2 130.46155Q579.46564 130.1178 579.46564 129.21155Q579.46564 128.38342 579.2 128.0553Q578.9344 127.71155 578.54376 127.71155Z" fill-rule="nonzero"/><path stroke="#757575" stroke-width="1.0" stroke-linecap="butt" d="M581.45 118.71155L472.95 118.71155L431.1338 110.53072" fill-rule="nonzero"/><path fill="#9e9e9e" d="M433.1338 110.53072C433.1338 109.426155 432.23834 108.53072 431.1338 108.53072C430.0292 108.53072 429.1338 109.426155 429.1338 110.53072C429.1338 111.63529 430.0292 112.53072 431.1338 112.53072C432.23834 112.53072 433.1338 111.63529 433.1338 110.53072" fill-rule="nonzero"/><path fill="#1a1a1a" d="M559.3719 193.8394L559.3719 185.24565L562.6219 185.24565Q563.46564 185.24565 563.91876 185.32378Q564.5594 185.43315 564.98126 185.73003Q565.41876 186.0269 565.66876 186.55815Q565.9344 187.0894 565.9344 187.73003Q565.9344 188.82378 565.23126 189.5894Q564.54376 190.3394 562.71564 190.3394L560.5125 190.3394L560.5125 193.8394L559.3719 193.8394ZM560.5125 189.3394L562.73126 189.3394Q563.84064 189.3394 564.29376 188.93315Q564.7625 188.51128 564.7625 187.76128Q564.7625 187.23003 564.48126 186.85503Q564.21564 186.4644 563.77814 186.3394Q563.48126 186.26128 562.71564 186.26128L560.5125 186.26128L560.5125 189.3394ZM566.9969 191.07378L568.0594 190.98003Q568.1375 191.63628 568.41876 192.04253Q568.7 192.44878 569.27814 192.7144Q569.8719 192.9644 570.60626 192.9644Q571.2469 192.9644 571.7469 192.7769Q572.2469 192.57378 572.48126 192.24565Q572.73126 191.9019 572.73126 191.51128Q572.73126 191.10503 572.4969 190.80815Q572.2625 190.49565 571.73126 190.29253Q571.3719 190.1519 570.1844 189.87065Q569.0125 189.5894 568.54376 189.3394Q567.91876 189.01128 567.6219 188.54253Q567.325 188.05815 567.325 187.4644Q567.325 186.82378 567.6844 186.26128Q568.0594 185.68315 568.7625 185.4019Q569.48126 185.10503 570.34064 185.10503Q571.29376 185.10503 572.02814 185.41753Q572.7625 185.7144 573.15314 186.32378Q573.54376 186.91753 573.575 187.66753L572.48126 187.74565Q572.3875 186.93315 571.8719 186.5269Q571.3719 186.10503 570.3875 186.10503Q569.35626 186.10503 568.8875 186.48003Q568.41876 186.85503 568.41876 187.38628Q568.41876 187.85503 568.7469 188.1519Q569.075 188.44878 570.45 188.76128Q571.84064 189.07378 572.35626 189.30815Q573.10626 189.66753 573.46564 190.19878Q573.825 190.7144 573.825 191.41753Q573.825 192.10503 573.4344 192.7144Q573.04376 193.30815 572.3094 193.6519Q571.575 193.98003 570.65314 193.98003Q569.48126 193.98003 568.6844 193.6519Q567.90314 193.30815 567.45 192.62065Q567.0125 191.93315 566.9969 191.07378ZM574.95 191.57378L576.0125 191.43315Q576.1844 192.32378 576.6219 192.73003Q577.0594 193.12065 577.6844 193.12065Q578.4344 193.12065 578.95 192.60503Q579.46564 192.0894 579.46564 191.32378Q579.46564 190.60503 578.98126 190.13628Q578.5125 189.6519 577.77814 189.6519Q577.48126 189.6519 577.02814 189.7769L577.15314 188.8394Q577.2625 188.85503 577.325 188.85503Q577.9969 188.85503 578.52814 188.51128Q579.075 188.1519 579.075 187.41753Q579.075 186.8394 578.6844 186.4644Q578.29376 186.07378 577.66876 186.07378Q577.0594 186.07378 576.6375 186.4644Q576.23126 186.85503 576.1219 187.62065L575.0594 187.43315Q575.2469 186.38628 575.9344 185.80815Q576.6219 185.2144 577.6375 185.2144Q578.34064 185.2144 578.9344 185.5269Q579.52814 185.82378 579.84064 186.3394Q580.15314 186.85503 580.15314 187.44878Q580.15314 187.99565 579.85626 188.4644Q579.5594 188.91753 578.98126 189.18315Q579.73126 189.35503 580.15314 189.91753Q580.575 190.4644 580.575 191.30815Q580.575 192.43315 579.7469 193.2144Q578.9344 193.99565 577.6844 193.99565Q576.5594 193.99565 575.8094 193.32378Q575.0594 192.63628 574.95 191.57378Z" fill-rule="nonzero"/><path fill="#9e9e9e" d="M552.4969 209.82378L552.4969 210.8394L546.8094 210.8394Q546.8094 210.4644 546.9344 210.10503Q547.15314 209.5269 547.6219 208.9644Q548.10626 208.4019 549.0125 207.66753Q550.41876 206.51128 550.90314 205.8394Q551.40314 205.16753 551.40314 204.57378Q551.40314 203.94878 550.95 203.5269Q550.4969 203.0894 549.77814 203.0894Q549.0125 203.0894 548.5594 203.54253Q548.10626 203.99565 548.09064 204.80815L547.0125 204.69878Q547.1219 203.48003 547.84064 202.85503Q548.575 202.2144 549.8094 202.2144Q551.04376 202.2144 551.7625 202.9019Q552.48126 203.5894 552.48126 204.60503Q552.48126 205.12065 552.2625 205.62065Q552.0594 206.10503 551.5594 206.66753Q551.075 207.2144 549.95 208.16753Q548.9969 208.9644 548.71564 209.26128Q548.45 209.54253 548.27814 209.82378L552.4969 209.82378ZM553.95 208.57378L555.0125 208.43315Q555.1844 209.32378 555.6219 209.73003Q556.0594 210.12065 556.6844 210.12065Q557.4344 210.12065 557.95 209.60503Q558.46564 209.0894 558.46564 208.32378Q558.46564 207.60503 557.98126 207.13628Q557.5125 206.6519 556.77814 206.6519Q556.48126 206.6519 556.02814 206.7769L556.15314 205.8394Q556.2625 205.85503 556.325 205.85503Q556.9969 205.85503 557.52814 205.51128Q558.075 205.1519 558.075 204.41753Q558.075 203.8394 557.6844 203.4644Q557.29376 203.07378 556.66876 203.07378Q556.0594 203.07378 555.6375 203.4644Q555.23126 203.85503 555.1219 204.62065L554.0594 204.43315Q554.2469 203.38628 554.9344 202.80815Q555.6219 202.2144 556.6375 202.2144Q557.34064 202.2144 557.9344 202.5269Q558.52814 202.82378 558.84064 203.3394Q559.15314 203.85503 559.15314 204.44878Q559.15314 204.99565 558.85626 205.4644Q558.5594 205.91753 557.98126 206.18315Q558.73126 206.35503 559.15314 206.91753Q559.575 207.4644 559.575 208.30815Q559.575 209.43315 558.7469 210.2144Q557.9344 210.99565 556.6844 210.99565Q555.5594 210.99565 554.8094 210.32378Q554.0594 209.63628 553.95 208.57378ZM561.54376 210.8394L561.54376 209.63628L562.7469 209.63628L562.7469 210.8394L561.54376 210.8394ZM564.0125 203.37065L564.0125 202.35503L569.575 202.35503L569.575 203.18315Q568.7625 204.05815 567.95 205.51128Q567.15314 206.94878 566.71564 208.48003Q566.3875 209.55815 566.3094 210.8394L565.21564 210.8394Q565.23126 209.82378 565.60626 208.38628Q565.9969 206.94878 566.7 205.62065Q567.41876 204.29253 568.23126 203.37065L564.0125 203.37065ZM571.15314 204.30815Q571.15314 203.38628 571.60626 202.74565Q572.075 202.10503 572.95 202.10503Q573.7625 202.10503 574.29376 202.68315Q574.825 203.26128 574.825 204.37065Q574.825 205.4644 574.27814 206.05815Q573.7469 206.63628 572.96564 206.63628Q572.1844 206.63628 571.66876 206.05815Q571.15314 205.48003 571.15314 204.30815ZM572.98126 202.82378Q572.59064 202.82378 572.325 203.16753Q572.075 203.51128 572.075 204.41753Q572.075 205.24565 572.325 205.5894Q572.59064 205.91753 572.98126 205.91753Q573.3875 205.91753 573.6375 205.57378Q573.90314 205.23003 573.90314 204.3394Q573.90314 203.49565 573.6375 203.16753Q573.3719 202.82378 572.98126 202.82378ZM572.98126 211.1519L577.6844 202.10503L578.54376 202.10503L573.85626 211.1519L572.98126 211.1519ZM576.7 208.82378Q576.7 207.9019 577.15314 207.26128Q577.6219 206.62065 578.5125 206.62065Q579.325 206.62065 579.85626 207.19878Q580.3875 207.76128 580.3875 208.88628Q580.3875 209.98003 579.84064 210.57378Q579.3094 211.1519 578.5125 211.1519Q577.7469 211.1519 577.21564 210.57378Q576.7 209.99565 576.7 208.82378ZM578.54376 207.3394Q578.1375 207.3394 577.8719 207.68315Q577.6219 208.0269 577.6219 208.93315Q577.6219 209.74565 577.8875 210.0894Q578.15314 210.43315 578.54376 210.43315Q578.9344 210.43315 579.2 210.0894Q579.46564 209.74565 579.46564 208.8394Q579.46564 208.01128 579.2 207.68315Q578.9344 207.3394 578.54376 207.3394Z" fill-rule="nonzero"/><path stroke="#757575" stroke-width="1.0" stroke-linecap="butt" d="M581.45 198.3394L472.95 198.3394L454.40912 198.3394" fill-rule="nonzero"/><path fill="#9e9e9e" d="M456.40912 198.3394C456.40912 197.23483 455.5137 196.3394 454.40912 196.3394C453.30453 196.3394 452.40912 197.23483 452.40912 198.3394C452.40912 199.44397 453.30453 200.3394 454.40912 200.3394C455.5137 200.3394 456.40912 199.44397 456.40912 198.3394" fill-rule="nonzero"/><path fill="#1a1a1a" d="M560.825 271.4946L557.4969 262.90085L558.73126 262.90085L560.96564 269.15085Q561.23126 269.90085 561.41876 270.5571Q561.6219 269.85397 561.8875 269.15085L564.2 262.90085L565.35626 262.90085L561.9969 271.4946L560.825 271.4946ZM565.575 271.4946L565.575 262.90085L566.7 262.90085L566.7 271.4946L565.575 271.4946ZM570.5594 271.4946L570.5594 263.91647L567.73126 263.91647L567.73126 262.90085L574.54376 262.90085L574.54376 263.91647L571.7 263.91647L571.7 271.4946L570.5594 271.4946ZM574.4344 271.4946L577.73126 262.90085L578.95 262.90085L582.46564 271.4946L581.1844 271.4946L580.16876 268.88522L576.59064 268.88522L575.6375 271.4946L574.4344 271.4946ZM576.91876 267.96335L579.825 267.96335L578.9344 265.58835Q578.5125 264.51022 578.325 263.8071Q578.15314 264.63522 577.85626 265.44772L576.91876 267.96335Z" fill-rule="nonzero"/><path fill="#9e9e9e" d="M559.41876 282.01022L558.3719 282.08835Q558.23126 281.46335 557.98126 281.1821Q557.54376 280.72897 556.91876 280.72897Q556.41876 280.72897 556.02814 281.01022Q555.54376 281.38522 555.2469 282.08835Q554.96564 282.77585 554.95 284.0571Q555.325 283.47897 555.8719 283.19772Q556.4344 282.91647 557.04376 282.91647Q558.09064 282.91647 558.825 283.69772Q559.575 284.47897 559.575 285.69772Q559.575 286.51022 559.21564 287.21335Q558.8719 287.90085 558.2625 288.27585Q557.65314 288.63522 556.8875 288.63522Q555.5594 288.63522 554.73126 287.66647Q553.90314 286.69772 553.90314 284.47897Q553.90314 281.97897 554.825 280.85397Q555.6219 279.8696 556.98126 279.8696Q557.9969 279.8696 558.6375 280.44772Q559.29376 281.01022 559.41876 282.01022ZM555.1219 285.71335Q555.1219 286.26022 555.34064 286.76022Q555.575 287.2446 555.98126 287.51022Q556.40314 287.77585 556.8719 287.77585Q557.52814 287.77585 558.0125 287.2446Q558.4969 286.69772 558.4969 285.77585Q558.4969 284.88522 558.0125 284.3696Q557.54376 283.85397 556.825 283.85397Q556.10626 283.85397 555.60626 284.3696Q555.1219 284.88522 555.1219 285.71335ZM561.54376 288.4946L561.54376 287.29147L562.7469 287.29147L562.7469 288.4946L561.54376 288.4946ZM565.575 283.83835Q564.91876 283.58835 564.59064 283.15085Q564.27814 282.69772 564.27814 282.08835Q564.27814 281.15085 564.95 280.51022Q565.6375 279.8696 566.7469 279.8696Q567.8719 279.8696 568.5594 280.52585Q569.2469 281.1821 569.2469 282.1196Q569.2469 282.71335 568.9344 283.15085Q568.6219 283.58835 567.98126 283.83835Q568.77814 284.08835 569.1844 284.66647Q569.59064 285.2446 569.59064 286.04147Q569.59064 287.13522 568.8094 287.88522Q568.04376 288.63522 566.7625 288.63522Q565.4969 288.63522 564.71564 287.88522Q563.9344 287.13522 563.9344 286.01022Q563.9344 285.16647 564.35626 284.60397Q564.79376 284.04147 565.575 283.83835ZM565.35626 282.04147Q565.35626 282.65085 565.7469 283.04147Q566.15314 283.4321 566.77814 283.4321Q567.3875 283.4321 567.77814 283.0571Q568.16876 282.66647 568.16876 282.10397Q568.16876 281.52585 567.7625 281.13522Q567.35626 280.72897 566.7625 280.72897Q566.15314 280.72897 565.7469 281.1196Q565.35626 281.51022 565.35626 282.04147ZM565.02814 286.01022Q565.02814 286.46335 565.23126 286.88522Q565.45 287.3071 565.8719 287.54147Q566.29376 287.77585 566.77814 287.77585Q567.52814 287.77585 568.0125 287.29147Q568.5125 286.8071 568.5125 286.0571Q568.5125 285.29147 568.0125 284.79147Q567.5125 284.29147 566.7469 284.29147Q565.9969 284.29147 565.5125 284.79147Q565.02814 285.27585 565.02814 286.01022ZM571.15314 281.96335Q571.15314 281.04147 571.60626 280.40085Q572.075 279.76022 572.95 279.76022Q573.7625 279.76022 574.29376 280.33835Q574.825 280.91647 574.825 282.02585Q574.825 283.1196 574.27814 283.71335Q573.7469 284.29147 572.96564 284.29147Q572.1844 284.29147 571.66876 283.71335Q571.15314 283.13522 571.15314 281.96335ZM572.98126 280.47897Q572.59064 280.47897 572.325 280.82272Q572.075 281.16647 572.075 282.07272Q572.075 282.90085 572.325 283.2446Q572.59064 283.57272 572.98126 283.57272Q573.3875 283.57272 573.6375 283.22897Q573.90314 282.88522 573.90314 281.9946Q573.90314 281.15085 573.6375 280.82272Q573.3719 280.47897 572.98126 280.47897ZM572.98126 288.8071L577.6844 279.76022L578.54376 279.76022L573.85626 288.8071L572.98126 288.8071ZM576.7 286.47897Q576.7 285.5571 577.15314 284.91647Q577.6219 284.27585 578.5125 284.27585Q579.325 284.27585 579.85626 284.85397Q580.3875 285.41647 580.3875 286.54147Q580.3875 287.63522 579.84064 288.22897Q579.3094 288.8071 578.5125 288.8071Q577.7469 288.8071 577.21564 288.22897Q576.7 287.65085 576.7 286.47897ZM578.54376 284.9946Q578.1375 284.9946 577.8719 285.33835Q577.6219 285.6821 577.6219 286.58835Q577.6219 287.40085 577.8875 287.7446Q578.15314 288.08835 578.54376 288.08835Q578.9344 288.08835 579.2 287.7446Q579.46564 287.40085 579.46564 286.4946Q579.46564 285.66647 579.2 285.33835Q578.9344 284.9946 578.54376 284.9946Z" fill-rule="nonzero"/><path stroke="#757575" stroke-width="1.0" stroke-linecap="butt" d="M581.45 275.9946L472.95 275.9946L359.13596 275.9946" fill-rule="nonzero"/><path fill="#9e9e9e" d="M361.13596 275.9946C361.13596 274.89005 360.24054 273.9946 359.13596 273.9946C358.0314 273.9946 357.13596 274.89005 357.13596 275.9946C357.13596 277.09918 358.0314 277.9946 359.13596 277.9946C360.24054 277.9946 361.13596 277.09918 361.13596 275.9946" fill-rule="nonzero"/></svg>