<svg version="1.1" viewBox="0.0 0.0 600.0 371.0" fill="none" stroke="none" stroke-linecap="square" stroke-miterlimit="10" width="600" height="371" xmlns:xlink="http://www.w3.org/1999/xlink" xmlns="http://www.w3.org/2000/svg"><path fill="#ffffff" d="M0 0L600.0 0L600.0 371.0L0 371.0L0 0Z" fill-rule="nonzero"/><path fill="#d9d9d9" d="M300.0 56.11375C325.49176 56.11375 350.645 60.200043 373.53107 68.05931L300.0 172.97874Z" fill-rule="nonzero"/><path fill="#000000" d="M373.53107 68.05931C395.8098 75.71003 415.37192 86.741066 430.79404 100.349846L300.0 172.97874Z" fill-rule="nonzero"/><path fill="#666666" d="M430.79404 100.349846C436.40097 105.2975 441.42575 110.55516 445.81897 116.071175L300.0 172.97874Z" fill-rule="nonzero"/><path fill="#8f0000" d="M466.95 198.02126C466.95 236.47035 439.9323 272.45947 394.69565 294.26816L394.69565 269.22565C439.9323 247.41696 466.95 211.42786 466.95 172.97874Z" fill-rule="nonzero"/><path fill="#cc0000" d="M445.81897 116.071175C487.74557 168.71284 465.60547 235.03987 394.69565 269.22565L300.0 172.97874Z" fill-rule="nonzero"/><path fill="#b34c01" d="M394.69565 294.26816C375.37155 303.58435 353.45908 309.9446 330.38727 312.9341L330.38727 287.89163C353.45908 284.9021 375.37155 278.54187 394.69565 269.22565Z" fill-rule="nonzero"/><path fill="#ff6d01" d="M394.69565 269.22565C375.37155 278.54187 353.45908 284.9021 330.38727 287.89163L300.0 172.97874Z" fill-rule="nonzero"/><path fill="#f3f3f3" d="M273.0672 57.644478C281.97098 56.625668 290.97806 56.11375 300.0 56.11375L300.0 172.97874Z" fill-rule="nonzero"/><path fill="#ff00ff" d="M208.21298 75.360886C227.81235 66.33083 249.91081 60.294136 273.0672 57.644478L300.0 172.97874Z" fill-rule="nonzero"/><path fill="#345ea2" d="M330.38727 312.9341C281.6183 319.25333 231.36026 310.06674 193.23122 287.86356C155.10217 265.66034 133.05 232.73949 133.05 198.02126L133.05 172.97874C133.05 207.69698 155.10217 240.61784 193.23122 262.82104C231.36026 285.02423 281.6183 294.21085 330.38727 287.89163Z" fill-rule="nonzero"/><path fill="#4a86e8" d="M330.38727 287.89163C252.26689 298.01404 174.7776 268.19818 145.11923 216.60538C115.46086 165.01256 141.85014 105.93634 208.21298 75.360886L300.0 172.97874Z" fill-rule="nonzero"/><path fill="#000000" d="M322.43134 82.82564L322.43134 81.29439L328.05634 81.29439L328.05634 82.48189Q327.3532 83.16939 326.63446 84.45064Q325.9157 85.73189 325.5407 87.18501Q325.1657 88.62251 325.1657 89.76314L323.5876 89.76314Q323.61884 87.98189 324.30634 86.13814Q325.00946 84.27876 326.1657 82.82564L322.43134 82.82564ZM335.00946 83.27876L333.4157 83.45064Q333.3532 82.96626 333.1032 82.73189Q332.8532 82.49751 332.4626 82.49751Q331.94696 82.49751 331.5876 82.96626Q331.2282 83.43501 331.13446 84.90376Q331.74384 84.18501 332.6657 84.18501Q333.69696 84.18501 334.43134 84.96626Q335.1657 85.74751 335.1657 86.99751Q335.1657 88.31001 334.38446 89.10689Q333.61884 89.90376 332.4001 89.90376Q331.1032 89.90376 330.25946 88.90376Q329.43134 87.88814 329.43134 85.59126Q329.43134 83.21626 330.2907 82.18501Q331.1657 81.13814 332.57196 81.13814Q333.5407 81.13814 334.18134 81.68501Q334.82196 82.23189 335.00946 83.27876ZM331.2751 86.87251Q331.2751 87.66939 331.63446 88.10689Q332.00946 88.54439 332.4782 88.54439Q332.94696 88.54439 333.24384 88.18501Q333.55634 87.82564 333.55634 87.01314Q333.55634 86.16939 333.2282 85.79439Q332.9001 85.40376 332.4001 85.40376Q331.93134 85.40376 331.6032 85.77876Q331.2751 86.13814 331.2751 86.87251Z" fill-rule="nonzero"/><path fill="#000000" d="M372.37268 101.51839L372.37268 99.98714L377.99768 99.98714L377.99768 101.17464Q377.29456 101.86214 376.5758 103.14339Q375.85706 104.42464 375.48206 105.87776Q375.10706 107.31526 375.10706 108.45589L373.52893 108.45589Q373.56018 106.67464 374.24768 104.83089Q374.9508 102.97151 376.10706 101.51839L372.37268 101.51839ZM382.59143 108.45589L382.59143 106.72151L379.0758 106.72151L379.0758 105.28401L382.81018 99.83089L384.18518 99.83089L384.18518 105.28401L385.2633 105.28401L385.2633 106.72151L384.18518 106.72151L384.18518 108.45589L382.59143 108.45589ZM382.59143 105.28401L382.59143 102.34651L380.62268 105.28401L382.59143 105.28401Z" fill-rule="nonzero"/><path fill="#000000" d="M422.75778 196.2494L422.75778 197.78065L416.97653 197.78065Q417.07028 196.90565 417.53903 196.14003Q418.00778 195.35878 419.3984 194.07753Q420.50778 193.04628 420.75778 192.67128Q421.10153 192.15565 421.10153 191.65565Q421.10153 191.10878 420.80466 190.8119Q420.50778 190.51503 419.99216 190.51503Q419.47653 190.51503 419.16403 190.82753Q418.86716 191.14003 418.82028 191.85878L417.17966 191.70253Q417.32028 190.34315 418.0859 189.7494Q418.86716 189.15565 420.0234 189.15565Q421.30466 189.15565 422.0234 189.84315Q422.75778 190.53065 422.75778 191.54628Q422.75778 192.1244 422.53903 192.65565Q422.3359 193.17128 421.88278 193.7494Q421.5859 194.1244 420.80466 194.84315Q420.0234 195.5619 419.82028 195.79628Q419.61716 196.03065 419.47653 196.2494L422.75778 196.2494ZM427.41403 197.78065L427.41403 196.04628L423.8984 196.04628L423.8984 194.60878L427.63278 189.15565L429.00778 189.15565L429.00778 194.60878L430.0859 194.60878L430.0859 196.04628L429.00778 196.04628L429.00778 197.78065L427.41403 197.78065ZM427.41403 194.60878L427.41403 191.67128L425.44528 194.60878L427.41403 194.60878ZM436.7734 191.29628L435.17966 191.46815Q435.11716 190.98378 434.86716 190.7494Q434.61716 190.51503 434.22653 190.51503Q433.7109 190.51503 433.35153 190.98378Q432.99216 191.45253 432.8984 192.92128Q433.50778 192.20253 434.42966 192.20253Q435.4609 192.20253 436.19528 192.98378Q436.92966 193.76503 436.92966 195.01503Q436.92966 196.32753 436.1484 197.1244Q435.38278 197.92128 434.16403 197.92128Q432.86716 197.92128 432.0234 196.92128Q431.19528 195.90565 431.19528 193.60878Q431.19528 191.23378 432.05466 190.20253Q432.92966 189.15565 434.3359 189.15565Q435.30466 189.15565 435.94528 189.70253Q436.5859 190.2494 436.7734 191.29628ZM433.03903 194.89003Q433.03903 195.6869 433.3984 196.1244Q433.7734 196.5619 434.24216 196.5619Q434.7109 196.5619 435.00778 196.20253Q435.32028 195.84315 435.32028 195.03065Q435.32028 194.1869 434.99216 193.8119Q434.66403 193.42128 434.16403 193.42128Q433.69528 193.42128 433.36716 193.79628Q433.03903 194.15565 433.03903 194.89003Z" fill-rule="nonzero"/><path fill="#000000" d="M341.918 251.7521L341.918 250.22086L347.543 250.22086L347.543 251.40836Q346.83987 252.09586 346.12112 253.3771Q345.40237 254.65836 345.02737 256.11148Q344.65237 257.54898 344.65237 258.6896L343.07425 258.6896Q343.1055 256.90836 343.793 255.0646Q344.49612 253.20523 345.65237 251.7521L341.918 251.7521ZM351.69925 250.0646Q352.94925 250.0646 353.65237 250.95523Q354.4805 252.0021 354.4805 254.45523Q354.4805 256.89273 353.63675 257.95523Q352.94925 258.83023 351.69925 258.83023Q350.44925 258.83023 349.668 257.8771Q348.90237 256.90836 348.90237 254.4396Q348.90237 252.0021 349.74612 250.9396Q350.44925 250.0646 351.69925 250.0646ZM351.69925 251.42398Q351.40237 251.42398 351.168 251.6271Q350.93362 251.8146 350.793 252.29898Q350.63675 252.9396 350.63675 254.45523Q350.63675 255.97086 350.77737 256.53336Q350.93362 257.09586 351.168 257.28336Q351.40237 257.47086 351.69925 257.47086Q351.99612 257.47086 352.2305 257.28336Q352.46487 257.09586 352.58987 256.59586Q352.76175 255.97086 352.76175 254.45523Q352.76175 252.9396 352.6055 252.3771Q352.46487 251.8146 352.2305 251.6271Q351.99612 251.42398 351.69925 251.42398Z" fill-rule="nonzero"/><path fill="#000000" d="M174.74153 210.35567L174.74153 208.62129L171.2259 208.62129L171.2259 207.18379L174.96028 201.73067L176.33528 201.73067L176.33528 207.18379L177.4134 207.18379L177.4134 208.62129L176.33528 208.62129L176.33528 210.35567L174.74153 210.35567ZM174.74153 207.18379L174.74153 204.24629L172.77278 207.18379L174.74153 207.18379ZM178.5384 208.15254L180.17903 207.98067Q180.25716 208.52754 180.6009 208.85567Q180.94466 209.18379 181.39778 209.18379Q181.9134 209.18379 182.27278 208.76192Q182.63216 208.34004 182.63216 207.49629Q182.63216 206.71504 182.27278 206.32442Q181.9134 205.91817 181.3509 205.91817Q180.63216 205.91817 180.06966 206.54317L178.74153 206.35567L179.58528 201.88692L183.94466 201.88692L183.94466 203.41817L180.83528 203.41817L180.56966 204.88692Q181.13216 204.60567 181.69466 204.60567Q182.7884 204.60567 183.55403 205.40254Q184.31966 206.19942 184.31966 207.46504Q184.31966 208.52754 183.71028 209.37129Q182.86653 210.49629 181.38216 210.49629Q180.19466 210.49629 179.44466 209.87129Q178.69466 209.23067 178.5384 208.15254ZM185.52278 203.41817L185.52278 201.88692L191.14778 201.88692L191.14778 203.07442Q190.44466 203.76192 189.7259 205.04317Q189.00716 206.32442 188.63216 207.77754Q188.25716 209.21504 188.25716 210.35567L186.67903 210.35567Q186.71028 208.57442 187.39778 206.73067Q188.1009 204.87129 189.25716 203.41817L185.52278 203.41817Z" fill-rule="nonzero"/><path fill="#000000" d="M247.52141 87.53973L247.52141 86.00848L253.14641 86.00848L253.14641 87.19598Q252.44328 87.88348 251.72453 89.16473Q251.00578 90.44598 250.63078 91.8991Q250.25578 93.3366 250.25578 94.47723L248.67766 94.47723Q248.70891 92.69598 249.39641 90.85223Q250.09953 88.99285 251.25578 87.53973L247.52141 87.53973ZM257.30267 85.85223Q258.55267 85.85223 259.2558 86.74285Q260.08392 87.78973 260.08392 90.24285Q260.08392 92.68035 259.24017 93.74285Q258.55267 94.61785 257.30267 94.61785Q256.05267 94.61785 255.27141 93.66473Q254.50578 92.69598 254.50578 90.22723Q254.50578 87.78973 255.34953 86.72723Q256.05267 85.85223 257.30267 85.85223ZM257.30267 87.2116Q257.0058 87.2116 256.77142 87.41473Q256.53705 87.60223 256.39642 88.0866Q256.24017 88.72723 256.24017 90.24285Q256.24017 91.75848 256.3808 92.32098Q256.53705 92.88348 256.77142 93.07098Q257.0058 93.25848 257.30267 93.25848Q257.59955 93.25848 257.83392 93.07098Q258.0683 92.88348 258.1933 92.38348Q258.36517 91.75848 258.36517 90.24285Q258.36517 88.72723 258.20892 88.16473Q258.0683 87.60223 257.83392 87.41473Q257.59955 87.2116 257.30267 87.2116Z" fill-rule="nonzero"/><path fill="#000000" d="M288.55905 84.75792L288.55905 86.28917L282.7778 86.28917Q282.87155 85.41417 283.3403 84.648544Q283.80905 83.867294 285.19968 82.586044Q286.30905 81.554794 286.55905 81.179794Q286.9028 80.66417 286.9028 80.16417Q286.9028 79.617294 286.60593 79.32042Q286.30905 79.023544 285.79343 79.023544Q285.2778 79.023544 284.9653 79.336044Q284.66843 79.648544 284.62155 80.367294L282.98093 80.211044Q283.12155 78.85167 283.88718 78.25792Q284.66843 77.66417 285.82468 77.66417Q287.10593 77.66417 287.82468 78.35167Q288.55905 79.03917 288.55905 80.054794Q288.55905 80.63292 288.3403 81.16417Q288.13718 81.679794 287.68405 82.25792Q287.38718 82.63292 286.60593 83.35167Q285.82468 84.07042 285.62155 84.304794Q285.41843 84.53917 285.2778 84.75792L288.55905 84.75792ZM289.99655 79.35167L289.99655 77.82042L295.62155 77.82042L295.62155 79.00792Q294.91843 79.69542 294.19968 80.97667Q293.48093 82.25792 293.10593 83.711044Q292.73093 85.148544 292.73093 86.28917L291.1528 86.28917Q291.18405 84.50792 291.87155 82.66417Q292.57468 80.804794 293.73093 79.35167L289.99655 79.35167Z" fill-rule="nonzero"/><path fill="#1a1a1a" d="M19.471874 45.93731L19.471874 37.34356L22.721874 37.34356Q23.565624 37.34356 24.01875 37.421684Q24.659374 37.53106 25.08125 37.827934Q25.51875 38.12481 25.76875 38.65606Q26.034374 39.18731 26.034374 39.827934Q26.034374 40.921684 25.33125 41.68731Q24.64375 42.43731 22.815624 42.43731L20.6125 42.43731L20.6125 45.93731L19.471874 45.93731ZM20.6125 41.43731L22.83125 41.43731Q23.940624 41.43731 24.39375 41.03106Q24.8625 40.609184 24.8625 39.859184Q24.8625 39.327934 24.58125 38.952934Q24.315624 38.56231 23.878124 38.43731Q23.58125 38.359184 22.815624 38.359184L20.6125 38.359184L20.6125 41.43731ZM27.096874 43.171684L28.159374 43.077934Q28.2375 43.734184 28.51875 44.140434Q28.8 44.546684 29.378124 44.81231Q29.971874 45.06231 30.70625 45.06231Q31.346874 45.06231 31.846874 44.87481Q32.346874 44.671684 32.58125 44.34356Q32.83125 43.99981 32.83125 43.609184Q32.83125 43.202934 32.596874 42.90606Q32.3625 42.59356 31.83125 42.390434Q31.471874 42.24981 30.284374 41.96856Q29.1125 41.68731 28.64375 41.43731Q28.01875 41.109184 27.721874 40.640434Q27.425 40.15606 27.425 39.56231Q27.425 38.921684 27.784374 38.359184Q28.159374 37.78106 28.8625 37.49981Q29.58125 37.202934 30.440624 37.202934Q31.39375 37.202934 32.128124 37.515434Q32.8625 37.81231 33.253124 38.421684Q33.64375 39.015434 33.675 39.765434L32.58125 39.84356Q32.4875 39.03106 31.971874 38.62481Q31.471874 38.202934 30.4875 38.202934Q29.45625 38.202934 28.9875 38.577934Q28.51875 38.952934 28.51875 39.484184Q28.51875 39.952934 28.846874 40.24981Q29.175 40.546684 30.55 40.859184Q31.940624 41.171684 32.45625 41.40606Q33.20625 41.765434 33.565624 42.296684Q33.925 42.81231 33.925 43.515434Q33.925 44.202934 33.534374 44.81231Q33.14375 45.40606 32.409374 45.74981Q31.675 46.077934 30.753124 46.077934Q29.58125 46.077934 28.784374 45.74981Q28.003124 45.40606 27.55 44.71856Q27.1125 44.03106 27.096874 43.171684ZM35.05 43.68731L36.159374 43.59356Q36.284374 44.40606 36.721874 44.81231Q37.175 45.21856 37.815624 45.21856Q38.565624 45.21856 39.096874 44.640434Q39.628124 44.06231 39.628124 43.12481Q39.628124 42.21856 39.1125 41.702934Q38.6125 41.171684 37.784374 41.171684Q37.284374 41.171684 36.8625 41.40606Q36.45625 41.640434 36.221874 41.99981L35.2375 41.87481L36.065624 37.46856L40.346874 37.46856L40.346874 38.46856L36.909374 38.46856L36.45625 40.78106Q37.221874 40.234184 38.065624 40.234184Q39.190624 40.234184 39.95625 41.015434Q40.7375 41.796684 40.7375 43.03106Q40.7375 44.18731 40.065624 45.046684Q39.2375 46.077934 37.815624 46.077934Q36.64375 46.077934 35.89375 45.421684Q35.159374 44.765434 35.05 43.68731Z" fill-rule="nonzero"/><path fill="#9e9e9e" d="M24.596874 61.921684L24.596874 62.93731L18.909374 62.93731Q18.909374 62.56231 19.034374 62.202934Q19.253124 61.62481 19.721874 61.06231Q20.20625 60.49981 21.1125 59.765434Q22.51875 58.609184 23.003124 57.93731Q23.503124 57.265434 23.503124 56.671684Q23.503124 56.046684 23.05 55.62481Q22.596874 55.18731 21.878124 55.18731Q21.1125 55.18731 20.659374 55.640434Q20.20625 56.09356 20.190624 56.90606L19.1125 56.796684Q19.221874 55.577934 19.940624 54.952934Q20.675 54.31231 21.909374 54.31231Q23.14375 54.31231 23.8625 54.99981Q24.58125 55.68731 24.58125 56.702934Q24.58125 57.21856 24.3625 57.71856Q24.159374 58.202934 23.659374 58.765434Q23.175 59.31231 22.05 60.265434Q21.096874 61.06231 20.815624 61.359184Q20.55 61.640434 20.378124 61.921684L24.596874 61.921684ZM26.64375 62.93731L26.64375 61.734184L27.846874 61.734184L27.846874 62.93731L26.64375 62.93731ZM34.51875 56.452934L33.471874 56.53106Q33.33125 55.90606 33.08125 55.62481Q32.64375 55.171684 32.01875 55.171684Q31.51875 55.171684 31.128124 55.452934Q30.64375 55.827934 30.346874 56.53106Q30.065624 57.21856 30.05 58.49981Q30.425 57.921684 30.971874 57.640434Q31.534374 57.359184 32.14375 57.359184Q33.190624 57.359184 33.925 58.140434Q34.675 58.921684 34.675 60.140434Q34.675 60.952934 34.315624 61.65606Q33.971874 62.34356 33.3625 62.71856Q32.753124 63.077934 31.9875 63.077934Q30.659374 63.077934 29.83125 62.109184Q29.003124 61.140434 29.003124 58.921684Q29.003124 56.421684 29.925 55.296684Q30.721874 54.31231 32.08125 54.31231Q33.096874 54.31231 33.7375 54.890434Q34.39375 55.452934 34.51875 56.452934ZM30.221874 60.15606Q30.221874 60.702934 30.440624 61.202934Q30.675 61.68731 31.08125 61.952934Q31.503124 62.21856 31.971874 62.21856Q32.628124 62.21856 33.1125 61.68731Q33.596874 61.140434 33.596874 60.21856Q33.596874 59.327934 33.1125 58.81231Q32.64375 58.296684 31.925 58.296684Q31.20625 58.296684 30.70625 58.81231Q30.221874 59.327934 30.221874 60.15606ZM36.253124 56.40606Q36.253124 55.484184 36.70625 54.84356Q37.175 54.202934 38.05 54.202934Q38.8625 54.202934 39.39375 54.78106Q39.925 55.359184 39.925 56.46856Q39.925 57.56231 39.378124 58.15606Q38.846874 58.734184 38.065624 58.734184Q37.284374 58.734184 36.76875 58.15606Q36.253124 57.577934 36.253124 56.40606ZM38.08125 54.921684Q37.690624 54.921684 37.425 55.265434Q37.175 55.609184 37.175 56.515434Q37.175 57.34356 37.425 57.68731Q37.690624 58.015434 38.08125 58.015434Q38.4875 58.015434 38.7375 57.671684Q39.003124 57.327934 39.003124 56.43731Q39.003124 55.59356 38.7375 55.265434Q38.471874 54.921684 38.08125 54.921684ZM38.08125 63.24981L42.784374 54.202934L43.64375 54.202934L38.95625 63.24981L38.08125 63.24981ZM41.8 60.921684Q41.8 59.99981 42.253124 59.359184Q42.721874 58.71856 43.6125 58.71856Q44.425 58.71856 44.95625 59.296684Q45.4875 59.859184 45.4875 60.984184Q45.4875 62.077934 44.940624 62.671684Q44.409374 63.24981 43.6125 63.24981Q42.846874 63.24981 42.315624 62.671684Q41.8 62.09356 41.8 60.921684ZM43.64375 59.43731Q43.2375 59.43731 42.971874 59.78106Q42.721874 60.12481 42.721874 61.03106Q42.721874 61.84356 42.9875 62.18731Q43.253124 62.53106 43.64375 62.53106Q44.034374 62.53106 44.3 62.18731Q44.565624 61.84356 44.565624 60.93731Q44.565624 60.109184 44.3 59.78106Q44.034374 59.43731 43.64375 59.43731Z" fill-rule="nonzero"/><path stroke="#757575" stroke-width="1.0" stroke-linecap="butt" d="M18.55 50.43731L127.05 50.43731L287.16483 62.321144" fill-rule="nonzero"/><path fill="#9e9e9e" d="M289.16483 62.321144C289.16483 61.216576 288.2694 60.321144 287.16483 60.321144C286.06024 60.321144 285.16483 61.216576 285.16483 62.321144C285.16483 63.425716 286.06024 64.321144 287.16483 64.321144C288.2694 64.321144 289.16483 63.425716 289.16483 62.321144" fill-rule="nonzero"/><path fill="#1a1a1a" d="M21.925 76.93731L18.596874 68.34356L19.83125 68.34356L22.065624 74.59356Q22.33125 75.34356 22.51875 75.99981Q22.721874 75.296684 22.9875 74.59356L25.3 68.34356L26.45625 68.34356L23.096874 76.93731L21.925 76.93731ZM26.4875 76.93731L26.4875 68.34356L30.3 68.34356Q31.45625 68.34356 32.05 68.577934Q32.64375 68.81231 33.003124 69.40606Q33.3625 69.984184 33.3625 70.68731Q33.3625 71.609184 32.76875 72.234184Q32.175 72.859184 30.940624 73.03106Q31.39375 73.24981 31.628124 73.452934Q32.128124 73.90606 32.565624 74.59356L34.065624 76.93731L32.628124 76.93731L31.503124 75.15606Q31.003124 74.37481 30.675 73.96856Q30.3625 73.56231 30.096874 73.40606Q29.846874 73.234184 29.58125 73.15606Q29.39375 73.12481 28.95625 73.12481L27.628124 73.12481L27.628124 76.93731L26.4875 76.93731ZM27.628124 72.140434L30.08125 72.140434Q30.846874 72.140434 31.284374 71.984184Q31.7375 71.81231 31.95625 71.46856Q32.190624 71.109184 32.190624 70.68731Q32.190624 70.077934 31.7375 69.68731Q31.3 69.296684 30.346874 69.296684L27.628124 69.296684L27.628124 72.140434Z" fill-rule="nonzero"/><path fill="#9e9e9e" d="M24.51875 87.452934L23.471874 87.53106Q23.33125 86.90606 23.08125 86.62481Q22.64375 86.171684 22.01875 86.171684Q21.51875 86.171684 21.128124 86.452934Q20.64375 86.827934 20.346874 87.53106Q20.065624 88.21856 20.05 89.49981Q20.425 88.921684 20.971874 88.640434Q21.534374 88.359184 22.14375 88.359184Q23.190624 88.359184 23.925 89.140434Q24.675 89.921684 24.675 91.140434Q24.675 91.952934 24.315624 92.65606Q23.971874 93.34356 23.3625 93.71856Q22.753124 94.077934 21.9875 94.077934Q20.659374 94.077934 19.83125 93.109184Q19.003124 92.140434 19.003124 89.921684Q19.003124 87.421684 19.925 86.296684Q20.721874 85.31231 22.08125 85.31231Q23.096874 85.31231 23.7375 85.890434Q24.39375 86.452934 24.51875 87.452934ZM20.221874 91.15606Q20.221874 91.702934 20.440624 92.202934Q20.675 92.68731 21.08125 92.952934Q21.503124 93.21856 21.971874 93.21856Q22.628124 93.21856 23.1125 92.68731Q23.596874 92.140434 23.596874 91.21856Q23.596874 90.327934 23.1125 89.81231Q22.64375 89.296684 21.925 89.296684Q21.20625 89.296684 20.70625 89.81231Q20.221874 90.327934 20.221874 91.15606ZM26.64375 93.93731L26.64375 92.734184L27.846874 92.734184L27.846874 93.93731L26.64375 93.93731ZM29.1125 86.46856L29.1125 85.452934L34.675 85.452934L34.675 86.28106Q33.8625 87.15606 33.05 88.609184Q32.253124 90.046684 31.815624 91.577934Q31.4875 92.65606 31.409374 93.93731L30.315624 93.93731Q30.33125 92.921684 30.70625 91.484184Q31.096874 90.046684 31.8 88.71856Q32.51875 87.390434 33.33125 86.46856L29.1125 86.46856ZM36.253124 87.40606Q36.253124 86.484184 36.70625 85.84356Q37.175 85.202934 38.05 85.202934Q38.8625 85.202934 39.39375 85.78106Q39.925 86.359184 39.925 87.46856Q39.925 88.56231 39.378124 89.15606Q38.846874 89.734184 38.065624 89.734184Q37.284374 89.734184 36.76875 89.15606Q36.253124 88.577934 36.253124 87.40606ZM38.08125 85.921684Q37.690624 85.921684 37.425 86.265434Q37.175 86.609184 37.175 87.515434Q37.175 88.34356 37.425 88.68731Q37.690624 89.015434 38.08125 89.015434Q38.4875 89.015434 38.7375 88.671684Q39.003124 88.327934 39.003124 87.43731Q39.003124 86.59356 38.7375 86.265434Q38.471874 85.921684 38.08125 85.921684ZM38.08125 94.24981L42.784374 85.202934L43.64375 85.202934L38.95625 94.24981L38.08125 94.24981ZM41.8 91.921684Q41.8 90.99981 42.253124 90.359184Q42.721874 89.71856 43.6125 89.71856Q44.425 89.71856 44.95625 90.296684Q45.4875 90.859184 45.4875 91.984184Q45.4875 93.077934 44.940624 93.671684Q44.409374 94.24981 43.6125 94.24981Q42.846874 94.24981 42.315624 93.671684Q41.8 93.09356 41.8 91.921684ZM43.64375 90.43731Q43.2375 90.43731 42.971874 90.78106Q42.721874 91.12481 42.721874 92.03106Q42.721874 92.84356 42.9875 93.18731Q43.253124 93.53106 43.64375 93.53106Q44.034374 93.53106 44.3 93.18731Q44.565624 92.84356 44.565624 91.93731Q44.565624 91.109184 44.3 90.78106Q44.034374 90.43731 43.64375 90.43731Z" fill-rule="nonzero"/><path stroke="#757575" stroke-width="1.0" stroke-linecap="butt" d="M18.55 81.43731L127.05 81.43731L242.3409 69.55347" fill-rule="nonzero"/><path fill="#9e9e9e" d="M244.3409 69.55347C244.3409 68.4489 243.44547 67.55347 242.3409 67.55347C241.23633 67.55347 240.3409 68.4489 240.3409 69.55347C240.3409 70.65804 241.23633 71.55347 242.3409 71.55347C243.44547 71.55347 244.3409 70.65804 244.3409 69.55347" fill-rule="nonzero"/><path fill="#1a1a1a" d="M19.471874 209.92404L19.471874 201.33029L22.721874 201.33029Q23.565624 201.33029 24.01875 201.40842Q24.659374 201.51779 25.08125 201.81467Q25.51875 202.11154 25.76875 202.64279Q26.034374 203.17404 26.034374 203.81467Q26.034374 204.90842 25.33125 205.67404Q24.64375 206.42404 22.815624 206.42404L20.6125 206.42404L20.6125 209.92404L19.471874 209.92404ZM20.6125 205.42404L22.83125 205.42404Q23.940624 205.42404 24.39375 205.01779Q24.8625 204.59592 24.8625 203.84592Q24.8625 203.31467 24.58125 202.93967Q24.315624 202.54904 23.878124 202.42404Q23.58125 202.34592 22.815624 202.34592L20.6125 202.34592L20.6125 205.42404ZM27.096874 207.15842L28.159374 207.06467Q28.2375 207.72092 28.51875 208.12717Q28.8 208.53342 29.378124 208.79904Q29.971874 209.04904 30.70625 209.04904Q31.346874 209.04904 31.846874 208.86154Q32.346874 208.65842 32.58125 208.33029Q32.83125 207.98654 32.83125 207.59592Q32.83125 207.18967 32.596874 206.89279Q32.3625 206.58029 31.83125 206.37717Q31.471874 206.23654 30.284374 205.95529Q29.1125 205.67404 28.64375 205.42404Q28.01875 205.09592 27.721874 204.62717Q27.425 204.14279 27.425 203.54904Q27.425 202.90842 27.784374 202.34592Q28.159374 201.76779 28.8625 201.48654Q29.58125 201.18967 30.440624 201.18967Q31.39375 201.18967 32.128124 201.50217Q32.8625 201.79904 33.253124 202.40842Q33.64375 203.00217 33.675 203.75217L32.58125 203.83029Q32.4875 203.01779 31.971874 202.61154Q31.471874 202.18967 30.4875 202.18967Q29.45625 202.18967 28.9875 202.56467Q28.51875 202.93967 28.51875 203.47092Q28.51875 203.93967 28.846874 204.23654Q29.175 204.53342 30.55 204.84592Q31.940624 205.15842 32.45625 205.39279Q33.20625 205.75217 33.565624 206.28342Q33.925 206.79904 33.925 207.50217Q33.925 208.18967 33.534374 208.79904Q33.14375 209.39279 32.409374 209.73654Q31.675 210.06467 30.753124 210.06467Q29.58125 210.06467 28.784374 209.73654Q28.003124 209.39279 27.55 208.70529Q27.1125 208.01779 27.096874 207.15842ZM38.425 209.92404L38.425 207.86154L34.70625 207.86154L34.70625 206.89279L38.628124 201.33029L39.4875 201.33029L39.4875 206.89279L40.64375 206.89279L40.64375 207.86154L39.4875 207.86154L39.4875 209.92404L38.425 209.92404ZM38.425 206.89279L38.425 203.03342L35.7375 206.89279L38.425 206.89279Z" fill-rule="nonzero"/><path fill="#9e9e9e" d="M22.425 226.92404L22.425 224.86154L18.70625 224.86154L18.70625 223.89279L22.628124 218.33029L23.4875 218.33029L23.4875 223.89279L24.64375 223.89279L24.64375 224.86154L23.4875 224.86154L23.4875 226.92404L22.425 226.92404ZM22.425 223.89279L22.425 220.03342L19.7375 223.89279L22.425 223.89279ZM26.05 224.65842L27.1125 224.51779Q27.284374 225.40842 27.721874 225.81467Q28.159374 226.20529 28.784374 226.20529Q29.534374 226.20529 30.05 225.68967Q30.565624 225.17404 30.565624 224.40842Q30.565624 223.68967 30.08125 223.22092Q29.6125 222.73654 28.878124 222.73654Q28.58125 222.73654 28.128124 222.86154L28.253124 221.92404Q28.3625 221.93967 28.425 221.93967Q29.096874 221.93967 29.628124 221.59592Q30.175 221.23654 30.175 220.50217Q30.175 219.92404 29.784374 219.54904Q29.39375 219.15842 28.76875 219.15842Q28.159374 219.15842 27.7375 219.54904Q27.33125 219.93967 27.221874 220.70529L26.159374 220.51779Q26.346874 219.47092 27.034374 218.89279Q27.721874 218.29904 28.7375 218.29904Q29.440624 218.29904 30.034374 218.61154Q30.628124 218.90842 30.940624 219.42404Q31.253124 219.93967 31.253124 220.53342Q31.253124 221.08029 30.95625 221.54904Q30.659374 222.00217 30.08125 222.26779Q30.83125 222.43967 31.253124 223.00217Q31.675 223.54904 31.675 224.39279Q31.675 225.51779 30.846874 226.29904Q30.034374 227.08029 28.784374 227.08029Q27.659374 227.08029 26.909374 226.40842Q26.159374 225.72092 26.05 224.65842ZM33.64375 226.92404L33.64375 225.72092L34.846874 225.72092L34.846874 226.92404L33.64375 226.92404ZM41.51875 220.43967L40.471874 220.51779Q40.33125 219.89279 40.08125 219.61154Q39.64375 219.15842 39.01875 219.15842Q38.51875 219.15842 38.128124 219.43967Q37.64375 219.81467 37.346874 220.51779Q37.065624 221.20529 37.05 222.48654Q37.425 221.90842 37.971874 221.62717Q38.534374 221.34592 39.14375 221.34592Q40.190624 221.34592 40.925 222.12717Q41.675 222.90842 41.675 224.12717Q41.675 224.93967 41.315624 225.64279Q40.971874 226.33029 40.3625 226.70529Q39.753124 227.06467 38.9875 227.06467Q37.659374 227.06467 36.83125 226.09592Q36.003124 225.12717 36.003124 222.90842Q36.003124 220.40842 36.925 219.28342Q37.721874 218.29904 39.08125 218.29904Q40.096874 218.29904 40.7375 218.87717Q41.39375 219.43967 41.51875 220.43967ZM37.221874 224.14279Q37.221874 224.68967 37.440624 225.18967Q37.675 225.67404 38.08125 225.93967Q38.503124 226.20529 38.971874 226.20529Q39.628124 226.20529 40.1125 225.67404Q40.596874 225.12717 40.596874 224.20529Q40.596874 223.31467 40.1125 222.79904Q39.64375 222.28342 38.925 222.28342Q38.20625 222.28342 37.70625 222.79904Q37.221874 223.31467 37.221874 224.14279ZM43.253124 220.39279Q43.253124 219.47092 43.70625 218.83029Q44.175 218.18967 45.05 218.18967Q45.8625 218.18967 46.39375 218.76779Q46.925 219.34592 46.925 220.45529Q46.925 221.54904 46.378124 222.14279Q45.846874 222.72092 45.065624 222.72092Q44.284374 222.72092 43.76875 222.14279Q43.253124 221.56467 43.253124 220.39279ZM45.08125 218.90842Q44.690624 218.90842 44.425 219.25217Q44.175 219.59592 44.175 220.50217Q44.175 221.33029 44.425 221.67404Q44.690624 222.00217 45.08125 222.00217Q45.4875 222.00217 45.7375 221.65842Q46.003124 221.31467 46.003124 220.42404Q46.003124 219.58029 45.7375 219.25217Q45.471874 218.90842 45.08125 218.90842ZM45.08125 227.23654L49.784374 218.18967L50.64375 218.18967L45.95625 227.23654L45.08125 227.23654ZM48.8 224.90842Q48.8 223.98654 49.253124 223.34592Q49.721874 222.70529 50.6125 222.70529Q51.425 222.70529 51.95625 223.28342Q52.4875 223.84592 52.4875 224.97092Q52.4875 226.06467 51.940624 226.65842Q51.409374 227.23654 50.6125 227.23654Q49.846874 227.23654 49.315624 226.65842Q48.8 226.08029 48.8 224.90842ZM50.64375 223.42404Q50.2375 223.42404 49.971874 223.76779Q49.721874 224.11154 49.721874 225.01779Q49.721874 225.83029 49.9875 226.17404Q50.253124 226.51779 50.64375 226.51779Q51.034374 226.51779 51.3 226.17404Q51.565624 225.83029 51.565624 224.92404Q51.565624 224.09592 51.3 223.76779Q51.034374 223.42404 50.64375 223.42404Z" fill-rule="nonzero"/><path stroke="#757575" stroke-width="1.0" stroke-linecap="butt" d="M18.55 214.42404L127.05 214.42404L152.86327 214.42404" fill-rule="nonzero"/><path fill="#9e9e9e" d="M154.86327 214.42404C154.86327 213.31947 153.96783 212.42404 152.86327 212.42404C151.7587 212.42404 150.86327 213.31947 150.86327 214.42404C150.86327 215.52863 151.7587 216.42404 152.86327 216.42404C153.96783 216.42404 154.86327 215.52863 154.86327 214.42404" fill-rule="nonzero"/><path fill="#1a1a1a" d="M559.3719 52.53886L559.3719 43.94511L562.6219 43.94511Q563.46564 43.94511 563.91876 44.023235Q564.5594 44.13261 564.98126 44.429485Q565.41876 44.72636 565.66876 45.25761Q565.9344 45.78886 565.9344 46.429485Q565.9344 47.523235 565.23126 48.28886Q564.54376 49.03886 562.71564 49.03886L560.5125 49.03886L560.5125 52.53886L559.3719 52.53886ZM560.5125 48.03886L562.73126 48.03886Q563.84064 48.03886 564.29376 47.63261Q564.7625 47.210735 564.7625 46.460735Q564.7625 45.929485 564.48126 45.554485Q564.21564 45.16386 563.77814 45.03886Q563.48126 44.960735 562.71564 44.960735L560.5125 44.960735L560.5125 48.03886ZM566.9969 49.773235L568.0594 49.679485Q568.1375 50.335735 568.41876 50.741985Q568.7 51.148235 569.27814 51.41386Q569.8719 51.66386 570.60626 51.66386Q571.2469 51.66386 571.7469 51.47636Q572.2469 51.273235 572.48126 50.94511Q572.73126 50.60136 572.73126 50.210735Q572.73126 49.804485 572.4969 49.50761Q572.2625 49.19511 571.73126 48.991985Q571.3719 48.85136 570.1844 48.57011Q569.0125 48.28886 568.54376 48.03886Q567.91876 47.710735 567.6219 47.241985Q567.325 46.75761 567.325 46.16386Q567.325 45.523235 567.6844 44.960735Q568.0594 44.38261 568.7625 44.10136Q569.48126 43.804485 570.34064 43.804485Q571.29376 43.804485 572.02814 44.116985Q572.7625 44.41386 573.15314 45.023235Q573.54376 45.616985 573.575 46.366985L572.48126 46.44511Q572.3875 45.63261 571.8719 45.22636Q571.3719 44.804485 570.3875 44.804485Q569.35626 44.804485 568.8875 45.179485Q568.41876 45.554485 568.41876 46.085735Q568.41876 46.554485 568.7469 46.85136Q569.075 47.148235 570.45 47.460735Q571.84064 47.773235 572.35626 48.00761Q573.10626 48.366985 573.46564 48.898235Q573.825 49.41386 573.825 50.116985Q573.825 50.804485 573.4344 51.41386Q573.04376 52.00761 572.3094 52.35136Q571.575 52.679485 570.65314 52.679485Q569.48126 52.679485 568.6844 52.35136Q567.90314 52.00761 567.45 51.32011Q567.0125 50.63261 566.9969 49.773235ZM578.91876 52.53886L577.8719 52.53886L577.8719 45.82011Q577.48126 46.179485 576.85626 46.554485Q576.2469 46.91386 575.7625 47.085735L575.7625 46.07011Q576.6375 45.648235 577.29376 45.07011Q577.96564 44.47636 578.2469 43.91386L578.91876 43.91386L578.91876 52.53886Z" fill-rule="nonzero"/><path fill="#9e9e9e" d="M554.0125 62.070114L554.0125 61.05449L559.575 61.05449L559.575 61.882614Q558.7625 62.757614 557.95 64.21074Q557.15314 65.64824 556.71564 67.17949Q556.3875 68.257614 556.3094 69.538864L555.21564 69.538864Q555.23126 68.52324 555.60626 67.08574Q555.9969 65.64824 556.7 64.320114Q557.41876 62.99199 558.23126 62.070114L554.0125 62.070114ZM561.54376 69.538864L561.54376 68.33574L562.7469 68.33574L562.7469 69.538864L561.54376 69.538864ZM563.95 67.27324L565.0125 67.132614Q565.1844 68.02324 565.6219 68.42949Q566.0594 68.820114 566.6844 68.820114Q567.4344 68.820114 567.95 68.30449Q568.46564 67.788864 568.46564 67.02324Q568.46564 66.30449 567.98126 65.83574Q567.5125 65.351364 566.77814 65.351364Q566.48126 65.351364 566.02814 65.476364L566.15314 64.538864Q566.2625 64.55449 566.325 64.55449Q566.9969 64.55449 567.52814 64.21074Q568.075 63.851364 568.075 63.11699Q568.075 62.538864 567.6844 62.163864Q567.29376 61.77324 566.66876 61.77324Q566.0594 61.77324 565.6375 62.163864Q565.23126 62.55449 565.1219 63.320114L564.0594 63.132614Q564.2469 62.08574 564.9344 61.507614Q565.6219 60.913864 566.6375 60.913864Q567.34064 60.913864 567.9344 61.226364Q568.52814 61.52324 568.84064 62.038864Q569.15314 62.55449 569.15314 63.14824Q569.15314 63.695114 568.85626 64.163864Q568.5594 64.61699 567.98126 64.882614Q568.73126 65.05449 569.15314 65.61699Q569.575 66.163864 569.575 67.007614Q569.575 68.132614 568.7469 68.913864Q567.9344 69.695114 566.6844 69.695114Q565.5594 69.695114 564.8094 69.02324Q564.0594 68.33574 563.95 67.27324ZM571.15314 63.007614Q571.15314 62.08574 571.60626 61.445114Q572.075 60.80449 572.95 60.80449Q573.7625 60.80449 574.29376 61.382614Q574.825 61.96074 574.825 63.070114Q574.825 64.163864 574.27814 64.757614Q573.7469 65.33574 572.96564 65.33574Q572.1844 65.33574 571.66876 64.757614Q571.15314 64.17949 571.15314 63.007614ZM572.98126 61.52324Q572.59064 61.52324 572.325 61.86699Q572.075 62.21074 572.075 63.11699Q572.075 63.945114 572.325 64.288864Q572.59064 64.61699 572.98126 64.61699Q573.3875 64.61699 573.6375 64.27324Q573.90314 63.92949 573.90314 63.038864Q573.90314 62.195114 573.6375 61.86699Q573.3719 61.52324 572.98126 61.52324ZM572.98126 69.851364L577.6844 60.80449L578.54376 60.80449L573.85626 69.851364L572.98126 69.851364ZM576.7 67.52324Q576.7 66.601364 577.15314 65.96074Q577.6219 65.320114 578.5125 65.320114Q579.325 65.320114 579.85626 65.89824Q580.3875 66.46074 580.3875 67.58574Q580.3875 68.67949 579.84064 69.27324Q579.3094 69.851364 578.5125 69.851364Q577.7469 69.851364 577.21564 69.27324Q576.7 68.695114 576.7 67.52324ZM578.54376 66.038864Q578.1375 66.038864 577.8719 66.382614Q577.6219 66.726364 577.6219 67.632614Q577.6219 68.445114 577.8875 68.788864Q578.15314 69.132614 578.54376 69.132614Q578.9344 69.132614 579.2 68.788864Q579.46564 68.445114 579.46564 67.538864Q579.46564 66.71074 579.2 66.382614Q578.9344 66.038864 578.54376 66.038864Z" fill-rule="nonzero"/><path stroke="#757575" stroke-width="1.0" stroke-linecap="butt" d="M581.45 57.03886L472.95 57.03886L335.85553 64.831276" fill-rule="nonzero"/><path fill="#9e9e9e" d="M337.85553 64.831276C337.85553 63.726707 336.96008 62.83128 335.85553 62.83128C334.75095 62.83128 333.85553 63.726707 333.85553 64.831276C333.85553 65.935844 334.75095 66.831276 335.85553 66.831276C336.96008 66.831276 337.85553 65.935844 337.85553 64.831276" fill-rule="nonzero"/><path fill="#1a1a1a" d="M559.3719 83.538864L559.3719 74.945114L562.6219 74.945114Q563.46564 74.945114 563.91876 75.02324Q564.5594 75.132614 564.98126 75.42949Q565.41876 75.726364 565.66876 76.257614Q565.9344 76.788864 565.9344 77.42949Q565.9344 78.52324 565.23126 79.288864Q564.54376 80.038864 562.71564 80.038864L560.5125 80.038864L560.5125 83.538864L559.3719 83.538864ZM560.5125 79.038864L562.73126 79.038864Q563.84064 79.038864 564.29376 78.632614Q564.7625 78.21074 564.7625 77.46074Q564.7625 76.92949 564.48126 76.55449Q564.21564 76.163864 563.77814 76.038864Q563.48126 75.96074 562.71564 75.96074L560.5125 75.96074L560.5125 79.038864ZM566.9969 80.77324L568.0594 80.67949Q568.1375 81.33574 568.41876 81.74199Q568.7 82.14824 569.27814 82.413864Q569.8719 82.663864 570.60626 82.663864Q571.2469 82.663864 571.7469 82.476364Q572.2469 82.27324 572.48126 81.945114Q572.73126 81.601364 572.73126 81.21074Q572.73126 80.80449 572.4969 80.507614Q572.2625 80.195114 571.73126 79.99199Q571.3719 79.851364 570.1844 79.570114Q569.0125 79.288864 568.54376 79.038864Q567.91876 78.71074 567.6219 78.24199Q567.325 77.757614 567.325 77.163864Q567.325 76.52324 567.6844 75.96074Q568.0594 75.382614 568.7625 75.101364Q569.48126 74.80449 570.34064 74.80449Q571.29376 74.80449 572.02814 75.11699Q572.7625 75.413864 573.15314 76.02324Q573.54376 76.61699 573.575 77.36699L572.48126 77.445114Q572.3875 76.632614 571.8719 76.226364Q571.3719 75.80449 570.3875 75.80449Q569.35626 75.80449 568.8875 76.17949Q568.41876 76.55449 568.41876 77.08574Q568.41876 77.55449 568.7469 77.851364Q569.075 78.14824 570.45 78.46074Q571.84064 78.77324 572.35626 79.007614Q573.10626 79.36699 573.46564 79.89824Q573.825 80.413864 573.825 81.11699Q573.825 81.80449 573.4344 82.413864Q573.04376 83.007614 572.3094 83.351364Q571.575 83.67949 570.65314 83.67949Q569.48126 83.67949 568.6844 83.351364Q567.90314 83.007614 567.45 82.320114Q567.0125 81.632614 566.9969 80.77324ZM580.4969 82.52324L580.4969 83.538864L574.8094 83.538864Q574.8094 83.163864 574.9344 82.80449Q575.15314 82.226364 575.6219 81.663864Q576.10626 81.101364 577.0125 80.36699Q578.41876 79.21074 578.90314 78.538864Q579.40314 77.86699 579.40314 77.27324Q579.40314 76.64824 578.95 76.226364Q578.4969 75.788864 577.77814 75.788864Q577.0125 75.788864 576.5594 76.24199Q576.10626 76.695114 576.09064 77.507614L575.0125 77.39824Q575.1219 76.17949 575.84064 75.55449Q576.575 74.913864 577.8094 74.913864Q579.04376 74.913864 579.7625 75.601364Q580.48126 76.288864 580.48126 77.30449Q580.48126 77.820114 580.2625 78.320114Q580.0594 78.80449 579.5594 79.36699Q579.075 79.913864 577.95 80.86699Q576.9969 81.663864 576.71564 81.96074Q576.45 82.24199 576.27814 82.52324L580.4969 82.52324Z" fill-rule="nonzero"/><path fill="#9e9e9e" d="M554.0125 93.070114L554.0125 92.05449L559.575 92.05449L559.575 92.882614Q558.7625 93.757614 557.95 95.21074Q557.15314 96.64824 556.71564 98.17949Q556.3875 99.257614 556.3094 100.538864L555.21564 100.538864Q555.23126 99.52324 555.60626 98.08574Q555.9969 96.64824 556.7 95.320114Q557.41876 93.99199 558.23126 93.070114L554.0125 93.070114ZM561.54376 100.538864L561.54376 99.33574L562.7469 99.33574L562.7469 100.538864L561.54376 100.538864ZM567.91876 100.538864L566.8719 100.538864L566.8719 93.820114Q566.48126 94.17949 565.85626 94.55449Q565.2469 94.913864 564.7625 95.08574L564.7625 94.070114Q565.6375 93.64824 566.29376 93.070114Q566.96564 92.476364 567.2469 91.913864L567.91876 91.913864L567.91876 100.538864ZM571.15314 94.007614Q571.15314 93.08574 571.60626 92.445114Q572.075 91.80449 572.95 91.80449Q573.7625 91.80449 574.29376 92.382614Q574.825 92.96074 574.825 94.070114Q574.825 95.163864 574.27814 95.757614Q573.7469 96.33574 572.96564 96.33574Q572.1844 96.33574 571.66876 95.757614Q571.15314 95.17949 571.15314 94.007614ZM572.98126 92.52324Q572.59064 92.52324 572.325 92.86699Q572.075 93.21074 572.075 94.11699Q572.075 94.945114 572.325 95.288864Q572.59064 95.61699 572.98126 95.61699Q573.3875 95.61699 573.6375 95.27324Q573.90314 94.92949 573.90314 94.038864Q573.90314 93.195114 573.6375 92.86699Q573.3719 92.52324 572.98126 92.52324ZM572.98126 100.851364L577.6844 91.80449L578.54376 91.80449L573.85626 100.851364L572.98126 100.851364ZM576.7 98.52324Q576.7 97.601364 577.15314 96.96074Q577.6219 96.320114 578.5125 96.320114Q579.325 96.320114 579.85626 96.89824Q580.3875 97.46074 580.3875 98.58574Q580.3875 99.67949 579.84064 100.27324Q579.3094 100.851364 578.5125 100.851364Q577.7469 100.851364 577.21564 100.27324Q576.7 99.695114 576.7 98.52324ZM578.54376 97.038864Q578.1375 97.038864 577.8719 97.382614Q577.6219 97.726364 577.6219 98.632614Q577.6219 99.445114 577.8875 99.788864Q578.15314 100.132614 578.54376 100.132614Q578.9344 100.132614 579.2 99.788864Q579.46564 99.445114 579.46564 98.538864Q579.46564 97.71074 579.2 97.382614Q578.9344 97.038864 578.54376 97.038864Z" fill-rule="nonzero"/><path stroke="#757575" stroke-width="1.0" stroke-linecap="butt" d="M581.45 88.038864L472.95 88.038864L399.4971 86.52073" fill-rule="nonzero"/><path fill="#9e9e9e" d="M401.4971 86.52073C401.4971 85.41616 400.60165 84.52073 399.4971 84.52073C398.39252 84.52073 397.4971 85.41616 397.4971 86.52073C397.4971 87.6253 398.39252 88.52073 399.4971 88.52073C400.60165 88.52073 401.4971 87.6253 401.4971 86.52073" fill-rule="nonzero"/><path fill="#1a1a1a" d="M558.3719 114.538864L558.3719 105.945114L561.6219 105.945114Q562.46564 105.945114 562.91876 106.02324Q563.5594 106.132614 563.98126 106.42949Q564.41876 106.726364 564.66876 107.257614Q564.9344 107.788864 564.9344 108.42949Q564.9344 109.52324 564.23126 110.288864Q563.54376 111.038864 561.71564 111.038864L559.5125 111.038864L559.5125 114.538864L558.3719 114.538864ZM559.5125 110.038864L561.73126 110.038864Q562.84064 110.038864 563.29376 109.632614Q563.7625 109.21074 563.7625 108.46074Q563.7625 107.92949 563.48126 107.55449Q563.21564 107.163864 562.77814 107.038864Q562.48126 106.96074 561.71564 106.96074L559.5125 106.96074L559.5125 110.038864ZM565.9969 111.77324L567.0594 111.67949Q567.1375 112.33574 567.41876 112.74199Q567.7 113.14824 568.27814 113.413864Q568.8719 113.663864 569.60626 113.663864Q570.2469 113.663864 570.7469 113.476364Q571.2469 113.27324 571.48126 112.945114Q571.73126 112.601364 571.73126 112.21074Q571.73126 111.80449 571.4969 111.507614Q571.2625 111.195114 570.73126 110.99199Q570.3719 110.851364 569.1844 110.570114Q568.0125 110.288864 567.54376 110.038864Q566.91876 109.71074 566.6219 109.24199Q566.325 108.757614 566.325 108.163864Q566.325 107.52324 566.6844 106.96074Q567.0594 106.382614 567.7625 106.101364Q568.48126 105.80449 569.34064 105.80449Q570.29376 105.80449 571.02814 106.11699Q571.7625 106.413864 572.15314 107.02324Q572.54376 107.61699 572.575 108.36699L571.48126 108.445114Q571.3875 107.632614 570.8719 107.226364Q570.3719 106.80449 569.3875 106.80449Q568.35626 106.80449 567.8875 107.17949Q567.41876 107.55449 567.41876 108.08574Q567.41876 108.55449 567.7469 108.851364Q568.075 109.14824 569.45 109.46074Q570.84064 109.77324 571.35626 110.007614Q572.10626 110.36699 572.46564 110.89824Q572.825 111.413864 572.825 112.11699Q572.825 112.80449 572.4344 113.413864Q572.04376 114.007614 571.3094 114.351364Q570.575 114.67949 569.65314 114.67949Q568.48126 114.67949 567.6844 114.351364Q566.90314 114.007614 566.45 113.320114Q566.0125 112.632614 565.9969 111.77324ZM574.3719 114.538864L574.3719 105.945114L577.6219 105.945114Q578.46564 105.945114 578.91876 106.02324Q579.5594 106.132614 579.98126 106.42949Q580.41876 106.726364 580.66876 107.257614Q580.9344 107.788864 580.9344 108.42949Q580.9344 109.52324 580.23126 110.288864Q579.54376 111.038864 577.71564 111.038864L575.5125 111.038864L575.5125 114.538864L574.3719 114.538864ZM575.5125 110.038864L577.73126 110.038864Q578.84064 110.038864 579.29376 109.632614Q579.7625 109.21074 579.7625 108.46074Q579.7625 107.92949 579.48126 107.55449Q579.21564 107.163864 578.77814 107.038864Q578.48126 106.96074 577.71564 106.96074L575.5125 106.96074L575.5125 110.038864Z" fill-rule="nonzero"/><path fill="#9e9e9e" d="M559.4969 130.52324L559.4969 131.53886L553.8094 131.53886Q553.8094 131.16386 553.9344 130.80449Q554.15314 130.22636 554.6219 129.66386Q555.10626 129.10136 556.0125 128.36699Q557.41876 127.21074 557.90314 126.538864Q558.40314 125.86699 558.40314 125.27324Q558.40314 124.64824 557.95 124.226364Q557.4969 123.788864 556.77814 123.788864Q556.0125 123.788864 555.5594 124.24199Q555.10626 124.695114 555.09064 125.507614L554.0125 125.39824Q554.1219 124.17949 554.84064 123.55449Q555.575 122.913864 556.8094 122.913864Q558.04376 122.913864 558.7625 123.601364Q559.48126 124.288864 559.48126 125.30449Q559.48126 125.820114 559.2625 126.320114Q559.0594 126.80449 558.5594 127.36699Q558.075 127.913864 556.95 128.86699Q555.9969 129.66386 555.71564 129.96074Q555.45 130.24199 555.27814 130.52324L559.4969 130.52324ZM561.54376 131.53886L561.54376 130.33574L562.7469 130.33574L562.7469 131.53886L561.54376 131.53886ZM569.41876 125.05449L568.3719 125.132614Q568.23126 124.507614 567.98126 124.226364Q567.54376 123.77324 566.91876 123.77324Q566.41876 123.77324 566.02814 124.05449Q565.54376 124.42949 565.2469 125.132614Q564.96564 125.820114 564.95 127.101364Q565.325 126.52324 565.8719 126.24199Q566.4344 125.96074 567.04376 125.96074Q568.09064 125.96074 568.825 126.74199Q569.575 127.52324 569.575 128.74199Q569.575 129.55449 569.21564 130.25761Q568.8719 130.94511 568.2625 131.32011Q567.65314 131.67949 566.8875 131.67949Q565.5594 131.67949 564.73126 130.71074Q563.90314 129.74199 563.90314 127.52324Q563.90314 125.02324 564.825 123.89824Q565.6219 122.913864 566.98126 122.913864Q567.9969 122.913864 568.6375 123.49199Q569.29376 124.05449 569.41876 125.05449ZM565.1219 128.75761Q565.1219 129.30449 565.34064 129.80449Q565.575 130.28886 565.98126 130.55449Q566.40314 130.82011 566.8719 130.82011Q567.52814 130.82011 568.0125 130.28886Q568.4969 129.74199 568.4969 128.82011Q568.4969 127.92949 568.0125 127.413864Q567.54376 126.89824 566.825 126.89824Q566.10626 126.89824 565.60626 127.413864Q565.1219 127.92949 565.1219 128.75761ZM571.15314 125.007614Q571.15314 124.08574 571.60626 123.445114Q572.075 122.80449 572.95 122.80449Q573.7625 122.80449 574.29376 123.382614Q574.825 123.96074 574.825 125.070114Q574.825 126.163864 574.27814 126.757614Q573.7469 127.33574 572.96564 127.33574Q572.1844 127.33574 571.66876 126.757614Q571.15314 126.17949 571.15314 125.007614ZM572.98126 123.52324Q572.59064 123.52324 572.325 123.86699Q572.075 124.21074 572.075 125.11699Q572.075 125.945114 572.325 126.288864Q572.59064 126.61699 572.98126 126.61699Q573.3875 126.61699 573.6375 126.27324Q573.90314 125.92949 573.90314 125.038864Q573.90314 124.195114 573.6375 123.86699Q573.3719 123.52324 572.98126 123.52324ZM572.98126 131.85136L577.6844 122.80449L578.54376 122.80449L573.85626 131.85136L572.98126 131.85136ZM576.7 129.52324Q576.7 128.60136 577.15314 127.96074Q577.6219 127.320114 578.5125 127.320114Q579.325 127.320114 579.85626 127.89824Q580.3875 128.46074 580.3875 129.58574Q580.3875 130.67949 579.84064 131.27324Q579.3094 131.85136 578.5125 131.85136Q577.7469 131.85136 577.21564 131.27324Q576.7 130.69511 576.7 129.52324ZM578.54376 128.03886Q578.1375 128.03886 577.8719 128.38261Q577.6219 128.72636 577.6219 129.63261Q577.6219 130.44511 577.8875 130.78886Q578.15314 131.13261 578.54376 131.13261Q578.9344 131.13261 579.2 130.78886Q579.46564 130.44511 579.46564 129.53886Q579.46564 128.71074 579.2 128.38261Q578.9344 128.03886 578.54376 128.03886Z" fill-rule="nonzero"/><path stroke="#757575" stroke-width="1.0" stroke-linecap="butt" d="M581.45 119.038864L472.95 119.038864L431.82358 111.246445" fill-rule="nonzero"/><path fill="#9e9e9e" d="M433.82358 111.246445C433.82358 110.14188 432.92813 109.246445 431.82358 109.246445C430.719 109.246445 429.82358 110.14188 429.82358 111.246445C429.82358 112.35101 430.719 113.246445 431.82358 113.246445C432.92813 113.246445 433.82358 112.35101 433.82358 111.246445" fill-rule="nonzero"/><path fill="#1a1a1a" d="M559.3719 193.73984L559.3719 185.14609L562.6219 185.14609Q563.46564 185.14609 563.91876 185.22421Q564.5594 185.33359 564.98126 185.63046Q565.41876 185.92734 565.66876 186.45859Q565.9344 186.98984 565.9344 187.63046Q565.9344 188.72421 565.23126 189.48984Q564.54376 190.23984 562.71564 190.23984L560.5125 190.23984L560.5125 193.73984L559.3719 193.73984ZM560.5125 189.23984L562.73126 189.23984Q563.84064 189.23984 564.29376 188.83359Q564.7625 188.41171 564.7625 187.66171Q564.7625 187.13046 564.48126 186.75546Q564.21564 186.36484 563.77814 186.23984Q563.48126 186.16171 562.71564 186.16171L560.5125 186.16171L560.5125 189.23984ZM566.9969 190.97421L568.0594 190.88046Q568.1375 191.53671 568.41876 191.94296Q568.7 192.34921 569.27814 192.61484Q569.8719 192.86484 570.60626 192.86484Q571.2469 192.86484 571.7469 192.67734Q572.2469 192.47421 572.48126 192.14609Q572.73126 191.80234 572.73126 191.41171Q572.73126 191.00546 572.4969 190.70859Q572.2625 190.39609 571.73126 190.19296Q571.3719 190.05234 570.1844 189.77109Q569.0125 189.48984 568.54376 189.23984Q567.91876 188.91171 567.6219 188.44296Q567.325 187.95859 567.325 187.36484Q567.325 186.72421 567.6844 186.16171Q568.0594 185.58359 568.7625 185.30234Q569.48126 185.00546 570.34064 185.00546Q571.29376 185.00546 572.02814 185.31796Q572.7625 185.61484 573.15314 186.22421Q573.54376 186.81796 573.575 187.56796L572.48126 187.64609Q572.3875 186.83359 571.8719 186.42734Q571.3719 186.00546 570.3875 186.00546Q569.35626 186.00546 568.8875 186.38046Q568.41876 186.75546 568.41876 187.28671Q568.41876 187.75546 568.7469 188.05234Q569.075 188.34921 570.45 188.66171Q571.84064 188.97421 572.35626 189.20859Q573.10626 189.56796 573.46564 190.09921Q573.825 190.61484 573.825 191.31796Q573.825 192.00546 573.4344 192.61484Q573.04376 193.20859 572.3094 193.55234Q571.575 193.88046 570.65314 193.88046Q569.48126 193.88046 568.6844 193.55234Q567.90314 193.20859 567.45 192.52109Q567.0125 191.83359 566.9969 190.97421ZM574.95 191.47421L576.0125 191.33359Q576.1844 192.22421 576.6219 192.63046Q577.0594 193.02109 577.6844 193.02109Q578.4344 193.02109 578.95 192.50546Q579.46564 191.98984 579.46564 191.22421Q579.46564 190.50546 578.98126 190.03671Q578.5125 189.55234 577.77814 189.55234Q577.48126 189.55234 577.02814 189.67734L577.15314 188.73984Q577.2625 188.75546 577.325 188.75546Q577.9969 188.75546 578.52814 188.41171Q579.075 188.05234 579.075 187.31796Q579.075 186.73984 578.6844 186.36484Q578.29376 185.97421 577.66876 185.97421Q577.0594 185.97421 576.6375 186.36484Q576.23126 186.75546 576.1219 187.52109L575.0594 187.33359Q575.2469 186.28671 575.9344 185.70859Q576.6219 185.11484 577.6375 185.11484Q578.34064 185.11484 578.9344 185.42734Q579.52814 185.72421 579.84064 186.23984Q580.15314 186.75546 580.15314 187.34921Q580.15314 187.89609 579.85626 188.36484Q579.5594 188.81796 578.98126 189.08359Q579.73126 189.25546 580.15314 189.81796Q580.575 190.36484 580.575 191.20859Q580.575 192.33359 579.7469 193.11484Q578.9344 193.89609 577.6844 193.89609Q576.5594 193.89609 575.8094 193.22421Q575.0594 192.53671 574.95 191.47421Z" fill-rule="nonzero"/><path fill="#9e9e9e" d="M552.4969 209.72421L552.4969 210.73984L546.8094 210.73984Q546.8094 210.36484 546.9344 210.00546Q547.15314 209.42734 547.6219 208.86484Q548.10626 208.30234 549.0125 207.56796Q550.41876 206.41171 550.90314 205.73984Q551.40314 205.06796 551.40314 204.47421Q551.40314 203.84921 550.95 203.42734Q550.4969 202.98984 549.77814 202.98984Q549.0125 202.98984 548.5594 203.44296Q548.10626 203.89609 548.09064 204.70859L547.0125 204.59921Q547.1219 203.38046 547.84064 202.75546Q548.575 202.11484 549.8094 202.11484Q551.04376 202.11484 551.7625 202.80234Q552.48126 203.48984 552.48126 204.50546Q552.48126 205.02109 552.2625 205.52109Q552.0594 206.00546 551.5594 206.56796Q551.075 207.11484 549.95 208.06796Q548.9969 208.86484 548.71564 209.16171Q548.45 209.44296 548.27814 209.72421L552.4969 209.72421ZM553.95 208.47421L555.0125 208.33359Q555.1844 209.22421 555.6219 209.63046Q556.0594 210.02109 556.6844 210.02109Q557.4344 210.02109 557.95 209.50546Q558.46564 208.98984 558.46564 208.22421Q558.46564 207.50546 557.98126 207.03671Q557.5125 206.55234 556.77814 206.55234Q556.48126 206.55234 556.02814 206.67734L556.15314 205.73984Q556.2625 205.75546 556.325 205.75546Q556.9969 205.75546 557.52814 205.41171Q558.075 205.05234 558.075 204.31796Q558.075 203.73984 557.6844 203.36484Q557.29376 202.97421 556.66876 202.97421Q556.0594 202.97421 555.6375 203.36484Q555.23126 203.75546 555.1219 204.52109L554.0594 204.33359Q554.2469 203.28671 554.9344 202.70859Q555.6219 202.11484 556.6375 202.11484Q557.34064 202.11484 557.9344 202.42734Q558.52814 202.72421 558.84064 203.23984Q559.15314 203.75546 559.15314 204.34921Q559.15314 204.89609 558.85626 205.36484Q558.5594 205.81796 557.98126 206.08359Q558.73126 206.25546 559.15314 206.81796Q559.575 207.36484 559.575 208.20859Q559.575 209.33359 558.7469 210.11484Q557.9344 210.89609 556.6844 210.89609Q555.5594 210.89609 554.8094 210.22421Q554.0594 209.53671 553.95 208.47421ZM561.54376 210.73984L561.54376 209.53671L562.7469 209.53671L562.7469 210.73984L561.54376 210.73984ZM563.95 208.48984L565.0594 208.39609Q565.1844 209.20859 565.6219 209.61484Q566.075 210.02109 566.71564 210.02109Q567.46564 210.02109 567.9969 209.44296Q568.52814 208.86484 568.52814 207.92734Q568.52814 207.02109 568.0125 206.50546Q567.5125 205.97421 566.6844 205.97421Q566.1844 205.97421 565.7625 206.20859Q565.35626 206.44296 565.1219 206.80234L564.1375 206.67734L564.96564 202.27109L569.2469 202.27109L569.2469 203.27109L565.8094 203.27109L565.35626 205.58359Q566.1219 205.03671 566.96564 205.03671Q568.09064 205.03671 568.85626 205.81796Q569.6375 206.59921 569.6375 207.83359Q569.6375 208.98984 568.96564 209.84921Q568.1375 210.88046 566.71564 210.88046Q565.54376 210.88046 564.79376 210.22421Q564.0594 209.56796 563.95 208.48984ZM571.15314 204.20859Q571.15314 203.28671 571.60626 202.64609Q572.075 202.00546 572.95 202.00546Q573.7625 202.00546 574.29376 202.58359Q574.825 203.16171 574.825 204.27109Q574.825 205.36484 574.27814 205.95859Q573.7469 206.53671 572.96564 206.53671Q572.1844 206.53671 571.66876 205.95859Q571.15314 205.38046 571.15314 204.20859ZM572.98126 202.72421Q572.59064 202.72421 572.325 203.06796Q572.075 203.41171 572.075 204.31796Q572.075 205.14609 572.325 205.48984Q572.59064 205.81796 572.98126 205.81796Q573.3875 205.81796 573.6375 205.47421Q573.90314 205.13046 573.90314 204.23984Q573.90314 203.39609 573.6375 203.06796Q573.3719 202.72421 572.98126 202.72421ZM572.98126 211.05234L577.6844 202.00546L578.54376 202.00546L573.85626 211.05234L572.98126 211.05234ZM576.7 208.72421Q576.7 207.80234 577.15314 207.16171Q577.6219 206.52109 578.5125 206.52109Q579.325 206.52109 579.85626 207.09921Q580.3875 207.66171 580.3875 208.78671Q580.3875 209.88046 579.84064 210.47421Q579.3094 211.05234 578.5125 211.05234Q577.7469 211.05234 577.21564 210.47421Q576.7 209.89609 576.7 208.72421ZM578.54376 207.23984Q578.1375 207.23984 577.8719 207.58359Q577.6219 207.92734 577.6219 208.83359Q577.6219 209.64609 577.8875 209.98984Q578.15314 210.33359 578.54376 210.33359Q578.9344 210.33359 579.2 209.98984Q579.46564 209.64609 579.46564 208.73984Q579.46564 207.91171 579.2 207.58359Q578.9344 207.23984 578.54376 207.23984Z" fill-rule="nonzero"/><path stroke="#757575" stroke-width="1.0" stroke-linecap="butt" d="M581.45 198.23984L472.95 198.23984L454.4424 198.23984" fill-rule="nonzero"/><path fill="#9e9e9e" d="M456.4424 198.23984C456.4424 197.13527 455.547 196.23984 454.4424 196.23984C453.33786 196.23984 452.4424 197.13527 452.4424 198.23984C452.4424 199.3444 453.33786 200.23984 454.4424 200.23984C455.547 200.23984 456.4424 199.3444 456.4424 198.23984" fill-rule="nonzero"/><path fill="#1a1a1a" d="M560.825 271.03354L557.4969 262.4398L558.73126 262.4398L560.96564 268.6898Q561.23126 269.4398 561.41876 270.09604Q561.6219 269.3929 561.8875 268.6898L564.2 262.4398L565.35626 262.4398L561.9969 271.03354L560.825 271.03354ZM565.575 271.03354L565.575 262.4398L566.7 262.4398L566.7 271.03354L565.575 271.03354ZM570.5594 271.03354L570.5594 263.4554L567.73126 263.4554L567.73126 262.4398L574.54376 262.4398L574.54376 263.4554L571.7 263.4554L571.7 271.03354L570.5594 271.03354ZM574.4344 271.03354L577.73126 262.4398L578.95 262.4398L582.46564 271.03354L581.1844 271.03354L580.16876 268.42416L576.59064 268.42416L575.6375 271.03354L574.4344 271.03354ZM576.91876 267.5023L579.825 267.5023L578.9344 265.1273Q578.5125 264.04916 578.325 263.34604Q578.15314 264.17416 577.85626 264.98666L576.91876 267.5023Z" fill-rule="nonzero"/><path fill="#9e9e9e" d="M559.41876 281.54916L558.3719 281.6273Q558.23126 281.0023 557.98126 280.72104Q557.54376 280.2679 556.91876 280.2679Q556.41876 280.2679 556.02814 280.54916Q555.54376 280.92416 555.2469 281.6273Q554.96564 282.3148 554.95 283.59604Q555.325 283.0179 555.8719 282.73666Q556.4344 282.4554 557.04376 282.4554Q558.09064 282.4554 558.825 283.23666Q559.575 284.0179 559.575 285.23666Q559.575 286.04916 559.21564 286.7523Q558.8719 287.4398 558.2625 287.8148Q557.65314 288.17416 556.8875 288.17416Q555.5594 288.17416 554.73126 287.2054Q553.90314 286.23666 553.90314 284.0179Q553.90314 281.5179 554.825 280.3929Q555.6219 279.40854 556.98126 279.40854Q557.9969 279.40854 558.6375 279.98666Q559.29376 280.54916 559.41876 281.54916ZM555.1219 285.2523Q555.1219 285.79916 555.34064 286.29916Q555.575 286.78354 555.98126 287.04916Q556.40314 287.3148 556.8719 287.3148Q557.52814 287.3148 558.0125 286.78354Q558.4969 286.23666 558.4969 285.3148Q558.4969 284.42416 558.0125 283.90854Q557.54376 283.3929 556.825 283.3929Q556.10626 283.3929 555.60626 283.90854Q555.1219 284.42416 555.1219 285.2523ZM561.54376 288.03354L561.54376 286.8304L562.7469 286.8304L562.7469 288.03354L561.54376 288.03354ZM564.0125 280.5648L564.0125 279.54916L569.575 279.54916L569.575 280.3773Q568.7625 281.2523 567.95 282.7054Q567.15314 284.1429 566.71564 285.67416Q566.3875 286.7523 566.3094 288.03354L565.21564 288.03354Q565.23126 287.0179 565.60626 285.5804Q565.9969 284.1429 566.7 282.8148Q567.41876 281.48666 568.23126 280.5648L564.0125 280.5648ZM571.15314 281.5023Q571.15314 280.5804 571.60626 279.9398Q572.075 279.29916 572.95 279.29916Q573.7625 279.29916 574.29376 279.8773Q574.825 280.4554 574.825 281.5648Q574.825 282.65854 574.27814 283.2523Q573.7469 283.8304 572.96564 283.8304Q572.1844 283.8304 571.66876 283.2523Q571.15314 282.67416 571.15314 281.5023ZM572.98126 280.0179Q572.59064 280.0179 572.325 280.36166Q572.075 280.7054 572.075 281.61166Q572.075 282.4398 572.325 282.78354Q572.59064 283.11166 572.98126 283.11166Q573.3875 283.11166 573.6375 282.7679Q573.90314 282.42416 573.90314 281.53354Q573.90314 280.6898 573.6375 280.36166Q573.3719 280.0179 572.98126 280.0179ZM572.98126 288.34604L577.6844 279.29916L578.54376 279.29916L573.85626 288.34604L572.98126 288.34604ZM576.7 286.0179Q576.7 285.09604 577.15314 284.4554Q577.6219 283.8148 578.5125 283.8148Q579.325 283.8148 579.85626 284.3929Q580.3875 284.9554 580.3875 286.0804Q580.3875 287.17416 579.84064 287.7679Q579.3094 288.34604 578.5125 288.34604Q577.7469 288.34604 577.21564 287.7679Q576.7 287.1898 576.7 286.0179ZM578.54376 284.53354Q578.1375 284.53354 577.8719 284.8773Q577.6219 285.22104 577.6219 286.1273Q577.6219 286.9398 577.8875 287.28354Q578.15314 287.6273 578.54376 287.6273Q578.9344 287.6273 579.2 287.28354Q579.46564 286.9398 579.46564 286.03354Q579.46564 285.2054 579.2 284.8773Q578.9344 284.53354 578.54376 284.53354Z" fill-rule="nonzero"/><path stroke="#757575" stroke-width="1.0" stroke-linecap="butt" d="M581.45 275.53354L472.95 275.53354L360.7495 275.53354" fill-rule="nonzero"/><path fill="#9e9e9e" d="M362.7495 275.53354C362.7495 274.42896 361.85406 273.53354 360.7495 273.53354C359.64493 273.53354 358.7495 274.42896 358.7495 275.53354C358.7495 276.6381 359.64493 277.53354 360.7495 277.53354C361.85406 277.53354 362.7495 276.6381 362.7495 275.53354" fill-rule="nonzero"/></svg>