<svg version="1.1" viewBox="0.0 0.0 600.0 371.0" fill="none" stroke="none" stroke-linecap="square" stroke-miterlimit="10" width="600" height="371" xmlns:xlink="http://www.w3.org/1999/xlink" xmlns="http://www.w3.org/2000/svg"><path fill="#ffffff" d="M0 0L600.0 0L600.0 371.0L0 371.0L0 0Z" fill-rule="nonzero"/><path stroke="#333333" stroke-width="1.0" stroke-linecap="butt" d="M82.5 26.5L82.5 326.5" fill-rule="nonzero"/><path fill="#eeeeee" d="M74.5 18.5L81.5 26.5L81.5 326.5L74.5 318.5Z" fill-rule="nonzero"/><path stroke="#cccccc" stroke-width="1.0" stroke-linecap="butt" d="M248.5 26.5L248.5 326.5" fill-rule="nonzero"/><path stroke="#cccccc" stroke-width="1.0" stroke-linecap="butt" d="M415.5 26.5L415.5 326.5" fill-rule="nonzero"/><path stroke="#cccccc" stroke-width="1.0" stroke-linecap="butt" d="M581.5 26.5L581.5 326.5" fill-rule="nonzero"/><path stroke="#e6e6e6" stroke-width="1.0" stroke-linecap="butt" d="M137.5 26.5L137.5 326.5" fill-rule="nonzero"/><path stroke="#e6e6e6" stroke-width="1.0" stroke-linecap="butt" d="M193.5 26.5L193.5 326.5" fill-rule="nonzero"/><path stroke="#e6e6e6" stroke-width="1.0" stroke-linecap="butt" d="M304.5 26.5L304.5 326.5" fill-rule="nonzero"/><path stroke="#e6e6e6" stroke-width="1.0" stroke-linecap="butt" d="M359.5 26.5L359.5 326.5" fill-rule="nonzero"/><path stroke="#e6e6e6" stroke-width="1.0" stroke-linecap="butt" d="M470.5 26.5L470.5 326.5" fill-rule="nonzero"/><path stroke="#e6e6e6" stroke-width="1.0" stroke-linecap="butt" d="M526.5 26.5L526.5 326.5" fill-rule="nonzero"/><path stroke="#000000" stroke-width="1.0" stroke-linecap="butt" d="M581.5 326.5L74.5 326.5" fill-rule="nonzero"/><clipPath id="id_0"><path d="M74.55 18.55L581.45 18.55L581.45 326.45L74.55 326.45L74.55 18.55Z" clip-rule="nonzero"/></clipPath><path fill="#486d8f" clip-path="url(#id_0)" d="M571.0 51.0L83.0 51.0L78.0 46.0L566.0 46.0Z" fill-rule="nonzero"/><path fill="#8cb9e3" clip-path="url(#id_0)" d="M566.0 46.0L566.0 27.0L571.0 32.0L571.0 51.0Z" fill-rule="nonzero"/><path stroke="#000000" stroke-width="2.0" stroke-linecap="butt" stroke-opacity="0.0" clip-path="url(#id_0)" d="M78.0 46.0L78.0 27.0L566.0 27.0L566.0 46.0Z" fill-rule="nonzero"/><path fill="#6fa8dc" clip-path="url(#id_0)" d="M78.0 46.0L78.0 27.0L566.0 27.0L566.0 46.0Z" fill-rule="nonzero"/><path fill="#486d8f" clip-path="url(#id_0)" d="M465.0 81.0L83.0 81.0L78.0 76.0L460.0 76.0Z" fill-rule="nonzero"/><path fill="#8cb9e3" clip-path="url(#id_0)" d="M460.0 76.0L460.0 57.0L465.0 62.0L465.0 81.0Z" fill-rule="nonzero"/><path stroke="#000000" stroke-width="2.0" stroke-linecap="butt" stroke-opacity="0.0" clip-path="url(#id_0)" d="M78.0 76.0L78.0 57.0L460.0 57.0L460.0 76.0Z" fill-rule="nonzero"/><path fill="#6fa8dc" clip-path="url(#id_0)" d="M78.0 76.0L78.0 57.0L460.0 57.0L460.0 76.0Z" fill-rule="nonzero"/><path fill="#486d8f" clip-path="url(#id_0)" d="M367.0 111.0L83.0 111.0L78.0 106.0L362.0 106.0Z" fill-rule="nonzero"/><path fill="#8cb9e3" clip-path="url(#id_0)" d="M362.0 106.0L362.0 87.0L367.0 92.0L367.0 111.0Z" fill-rule="nonzero"/><path stroke="#000000" stroke-width="2.0" stroke-linecap="butt" stroke-opacity="0.0" clip-path="url(#id_0)" d="M78.0 106.0L78.0 87.0L362.0 87.0L362.0 106.0Z" fill-rule="nonzero"/><path fill="#6fa8dc" clip-path="url(#id_0)" d="M78.0 106.0L78.0 87.0L362.0 87.0L362.0 106.0Z" fill-rule="nonzero"/><path fill="#486d8f" clip-path="url(#id_0)" d="M227.0 140.0L83.0 140.0L78.0 135.0L222.0 135.0Z" fill-rule="nonzero"/><path fill="#8cb9e3" clip-path="url(#id_0)" d="M222.0 135.0L222.0 116.0L227.0 121.0L227.0 140.0Z" fill-rule="nonzero"/><path stroke="#000000" stroke-width="2.0" stroke-linecap="butt" stroke-opacity="0.0" clip-path="url(#id_0)" d="M78.0 135.0L78.0 116.0L222.0 116.0L222.0 135.0Z" fill-rule="nonzero"/><path fill="#6fa8dc" clip-path="url(#id_0)" d="M78.0 135.0L78.0 116.0L222.0 116.0L222.0 135.0Z" fill-rule="nonzero"/><path fill="#486d8f" clip-path="url(#id_0)" d="M149.0 170.0L83.0 170.0L78.0 165.0L144.0 165.0Z" fill-rule="nonzero"/><path fill="#8cb9e3" clip-path="url(#id_0)" d="M144.0 165.0L144.0 146.0L149.0 151.0L149.0 170.0Z" fill-rule="nonzero"/><path stroke="#000000" stroke-width="2.0" stroke-linecap="butt" stroke-opacity="0.0" clip-path="url(#id_0)" d="M78.0 165.0L78.0 146.0L144.0 146.0L144.0 165.0Z" fill-rule="nonzero"/><path fill="#6fa8dc" clip-path="url(#id_0)" d="M78.0 165.0L78.0 146.0L144.0 146.0L144.0 165.0Z" fill-rule="nonzero"/><path fill="#486d8f" clip-path="url(#id_0)" d="M146.0 200.0L83.0 200.0L78.0 195.0L141.0 195.0Z" fill-rule="nonzero"/><path fill="#8cb9e3" clip-path="url(#id_0)" d="M141.0 195.0L141.0 176.0L146.0 181.0L146.0 200.0Z" fill-rule="nonzero"/><path stroke="#000000" stroke-width="2.0" stroke-linecap="butt" stroke-opacity="0.0" clip-path="url(#id_0)" d="M78.0 195.0L78.0 176.0L141.0 176.0L141.0 195.0Z" fill-rule="nonzero"/><path fill="#6fa8dc" clip-path="url(#id_0)" d="M78.0 195.0L78.0 176.0L141.0 176.0L141.0 195.0Z" fill-rule="nonzero"/><path fill="#486d8f" clip-path="url(#id_0)" d="M117.0 230.0L83.0 230.0L78.0 225.0L112.0 225.0Z" fill-rule="nonzero"/><path fill="#8cb9e3" clip-path="url(#id_0)" d="M112.0 225.0L112.0 206.0L117.0 211.0L117.0 230.0Z" fill-rule="nonzero"/><path stroke="#000000" stroke-width="2.0" stroke-linecap="butt" stroke-opacity="0.0" clip-path="url(#id_0)" d="M78.0 225.0L78.0 206.0L112.0 206.0L112.0 225.0Z" fill-rule="nonzero"/><path fill="#6fa8dc" clip-path="url(#id_0)" d="M78.0 225.0L78.0 206.0L112.0 206.0L112.0 225.0Z" fill-rule="nonzero"/><path fill="#486d8f" clip-path="url(#id_0)" d="M112.0 259.0L83.0 259.0L78.0 254.0L107.0 254.0Z" fill-rule="nonzero"/><path fill="#8cb9e3" clip-path="url(#id_0)" d="M107.0 254.0L107.0 235.0L112.0 240.0L112.0 259.0Z" fill-rule="nonzero"/><path stroke="#000000" stroke-width="2.0" stroke-linecap="butt" stroke-opacity="0.0" clip-path="url(#id_0)" d="M78.0 254.0L78.0 235.0L107.0 235.0L107.0 254.0Z" fill-rule="nonzero"/><path fill="#6fa8dc" clip-path="url(#id_0)" d="M78.0 254.0L78.0 235.0L107.0 235.0L107.0 254.0Z" fill-rule="nonzero"/><path fill="#486d8f" clip-path="url(#id_0)" d="M111.0 289.0L83.0 289.0L78.0 284.0L106.0 284.0Z" fill-rule="nonzero"/><path fill="#8cb9e3" clip-path="url(#id_0)" d="M106.0 284.0L106.0 265.0L111.0 270.0L111.0 289.0Z" fill-rule="nonzero"/><path stroke="#000000" stroke-width="2.0" stroke-linecap="butt" stroke-opacity="0.0" clip-path="url(#id_0)" d="M78.0 284.0L78.0 265.0L106.0 265.0L106.0 284.0Z" fill-rule="nonzero"/><path fill="#6fa8dc" clip-path="url(#id_0)" d="M78.0 284.0L78.0 265.0L106.0 265.0L106.0 284.0Z" fill-rule="nonzero"/><path fill="#486d8f" clip-path="url(#id_0)" d="M109.0 319.0L83.0 319.0L78.0 314.0L104.0 314.0Z" fill-rule="nonzero"/><path fill="#8cb9e3" clip-path="url(#id_0)" d="M104.0 314.0L104.0 295.0L109.0 300.0L109.0 319.0Z" fill-rule="nonzero"/><path stroke="#000000" stroke-width="2.0" stroke-linecap="butt" stroke-opacity="0.0" clip-path="url(#id_0)" d="M78.0 314.0L78.0 295.0L104.0 295.0L104.0 314.0Z" fill-rule="nonzero"/><path fill="#6fa8dc" clip-path="url(#id_0)" d="M78.0 314.0L78.0 295.0L104.0 295.0L104.0 314.0Z" fill-rule="nonzero"/><path stroke="#000000" stroke-width="1.0" stroke-linecap="butt" d="M137.5 329.5L137.5 323.5" fill-rule="nonzero"/><path stroke="#000000" stroke-width="1.0" stroke-linecap="butt" d="M193.5 329.5L193.5 323.5" fill-rule="nonzero"/><path stroke="#000000" stroke-width="1.0" stroke-linecap="butt" d="M304.5 329.5L304.5 323.5" fill-rule="nonzero"/><path stroke="#000000" stroke-width="1.0" stroke-linecap="butt" d="M359.5 329.5L359.5 323.5" fill-rule="nonzero"/><path stroke="#000000" stroke-width="1.0" stroke-linecap="butt" d="M470.5 329.5L470.5 323.5" fill-rule="nonzero"/><path stroke="#000000" stroke-width="1.0" stroke-linecap="butt" d="M526.5 329.5L526.5 323.5" fill-rule="nonzero"/><path stroke="#000000" stroke-width="1.0" stroke-linecap="butt" d="M82.5 332.5L82.5 320.5" fill-rule="nonzero"/><path stroke="#000000" stroke-width="1.0" stroke-linecap="butt" d="M248.5 332.5L248.5 320.5" fill-rule="nonzero"/><path stroke="#000000" stroke-width="1.0" stroke-linecap="butt" d="M415.5 332.5L415.5 320.5" fill-rule="nonzero"/><path stroke="#000000" stroke-width="1.0" stroke-linecap="butt" d="M581.5 332.5L581.5 320.5" fill-rule="nonzero"/><path stroke="#6fa8dc" stroke-width="3.0" stroke-linejoin="round" stroke-linecap="round" d="M547.0939 40.5L541.2501 40.5L541.2501 39.34375L544.01575 36.390625Q544.57825 35.78125 544.8439 35.3125Q545.1251 34.84375 545.1251 34.4375Q545.1251 33.859375 544.82825 33.546875Q544.547 33.21875 544.01575 33.21875Q543.4376 33.21875 543.1095 33.609375Q542.7814 34.0 542.7814 34.65625L541.07825 34.65625Q541.07825 33.875 541.45325 33.234375Q541.82825 32.578125 542.5001 32.21875Q543.1876 31.84375 544.047 31.84375Q545.3595 31.84375 546.0939 32.484375Q546.82825 33.109375 546.82825 34.265625Q546.82825 34.90625 546.5001 35.5625Q546.172 36.21875 545.3751 37.09375L543.4376 39.140625L547.0939 39.140625L547.0939 40.5ZM552.2189 37.09375Q551.547 37.734375 550.672 37.734375Q549.5314 37.734375 548.8439 36.96875Q548.172 36.1875 548.172 34.875Q548.172 34.03125 548.5314 33.328125Q548.9064 32.625 549.5626 32.234375Q550.2189 31.84375 551.047 31.84375Q551.89075 31.84375 552.547 32.265625Q553.20325 32.6875 553.5626 33.484375Q553.922 34.28125 553.9376 35.296875L553.9376 35.921875Q553.9376 38.0625 552.8751 39.28125Q551.8126 40.5 549.8595 40.578125L549.45325 40.578125L549.45325 39.171875L549.82825 39.15625Q552.0314 39.0625 552.2189 37.09375ZM551.07825 36.4375Q551.5001 36.4375 551.7814 36.234375Q552.07825 36.015625 552.2345 35.71875L552.2345 35.03125Q552.2345 34.171875 551.9064 33.703125Q551.57825 33.21875 551.0314 33.21875Q550.51575 33.21875 550.1876 33.6875Q549.8595 34.140625 549.8595 34.84375Q549.8595 35.546875 550.172 36.0Q550.5001 36.4375 551.07825 36.4375ZM560.26575 37.28125L561.2345 37.28125L561.2345 38.65625L560.26575 38.65625L560.26575 40.5L558.5626 40.5L558.5626 38.65625L555.07825 38.65625L555.0001 37.59375L558.547 31.96875L560.26575 31.96875L560.26575 37.28125ZM556.6876 37.28125L558.5626 37.28125L558.5626 34.28125L558.45325 34.46875L556.6876 37.28125Z" fill-rule="nonzero"/><path fill="#000000" d="M547.0939 40.5L541.2501 40.5L541.2501 39.34375L544.01575 36.390625Q544.57825 35.78125 544.8439 35.3125Q545.1251 34.84375 545.1251 34.4375Q545.1251 33.859375 544.82825 33.546875Q544.547 33.21875 544.01575 33.21875Q543.4376 33.21875 543.1095 33.609375Q542.7814 34.0 542.7814 34.65625L541.07825 34.65625Q541.07825 33.875 541.45325 33.234375Q541.82825 32.578125 542.5001 32.21875Q543.1876 31.84375 544.047 31.84375Q545.3595 31.84375 546.0939 32.484375Q546.82825 33.109375 546.82825 34.265625Q546.82825 34.90625 546.5001 35.5625Q546.172 36.21875 545.3751 37.09375L543.4376 39.140625L547.0939 39.140625L547.0939 40.5ZM552.2189 37.09375Q551.547 37.734375 550.672 37.734375Q549.5314 37.734375 548.8439 36.96875Q548.172 36.1875 548.172 34.875Q548.172 34.03125 548.5314 33.328125Q548.9064 32.625 549.5626 32.234375Q550.2189 31.84375 551.047 31.84375Q551.89075 31.84375 552.547 32.265625Q553.20325 32.6875 553.5626 33.484375Q553.922 34.28125 553.9376 35.296875L553.9376 35.921875Q553.9376 38.0625 552.8751 39.28125Q551.8126 40.5 549.8595 40.578125L549.45325 40.578125L549.45325 39.171875L549.82825 39.15625Q552.0314 39.0625 552.2189 37.09375ZM551.07825 36.4375Q551.5001 36.4375 551.7814 36.234375Q552.07825 36.015625 552.2345 35.71875L552.2345 35.03125Q552.2345 34.171875 551.9064 33.703125Q551.57825 33.21875 551.0314 33.21875Q550.51575 33.21875 550.1876 33.6875Q549.8595 34.140625 549.8595 34.84375Q549.8595 35.546875 550.172 36.0Q550.5001 36.4375 551.07825 36.4375ZM560.26575 37.28125L561.2345 37.28125L561.2345 38.65625L560.26575 38.65625L560.26575 40.5L558.5626 40.5L558.5626 38.65625L555.07825 38.65625L555.0001 37.59375L558.547 31.96875L560.26575 31.96875L560.26575 37.28125ZM556.6876 37.28125L558.5626 37.28125L558.5626 34.28125L558.45325 34.46875L556.6876 37.28125Z" fill-rule="nonzero"/><path stroke="#6fa8dc" stroke-width="3.0" stroke-linejoin="round" stroke-linecap="round" d="M440.66187 70.5L434.8181 70.5L434.8181 69.34375L437.58374 66.390625Q438.14624 65.78125 438.41187 65.3125Q438.6931 64.84375 438.6931 64.4375Q438.6931 63.859375 438.39624 63.546875Q438.115 63.21875 437.58374 63.21875Q437.0056 63.21875 436.6775 63.609375Q436.34937 64.0 436.34937 64.65625L434.64624 64.65625Q434.64624 63.875 435.02124 63.234375Q435.39624 62.578125 436.0681 62.21875Q436.7556 61.84375 437.615 61.84375Q438.9275 61.84375 439.66187 62.484375Q440.39624 63.109375 440.39624 64.265625Q440.39624 64.90625 440.0681 65.5625Q439.74 66.21875 438.9431 67.09375L437.0056 69.140625L440.66187 69.140625L440.66187 70.5ZM443.53687 65.484375L444.4431 65.484375Q445.08374 65.484375 445.39624 65.171875Q445.70874 64.84375 445.70874 64.3125Q445.70874 63.796875 445.39624 63.515625Q445.09937 63.21875 444.5525 63.21875Q444.0681 63.21875 443.74 63.484375Q443.41187 63.75 443.41187 64.171875L441.72437 64.171875Q441.72437 63.515625 442.08374 62.984375Q442.4431 62.453125 443.08374 62.15625Q443.74 61.84375 444.52124 61.84375Q445.865 61.84375 446.6306 62.5Q447.41187 63.140625 447.41187 64.28125Q447.41187 64.875 447.0525 65.375Q446.6931 65.859375 446.115 66.109375Q446.83374 66.375 447.1775 66.890625Q447.53687 67.40625 447.53687 68.109375Q447.53687 69.25 446.70874 69.9375Q445.8806 70.625 444.52124 70.625Q443.24 70.625 442.4275 69.953125Q441.615 69.265625 441.615 68.15625L443.3025 68.15625Q443.3025 68.640625 443.66187 68.953125Q444.03687 69.25 444.5525 69.25Q445.16187 69.25 445.5056 68.9375Q445.84937 68.609375 445.84937 68.078125Q445.84937 66.8125 444.4431 66.8125L443.53687 66.8125L443.53687 65.484375ZM454.5681 66.96875Q454.5681 68.734375 453.83374 69.6875Q453.09937 70.625 451.6931 70.625Q450.28687 70.625 449.5525 69.703125Q448.8181 68.78125 448.8025 67.0625L448.8025 65.484375Q448.8025 63.703125 449.53687 62.78125Q450.28687 61.84375 451.6775 61.84375Q453.0681 61.84375 453.8025 62.765625Q454.5525 63.6875 454.5681 65.40625L454.5681 66.96875ZM452.865 65.25Q452.865 64.1875 452.5681 63.703125Q452.28687 63.21875 451.6775 63.21875Q451.08374 63.21875 450.78687 63.6875Q450.5056 64.140625 450.49 65.125L450.49 67.1875Q450.49 68.234375 450.77124 68.75Q451.0525 69.25 451.6931 69.25Q452.3025 69.25 452.58374 68.765625Q452.865 68.28125 452.865 67.28125L452.865 65.25Z" fill-rule="nonzero"/><path fill="#000000" d="M440.66187 70.5L434.8181 70.5L434.8181 69.34375L437.58374 66.390625Q438.14624 65.78125 438.41187 65.3125Q438.6931 64.84375 438.6931 64.4375Q438.6931 63.859375 438.39624 63.546875Q438.115 63.21875 437.58374 63.21875Q437.0056 63.21875 436.6775 63.609375Q436.34937 64.0 436.34937 64.65625L434.64624 64.65625Q434.64624 63.875 435.02124 63.234375Q435.39624 62.578125 436.0681 62.21875Q436.7556 61.84375 437.615 61.84375Q438.9275 61.84375 439.66187 62.484375Q440.39624 63.109375 440.39624 64.265625Q440.39624 64.90625 440.0681 65.5625Q439.74 66.21875 438.9431 67.09375L437.0056 69.140625L440.66187 69.140625L440.66187 70.5ZM443.53687 65.484375L444.4431 65.484375Q445.08374 65.484375 445.39624 65.171875Q445.70874 64.84375 445.70874 64.3125Q445.70874 63.796875 445.39624 63.515625Q445.09937 63.21875 444.5525 63.21875Q444.0681 63.21875 443.74 63.484375Q443.41187 63.75 443.41187 64.171875L441.72437 64.171875Q441.72437 63.515625 442.08374 62.984375Q442.4431 62.453125 443.08374 62.15625Q443.74 61.84375 444.52124 61.84375Q445.865 61.84375 446.6306 62.5Q447.41187 63.140625 447.41187 64.28125Q447.41187 64.875 447.0525 65.375Q446.6931 65.859375 446.115 66.109375Q446.83374 66.375 447.1775 66.890625Q447.53687 67.40625 447.53687 68.109375Q447.53687 69.25 446.70874 69.9375Q445.8806 70.625 444.52124 70.625Q443.24 70.625 442.4275 69.953125Q441.615 69.265625 441.615 68.15625L443.3025 68.15625Q443.3025 68.640625 443.66187 68.953125Q444.03687 69.25 444.5525 69.25Q445.16187 69.25 445.5056 68.9375Q445.84937 68.609375 445.84937 68.078125Q445.84937 66.8125 444.4431 66.8125L443.53687 66.8125L443.53687 65.484375ZM454.5681 66.96875Q454.5681 68.734375 453.83374 69.6875Q453.09937 70.625 451.6931 70.625Q450.28687 70.625 449.5525 69.703125Q448.8181 68.78125 448.8025 67.0625L448.8025 65.484375Q448.8025 63.703125 449.53687 62.78125Q450.28687 61.84375 451.6775 61.84375Q453.0681 61.84375 453.8025 62.765625Q454.5525 63.6875 454.5681 65.40625L454.5681 66.96875ZM452.865 65.25Q452.865 64.1875 452.5681 63.703125Q452.28687 63.21875 451.6775 63.21875Q451.08374 63.21875 450.78687 63.6875Q450.5056 64.140625 450.49 65.125L450.49 67.1875Q450.49 68.234375 450.77124 68.75Q451.0525 69.25 451.6931 69.25Q452.3025 69.25 452.58374 68.765625Q452.865 68.28125 452.865 67.28125L452.865 65.25Z" fill-rule="nonzero"/><path stroke="#6fa8dc" stroke-width="3.0" stroke-linejoin="round" stroke-linecap="round" d="M340.8105 100.5L339.123 100.5L339.123 93.96875L337.10736 94.59375L337.10736 93.21875L340.6386 91.953125L340.8105 91.953125L340.8105 100.5ZM349.498 92.921875L346.2011 100.5L344.41986 100.5L347.71674 93.34375L343.48236 93.34375L343.48236 91.96875L349.498 91.96875L349.498 92.921875ZM354.8105 100.5L353.123 100.5L353.123 93.96875L351.10736 94.59375L351.10736 93.21875L354.6386 91.953125L354.8105 91.953125L354.8105 100.5Z" fill-rule="nonzero"/><path fill="#000000" d="M340.8105 100.5L339.123 100.5L339.123 93.96875L337.10736 94.59375L337.10736 93.21875L340.6386 91.953125L340.8105 91.953125L340.8105 100.5ZM349.498 92.921875L346.2011 100.5L344.41986 100.5L347.71674 93.34375L343.48236 93.34375L343.48236 91.96875L349.498 91.96875L349.498 92.921875ZM354.8105 100.5L353.123 100.5L353.123 93.96875L351.10736 94.59375L351.10736 93.21875L354.6386 91.953125L354.8105 91.953125L354.8105 100.5Z" fill-rule="nonzero"/><path stroke="#6fa8dc" stroke-width="3.0" stroke-linejoin="round" stroke-linecap="round" d="M209.57162 123.234375Q209.57162 123.859375 209.25912 124.34375Q208.94662 124.8125 208.39975 125.109375Q209.02475 125.40625 209.38412 125.9375Q209.75912 126.453125 209.75912 127.15625Q209.75912 128.29688 208.97787 128.96875Q208.21225 129.625 206.8685 129.625Q205.54037 129.625 204.75912 128.96875Q203.9935 128.29688 203.9935 127.15625Q203.9935 126.453125 204.35287 125.921875Q204.71225 125.390625 205.33725 125.109375Q204.79037 124.8125 204.47787 124.34375Q204.16537 123.859375 204.16537 123.234375Q204.16537 122.140625 204.88412 121.5Q205.6185 120.84375 206.8685 120.84375Q208.1185 120.84375 208.83725 121.5Q209.57162 122.140625 209.57162 123.234375ZM208.056 127.03125Q208.056 126.484375 207.72787 126.15625Q207.41537 125.8125 206.8685 125.8125Q206.32162 125.8125 205.9935 126.140625Q205.681 126.46875 205.681 127.03125Q205.681 127.578125 205.9935 127.921875Q206.32162 128.25 206.88412 128.25Q207.431 128.25 207.7435 127.9375Q208.056 127.609375 208.056 127.03125ZM207.88412 123.3125Q207.88412 122.8125 207.6185 122.515625Q207.35287 122.21875 206.8685 122.21875Q206.39975 122.21875 206.13412 122.515625Q205.8685 122.796875 205.8685 123.3125Q205.8685 123.828125 206.13412 124.140625Q206.39975 124.453125 206.8685 124.453125Q207.35287 124.453125 207.6185 124.140625Q207.88412 123.828125 207.88412 123.3125ZM216.806 121.921875L213.50912 129.5L211.72787 129.5L215.02475 122.34375L210.79037 122.34375L210.79037 120.96875L216.806 120.96875L216.806 121.921875Z" fill-rule="nonzero"/><path fill="#000000" d="M209.57162 123.234375Q209.57162 123.859375 209.25912 124.34375Q208.94662 124.8125 208.39975 125.109375Q209.02475 125.40625 209.38412 125.9375Q209.75912 126.453125 209.75912 127.15625Q209.75912 128.29688 208.97787 128.96875Q208.21225 129.625 206.8685 129.625Q205.54037 129.625 204.75912 128.96875Q203.9935 128.29688 203.9935 127.15625Q203.9935 126.453125 204.35287 125.921875Q204.71225 125.390625 205.33725 125.109375Q204.79037 124.8125 204.47787 124.34375Q204.16537 123.859375 204.16537 123.234375Q204.16537 122.140625 204.88412 121.5Q205.6185 120.84375 206.8685 120.84375Q208.1185 120.84375 208.83725 121.5Q209.57162 122.140625 209.57162 123.234375ZM208.056 127.03125Q208.056 126.484375 207.72787 126.15625Q207.41537 125.8125 206.8685 125.8125Q206.32162 125.8125 205.9935 126.140625Q205.681 126.46875 205.681 127.03125Q205.681 127.578125 205.9935 127.921875Q206.32162 128.25 206.88412 128.25Q207.431 128.25 207.7435 127.9375Q208.056 127.609375 208.056 127.03125ZM207.88412 123.3125Q207.88412 122.8125 207.6185 122.515625Q207.35287 122.21875 206.8685 122.21875Q206.39975 122.21875 206.13412 122.515625Q205.8685 122.796875 205.8685 123.3125Q205.8685 123.828125 206.13412 124.140625Q206.39975 124.453125 206.8685 124.453125Q207.35287 124.453125 207.6185 124.140625Q207.88412 123.828125 207.88412 123.3125ZM216.806 121.921875L213.50912 129.5L211.72787 129.5L215.02475 122.34375L210.79037 122.34375L210.79037 120.96875L216.806 120.96875L216.806 121.921875Z" fill-rule="nonzero"/><path stroke="#6fa8dc" stroke-width="3.0" stroke-linejoin="round" stroke-linecap="round" d="M130.86375 156.28125L131.8325 156.28125L131.8325 157.65625L130.86375 157.65625L130.86375 159.5L129.16063 159.5L129.16063 157.65625L125.67625 157.65625L125.59812 156.59375L129.145 150.96875L130.86375 150.96875L130.86375 156.28125ZM127.28562 156.28125L129.16063 156.28125L129.16063 153.28125L129.05125 153.46875L127.28562 156.28125ZM138.59813 155.96875Q138.59813 157.73438 137.86375 158.6875Q137.12938 159.625 135.72313 159.625Q134.31688 159.625 133.5825 158.70312Q132.84813 157.78125 132.8325 156.0625L132.8325 154.48438Q132.8325 152.70312 133.56688 151.78125Q134.31688 150.84375 135.7075 150.84375Q137.09813 150.84375 137.8325 151.76562Q138.5825 152.6875 138.59813 154.40625L138.59813 155.96875ZM136.895 154.25Q136.895 153.1875 136.59813 152.70312Q136.31688 152.21875 135.7075 152.21875Q135.11375 152.21875 134.81688 152.6875Q134.53563 153.14062 134.52 154.125L134.52 156.1875Q134.52 157.23438 134.80125 157.75Q135.0825 158.25 135.72313 158.25Q136.3325 158.25 136.61375 157.76562Q136.895 157.28125 136.895 156.28125L136.895 154.25Z" fill-rule="nonzero"/><path fill="#000000" d="M130.86374 156.28125L131.83249 156.28125L131.83249 157.65625L130.86374 157.65625L130.86374 159.5L129.16061 159.5L129.16061 157.65625L125.67625 157.65625L125.59812 156.59375L129.14499 150.96875L130.86374 150.96875L130.86374 156.28125ZM127.28562 156.28125L129.16061 156.28125L129.16061 153.28125L129.05124 153.46875L127.28562 156.28125ZM138.59811 155.96875Q138.59811 157.73438 137.86374 158.6875Q137.12936 159.625 135.72311 159.625Q134.31686 159.625 133.58249 158.70312Q132.84811 157.78125 132.83249 156.0625L132.83249 154.48438Q132.83249 152.70312 133.56686 151.78125Q134.31686 150.84375 135.70749 150.84375Q137.09811 150.84375 137.83249 151.76562Q138.58249 152.6875 138.59811 154.40625L138.59811 155.96875ZM136.89499 154.25Q136.89499 153.1875 136.59811 152.70312Q136.31686 152.21875 135.70749 152.21875Q135.11374 152.21875 134.81686 152.6875Q134.53561 153.14062 134.51999 154.125L134.51999 156.1875Q134.51999 157.23438 134.80124 157.75Q135.08249 158.25 135.72311 158.25Q136.33249 158.25 136.61374 157.76562Q136.89499 157.28125 136.89499 156.28125L136.89499 154.25Z" fill-rule="nonzero"/><path stroke="#6fa8dc" stroke-width="3.0" stroke-linejoin="round" stroke-linecap="round" d="M124.240875 184.48438L125.147125 184.48438Q125.78775 184.48438 126.10025 184.17188Q126.41275 183.84375 126.41275 183.3125Q126.41275 182.79688 126.10025 182.51562Q125.803375 182.21875 125.2565 182.21875Q124.772125 182.21875 124.444 182.48438Q124.115875 182.75 124.115875 183.17188L122.428375 183.17188Q122.428375 182.51562 122.78775 181.98438Q123.147125 181.45312 123.78775 181.15625Q124.444 180.84375 125.22525 180.84375Q126.569 180.84375 127.334625 181.5Q128.11588 182.14062 128.11588 183.28125Q128.11588 183.875 127.7565 184.375Q127.397125 184.85938 126.819 185.10938Q127.53775 185.375 127.8815 185.89062Q128.24088 186.40625 128.24088 187.10938Q128.24088 188.25 127.41275 188.9375Q126.584625 189.625 125.22525 189.625Q123.944 189.625 123.1315 188.95312Q122.319 188.26562 122.319 187.15625L124.0065 187.15625Q124.0065 187.64062 124.365875 187.95312Q124.740875 188.25 125.2565 188.25Q125.865875 188.25 126.209625 187.9375Q126.553375 187.60938 126.553375 187.07812Q126.553375 185.8125 125.147125 185.8125L124.240875 185.8125L124.240875 184.48438ZM135.08463 183.23438Q135.08463 183.85938 134.77213 184.34375Q134.45963 184.8125 133.91275 185.10938Q134.53775 185.40625 134.89713 185.9375Q135.27213 186.45312 135.27213 187.15625Q135.27213 188.29688 134.49088 188.96875Q133.72525 189.625 132.3815 189.625Q131.05338 189.625 130.27213 188.96875Q129.5065 188.29688 129.5065 187.15625Q129.5065 186.45312 129.86588 185.92188Q130.22525 185.39062 130.85025 185.10938Q130.30338 184.8125 129.99088 184.34375Q129.67838 183.85938 129.67838 183.23438Q129.67838 182.14062 130.39713 181.5Q131.1315 180.84375 132.3815 180.84375Q133.6315 180.84375 134.35025 181.5Q135.08463 182.14062 135.08463 183.23438ZM133.569 187.03125Q133.569 186.48438 133.24088 186.15625Q132.92838 185.8125 132.3815 185.8125Q131.83463 185.8125 131.5065 186.14062Q131.194 186.46875 131.194 187.03125Q131.194 187.57812 131.5065 187.92188Q131.83463 188.25 132.39713 188.25Q132.944 188.25 133.2565 187.9375Q133.569 187.60938 133.569 187.03125ZM133.39713 183.3125Q133.39713 182.8125 133.1315 182.51562Q132.86588 182.21875 132.3815 182.21875Q131.91275 182.21875 131.64713 182.51562Q131.3815 182.79688 131.3815 183.3125Q131.3815 183.82812 131.64713 184.14062Q131.91275 184.45312 132.3815 184.45312Q132.86588 184.45312 133.1315 184.14062Q133.39713 183.82812 133.39713 183.3125Z" fill-rule="nonzero"/><path fill="#000000" d="M124.240875 184.48438L125.147125 184.48438Q125.78775 184.48438 126.10025 184.17188Q126.41275 183.84375 126.41275 183.3125Q126.41275 182.79688 126.10025 182.51562Q125.803375 182.21875 125.2565 182.21875Q124.772125 182.21875 124.444 182.48438Q124.115875 182.75 124.115875 183.17188L122.428375 183.17188Q122.428375 182.51562 122.78775 181.98438Q123.147125 181.45312 123.78775 181.15625Q124.444 180.84375 125.22525 180.84375Q126.569 180.84375 127.334625 181.5Q128.11588 182.14062 128.11588 183.28125Q128.11588 183.875 127.7565 184.375Q127.397125 184.85938 126.819 185.10938Q127.53775 185.375 127.8815 185.89062Q128.24088 186.40625 128.24088 187.10938Q128.24088 188.25 127.41275 188.9375Q126.584625 189.625 125.22525 189.625Q123.944 189.625 123.1315 188.95312Q122.319 188.26562 122.319 187.15625L124.0065 187.15625Q124.0065 187.64062 124.365875 187.95312Q124.740875 188.25 125.2565 188.25Q125.865875 188.25 126.209625 187.9375Q126.553375 187.60938 126.553375 187.07812Q126.553375 185.8125 125.147125 185.8125L124.240875 185.8125L124.240875 184.48438ZM135.08463 183.23438Q135.08463 183.85938 134.77213 184.34375Q134.45963 184.8125 133.91275 185.10938Q134.53775 185.40625 134.89713 185.9375Q135.27213 186.45312 135.27213 187.15625Q135.27213 188.29688 134.49088 188.96875Q133.72525 189.625 132.3815 189.625Q131.05338 189.625 130.27213 188.96875Q129.5065 188.29688 129.5065 187.15625Q129.5065 186.45312 129.86588 185.92188Q130.22525 185.39062 130.85025 185.10938Q130.30338 184.8125 129.99088 184.34375Q129.67838 183.85938 129.67838 183.23438Q129.67838 182.14062 130.39713 181.5Q131.1315 180.84375 132.3815 180.84375Q133.6315 180.84375 134.35025 181.5Q135.08463 182.14062 135.08463 183.23438ZM133.569 187.03125Q133.569 186.48438 133.24088 186.15625Q132.92838 185.8125 132.3815 185.8125Q131.83463 185.8125 131.5065 186.14062Q131.194 186.46875 131.194 187.03125Q131.194 187.57812 131.5065 187.92188Q131.83463 188.25 132.39713 188.25Q132.944 188.25 133.2565 187.9375Q133.569 187.60938 133.569 187.03125ZM133.39713 183.3125Q133.39713 182.8125 133.1315 182.51562Q132.86588 182.21875 132.3815 182.21875Q131.91275 182.21875 131.64713 182.51562Q131.3815 182.79688 131.3815 183.3125Q131.3815 183.82812 131.64713 184.14062Q131.91275 184.45312 132.3815 184.45312Q132.86588 184.45312 133.1315 184.14062Q133.39713 183.82812 133.39713 183.3125Z" fill-rule="nonzero"/><path stroke="#6fa8dc" stroke-width="3.0" stroke-linejoin="round" stroke-linecap="round" d="M100.09487 219.5L94.25112 219.5L94.25112 218.34375L97.01675 215.39062Q97.57925 214.78125 97.84487 214.3125Q98.12612 213.84375 98.12612 213.4375Q98.12612 212.85938 97.82925 212.54688Q97.548 212.21875 97.01675 212.21875Q96.43862 212.21875 96.1105 212.60938Q95.78237 213.0 95.78237 213.65625L94.07925 213.65625Q94.07925 212.875 94.45425 212.23438Q94.82925 211.57812 95.50112 211.21875Q96.18862 210.84375 97.048 210.84375Q98.3605 210.84375 99.09487 211.48438Q99.82925 212.10938 99.82925 213.26562Q99.82925 213.90625 99.50112 214.5625Q99.173 215.21875 98.37612 216.09375L96.43862 218.14062L100.09487 218.14062L100.09487 219.5ZM105.3605 219.5L103.673 219.5L103.673 212.96875L101.65737 213.59375L101.65737 212.21875L105.18862 210.95312L105.3605 210.95312L105.3605 219.5Z" fill-rule="nonzero"/><path fill="#000000" d="M100.09487 219.5L94.25112 219.5L94.25112 218.34375L97.01675 215.39062Q97.57925 214.78125 97.84487 214.3125Q98.12612 213.84375 98.12612 213.4375Q98.12612 212.85938 97.82925 212.54688Q97.548 212.21875 97.01675 212.21875Q96.43862 212.21875 96.1105 212.60938Q95.78237 213.0 95.78237 213.65625L94.07925 213.65625Q94.07925 212.875 94.45425 212.23438Q94.82925 211.57812 95.50112 211.21875Q96.18862 210.84375 97.048 210.84375Q98.3605 210.84375 99.09487 211.48438Q99.82925 212.10938 99.82925 213.26562Q99.82925 213.90625 99.50112 214.5625Q99.173 215.21875 98.37612 216.09375L96.43862 218.14062L100.09487 218.14062L100.09487 219.5ZM105.3605 219.5L103.673 219.5L103.673 212.96875L101.65737 213.59375L101.65737 212.21875L105.18862 210.95312L105.3605 210.95312L105.3605 219.5Z" fill-rule="nonzero"/><path stroke="#6fa8dc" stroke-width="3.0" stroke-linejoin="round" stroke-linecap="round" d="M93.3715 248.5L91.684 248.5L91.684 241.96875L89.66837 242.59375L89.66837 241.21875L93.19962 239.95312L93.3715 239.95312L93.3715 248.5ZM101.82462 242.23438Q101.82462 242.85938 101.51212 243.34375Q101.19962 243.8125 100.65275 244.10938Q101.27775 244.40625 101.63712 244.9375Q102.01212 245.45312 102.01212 246.15625Q102.01212 247.29688 101.23087 247.96875Q100.46525 248.625 99.1215 248.625Q97.79337 248.625 97.01212 247.96875Q96.2465 247.29688 96.2465 246.15625Q96.2465 245.45312 96.60587 244.92188Q96.96525 244.39062 97.59025 244.10938Q97.04337 243.8125 96.73087 243.34375Q96.41837 242.85938 96.41837 242.23438Q96.41837 241.14062 97.13712 240.5Q97.8715 239.84375 99.1215 239.84375Q100.3715 239.84375 101.09025 240.5Q101.82462 241.14062 101.82462 242.23438ZM100.309 246.03125Q100.309 245.48438 99.98087 245.15625Q99.66837 244.8125 99.1215 244.8125Q98.57462 244.8125 98.2465 245.14062Q97.934 245.46875 97.934 246.03125Q97.934 246.57812 98.2465 246.92188Q98.57462 247.25 99.13712 247.25Q99.684 247.25 99.9965 246.9375Q100.309 246.60938 100.309 246.03125ZM100.13712 242.3125Q100.13712 241.8125 99.8715 241.51562Q99.60587 241.21875 99.1215 241.21875Q98.65275 241.21875 98.38712 241.51562Q98.1215 241.79688 98.1215 242.3125Q98.1215 242.82812 98.38712 243.14062Q98.65275 243.45312 99.1215 243.45312Q99.60587 243.45312 99.8715 243.14062Q100.13712 242.82812 100.13712 242.3125Z" fill-rule="nonzero"/><path fill="#000000" d="M93.3715 248.5L91.684 248.5L91.684 241.96875L89.66837 242.59375L89.66837 241.21875L93.19962 239.95312L93.3715 239.95312L93.3715 248.5ZM101.82462 242.23438Q101.82462 242.85938 101.51212 243.34375Q101.19962 243.8125 100.65275 244.10938Q101.27775 244.40625 101.63712 244.9375Q102.01212 245.45312 102.01212 246.15625Q102.01212 247.29688 101.23087 247.96875Q100.46525 248.625 99.1215 248.625Q97.79337 248.625 97.01212 247.96875Q96.2465 247.29688 96.2465 246.15625Q96.2465 245.45312 96.60587 244.92188Q96.96525 244.39062 97.59025 244.10938Q97.04337 243.8125 96.73087 243.34375Q96.41837 242.85938 96.41837 242.23438Q96.41837 241.14062 97.13712 240.5Q97.8715 239.84375 99.1215 239.84375Q100.3715 239.84375 101.09025 240.5Q101.82462 241.14062 101.82462 242.23438ZM100.309 246.03125Q100.309 245.48438 99.98087 245.15625Q99.66837 244.8125 99.1215 244.8125Q98.57462 244.8125 98.2465 245.14062Q97.934 245.46875 97.934 246.03125Q97.934 246.57812 98.2465 246.92188Q98.57462 247.25 99.13712 247.25Q99.684 247.25 99.9965 246.9375Q100.309 246.60938 100.309 246.03125ZM100.13712 242.3125Q100.13712 241.8125 99.8715 241.51562Q99.60587 241.21875 99.1215 241.21875Q98.65275 241.21875 98.38712 241.51562Q98.1215 241.79688 98.1215 242.3125Q98.1215 242.82812 98.38712 243.14062Q98.65275 243.45312 99.1215 243.45312Q99.60587 243.45312 99.8715 243.14062Q100.13712 242.82812 100.13712 242.3125Z" fill-rule="nonzero"/><path stroke="#6fa8dc" stroke-width="3.0" stroke-linejoin="round" stroke-linecap="round" d="M91.7085 278.5L90.021 278.5L90.021 271.96875L88.00538 272.59375L88.00538 271.21875L91.53663 269.95312L91.7085 269.95312L91.7085 278.5ZM100.396 270.92188L97.09913 278.5L95.31788 278.5L98.61475 271.34375L94.38038 271.34375L94.38038 269.96875L100.396 269.96875L100.396 270.92188Z" fill-rule="nonzero"/><path fill="#000000" d="M91.7085 278.5L90.021 278.5L90.021 271.96875L88.00538 272.59375L88.00538 271.21875L91.53663 269.95312L91.7085 269.95312L91.7085 278.5ZM100.396 270.92188L97.09913 278.5L95.31788 278.5L98.61475 271.34375L94.38038 271.34375L94.38038 269.96875L100.396 269.96875L100.396 270.92188Z" fill-rule="nonzero"/><path stroke="#6fa8dc" stroke-width="3.0" stroke-linejoin="round" stroke-linecap="round" d="M90.0455 308.5L88.358 308.5L88.358 301.96875L86.34238 302.59375L86.34238 301.21875L89.87363 299.95312L90.0455 299.95312L90.0455 308.5ZM97.52988 299.875L97.52988 301.28125L97.37363 301.28125Q96.21738 301.29688 95.51425 301.875Q94.82675 302.45312 94.68613 303.48438Q95.358 302.79688 96.38925 302.79688Q97.51425 302.79688 98.1705 303.59375Q98.82675 304.39062 98.82675 305.6875Q98.82675 306.51562 98.46738 307.1875Q98.108 307.85938 97.43613 308.25Q96.77988 308.625 95.95175 308.625Q94.608 308.625 93.77988 307.6875Q92.95175 306.73438 92.95175 305.17188L92.95175 304.5625Q92.95175 303.17188 93.46738 302.10938Q93.99863 301.04688 94.96738 300.46875Q95.95175 299.89062 97.24863 299.875L97.52988 299.875ZM95.87363 304.15625Q95.46738 304.15625 95.12363 304.375Q94.7955 304.57812 94.63925 304.9375L94.63925 305.45312Q94.63925 306.29688 94.96738 306.78125Q95.31113 307.25 95.9205 307.25Q96.46738 307.25 96.7955 306.82812Q97.13925 306.39062 97.13925 305.70312Q97.13925 305.0 96.7955 304.57812Q96.45175 304.15625 95.87363 304.15625Z" fill-rule="nonzero"/><path fill="#000000" d="M90.0455 308.5L88.358 308.5L88.358 301.96875L86.34238 302.59375L86.34238 301.21875L89.87363 299.95312L90.0455 299.95312L90.0455 308.5ZM97.52988 299.875L97.52988 301.28125L97.37363 301.28125Q96.21738 301.29688 95.51425 301.875Q94.82675 302.45312 94.68613 303.48438Q95.358 302.79688 96.38925 302.79688Q97.51425 302.79688 98.1705 303.59375Q98.82675 304.39062 98.82675 305.6875Q98.82675 306.51562 98.46738 307.1875Q98.108 307.85938 97.43613 308.25Q96.77988 308.625 95.95175 308.625Q94.608 308.625 93.77988 307.6875Q92.95175 306.73438 92.95175 305.17188L92.95175 304.5625Q92.95175 303.17188 93.46738 302.10938Q93.99863 301.04688 94.96738 300.46875Q95.95175 299.89062 97.24863 299.875L97.52988 299.875ZM95.87363 304.15625Q95.46738 304.15625 95.12363 304.375Q94.7955 304.57812 94.63925 304.9375L94.63925 305.45312Q94.63925 306.29688 94.96738 306.78125Q95.31113 307.25 95.9205 307.25Q96.46738 307.25 96.7955 306.82812Q97.13925 306.39062 97.13925 305.70312Q97.13925 305.0 96.7955 304.57812Q96.45175 304.15625 95.87363 304.15625Z" fill-rule="nonzero"/><path fill="#000000" d="M51.1125 31.536686L52.253124 31.536686L52.253124 36.505436Q52.253124 37.80231 51.95625 38.567936Q51.659374 39.317936 50.89375 39.80231Q50.128124 40.27106 48.89375 40.27106Q47.690624 40.27106 46.909374 39.86481Q46.14375 39.442936 45.815624 38.661686Q45.4875 37.86481 45.4875 36.505436L45.4875 31.536686L46.628124 31.536686L46.628124 36.48981Q46.628124 37.61481 46.83125 38.14606Q47.05 38.67731 47.55 38.974186Q48.065624 39.255436 48.8 39.255436Q50.05 39.255436 50.58125 38.692936Q51.1125 38.11481 51.1125 36.48981L51.1125 31.536686ZM54.096874 37.36481L55.159374 37.27106Q55.2375 37.92731 55.51875 38.33356Q55.8 38.73981 56.378124 39.005436Q56.971874 39.255436 57.70625 39.255436Q58.346874 39.255436 58.846874 39.067936Q59.346874 38.86481 59.58125 38.536686Q59.83125 38.192936 59.83125 37.80231Q59.83125 37.39606 59.596874 37.099186Q59.3625 36.786686 58.83125 36.58356Q58.471874 36.442936 57.284374 36.161686Q56.1125 35.880436 55.64375 35.630436Q55.01875 35.30231 54.721874 34.83356Q54.425 34.349186 54.425 33.755436Q54.425 33.11481 54.784374 32.55231Q55.159374 31.974186 55.8625 31.692936Q56.58125 31.39606 57.440624 31.39606Q58.39375 31.39606 59.128124 31.70856Q59.8625 32.005436 60.253124 32.61481Q60.64375 33.20856 60.675 33.95856L59.58125 34.036686Q59.4875 33.224186 58.971874 32.817936Q58.471874 32.39606 57.4875 32.39606Q56.45625 32.39606 55.9875 32.77106Q55.51875 33.14606 55.51875 33.67731Q55.51875 34.14606 55.846874 34.442936Q56.175 34.73981 57.55 35.05231Q58.940624 35.36481 59.45625 35.599186Q60.20625 35.95856 60.565624 36.48981Q60.925 37.005436 60.925 37.70856Q60.925 38.39606 60.534374 39.005436Q60.14375 39.599186 59.409374 39.942936Q58.675 40.27106 57.753124 40.27106Q56.58125 40.27106 55.784374 39.942936Q55.003124 39.599186 54.55 38.911686Q54.1125 38.224186 54.096874 37.36481ZM61.534374 40.130436L64.83125 31.536686L66.05 31.536686L69.56563 40.130436L68.28438 40.130436L67.26875 37.52106L63.690624 37.52106L62.7375 40.130436L61.534374 40.130436ZM64.01875 36.599186L66.925 36.599186L66.03438 34.224186Q65.6125 33.14606 65.425 32.442936Q65.25313 33.27106 64.95625 34.08356L64.01875 36.599186Z" fill-rule="nonzero"/><path fill="#000000" d="M34.89375 67.44173L35.925 67.3011Q35.95625 68.28548 36.284374 68.64485Q36.6125 69.00423 37.20625 69.00423Q37.628124 69.00423 37.940624 68.81673Q38.253124 68.6136 38.3625 68.28548Q38.4875 67.94173 38.4875 67.20735L38.4875 61.285477L39.6125 61.285477L39.6125 67.14485Q39.6125 68.22298 39.346874 68.81673Q39.096874 69.41048 38.534374 69.72298Q37.971874 70.01985 37.20625 70.01985Q36.08125 70.01985 35.471874 69.37923Q34.878124 68.72298 34.89375 67.44173ZM45.409374 69.1136Q44.815624 69.6136 44.26875 69.81673Q43.7375 70.01985 43.1125 70.01985Q42.08125 70.01985 41.534374 69.51985Q40.9875 69.01985 40.9875 68.2386Q40.9875 67.78548 41.190624 67.41048Q41.39375 67.01985 41.7375 66.8011Q42.08125 66.56673 42.503124 66.45735Q42.8 66.3636 43.440624 66.28548Q44.70625 66.14485 45.315624 65.9261Q45.315624 65.70735 45.315624 65.66048Q45.315624 65.00423 45.01875 64.7386Q44.6125 64.39485 43.815624 64.39485Q43.08125 64.39485 42.721874 64.66048Q42.3625 64.91048 42.190624 65.56673L41.159374 65.4261Q41.3 64.76985 41.628124 64.3636Q41.95625 63.95735 42.565624 63.7386Q43.175 63.51985 43.971874 63.51985Q44.76875 63.51985 45.26875 63.70735Q45.76875 63.89485 46.003124 64.1761Q46.2375 64.45735 46.33125 64.89485Q46.378124 65.16048 46.378124 65.8636L46.378124 67.26985Q46.378124 68.7386 46.440624 69.12923Q46.51875 69.51985 46.721874 69.87923L45.6125 69.87923Q45.45625 69.5511 45.409374 69.1136ZM45.315624 66.75423Q44.7375 66.9886 43.596874 67.16048Q42.940624 67.25423 42.675 67.37923Q42.409374 67.4886 42.253124 67.70735Q42.1125 67.9261 42.1125 68.20735Q42.1125 68.62923 42.425 68.91048Q42.753124 69.19173 43.3625 69.19173Q43.971874 69.19173 44.440624 68.9261Q44.925 68.66048 45.14375 68.19173Q45.315624 67.83235 45.315624 67.14485L45.315624 66.75423ZM48.346874 72.26985L48.346874 63.660477L49.3 63.660477L49.3 64.45735Q49.64375 63.9886 50.065624 63.754227Q50.503124 63.51985 51.1125 63.51985Q51.909374 63.51985 52.51875 63.9261Q53.128124 64.33235 53.425 65.08235Q53.7375 65.83235 53.7375 66.72298Q53.7375 67.6761 53.39375 68.44173Q53.065624 69.20735 52.409374 69.6136Q51.753124 70.01985 51.034374 70.01985Q50.503124 70.01985 50.08125 69.8011Q49.659374 69.56673 49.39375 69.2386L49.39375 72.26985L48.346874 72.26985ZM49.3 66.8011Q49.3 68.00423 49.784374 68.58235Q50.26875 69.14485 50.95625 69.14485Q51.659374 69.14485 52.159374 68.5511Q52.659374 67.95735 52.659374 66.70735Q52.659374 65.51985 52.175 64.94173Q51.690624 64.34798 51.003124 64.34798Q50.33125 64.34798 49.815624 64.97298Q49.3 65.59798 49.3 66.8011ZM59.409374 69.1136Q58.815624 69.6136 58.26875 69.81673Q57.7375 70.01985 57.1125 70.01985Q56.08125 70.01985 55.534374 69.51985Q54.9875 69.01985 54.9875 68.2386Q54.9875 67.78548 55.190624 67.41048Q55.39375 67.01985 55.7375 66.8011Q56.08125 66.56673 56.503124 66.45735Q56.8 66.3636 57.440624 66.28548Q58.70625 66.14485 59.315624 65.9261Q59.315624 65.70735 59.315624 65.66048Q59.315624 65.00423 59.01875 64.7386Q58.6125 64.39485 57.815624 64.39485Q57.08125 64.39485 56.721874 64.66048Q56.3625 64.91048 56.190624 65.56673L55.159374 65.4261Q55.3 64.76985 55.628124 64.3636Q55.95625 63.95735 56.565624 63.7386Q57.175 63.51985 57.971874 63.51985Q58.76875 63.51985 59.26875 63.70735Q59.76875 63.89485 60.003124 64.1761Q60.2375 64.45735 60.33125 64.89485Q60.378124 65.16048 60.378124 65.8636L60.378124 67.26985Q60.378124 68.7386 60.440624 69.12923Q60.51875 69.51985 60.721874 69.87923L59.6125 69.87923Q59.45625 69.5511 59.409374 69.1136ZM59.315624 66.75423Q58.7375 66.9886 57.596874 67.16048Q56.940624 67.25423 56.675 67.37923Q56.409374 67.4886 56.253124 67.70735Q56.1125 67.9261 56.1125 68.20735Q56.1125 68.62923 56.425 68.91048Q56.753124 69.19173 57.3625 69.19173Q57.971874 69.19173 58.440624 68.9261Q58.925 68.66048 59.14375 68.19173Q59.315624 67.83235 59.315624 67.14485L59.315624 66.75423ZM62.346874 69.87923L62.346874 63.660477L63.284374 63.660477L63.284374 64.53548Q63.971874 63.51985 65.26875 63.51985Q65.83125 63.51985 66.3 63.722977Q66.78438 63.9261 67.01875 64.25423Q67.25313 64.58235 67.34688 65.01985Q67.39375 65.31673 67.39375 66.0511L67.39375 69.87923L66.34688 69.87923L66.34688 66.09798Q66.34688 65.44173 66.22188 65.12923Q66.09688 64.81673 65.78438 64.62923Q65.47188 64.4261 65.05 64.4261Q64.37813 64.4261 63.878124 64.8636Q63.39375 65.28548 63.39375 66.47298L63.39375 69.87923L62.346874 69.87923Z" fill-rule="nonzero"/><path fill="#000000" d="M23.503124 99.62802L23.503124 91.03427L29.70625 91.03427L29.70625 92.0499L24.64375 92.0499L24.64375 94.6749L29.39375 94.6749L29.39375 95.69052L24.64375 95.69052L24.64375 98.6124L29.909374 98.6124L29.909374 99.62802L23.503124 99.62802ZM31.346874 99.62802L31.346874 93.40927L32.284374 93.40927L32.284374 94.28427Q32.971874 93.26865 34.26875 93.26865Q34.83125 93.26865 35.3 93.47177Q35.784374 93.6749 36.01875 94.00302Q36.253124 94.33115 36.346874 94.76865Q36.39375 95.06552 36.39375 95.7999L36.39375 99.62802L35.346874 99.62802L35.346874 95.84677Q35.346874 95.19052 35.221874 94.87802Q35.096874 94.56552 34.784374 94.37802Q34.471874 94.1749 34.05 94.1749Q33.378124 94.1749 32.878124 94.6124Q32.39375 95.03427 32.39375 96.22177L32.39375 99.62802L31.346874 99.62802ZM38.14375 100.14365L39.175 100.2999Q39.2375 100.76865 39.534374 100.9874Q39.925 101.28427 40.596874 101.28427Q41.33125 101.28427 41.721874 100.9874Q42.128124 100.69052 42.26875 100.1749Q42.3625 99.84677 42.346874 98.81552Q41.659374 99.62802 40.628124 99.62802Q39.346874 99.62802 38.64375 98.70615Q37.940624 97.76865 37.940624 96.4874Q37.940624 95.59677 38.253124 94.84677Q38.58125 94.08115 39.190624 93.6749Q39.8 93.26865 40.628124 93.26865Q41.7375 93.26865 42.45625 94.15927L42.45625 93.40927L43.425 93.40927L43.425 98.78427Q43.425 100.2374 43.128124 100.84677Q42.83125 101.45615 42.190624 101.7999Q41.55 102.15927 40.6125 102.15927Q39.503124 102.15927 38.815624 101.65927Q38.128124 101.15927 38.14375 100.14365ZM39.01875 96.40927Q39.01875 97.62802 39.503124 98.19052Q39.9875 98.75302 40.721874 98.75302Q41.45625 98.75302 41.940624 98.19052Q42.440624 97.62802 42.440624 96.44052Q42.440624 95.2999 41.925 94.72177Q41.425 94.14365 40.70625 94.14365Q40.003124 94.14365 39.503124 94.72177Q39.01875 95.28427 39.01875 96.40927ZM45.315624 99.62802L45.315624 91.03427L46.378124 91.03427L46.378124 99.62802L45.315624 99.62802ZM52.409374 98.8624Q51.815624 99.3624 51.26875 99.56552Q50.7375 99.76865 50.1125 99.76865Q49.08125 99.76865 48.534374 99.26865Q47.9875 98.76865 47.9875 97.9874Q47.9875 97.53427 48.190624 97.15927Q48.39375 96.76865 48.7375 96.5499Q49.08125 96.31552 49.503124 96.20615Q49.8 96.1124 50.440624 96.03427Q51.70625 95.89365 52.315624 95.6749Q52.315624 95.45615 52.315624 95.40927Q52.315624 94.75302 52.01875 94.4874Q51.6125 94.14365 50.815624 94.14365Q50.08125 94.14365 49.721874 94.40927Q49.3625 94.65927 49.190624 95.31552L48.159374 95.1749Q48.3 94.51865 48.628124 94.1124Q48.95625 93.70615 49.565624 93.4874Q50.175 93.26865 50.971874 93.26865Q51.76875 93.26865 52.26875 93.45615Q52.76875 93.64365 53.003124 93.9249Q53.2375 94.20615 53.33125 94.64365Q53.378124 94.90927 53.378124 95.6124L53.378124 97.01865Q53.378124 98.4874 53.440624 98.87802Q53.51875 99.26865 53.721874 99.62802L52.6125 99.62802Q52.45625 99.2999 52.409374 98.8624ZM52.315624 96.50302Q51.7375 96.7374 50.596874 96.90927Q49.940624 97.00302 49.675 97.12802Q49.409374 97.2374 49.253124 97.45615Q49.1125 97.6749 49.1125 97.95615Q49.1125 98.37802 49.425 98.65927Q49.753124 98.94052 50.3625 98.94052Q50.971874 98.94052 51.440624 98.6749Q51.925 98.40927 52.14375 97.94052Q52.315624 97.58115 52.315624 96.89365L52.315624 96.50302ZM55.346874 99.62802L55.346874 93.40927L56.284374 93.40927L56.284374 94.28427Q56.971874 93.26865 58.26875 93.26865Q58.83125 93.26865 59.3 93.47177Q59.784374 93.6749 60.01875 94.00302Q60.253124 94.33115 60.346874 94.76865Q60.39375 95.06552 60.39375 95.7999L60.39375 99.62802L59.346874 99.62802L59.346874 95.84677Q59.346874 95.19052 59.221874 94.87802Q59.096874 94.56552 58.784374 94.37802Q58.471874 94.1749 58.05 94.1749Q57.378124 94.1749 56.878124 94.6124Q56.39375 95.03427 56.39375 96.22177L56.39375 99.62802L55.346874 99.62802ZM66.37813 99.62802L66.37813 98.84677Q65.78438 99.76865 64.64375 99.76865Q63.89375 99.76865 63.26875 99.3624Q62.64375 98.94052 62.3 98.20615Q61.95625 97.47177 61.95625 96.51865Q61.95625 95.59677 62.26875 94.83115Q62.58125 94.06552 63.20625 93.6749Q63.83125 93.26865 64.59688 93.26865Q65.15938 93.26865 65.59688 93.50302Q66.03438 93.7374 66.31563 94.1124L66.31563 91.03427L67.3625 91.03427L67.3625 99.62802L66.37813 99.62802ZM63.05 96.51865Q63.05 97.72177 63.55 98.31552Q64.05 98.89365 64.7375 98.89365Q65.425 98.89365 65.90938 98.33115Q66.39375 97.76865 66.39375 96.6124Q66.39375 95.33115 65.89375 94.7374Q65.40938 94.14365 64.69063 94.14365Q63.9875 94.14365 63.51875 94.72177Q63.05 95.28427 63.05 96.51865Z" fill-rule="nonzero"/><path fill="#000000" d="M31.6125 126.36119L32.7375 126.658066Q32.378124 128.04869 31.45625 128.78307Q30.534374 129.51744 29.190624 129.51744Q27.8 129.51744 26.925 128.95494Q26.05 128.39244 25.596874 127.32994Q25.14375 126.251816 25.14375 125.01744Q25.14375 123.67369 25.659374 122.67369Q26.175 121.67369 27.1125 121.158066Q28.065624 120.64244 29.20625 120.64244Q30.4875 120.64244 31.3625 121.29869Q32.253124 121.95494 32.596874 123.14244L31.471874 123.408066Q31.175 122.470566 30.596874 122.04869Q30.034374 121.61119 29.175 121.61119Q28.190624 121.61119 27.51875 122.095566Q26.8625 122.564316 26.58125 123.36119Q26.315624 124.158066 26.315624 125.01744Q26.315624 126.11119 26.628124 126.92369Q26.95625 127.73619 27.628124 128.14244Q28.3 128.54869 29.096874 128.54869Q30.05 128.54869 30.70625 128.00182Q31.378124 127.45494 31.6125 126.36119ZM38.409374 128.61119Q37.815624 129.11119 37.26875 129.31432Q36.7375 129.51744 36.1125 129.51744Q35.08125 129.51744 34.534374 129.01744Q33.9875 128.51744 33.9875 127.73619Q33.9875 127.283066 34.190624 126.908066Q34.39375 126.51744 34.7375 126.29869Q35.08125 126.064316 35.503124 125.95494Q35.8 125.86119 36.440624 125.783066Q37.70625 125.64244 38.315624 125.42369Q38.315624 125.20494 38.315624 125.158066Q38.315624 124.501816 38.01875 124.23619Q37.6125 123.89244 36.815624 123.89244Q36.08125 123.89244 35.721874 124.158066Q35.3625 124.408066 35.190624 125.064316L34.159374 124.92369Q34.3 124.26744 34.628124 123.86119Q34.95625 123.45494 35.565624 123.23619Q36.175 123.01744 36.971874 123.01744Q37.76875 123.01744 38.26875 123.20494Q38.76875 123.39244 39.003124 123.67369Q39.2375 123.95494 39.33125 124.39244Q39.378124 124.658066 39.378124 125.36119L39.378124 126.76744Q39.378124 128.23619 39.440624 128.62682Q39.51875 129.01744 39.721874 129.37682L38.6125 129.37682Q38.45625 129.04869 38.409374 128.61119ZM38.315624 126.251816Q37.7375 126.48619 36.596874 126.658066Q35.940624 126.751816 35.675 126.876816Q35.409374 126.98619 35.253124 127.20494Q35.1125 127.42369 35.1125 127.70494Q35.1125 128.12682 35.425 128.40807Q35.753124 128.68932 36.3625 128.68932Q36.971874 128.68932 37.440624 128.42369Q37.925 128.15807 38.14375 127.689316Q38.315624 127.32994 38.315624 126.64244L38.315624 126.251816ZM41.346874 129.37682L41.346874 123.158066L42.284374 123.158066L42.284374 124.033066Q42.971874 123.01744 44.26875 123.01744Q44.83125 123.01744 45.3 123.220566Q45.784374 123.42369 46.01875 123.751816Q46.253124 124.07994 46.346874 124.51744Q46.39375 124.814316 46.39375 125.54869L46.39375 129.37682L45.346874 129.37682L45.346874 125.595566Q45.346874 124.939316 45.221874 124.626816Q45.096874 124.314316 44.784374 124.126816Q44.471874 123.92369 44.05 123.92369Q43.378124 123.92369 42.878124 124.36119Q42.39375 124.783066 42.39375 125.970566L42.39375 129.37682L41.346874 129.37682ZM52.409374 128.61119Q51.815624 129.11119 51.26875 129.31432Q50.7375 129.51744 50.1125 129.51744Q49.08125 129.51744 48.534374 129.01744Q47.9875 128.51744 47.9875 127.73619Q47.9875 127.283066 48.190624 126.908066Q48.39375 126.51744 48.7375 126.29869Q49.08125 126.064316 49.503124 125.95494Q49.8 125.86119 50.440624 125.783066Q51.70625 125.64244 52.315624 125.42369Q52.315624 125.20494 52.315624 125.158066Q52.315624 124.501816 52.01875 124.23619Q51.6125 123.89244 50.815624 123.89244Q50.08125 123.89244 49.721874 124.158066Q49.3625 124.408066 49.190624 125.064316L48.159374 124.92369Q48.3 124.26744 48.628124 123.86119Q48.95625 123.45494 49.565624 123.23619Q50.175 123.01744 50.971874 123.01744Q51.76875 123.01744 52.26875 123.20494Q52.76875 123.39244 53.003124 123.67369Q53.2375 123.95494 53.33125 124.39244Q53.378124 124.658066 53.378124 125.36119L53.378124 126.76744Q53.378124 128.23619 53.440624 128.62682Q53.51875 129.01744 53.721874 129.37682L52.6125 129.37682Q52.45625 129.04869 52.409374 128.61119ZM52.315624 126.251816Q51.7375 126.48619 50.596874 126.658066Q49.940624 126.751816 49.675 126.876816Q49.409374 126.98619 49.253124 127.20494Q49.1125 127.42369 49.1125 127.70494Q49.1125 128.12682 49.425 128.40807Q49.753124 128.68932 50.3625 128.68932Q50.971874 128.68932 51.440624 128.42369Q51.925 128.15807 52.14375 127.689316Q52.315624 127.32994 52.315624 126.64244L52.315624 126.251816ZM59.378124 129.37682L59.378124 128.59557Q58.784374 129.51744 57.64375 129.51744Q56.89375 129.51744 56.26875 129.11119Q55.64375 128.68932 55.3 127.95494Q54.95625 127.220566 54.95625 126.26744Q54.95625 125.345566 55.26875 124.57994Q55.58125 123.814316 56.20625 123.42369Q56.83125 123.01744 57.596874 123.01744Q58.159374 123.01744 58.596874 123.251816Q59.034374 123.48619 59.315624 123.86119L59.315624 120.783066L60.3625 120.783066L60.3625 129.37682L59.378124 129.37682ZM56.05 126.26744Q56.05 127.470566 56.55 128.06432Q57.05 128.64244 57.7375 128.64244Q58.425 128.64244 58.909374 128.07994Q59.39375 127.51744 59.39375 126.36119Q59.39375 125.07994 58.89375 124.48619Q58.409374 123.89244 57.690624 123.89244Q56.9875 123.89244 56.51875 124.470566Q56.05 125.033066 56.05 126.26744ZM66.40938 128.61119Q65.81563 129.11119 65.26875 129.31432Q64.7375 129.51744 64.1125 129.51744Q63.08125 129.51744 62.534374 129.01744Q61.9875 128.51744 61.9875 127.73619Q61.9875 127.283066 62.190624 126.908066Q62.39375 126.51744 62.7375 126.29869Q63.08125 126.064316 63.503124 125.95494Q63.8 125.86119 64.44063 125.783066Q65.70625 125.64244 66.31563 125.42369Q66.31563 125.20494 66.31563 125.158066Q66.31563 124.501816 66.01875 124.23619Q65.6125 123.89244 64.81563 123.89244Q64.08125 123.89244 63.721874 124.158066Q63.3625 124.408066 63.190624 125.064316L62.159374 124.92369Q62.3 124.26744 62.628124 123.86119Q62.95625 123.45494 63.565624 123.23619Q64.175 123.01744 64.97188 123.01744Q65.76875 123.01744 66.26875 123.20494Q66.76875 123.39244 67.00313 123.67369Q67.2375 123.95494 67.33125 124.39244Q67.37813 124.658066 67.37813 125.36119L67.37813 126.76744Q67.37813 128.23619 67.44063 128.62682Q67.51875 129.01744 67.72188 129.37682L66.6125 129.37682Q66.45625 129.04869 66.40938 128.61119ZM66.31563 126.251816Q65.7375 126.48619 64.59688 126.658066Q63.940624 126.751816 63.675 126.876816Q63.409374 126.98619 63.253124 127.20494Q63.1125 127.42369 63.1125 127.70494Q63.1125 128.12682 63.425 128.40807Q63.753124 128.68932 64.3625 128.68932Q64.97188 128.68932 65.44063 128.42369Q65.925 128.15807 66.14375 127.689316Q66.31563 127.32994 66.31563 126.64244L66.31563 126.251816Z" fill-rule="nonzero"/><path fill="#000000" d="M24.096874 156.35999L25.159374 156.26624Q25.2375 156.92249 25.51875 157.32874Q25.8 157.73499 26.378124 158.00061Q26.971874 158.25061 27.70625 158.25061Q28.346874 158.25061 28.846874 158.06311Q29.346874 157.85999 29.58125 157.53186Q29.83125 157.18811 29.83125 156.79749Q29.83125 156.39124 29.596874 156.09436Q29.3625 155.78186 28.83125 155.57874Q28.471874 155.43811 27.284374 155.15686Q26.1125 154.87561 25.64375 154.62561Q25.01875 154.29749 24.721874 153.82874Q24.425 153.34436 24.425 152.75061Q24.425 152.10999 24.784374 151.54749Q25.159374 150.96936 25.8625 150.68811Q26.58125 150.39124 27.440624 150.39124Q28.39375 150.39124 29.128124 150.70374Q29.8625 151.00061 30.253124 151.60999Q30.64375 152.20374 30.675 152.95374L29.58125 153.03186Q29.4875 152.21936 28.971874 151.81311Q28.471874 151.39124 27.4875 151.39124Q26.45625 151.39124 25.9875 151.76624Q25.51875 152.14124 25.51875 152.67249Q25.51875 153.14124 25.846874 153.43811Q26.175 153.73499 27.55 154.04749Q28.940624 154.35999 29.45625 154.59436Q30.20625 154.95374 30.565624 155.48499Q30.925 156.00061 30.925 156.70374Q30.925 157.39124 30.534374 158.00061Q30.14375 158.59436 29.409374 158.93811Q28.675 159.26624 27.753124 159.26624Q26.58125 159.26624 25.784374 158.93811Q25.003124 158.59436 24.55 157.90686Q24.1125 157.21936 24.096874 156.35999ZM33.4875 159.12561L31.58125 152.90686L32.675 152.90686L33.659374 156.50061L34.034374 157.82874Q34.065624 157.73499 34.3625 156.54749L35.346874 152.90686L36.425 152.90686L37.3625 156.51624L37.675 157.70374L38.034374 156.50061L39.096874 152.90686L40.128124 152.90686L38.175 159.12561L37.08125 159.12561L36.096874 155.39124L35.846874 154.34436L34.596874 159.12561L33.4875 159.12561ZM45.596874 157.12561L46.690624 157.25061Q46.440624 158.20374 45.7375 158.73499Q45.034374 159.26624 43.95625 159.26624Q42.596874 159.26624 41.784374 158.42249Q40.9875 157.57874 40.9875 156.06311Q40.9875 154.50061 41.8 153.64124Q42.6125 152.76624 43.89375 152.76624Q45.14375 152.76624 45.925 153.60999Q46.721874 154.45374 46.721874 156.00061Q46.721874 156.09436 46.721874 156.28186L42.08125 156.28186Q42.14375 157.31311 42.659374 157.85999Q43.175 158.39124 43.95625 158.39124Q44.534374 158.39124 44.940624 158.09436Q45.3625 157.78186 45.596874 157.12561ZM42.14375 155.42249L45.6125 155.42249Q45.55 154.62561 45.221874 154.23499Q44.70625 153.62561 43.909374 153.62561Q43.175 153.62561 42.675 154.10999Q42.190624 154.59436 42.14375 155.42249ZM52.378124 159.12561L52.378124 158.34436Q51.784374 159.26624 50.64375 159.26624Q49.89375 159.26624 49.26875 158.85999Q48.64375 158.43811 48.3 157.70374Q47.95625 156.96936 47.95625 156.01624Q47.95625 155.09436 48.26875 154.32874Q48.58125 153.56311 49.20625 153.17249Q49.83125 152.76624 50.596874 152.76624Q51.159374 152.76624 51.596874 153.00061Q52.034374 153.23499 52.315624 153.60999L52.315624 150.53186L53.3625 150.53186L53.3625 159.12561L52.378124 159.12561ZM49.05 156.01624Q49.05 157.21936 49.55 157.81311Q50.05 158.39124 50.7375 158.39124Q51.425 158.39124 51.909374 157.82874Q52.39375 157.26624 52.39375 156.10999Q52.39375 154.82874 51.89375 154.23499Q51.409374 153.64124 50.690624 153.64124Q49.9875 153.64124 49.51875 154.21936Q49.05 154.78186 49.05 156.01624ZM59.596874 157.12561L60.690624 157.25061Q60.440624 158.20374 59.7375 158.73499Q59.034374 159.26624 57.95625 159.26624Q56.596874 159.26624 55.784374 158.42249Q54.9875 157.57874 54.9875 156.06311Q54.9875 154.50061 55.8 153.64124Q56.6125 152.76624 57.89375 152.76624Q59.14375 152.76624 59.925 153.60999Q60.721874 154.45374 60.721874 156.00061Q60.721874 156.09436 60.721874 156.28186L56.08125 156.28186Q56.14375 157.31311 56.659374 157.85999Q57.175 158.39124 57.95625 158.39124Q58.534374 158.39124 58.940624 158.09436Q59.3625 157.78186 59.596874 157.12561ZM56.14375 155.42249L59.6125 155.42249Q59.55 154.62561 59.221874 154.23499Q58.70625 153.62561 57.909374 153.62561Q57.175 153.62561 56.675 154.10999Q56.190624 154.59436 56.14375 155.42249ZM62.346874 159.12561L62.346874 152.90686L63.284374 152.90686L63.284374 153.78186Q63.971874 152.76624 65.26875 152.76624Q65.83125 152.76624 66.3 152.96936Q66.78438 153.17249 67.01875 153.50061Q67.25313 153.82874 67.34688 154.26624Q67.39375 154.56311 67.39375 155.29749L67.39375 159.12561L66.34688 159.12561L66.34688 155.34436Q66.34688 154.68811 66.22188 154.37561Q66.09688 154.06311 65.78438 153.87561Q65.47188 153.67249 65.05 153.67249Q64.37813 153.67249 63.878124 154.10999Q63.39375 154.53186 63.39375 155.71936L63.39375 159.12561L62.346874 159.12561Z" fill-rule="nonzero"/><path fill="#000000" d="M31.534374 188.87439L31.534374 180.28064L37.33125 180.28064L37.33125 181.29626L32.675 181.29626L32.675 183.95251L36.70625 183.95251L36.70625 184.96814L32.675 184.96814L32.675 188.87439L31.534374 188.87439ZM38.33125 188.87439L38.33125 182.65564L39.284374 182.65564L39.284374 183.59314Q39.64375 182.93689 39.940624 182.73376Q40.253124 182.51501 40.628124 182.51501Q41.159374 182.51501 41.70625 182.84314L41.346874 183.82751Q40.95625 183.59314 40.58125 183.59314Q40.221874 183.59314 39.940624 183.81189Q39.675 184.01501 39.565624 184.39001Q39.378124 184.95251 39.378124 185.60876L39.378124 188.87439L38.33125 188.87439ZM46.409374 188.10876Q45.815624 188.60876 45.26875 188.81189Q44.7375 189.01501 44.1125 189.01501Q43.08125 189.01501 42.534374 188.51501Q41.9875 188.01501 41.9875 187.23376Q41.9875 186.78064 42.190624 186.40564Q42.39375 186.01501 42.7375 185.79626Q43.08125 185.56189 43.503124 185.45251Q43.8 185.35876 44.440624 185.28064Q45.70625 185.14001 46.315624 184.92126Q46.315624 184.70251 46.315624 184.65564Q46.315624 183.99939 46.01875 183.73376Q45.6125 183.39001 44.815624 183.39001Q44.08125 183.39001 43.721874 183.65564Q43.3625 183.90564 43.190624 184.56189L42.159374 184.42126Q42.3 183.76501 42.628124 183.35876Q42.95625 182.95251 43.565624 182.73376Q44.175 182.51501 44.971874 182.51501Q45.76875 182.51501 46.26875 182.70251Q46.76875 182.89001 47.003124 183.17126Q47.2375 183.45251 47.33125 183.89001Q47.378124 184.15564 47.378124 184.85876L47.378124 186.26501Q47.378124 187.73376 47.440624 188.12439Q47.51875 188.51501 47.721874 188.87439L46.6125 188.87439Q46.45625 188.54626 46.409374 188.10876ZM46.315624 185.74939Q45.7375 185.98376 44.596874 186.15564Q43.940624 186.24939 43.675 186.37439Q43.409374 186.48376 43.253124 186.70251Q43.1125 186.92126 43.1125 187.20251Q43.1125 187.62439 43.425 187.90564Q43.753124 188.18689 44.3625 188.18689Q44.971874 188.18689 45.440624 187.92126Q45.925 187.65564 46.14375 187.18689Q46.315624 186.82751 46.315624 186.14001L46.315624 185.74939ZM49.346874 188.87439L49.346874 182.65564L50.284374 182.65564L50.284374 183.53064Q50.971874 182.51501 52.26875 182.51501Q52.83125 182.51501 53.3 182.71814Q53.784374 182.92126 54.01875 183.24939Q54.253124 183.57751 54.346874 184.01501Q54.39375 184.31189 54.39375 185.04626L54.39375 188.87439L53.346874 188.87439L53.346874 185.09314Q53.346874 184.43689 53.221874 184.12439Q53.096874 183.81189 52.784374 183.62439Q52.471874 183.42126 52.05 183.42126Q51.378124 183.42126 50.878124 183.85876Q50.39375 184.28064 50.39375 185.46814L50.39375 188.87439L49.346874 188.87439ZM60.409374 186.59314L61.440624 186.73376Q61.26875 187.79626 60.565624 188.40564Q59.8625 189.01501 58.846874 189.01501Q57.565624 189.01501 56.784374 188.18689Q56.01875 187.34314 56.01875 185.78064Q56.01875 184.78064 56.346874 184.03064Q56.690624 183.26501 57.3625 182.89001Q58.05 182.51501 58.8625 182.51501Q59.8625 182.51501 60.503124 183.03064Q61.159374 183.53064 61.346874 184.48376L60.315624 184.64001Q60.175 184.01501 59.8 183.70251Q59.425 183.37439 58.89375 183.37439Q58.096874 183.37439 57.596874 183.95251Q57.096874 184.51501 57.096874 185.74939Q57.096874 187.01501 57.58125 187.57751Q58.065624 188.14001 58.83125 188.14001Q59.45625 188.14001 59.8625 187.76501Q60.284374 187.39001 60.409374 186.59314ZM66.59688 186.87439L67.69063 186.99939Q67.44063 187.95251 66.7375 188.48376Q66.03438 189.01501 64.95625 189.01501Q63.596874 189.01501 62.784374 188.17126Q61.9875 187.32751 61.9875 185.81189Q61.9875 184.24939 62.8 183.39001Q63.6125 182.51501 64.89375 182.51501Q66.14375 182.51501 66.925 183.35876Q67.72188 184.20251 67.72188 185.74939Q67.72188 185.84314 67.72188 186.03064L63.08125 186.03064Q63.14375 187.06189 63.659374 187.60876Q64.175 188.14001 64.95625 188.14001Q65.53438 188.14001 65.94063 187.84314Q66.3625 187.53064 66.59688 186.87439ZM63.14375 185.17126L66.6125 185.17126Q66.55 184.37439 66.22188 183.98376Q65.70625 183.37439 64.90938 183.37439Q64.175 183.37439 63.675 183.85876Q63.190624 184.34314 63.14375 185.17126Z" fill-rule="nonzero"/><path fill="#000000" d="M20.534374 218.62318L23.83125 210.02943L25.05 210.02943L28.565624 218.62318L27.284374 218.62318L26.26875 216.01381L22.690624 216.01381L21.7375 218.62318L20.534374 218.62318ZM23.01875 215.09193L25.925 215.09193L25.034374 212.71693Q24.6125 211.63881 24.425 210.93568Q24.253124 211.76381 23.95625 212.57631L23.01875 215.09193ZM32.425 218.62318L32.425 217.70131Q31.690624 218.76381 30.440624 218.76381Q29.89375 218.76381 29.409374 218.56068Q28.940624 218.34193 28.70625 218.02943Q28.471874 217.70131 28.378124 217.23256Q28.315624 216.93568 28.315624 216.24818L28.315624 212.40443L29.378124 212.40443L29.378124 215.85756Q29.378124 216.67006 29.440624 216.96693Q29.534374 217.37318 29.846874 217.62318Q30.175 217.85756 30.659374 217.85756Q31.128124 217.85756 31.534374 217.62318Q31.95625 217.37318 32.128124 216.95131Q32.315624 216.52943 32.315624 215.73256L32.315624 212.40443L33.3625 212.40443L33.3625 218.62318L32.425 218.62318ZM34.925 216.76381L35.95625 216.60756Q36.05 217.23256 36.440624 217.56068Q36.846874 217.88881 37.58125 217.88881Q38.3 217.88881 38.64375 217.60756Q39.003124 217.31068 39.003124 216.90443Q39.003124 216.54506 38.690624 216.34193Q38.471874 216.20131 37.6125 215.98256Q36.45625 215.68568 36.003124 215.48256Q35.565624 215.26381 35.33125 214.88881Q35.096874 214.51381 35.096874 214.04506Q35.096874 213.63881 35.284374 213.27943Q35.471874 212.92006 35.8 212.68568Q36.05 212.51381 36.471874 212.38881Q36.89375 212.26381 37.39375 212.26381Q38.1125 212.26381 38.659374 212.48256Q39.221874 212.68568 39.4875 213.04506Q39.753124 213.40443 39.846874 213.99818L38.815624 214.13881Q38.753124 213.67006 38.409374 213.40443Q38.08125 213.12318 37.45625 213.12318Q36.7375 213.12318 36.425 213.37318Q36.1125 213.60756 36.1125 213.93568Q36.1125 214.13881 36.2375 214.29506Q36.378124 214.46693 36.64375 214.57631Q36.8 214.63881 37.58125 214.84193Q38.70625 215.15443 39.14375 215.34193Q39.58125 215.52943 39.83125 215.88881Q40.08125 216.24818 40.08125 216.79506Q40.08125 217.32631 39.76875 217.79506Q39.471874 218.24818 38.89375 218.51381Q38.315624 218.76381 37.58125 218.76381Q36.3625 218.76381 35.721874 218.26381Q35.096874 217.74818 34.925 216.76381ZM44.64375 217.68568L44.8 218.60756Q44.346874 218.70131 44.003124 218.70131Q43.425 218.70131 43.1125 218.52943Q42.8 218.34193 42.659374 218.04506Q42.534374 217.74818 42.534374 216.79506L42.534374 213.21693L41.76875 213.21693L41.76875 212.40443L42.534374 212.40443L42.534374 210.85756L43.58125 210.23256L43.58125 212.40443L44.64375 212.40443L44.64375 213.21693L43.58125 213.21693L43.58125 216.85756Q43.58125 217.31068 43.628124 217.43568Q43.690624 217.56068 43.815624 217.63881Q43.940624 217.71693 44.175 217.71693Q44.3625 217.71693 44.64375 217.68568ZM45.33125 218.62318L45.33125 212.40443L46.284374 212.40443L46.284374 213.34193Q46.64375 212.68568 46.940624 212.48256Q47.253124 212.26381 47.628124 212.26381Q48.159374 212.26381 48.70625 212.59193L48.346874 213.57631Q47.95625 213.34193 47.58125 213.34193Q47.221874 213.34193 46.940624 213.56068Q46.675 213.76381 46.565624 214.13881Q46.378124 214.70131 46.378124 215.35756L46.378124 218.62318L45.33125 218.62318ZM53.409374 217.85756Q52.815624 218.35756 52.26875 218.56068Q51.7375 218.76381 51.1125 218.76381Q50.08125 218.76381 49.534374 218.26381Q48.9875 217.76381 48.9875 216.98256Q48.9875 216.52943 49.190624 216.15443Q49.39375 215.76381 49.7375 215.54506Q50.08125 215.31068 50.503124 215.20131Q50.8 215.10756 51.440624 215.02943Q52.70625 214.88881 53.315624 214.67006Q53.315624 214.45131 53.315624 214.40443Q53.315624 213.74818 53.01875 213.48256Q52.6125 213.13881 51.815624 213.13881Q51.08125 213.13881 50.721874 213.40443Q50.3625 213.65443 50.190624 214.31068L49.159374 214.17006Q49.3 213.51381 49.628124 213.10756Q49.95625 212.70131 50.565624 212.48256Q51.175 212.26381 51.971874 212.26381Q52.76875 212.26381 53.26875 212.45131Q53.76875 212.63881 54.003124 212.92006Q54.2375 213.20131 54.33125 213.63881Q54.378124 213.90443 54.378124 214.60756L54.378124 216.01381Q54.378124 217.48256 54.440624 217.87318Q54.51875 218.26381 54.721874 218.62318L53.6125 218.62318Q53.45625 218.29506 53.409374 217.85756ZM53.315624 215.49818Q52.7375 215.73256 51.596874 215.90443Q50.940624 215.99818 50.675 216.12318Q50.409374 216.23256 50.253124 216.45131Q50.1125 216.67006 50.1125 216.95131Q50.1125 217.37318 50.425 217.65443Q50.753124 217.93568 51.3625 217.93568Q51.971874 217.93568 52.440624 217.67006Q52.925 217.40443 53.14375 216.93568Q53.315624 216.57631 53.315624 215.88881L53.315624 215.49818ZM56.315624 218.62318L56.315624 210.02943L57.378124 210.02943L57.378124 218.62318L56.315624 218.62318ZM59.346874 211.24818L59.346874 210.02943L60.409374 210.02943L60.409374 211.24818L59.346874 211.24818ZM59.346874 218.62318L59.346874 212.40443L60.409374 212.40443L60.409374 218.62318L59.346874 218.62318ZM66.40938 217.85756Q65.81563 218.35756 65.26875 218.56068Q64.7375 218.76381 64.1125 218.76381Q63.08125 218.76381 62.534374 218.26381Q61.9875 217.76381 61.9875 216.98256Q61.9875 216.52943 62.190624 216.15443Q62.39375 215.76381 62.7375 215.54506Q63.08125 215.31068 63.503124 215.20131Q63.8 215.10756 64.44063 215.02943Q65.70625 214.88881 66.31563 214.67006Q66.31563 214.45131 66.31563 214.40443Q66.31563 213.74818 66.01875 213.48256Q65.6125 213.13881 64.81563 213.13881Q64.08125 213.13881 63.721874 213.40443Q63.3625 213.65443 63.190624 214.31068L62.159374 214.17006Q62.3 213.51381 62.628124 213.10756Q62.95625 212.70131 63.565624 212.48256Q64.175 212.26381 64.97188 212.26381Q65.76875 212.26381 66.26875 212.45131Q66.76875 212.63881 67.00313 212.92006Q67.2375 213.20131 67.33125 213.63881Q67.37813 213.90443 67.37813 214.60756L67.37813 216.01381Q67.37813 217.48256 67.44063 217.87318Q67.51875 218.26381 67.72188 218.62318L66.6125 218.62318Q66.45625 218.29506 66.40938 217.85756ZM66.31563 215.49818Q65.7375 215.73256 64.59688 215.90443Q63.940624 215.99818 63.675 216.12318Q63.409374 216.23256 63.253124 216.45131Q63.1125 216.67006 63.1125 216.95131Q63.1125 217.37318 63.425 217.65443Q63.753124 217.93568 64.3625 217.93568Q64.97188 217.93568 65.44063 217.67006Q65.925 217.40443 66.14375 216.93568Q66.31563 216.57631 66.31563 215.88881L66.31563 215.49818Z" fill-rule="nonzero"/><path fill="#000000" d="M28.534374 248.37198L28.534374 239.77823L34.33125 239.77823L34.33125 240.79385L29.675 240.79385L29.675 243.4501L33.70625 243.4501L33.70625 244.46573L29.675 244.46573L29.675 248.37198L28.534374 248.37198ZM35.346874 240.99698L35.346874 239.77823L36.409374 239.77823L36.409374 240.99698L35.346874 240.99698ZM35.346874 248.37198L35.346874 242.15323L36.409374 242.15323L36.409374 248.37198L35.346874 248.37198ZM38.346874 248.37198L38.346874 242.15323L39.284374 242.15323L39.284374 243.02823Q39.971874 242.0126 41.26875 242.0126Q41.83125 242.0126 42.3 242.21573Q42.784374 242.41885 43.01875 242.74698Q43.253124 243.0751 43.346874 243.5126Q43.39375 243.80948 43.39375 244.54385L43.39375 248.37198L42.346874 248.37198L42.346874 244.59073Q42.346874 243.93448 42.221874 243.62198Q42.096874 243.30948 41.784374 243.12198Q41.471874 242.91885 41.05 242.91885Q40.378124 242.91885 39.878124 243.35635Q39.39375 243.77823 39.39375 244.96573L39.39375 248.37198L38.346874 248.37198ZM45.315624 248.37198L45.315624 239.77823L46.378124 239.77823L46.378124 248.37198L45.315624 248.37198ZM52.409374 247.60635Q51.815624 248.10635 51.26875 248.30948Q50.7375 248.5126 50.1125 248.5126Q49.08125 248.5126 48.534374 248.0126Q47.9875 247.5126 47.9875 246.73135Q47.9875 246.27823 48.190624 245.90323Q48.39375 245.5126 48.7375 245.29385Q49.08125 245.05948 49.503124 244.9501Q49.8 244.85635 50.440624 244.77823Q51.70625 244.6376 52.315624 244.41885Q52.315624 244.2001 52.315624 244.15323Q52.315624 243.49698 52.01875 243.23135Q51.6125 242.8876 50.815624 242.8876Q50.08125 242.8876 49.721874 243.15323Q49.3625 243.40323 49.190624 244.05948L48.159374 243.91885Q48.3 243.2626 48.628124 242.85635Q48.95625 242.4501 49.565624 242.23135Q50.175 242.0126 50.971874 242.0126Q51.76875 242.0126 52.26875 242.2001Q52.76875 242.3876 53.003124 242.66885Q53.2375 242.9501 53.33125 243.3876Q53.378124 243.65323 53.378124 244.35635L53.378124 245.7626Q53.378124 247.23135 53.440624 247.62198Q53.51875 248.0126 53.721874 248.37198L52.6125 248.37198Q52.45625 248.04385 52.409374 247.60635ZM52.315624 245.24698Q51.7375 245.48135 50.596874 245.65323Q49.940624 245.74698 49.675 245.87198Q49.409374 245.98135 49.253124 246.2001Q49.1125 246.41885 49.1125 246.7001Q49.1125 247.12198 49.425 247.40323Q49.753124 247.68448 50.3625 247.68448Q50.971874 247.68448 51.440624 247.41885Q51.925 247.15323 52.14375 246.68448Q52.315624 246.3251 52.315624 245.6376L52.315624 245.24698ZM55.346874 248.37198L55.346874 242.15323L56.284374 242.15323L56.284374 243.02823Q56.971874 242.0126 58.26875 242.0126Q58.83125 242.0126 59.3 242.21573Q59.784374 242.41885 60.01875 242.74698Q60.253124 243.0751 60.346874 243.5126Q60.39375 243.80948 60.39375 244.54385L60.39375 248.37198L59.346874 248.37198L59.346874 244.59073Q59.346874 243.93448 59.221874 243.62198Q59.096874 243.30948 58.784374 243.12198Q58.471874 242.91885 58.05 242.91885Q57.378124 242.91885 56.878124 243.35635Q56.39375 243.77823 56.39375 244.96573L56.39375 248.37198L55.346874 248.37198ZM66.37813 248.37198L66.37813 247.59073Q65.78438 248.5126 64.64375 248.5126Q63.89375 248.5126 63.26875 248.10635Q62.64375 247.68448 62.3 246.9501Q61.95625 246.21573 61.95625 245.2626Q61.95625 244.34073 62.26875 243.5751Q62.58125 242.80948 63.20625 242.41885Q63.83125 242.0126 64.59688 242.0126Q65.15938 242.0126 65.59688 242.24698Q66.03438 242.48135 66.31563 242.85635L66.31563 239.77823L67.3625 239.77823L67.3625 248.37198L66.37813 248.37198ZM63.05 245.2626Q63.05 246.46573 63.55 247.05948Q64.05 247.6376 64.7375 247.6376Q65.425 247.6376 65.90938 247.0751Q66.39375 246.5126 66.39375 245.35635Q66.39375 244.0751 65.89375 243.48135Q65.40938 242.8876 64.69063 242.8876Q63.9875 242.8876 63.51875 243.46573Q63.05 244.02823 63.05 245.2626Z" fill-rule="nonzero"/><path fill="#000000" d="M23.503124 274.74576L23.503124 273.74576L27.128124 273.73013L27.128124 276.91763Q26.3 277.5895 25.409374 277.93326Q24.51875 278.26138 23.58125 278.26138Q22.315624 278.26138 21.26875 277.73013Q20.2375 277.18326 19.70625 276.16763Q19.190624 275.13638 19.190624 273.87076Q19.190624 272.60513 19.70625 271.527Q20.2375 270.43326 21.221874 269.91763Q22.20625 269.38638 23.4875 269.38638Q24.425 269.38638 25.175 269.68326Q25.925 269.98013 26.346874 270.527Q26.784374 271.05826 27.003124 271.93326L25.9875 272.2145Q25.784374 271.55826 25.4875 271.18326Q25.20625 270.80826 24.675 270.5895Q24.14375 270.35513 23.503124 270.35513Q22.721874 270.35513 22.14375 270.5895Q21.58125 270.82388 21.221874 271.2145Q20.878124 271.60513 20.690624 272.07388Q20.3625 272.87076 20.3625 273.79263Q20.3625 274.94888 20.753124 275.73013Q21.159374 276.49576 21.909374 276.87076Q22.659374 277.24576 23.51875 277.24576Q24.253124 277.24576 24.95625 276.9645Q25.659374 276.66763 26.01875 276.35513L26.01875 274.74576L23.503124 274.74576ZM32.596874 276.12076L33.690624 276.24576Q33.440624 277.19888 32.7375 277.73013Q32.034374 278.26138 30.95625 278.26138Q29.596874 278.26138 28.784374 277.41763Q27.9875 276.57388 27.9875 275.05826Q27.9875 273.49576 28.8 272.63638Q29.6125 271.76138 30.89375 271.76138Q32.14375 271.76138 32.925 272.60513Q33.721874 273.44888 33.721874 274.99576Q33.721874 275.0895 33.721874 275.277L29.08125 275.277Q29.14375 276.30826 29.659374 276.85513Q30.175 277.38638 30.95625 277.38638Q31.534374 277.38638 31.940624 277.0895Q32.3625 276.777 32.596874 276.12076ZM29.14375 274.41763L32.6125 274.41763Q32.55 273.62076 32.221874 273.23013Q31.70625 272.62076 30.909374 272.62076Q30.175 272.62076 29.675 273.10513Q29.190624 273.5895 29.14375 274.41763ZM35.33125 278.12076L35.33125 271.902L36.284374 271.902L36.284374 272.8395Q36.64375 272.18326 36.940624 271.98013Q37.253124 271.76138 37.628124 271.76138Q38.159374 271.76138 38.70625 272.0895L38.346874 273.07388Q37.95625 272.8395 37.58125 272.8395Q37.221874 272.8395 36.940624 273.05826Q36.675 273.26138 36.565624 273.63638Q36.378124 274.19888 36.378124 274.85513L36.378124 278.12076L35.33125 278.12076ZM39.346874 278.12076L39.346874 271.902L40.284374 271.902L40.284374 272.777Q40.58125 272.30826 41.065624 272.04263Q41.55 271.76138 42.175 271.76138Q42.8625 271.76138 43.3 272.04263Q43.753124 272.32388 43.925 272.8395Q44.675 271.76138 45.846874 271.76138Q46.784374 271.76138 47.26875 272.277Q47.76875 272.777 47.76875 273.85513L47.76875 278.12076L46.721874 278.12076L46.721874 274.19888Q46.721874 273.57388 46.6125 273.29263Q46.51875 273.01138 46.253124 272.8395Q45.9875 272.66763 45.6125 272.66763Q44.95625 272.66763 44.51875 273.10513Q44.096874 273.54263 44.096874 274.51138L44.096874 278.12076L43.034374 278.12076L43.034374 274.07388Q43.034374 273.37076 42.76875 273.027Q42.51875 272.66763 41.940624 272.66763Q41.4875 272.66763 41.1125 272.902Q40.7375 273.13638 40.565624 273.5895Q40.39375 274.04263 40.39375 274.88638L40.39375 278.12076L39.346874 278.12076ZM54.409374 277.35513Q53.815624 277.85513 53.26875 278.05826Q52.7375 278.26138 52.1125 278.26138Q51.08125 278.26138 50.534374 277.76138Q49.9875 277.26138 49.9875 276.48013Q49.9875 276.027 50.190624 275.652Q50.39375 275.26138 50.7375 275.04263Q51.08125 274.80826 51.503124 274.69888Q51.8 274.60513 52.440624 274.527Q53.70625 274.38638 54.315624 274.16763Q54.315624 273.94888 54.315624 273.902Q54.315624 273.24576 54.01875 272.98013Q53.6125 272.63638 52.815624 272.63638Q52.08125 272.63638 51.721874 272.902Q51.3625 273.152 51.190624 273.80826L50.159374 273.66763Q50.3 273.01138 50.628124 272.60513Q50.95625 272.19888 51.565624 271.98013Q52.175 271.76138 52.971874 271.76138Q53.76875 271.76138 54.26875 271.94888Q54.76875 272.13638 55.003124 272.41763Q55.2375 272.69888 55.33125 273.13638Q55.378124 273.402 55.378124 274.10513L55.378124 275.51138Q55.378124 276.98013 55.440624 277.37076Q55.51875 277.76138 55.721874 278.12076L54.6125 278.12076Q54.45625 277.79263 54.409374 277.35513ZM54.315624 274.99576Q53.7375 275.23013 52.596874 275.402Q51.940624 275.49576 51.675 275.62076Q51.409374 275.73013 51.253124 275.94888Q51.1125 276.16763 51.1125 276.44888Q51.1125 276.87076 51.425 277.152Q51.753124 277.43326 52.3625 277.43326Q52.971874 277.43326 53.440624 277.16763Q53.925 276.902 54.14375 276.43326Q54.315624 276.07388 54.315624 275.38638L54.315624 274.99576ZM57.346874 278.12076L57.346874 271.902L58.284374 271.902L58.284374 272.777Q58.971874 271.76138 60.26875 271.76138Q60.83125 271.76138 61.3 271.9645Q61.784374 272.16763 62.01875 272.49576Q62.253124 272.82388 62.346874 273.26138Q62.39375 273.55826 62.39375 274.29263L62.39375 278.12076L61.346874 278.12076L61.346874 274.3395Q61.346874 273.68326 61.221874 273.37076Q61.096874 273.05826 60.784374 272.87076Q60.471874 272.66763 60.05 272.66763Q59.378124 272.66763 58.878124 273.10513Q58.39375 273.527 58.39375 274.7145L58.39375 278.12076L57.346874 278.12076ZM64.3 280.51138L64.175 279.527Q64.51875 279.62076 64.78438 279.62076Q65.12813 279.62076 65.33125 279.49576Q65.55 279.38638 65.69063 279.18326Q65.78438 279.01138 66.01875 278.38638Q66.03438 278.30826 66.1125 278.13638L63.7375 271.902L64.87813 271.902L66.175 275.49576Q66.425 276.18326 66.62813 276.94888Q66.81563 276.2145 67.06563 275.527L68.39375 271.902L69.44063 271.902L67.08125 278.23013Q66.69063 279.24576 66.4875 279.63638Q66.20625 280.16763 65.83125 280.402Q65.47188 280.652 64.97188 280.652Q64.675 280.652 64.3 280.51138Z" fill-rule="nonzero"/><path fill="#000000" d="M30.471874 307.86957L30.471874 299.27582L33.721874 299.27582Q34.565624 299.27582 35.01875 299.35394Q35.659374 299.46332 36.08125 299.7602Q36.51875 300.05707 36.76875 300.58832Q37.034374 301.11957 37.034374 301.7602Q37.034374 302.85394 36.33125 303.61957Q35.64375 304.36957 33.815624 304.36957L31.6125 304.36957L31.6125 307.86957L30.471874 307.86957ZM31.6125 303.36957L33.83125 303.36957Q34.940624 303.36957 35.39375 302.96332Q35.8625 302.54144 35.8625 301.79144Q35.8625 301.2602 35.58125 300.8852Q35.315624 300.49457 34.878124 300.36957Q34.58125 300.29144 33.815624 300.29144L31.6125 300.29144L31.6125 303.36957ZM37.95625 304.7602Q37.95625 303.02582 38.909374 302.1977Q39.70625 301.5102 40.8625 301.5102Q42.14375 301.5102 42.95625 302.35394Q43.784374 303.18207 43.784374 304.66644Q43.784374 305.86957 43.425 306.55707Q43.065624 307.24457 42.3625 307.6352Q41.675 308.0102 40.8625 308.0102Q39.565624 308.0102 38.753124 307.18207Q37.95625 306.33832 37.95625 304.7602ZM39.034374 304.7602Q39.034374 305.9477 39.55 306.54144Q40.08125 307.1352 40.8625 307.1352Q41.659374 307.1352 42.175 306.54144Q42.690624 305.9477 42.690624 304.72894Q42.690624 303.5727 42.159374 302.97894Q41.64375 302.3852 40.8625 302.3852Q40.08125 302.3852 39.55 302.97894Q39.034374 303.55707 39.034374 304.7602ZM45.315624 307.86957L45.315624 299.27582L46.378124 299.27582L46.378124 307.86957L45.315624 307.86957ZM52.409374 307.10394Q51.815624 307.60394 51.26875 307.80707Q50.7375 308.0102 50.1125 308.0102Q49.08125 308.0102 48.534374 307.5102Q47.9875 307.0102 47.9875 306.22894Q47.9875 305.77582 48.190624 305.40082Q48.39375 305.0102 48.7375 304.79144Q49.08125 304.55707 49.503124 304.4477Q49.8 304.35394 50.440624 304.27582Q51.70625 304.1352 52.315624 303.91644Q52.315624 303.6977 52.315624 303.65082Q52.315624 302.99457 52.01875 302.72894Q51.6125 302.3852 50.815624 302.3852Q50.08125 302.3852 49.721874 302.65082Q49.3625 302.90082 49.190624 303.55707L48.159374 303.41644Q48.3 302.7602 48.628124 302.35394Q48.95625 301.9477 49.565624 301.72894Q50.175 301.5102 50.971874 301.5102Q51.76875 301.5102 52.26875 301.6977Q52.76875 301.8852 53.003124 302.16644Q53.2375 302.4477 53.33125 302.8852Q53.378124 303.15082 53.378124 303.85394L53.378124 305.2602Q53.378124 306.72894 53.440624 307.11957Q53.51875 307.5102 53.721874 307.86957L52.6125 307.86957Q52.45625 307.54144 52.409374 307.10394ZM52.315624 304.74457Q51.7375 304.97894 50.596874 305.15082Q49.940624 305.24457 49.675 305.36957Q49.409374 305.47894 49.253124 305.6977Q49.1125 305.91644 49.1125 306.1977Q49.1125 306.61957 49.425 306.90082Q49.753124 307.18207 50.3625 307.18207Q50.971874 307.18207 51.440624 306.91644Q51.925 306.65082 52.14375 306.18207Q52.315624 305.8227 52.315624 305.1352L52.315624 304.74457ZM55.346874 307.86957L55.346874 301.65082L56.284374 301.65082L56.284374 302.52582Q56.971874 301.5102 58.26875 301.5102Q58.83125 301.5102 59.3 301.71332Q59.784374 301.91644 60.01875 302.24457Q60.253124 302.5727 60.346874 303.0102Q60.39375 303.30707 60.39375 304.04144L60.39375 307.86957L59.346874 307.86957L59.346874 304.08832Q59.346874 303.43207 59.221874 303.11957Q59.096874 302.80707 58.784374 302.61957Q58.471874 302.41644 58.05 302.41644Q57.378124 302.41644 56.878124 302.85394Q56.39375 303.27582 56.39375 304.46332L56.39375 307.86957L55.346874 307.86957ZM66.37813 307.86957L66.37813 307.08832Q65.78438 308.0102 64.64375 308.0102Q63.89375 308.0102 63.26875 307.60394Q62.64375 307.18207 62.3 306.4477Q61.95625 305.71332 61.95625 304.7602Q61.95625 303.83832 62.26875 303.0727Q62.58125 302.30707 63.20625 301.91644Q63.83125 301.5102 64.59688 301.5102Q65.15938 301.5102 65.59688 301.74457Q66.03438 301.97894 66.31563 302.35394L66.31563 299.27582L67.3625 299.27582L67.3625 307.86957L66.37813 307.86957ZM63.05 304.7602Q63.05 305.96332 63.55 306.55707Q64.05 307.1352 64.7375 307.1352Q65.425 307.1352 65.90938 306.5727Q66.39375 306.0102 66.39375 304.85394Q66.39375 303.5727 65.89375 302.97894Q65.40938 302.3852 64.69063 302.3852Q63.9875 302.3852 63.51875 302.96332Q63.05 303.52582 63.05 304.7602Z" fill-rule="nonzero"/><path fill="#000000" d="M79.55 345.21564Q79.55 343.6844 79.8625 342.7625Q80.175 341.825 80.78438 341.325Q81.40938 340.825 82.34688 340.825Q83.03438 340.825 83.55 341.10626Q84.08125 341.3875 84.425 341.91876Q84.76875 342.4344 84.95625 343.1844Q85.14375 343.9344 85.14375 345.21564Q85.14375 346.73126 84.83125 347.65314Q84.53438 348.575 83.90938 349.09064Q83.3 349.59064 82.34688 349.59064Q81.1125 349.59064 80.39375 348.7Q79.55 347.6375 79.55 345.21564ZM80.62813 345.21564Q80.62813 347.325 81.12813 348.02814Q81.62813 348.73126 82.34688 348.73126Q83.08125 348.73126 83.56563 348.02814Q84.06563 347.325 84.06563 345.21564Q84.06563 343.09064 83.56563 342.40314Q83.08125 341.7 82.33125 341.7Q81.6125 341.7 81.175 342.3094Q80.62813 343.09064 80.62813 345.21564Z" fill-rule="nonzero"/><path fill="#000000" d="M242.81876 349.45L241.77188 349.45L241.77188 342.73126Q241.38126 343.09064 240.75626 343.46564Q240.14688 343.825 239.6625 343.9969L239.6625 342.98126Q240.5375 342.5594 241.19376 341.98126Q241.86563 341.3875 242.14688 340.825L242.81876 340.825L242.81876 349.45ZM245.85 345.21564Q245.85 343.6844 246.1625 342.7625Q246.475 341.825 247.08438 341.325Q247.70938 340.825 248.64688 340.825Q249.33438 340.825 249.85 341.10626Q250.38126 341.3875 250.725 341.91876Q251.06876 342.4344 251.25626 343.1844Q251.44376 343.9344 251.44376 345.21564Q251.44376 346.73126 251.13126 347.65314Q250.83438 348.575 250.20938 349.09064Q249.6 349.59064 248.64688 349.59064Q247.4125 349.59064 246.69376 348.7Q245.85 347.6375 245.85 345.21564ZM246.92813 345.21564Q246.92813 347.325 247.42813 348.02814Q247.92813 348.73126 248.64688 348.73126Q249.38126 348.73126 249.86563 348.02814Q250.36563 347.325 250.36563 345.21564Q250.36563 343.09064 249.86563 342.40314Q249.38126 341.7 248.63126 341.7Q247.9125 341.7 247.475 342.3094Q246.92813 343.09064 246.92813 345.21564ZM252.85 345.21564Q252.85 343.6844 253.1625 342.7625Q253.475 341.825 254.08438 341.325Q254.70938 340.825 255.64688 340.825Q256.33438 340.825 256.85 341.10626Q257.38126 341.3875 257.725 341.91876Q258.06876 342.4344 258.25626 343.1844Q258.44376 343.9344 258.44376 345.21564Q258.44376 346.73126 258.13126 347.65314Q257.83438 348.575 257.20938 349.09064Q256.6 349.59064 255.64688 349.59064Q254.4125 349.59064 253.69376 348.7Q252.85 347.6375 252.85 345.21564ZM253.92813 345.21564Q253.92813 347.325 254.42813 348.02814Q254.92813 348.73126 255.64688 348.73126Q256.38126 348.73126 256.86563 348.02814Q257.36563 347.325 257.36563 345.21564Q257.36563 343.09064 256.86563 342.40314Q256.38126 341.7 255.63126 341.7Q254.9125 341.7 254.475 342.3094Q253.92813 343.09064 253.92813 345.21564Z" fill-rule="nonzero"/><path fill="#000000" d="M410.69687 348.4344L410.69687 349.45L405.00937 349.45Q405.00937 349.075 405.13437 348.71564Q405.35312 348.1375 405.82187 347.575Q406.30624 347.0125 407.2125 346.27814Q408.61874 345.1219 409.10312 344.45Q409.60312 343.77814 409.60312 343.1844Q409.60312 342.5594 409.15 342.1375Q408.69687 341.7 407.97812 341.7Q407.2125 341.7 406.75937 342.15314Q406.30624 342.60626 406.29062 343.41876L405.2125 343.3094Q405.32187 342.09064 406.04062 341.46564Q406.775 340.825 408.00937 340.825Q409.24374 340.825 409.9625 341.5125Q410.68124 342.2 410.68124 343.21564Q410.68124 343.73126 410.4625 344.23126Q410.25937 344.71564 409.75937 345.27814Q409.275 345.825 408.15 346.77814Q407.19687 347.575 406.91562 347.8719Q406.65 348.15314 406.47812 348.4344L410.69687 348.4344ZM412.15 345.21564Q412.15 343.6844 412.4625 342.7625Q412.775 341.825 413.38437 341.325Q414.00937 340.825 414.94687 340.825Q415.63437 340.825 416.15 341.10626Q416.68124 341.3875 417.025 341.91876Q417.36874 342.4344 417.55624 343.1844Q417.74374 343.9344 417.74374 345.21564Q417.74374 346.73126 417.43124 347.65314Q417.13437 348.575 416.50937 349.09064Q415.9 349.59064 414.94687 349.59064Q413.7125 349.59064 412.99374 348.7Q412.15 347.6375 412.15 345.21564ZM413.22812 345.21564Q413.22812 347.325 413.72812 348.02814Q414.22812 348.73126 414.94687 348.73126Q415.68124 348.73126 416.16562 348.02814Q416.66562 347.325 416.66562 345.21564Q416.66562 343.09064 416.16562 342.40314Q415.68124 341.7 414.93124 341.7Q414.2125 341.7 413.775 342.3094Q413.22812 343.09064 413.22812 345.21564ZM419.15 345.21564Q419.15 343.6844 419.4625 342.7625Q419.775 341.825 420.38437 341.325Q421.00937 340.825 421.94687 340.825Q422.63437 340.825 423.15 341.10626Q423.68124 341.3875 424.025 341.91876Q424.36874 342.4344 424.55624 343.1844Q424.74374 343.9344 424.74374 345.21564Q424.74374 346.73126 424.43124 347.65314Q424.13437 348.575 423.50937 349.09064Q422.9 349.59064 421.94687 349.59064Q420.7125 349.59064 419.99374 348.7Q419.15 347.6375 419.15 345.21564ZM420.22812 345.21564Q420.22812 347.325 420.72812 348.02814Q421.22812 348.73126 421.94687 348.73126Q422.68124 348.73126 423.16562 348.02814Q423.66562 347.325 423.66562 345.21564Q423.66562 343.09064 423.16562 342.40314Q422.68124 341.7 421.93124 341.7Q421.2125 341.7 420.775 342.3094Q420.22812 343.09064 420.22812 345.21564Z" fill-rule="nonzero"/><path fill="#000000" d="M571.45 347.1844L572.5125 347.04376Q572.6844 347.9344 573.1219 348.34064Q573.5594 348.73126 574.1844 348.73126Q574.9344 348.73126 575.45 348.21564Q575.96564 347.7 575.96564 346.9344Q575.96564 346.21564 575.48126 345.7469Q575.0125 345.2625 574.27814 345.2625Q573.98126 345.2625 573.52814 345.3875L573.65314 344.45Q573.7625 344.46564 573.825 344.46564Q574.4969 344.46564 575.02814 344.1219Q575.575 343.7625 575.575 343.02814Q575.575 342.45 575.1844 342.075Q574.79376 341.6844 574.16876 341.6844Q573.5594 341.6844 573.1375 342.075Q572.73126 342.46564 572.6219 343.23126L571.5594 343.04376Q571.7469 341.9969 572.4344 341.41876Q573.1219 340.825 574.1375 340.825Q574.84064 340.825 575.4344 341.1375Q576.02814 341.4344 576.34064 341.95Q576.65314 342.46564 576.65314 343.0594Q576.65314 343.60626 576.35626 344.075Q576.0594 344.52814 575.48126 344.79376Q576.23126 344.96564 576.65314 345.52814Q577.075 346.075 577.075 346.91876Q577.075 348.04376 576.2469 348.825Q575.4344 349.60626 574.1844 349.60626Q573.0594 349.60626 572.3094 348.9344Q571.5594 348.2469 571.45 347.1844ZM578.45 345.21564Q578.45 343.6844 578.7625 342.7625Q579.075 341.825 579.6844 341.325Q580.3094 340.825 581.2469 340.825Q581.9344 340.825 582.45 341.10626Q582.98126 341.3875 583.325 341.91876Q583.66876 342.4344 583.85626 343.1844Q584.04376 343.9344 584.04376 345.21564Q584.04376 346.73126 583.73126 347.65314Q583.4344 348.575 582.8094 349.09064Q582.2 349.59064 581.2469 349.59064Q580.0125 349.59064 579.29376 348.7Q578.45 347.6375 578.45 345.21564ZM579.52814 345.21564Q579.52814 347.325 580.02814 348.02814Q580.52814 348.73126 581.2469 348.73126Q581.98126 348.73126 582.46564 348.02814Q582.96564 347.325 582.96564 345.21564Q582.96564 343.09064 582.46564 342.40314Q581.98126 341.7 581.23126 341.7Q580.5125 341.7 580.075 342.3094Q579.52814 343.09064 579.52814 345.21564ZM585.45 345.21564Q585.45 343.6844 585.7625 342.7625Q586.075 341.825 586.6844 341.325Q587.3094 340.825 588.2469 340.825Q588.9344 340.825 589.45 341.10626Q589.98126 341.3875 590.325 341.91876Q590.66876 342.4344 590.85626 343.1844Q591.04376 343.9344 591.04376 345.21564Q591.04376 346.73126 590.73126 347.65314Q590.4344 348.575 589.8094 349.09064Q589.2 349.59064 588.2469 349.59064Q587.0125 349.59064 586.29376 348.7Q585.45 347.6375 585.45 345.21564ZM586.52814 345.21564Q586.52814 347.325 587.02814 348.02814Q587.52814 348.73126 588.2469 348.73126Q588.98126 348.73126 589.46564 348.02814Q589.96564 347.325 589.96564 345.21564Q589.96564 343.09064 589.46564 342.40314Q588.98126 341.7 588.23126 341.7Q587.5125 341.7 587.075 342.3094Q586.52814 343.09064 586.52814 345.21564Z" fill-rule="nonzero"/></svg>