<svg version="1.1" viewBox="0.0 0.0 600.0 371.0" fill="none" stroke="none" stroke-linecap="square" stroke-miterlimit="10" width="600" height="371" xmlns:xlink="http://www.w3.org/1999/xlink" xmlns="http://www.w3.org/2000/svg"><path fill="#ffffff" d="M0 0L600.0 0L600.0 371.0L0 371.0L0 0Z" fill-rule="nonzero"/><path fill="#2e5dab" d="M466.95 198.02126C466.95 214.09773 462.2115 230.00131 453.0308 244.73744L453.0308 219.69493C462.2115 204.95882 466.95 189.05522 466.95 172.97874Z" fill-rule="nonzero"/><path fill="#4285f4" d="M300.0 56.11375C356.30695 56.11375 408.82053 75.98171 439.66766 108.95554C470.5148 141.92938 475.53918 183.56624 453.0308 219.69493L300.0 172.97874Z" fill-rule="nonzero"/><path fill="#efefef" d="M282.0267 56.792957C287.996 56.34048 293.99582 56.11375 300.0 56.11375L300.0 172.97874Z" fill-rule="nonzero"/><path fill="#000000" d="M263.1637 58.99392C269.38614 58.008583 275.6841 57.273724 282.0267 56.792957L300.0 172.97874Z" fill-rule="nonzero"/><path fill="#0000ff" d="M243.72313 62.9535C250.08292 61.359543 256.57504 60.037254 263.1637 58.99392L300.0 172.97874Z" fill-rule="nonzero"/><path fill="#f1c232" d="M222.10799 69.61281C229.07944 67.03866 236.30255 64.813324 243.72313 62.9535L300.0 172.97874Z" fill-rule="nonzero"/><path fill="#0000ff" d="M187.23326 86.80205C197.76045 80.05212 209.48099 74.27523 222.10799 69.61281L300.0 172.97874Z" fill-rule="nonzero"/><path fill="#ffff00" d="M158.51123 110.94584C166.48907 102.0296 176.15038 93.9083 187.23326 86.80205L300.0 172.97874Z" fill-rule="nonzero"/><path fill="#8f0000" d="M133.1107 201.1723C133.07024 200.1222 133.05 199.07175 133.05 198.02126L133.05 172.97874C133.05 174.02925 133.07024 175.0797 133.1107 176.1298Z" fill-rule="nonzero"/><path fill="#cc0000" d="M133.1107 176.1298C132.22426 153.12509 141.06047 130.44923 158.51123 110.94584L300.0 172.97874Z" fill-rule="nonzero"/><path fill="#a7a7a7" d="M236.37105 306.06564C175.36034 288.4599 134.89005 247.34958 133.1107 201.1723L133.1107 176.1298C134.89005 222.30708 175.36034 263.4174 236.37105 281.02316Z" fill-rule="nonzero"/><path fill="#efefef" d="M236.37105 281.02316C175.36034 263.4174 134.89005 222.30708 133.1107 176.1298L300.0 172.97874Z" fill-rule="nonzero"/><path fill="#8f0000" d="M453.0308 244.73744C416.69873 303.05472 320.39917 330.3135 236.37105 306.06564L236.37105 281.02316C320.39917 305.271 416.69873 278.0122 453.0308 219.69493Z" fill-rule="nonzero"/><path fill="#cc0000" d="M453.0308 219.69493C416.69873 278.0122 320.39917 305.271 236.37105 281.02316L300.0 172.97874Z" fill-rule="nonzero"/><path fill="#1a1a1a" d="M19.534374 38.570164L19.534374 29.976414L25.33125 29.976414L25.33125 30.992039L20.675 30.992039L20.675 33.64829L24.70625 33.64829L24.70625 34.663914L20.675 34.663914L20.675 38.570164L19.534374 38.570164ZM26.346874 31.195164L26.346874 29.976414L27.409374 29.976414L27.409374 31.195164L26.346874 31.195164ZM26.346874 38.570164L26.346874 32.351414L27.409374 32.351414L27.409374 38.570164L26.346874 38.570164ZM29.346874 38.570164L29.346874 32.351414L30.284374 32.351414L30.284374 33.226414Q30.971874 32.21079 32.26875 32.21079Q32.83125 32.21079 33.3 32.413914Q33.784374 32.61704 34.01875 32.945164Q34.253124 33.27329 34.346874 33.71079Q34.39375 34.007664 34.39375 34.74204L34.39375 38.570164L33.346874 38.570164L33.346874 34.788914Q33.346874 34.132664 33.221874 33.820164Q33.096874 33.507664 32.784374 33.320164Q32.471874 33.11704 32.05 33.11704Q31.378124 33.11704 30.878124 33.55454Q30.39375 33.976414 30.39375 35.163914L30.39375 38.570164L29.346874 38.570164ZM36.315624 38.570164L36.315624 29.976414L37.378124 29.976414L37.378124 38.570164L36.315624 38.570164ZM43.409374 37.80454Q42.815624 38.30454 42.26875 38.507664Q41.7375 38.71079 41.1125 38.71079Q40.08125 38.71079 39.534374 38.21079Q38.9875 37.71079 38.9875 36.92954Q38.9875 36.476414 39.190624 36.101414Q39.39375 35.71079 39.7375 35.49204Q40.08125 35.257664 40.503124 35.14829Q40.8 35.05454 41.440624 34.976414Q42.70625 34.83579 43.315624 34.61704Q43.315624 34.39829 43.315624 34.351414Q43.315624 33.695164 43.01875 33.42954Q42.6125 33.08579 41.815624 33.08579Q41.08125 33.08579 40.721874 33.351414Q40.3625 33.601414 40.190624 34.257664L39.159374 34.11704Q39.3 33.46079 39.628124 33.05454Q39.95625 32.64829 40.565624 32.42954Q41.175 32.21079 41.971874 32.21079Q42.76875 32.21079 43.26875 32.39829Q43.76875 32.58579 44.003124 32.86704Q44.2375 33.14829 44.33125 33.58579Q44.378124 33.851414 44.378124 34.55454L44.378124 35.96079Q44.378124 37.42954 44.440624 37.820164Q44.51875 38.21079 44.721874 38.570164L43.6125 38.570164Q43.45625 38.24204 43.409374 37.80454ZM43.315624 35.445164Q42.7375 35.67954 41.596874 35.851414Q40.940624 35.945164 40.675 36.070164Q40.409374 36.17954 40.253124 36.39829Q40.1125 36.61704 40.1125 36.89829Q40.1125 37.320164 40.425 37.601414Q40.753124 37.882664 41.3625 37.882664Q41.971874 37.882664 42.440624 37.61704Q42.925 37.351414 43.14375 36.882664Q43.315624 36.52329 43.315624 35.83579L43.315624 35.445164ZM46.346874 38.570164L46.346874 32.351414L47.284374 32.351414L47.284374 33.226414Q47.971874 32.21079 49.26875 32.21079Q49.83125 32.21079 50.3 32.413914Q50.784374 32.61704 51.01875 32.945164Q51.253124 33.27329 51.346874 33.71079Q51.39375 34.007664 51.39375 34.74204L51.39375 38.570164L50.346874 38.570164L50.346874 34.788914Q50.346874 34.132664 50.221874 33.820164Q50.096874 33.507664 49.784374 33.320164Q49.471874 33.11704 49.05 33.11704Q48.378124 33.11704 47.878124 33.55454Q47.39375 33.976414 47.39375 35.163914L47.39375 38.570164L46.346874 38.570164ZM57.378124 38.570164L57.378124 37.788914Q56.784374 38.71079 55.64375 38.71079Q54.89375 38.71079 54.26875 38.30454Q53.64375 37.882664 53.3 37.14829Q52.95625 36.413914 52.95625 35.46079Q52.95625 34.538914 53.26875 33.77329Q53.58125 33.007664 54.20625 32.61704Q54.83125 32.21079 55.596874 32.21079Q56.159374 32.21079 56.596874 32.445164Q57.034374 32.67954 57.315624 33.05454L57.315624 29.976414L58.3625 29.976414L58.3625 38.570164L57.378124 38.570164ZM54.05 35.46079Q54.05 36.663914 54.55 37.257664Q55.05 37.83579 55.7375 37.83579Q56.425 37.83579 56.909374 37.27329Q57.39375 36.71079 57.39375 35.55454Q57.39375 34.27329 56.89375 33.67954Q56.409374 33.08579 55.690624 33.08579Q54.9875 33.08579 54.51875 33.663914Q54.05 34.226414 54.05 35.46079Z" fill-rule="nonzero"/><path fill="#9e9e9e" d="M23.01875 55.570164L21.971874 55.570164L21.971874 48.851414Q21.58125 49.21079 20.95625 49.58579Q20.346874 49.945164 19.8625 50.11704L19.8625 49.101414Q20.7375 48.67954 21.39375 48.101414Q22.065624 47.507664 22.346874 46.945164L23.01875 46.945164L23.01875 55.570164ZM26.64375 55.570164L26.64375 54.36704L27.846874 54.36704L27.846874 55.570164L26.64375 55.570164ZM29.20625 53.58579L30.221874 53.49204Q30.346874 54.21079 30.70625 54.538914Q31.08125 54.851414 31.64375 54.851414Q32.128124 54.851414 32.4875 54.632664Q32.8625 54.39829 33.096874 54.038914Q33.33125 53.663914 33.4875 53.038914Q33.64375 52.39829 33.64375 51.74204Q33.64375 51.663914 33.64375 51.52329Q33.33125 52.02329 32.784374 52.351414Q32.2375 52.663914 31.596874 52.663914Q30.51875 52.663914 29.784374 51.89829Q29.05 51.11704 29.05 49.851414Q29.05 48.538914 29.815624 47.74204Q30.596874 46.945164 31.753124 46.945164Q32.58125 46.945164 33.26875 47.39829Q33.971874 47.851414 34.33125 48.695164Q34.690624 49.52329 34.690624 51.101414Q34.690624 52.74204 34.33125 53.726414Q33.9875 54.695164 33.26875 55.21079Q32.565624 55.71079 31.628124 55.71079Q30.6125 55.71079 29.971874 55.163914Q29.33125 54.601414 29.20625 53.58579ZM33.51875 49.788914Q33.51875 48.882664 33.034374 48.351414Q32.565624 47.820164 31.878124 47.820164Q31.175 47.820164 30.64375 48.39829Q30.128124 48.96079 30.128124 49.882664Q30.128124 50.695164 30.628124 51.21079Q31.128124 51.726414 31.846874 51.726414Q32.58125 51.726414 33.05 51.21079Q33.51875 50.695164 33.51875 49.788914ZM36.253124 49.038914Q36.253124 48.11704 36.70625 47.476414Q37.175 46.83579 38.05 46.83579Q38.8625 46.83579 39.39375 47.413914Q39.925 47.99204 39.925 49.101414Q39.925 50.195164 39.378124 50.788914Q38.846874 51.36704 38.065624 51.36704Q37.284374 51.36704 36.76875 50.788914Q36.253124 50.21079 36.253124 49.038914ZM38.08125 47.55454Q37.690624 47.55454 37.425 47.89829Q37.175 48.24204 37.175 49.14829Q37.175 49.976414 37.425 50.320164Q37.690624 50.64829 38.08125 50.64829Q38.4875 50.64829 38.7375 50.30454Q39.003124 49.96079 39.003124 49.070164Q39.003124 48.226414 38.7375 47.89829Q38.471874 47.55454 38.08125 47.55454ZM38.08125 55.882664L42.784374 46.83579L43.64375 46.83579L38.95625 55.882664L38.08125 55.882664ZM41.8 53.55454Q41.8 52.632664 42.253124 51.99204Q42.721874 51.351414 43.6125 51.351414Q44.425 51.351414 44.95625 51.92954Q45.4875 52.49204 45.4875 53.61704Q45.4875 54.71079 44.940624 55.30454Q44.409374 55.882664 43.6125 55.882664Q42.846874 55.882664 42.315624 55.30454Q41.8 54.726414 41.8 53.55454ZM43.64375 52.070164Q43.2375 52.070164 42.971874 52.413914Q42.721874 52.757664 42.721874 53.663914Q42.721874 54.476414 42.9875 54.820164Q43.253124 55.163914 43.64375 55.163914Q44.034374 55.163914 44.3 54.820164Q44.565624 54.476414 44.565624 53.570164Q44.565624 52.74204 44.3 52.413914Q44.034374 52.070164 43.64375 52.070164Z" fill-rule="nonzero"/><path stroke="#757575" stroke-width="1.0" stroke-linecap="butt" d="M18.55 43.070164L127.05 43.070164L255.68971 66.3778" fill-rule="nonzero"/><path fill="#9e9e9e" d="M257.6897 66.3778C257.6897 65.27323 256.79428 64.3778 255.68971 64.3778C254.58514 64.3778 253.68971 65.27323 253.68971 66.3778C253.68971 67.48237 254.58514 68.3778 255.68971 68.3778C256.79428 68.3778 257.6897 67.48237 257.6897 66.3778" fill-rule="nonzero"/><path fill="#1a1a1a" d="M18.534374 69.57016L21.83125 60.97641L23.05 60.97641L26.565624 69.57016L25.284374 69.57016L24.26875 66.960785L20.690624 66.960785L19.7375 69.57016L18.534374 69.57016ZM21.01875 66.03891L23.925 66.03891L23.034374 63.66391Q22.6125 62.585785 22.425 61.88266Q22.253124 62.710785 21.95625 63.523285L21.01875 66.03891ZM30.425 69.57016L30.425 68.648285Q29.690624 69.710785 28.440624 69.710785Q27.89375 69.710785 27.409374 69.50766Q26.940624 69.28891 26.70625 68.97641Q26.471874 68.648285 26.378124 68.179535Q26.315624 67.88266 26.315624 67.19516L26.315624 63.35141L27.378124 63.35141L27.378124 66.804535Q27.378124 67.617035 27.440624 67.91391Q27.534374 68.32016 27.846874 68.57016Q28.175 68.804535 28.659374 68.804535Q29.128124 68.804535 29.534374 68.57016Q29.95625 68.32016 30.128124 67.898285Q30.315624 67.47641 30.315624 66.679535L30.315624 63.35141L31.3625 63.35141L31.3625 69.57016L30.425 69.57016ZM32.925 67.710785L33.95625 67.554535Q34.05 68.179535 34.440624 68.50766Q34.846874 68.835785 35.58125 68.835785Q36.3 68.835785 36.64375 68.554535Q37.003124 68.25766 37.003124 67.85141Q37.003124 67.492035 36.690624 67.28891Q36.471874 67.148285 35.6125 66.929535Q34.45625 66.63266 34.003124 66.429535Q33.565624 66.210785 33.33125 65.835785Q33.096874 65.460785 33.096874 64.992035Q33.096874 64.585785 33.284374 64.22641Q33.471874 63.867035 33.8 63.63266Q34.05 63.460785 34.471874 63.335785Q34.89375 63.210785 35.39375 63.210785Q36.1125 63.210785 36.659374 63.429535Q37.221874 63.63266 37.4875 63.992035Q37.753124 64.35141 37.846874 64.94516L36.815624 65.085785Q36.753124 64.617035 36.409374 64.35141Q36.08125 64.07016 35.45625 64.07016Q34.7375 64.07016 34.425 64.32016Q34.1125 64.554535 34.1125 64.88266Q34.1125 65.085785 34.2375 65.242035Q34.378124 65.41391 34.64375 65.523285Q34.8 65.585785 35.58125 65.78891Q36.70625 66.10141 37.14375 66.28891Q37.58125 66.47641 37.83125 66.835785Q38.08125 67.19516 38.08125 67.742035Q38.08125 68.273285 37.76875 68.742035Q37.471874 69.19516 36.89375 69.460785Q36.315624 69.710785 35.58125 69.710785Q34.3625 69.710785 33.721874 69.210785Q33.096874 68.69516 32.925 67.710785ZM42.64375 68.63266L42.8 69.554535Q42.346874 69.648285 42.003124 69.648285Q41.425 69.648285 41.1125 69.47641Q40.8 69.28891 40.659374 68.992035Q40.534374 68.69516 40.534374 67.742035L40.534374 64.16391L39.76875 64.16391L39.76875 63.35141L40.534374 63.35141L40.534374 61.804535L41.58125 61.179535L41.58125 63.35141L42.64375 63.35141L42.64375 64.16391L41.58125 64.16391L41.58125 67.804535Q41.58125 68.25766 41.628124 68.38266Q41.690624 68.50766 41.815624 68.585785Q41.940624 68.66391 42.175 68.66391Q42.3625 68.66391 42.64375 68.63266ZM43.33125 69.57016L43.33125 63.35141L44.284374 63.35141L44.284374 64.28891Q44.64375 63.63266 44.940624 63.429535Q45.253124 63.210785 45.628124 63.210785Q46.159374 63.210785 46.70625 63.53891L46.346874 64.523285Q45.95625 64.28891 45.58125 64.28891Q45.221874 64.28891 44.940624 64.50766Q44.675 64.710785 44.565624 65.085785Q44.378124 65.648285 44.378124 66.304535L44.378124 69.57016L43.33125 69.57016ZM51.409374 68.804535Q50.815624 69.304535 50.26875 69.50766Q49.7375 69.710785 49.1125 69.710785Q48.08125 69.710785 47.534374 69.210785Q46.9875 68.710785 46.9875 67.929535Q46.9875 67.47641 47.190624 67.10141Q47.39375 66.710785 47.7375 66.492035Q48.08125 66.25766 48.503124 66.148285Q48.8 66.054535 49.440624 65.97641Q50.70625 65.835785 51.315624 65.617035Q51.315624 65.398285 51.315624 65.35141Q51.315624 64.69516 51.01875 64.429535Q50.6125 64.085785 49.815624 64.085785Q49.08125 64.085785 48.721874 64.35141Q48.3625 64.60141 48.190624 65.25766L47.159374 65.117035Q47.3 64.460785 47.628124 64.054535Q47.95625 63.648285 48.565624 63.429535Q49.175 63.210785 49.971874 63.210785Q50.76875 63.210785 51.26875 63.398285Q51.76875 63.585785 52.003124 63.867035Q52.2375 64.148285 52.33125 64.585785Q52.378124 64.85141 52.378124 65.554535L52.378124 66.960785Q52.378124 68.429535 52.440624 68.82016Q52.51875 69.210785 52.721874 69.57016L51.6125 69.57016Q51.45625 69.242035 51.409374 68.804535ZM51.315624 66.44516Q50.7375 66.679535 49.596874 66.85141Q48.940624 66.94516 48.675 67.07016Q48.409374 67.179535 48.253124 67.398285Q48.1125 67.617035 48.1125 67.898285Q48.1125 68.32016 48.425 68.60141Q48.753124 68.88266 49.3625 68.88266Q49.971874 68.88266 50.440624 68.617035Q50.925 68.35141 51.14375 67.88266Q51.315624 67.523285 51.315624 66.835785L51.315624 66.44516ZM54.315624 69.57016L54.315624 60.97641L55.378124 60.97641L55.378124 69.57016L54.315624 69.57016ZM57.346874 62.19516L57.346874 60.97641L58.409374 60.97641L58.409374 62.19516L57.346874 62.19516ZM57.346874 69.57016L57.346874 63.35141L58.409374 63.35141L58.409374 69.57016L57.346874 69.57016ZM64.40938 68.804535Q63.815624 69.304535 63.26875 69.50766Q62.7375 69.710785 62.1125 69.710785Q61.08125 69.710785 60.534374 69.210785Q59.9875 68.710785 59.9875 67.929535Q59.9875 67.47641 60.190624 67.10141Q60.39375 66.710785 60.7375 66.492035Q61.08125 66.25766 61.503124 66.148285Q61.8 66.054535 62.440624 65.97641Q63.70625 65.835785 64.31563 65.617035Q64.31563 65.398285 64.31563 65.35141Q64.31563 64.69516 64.01875 64.429535Q63.6125 64.085785 62.815624 64.085785Q62.08125 64.085785 61.721874 64.35141Q61.3625 64.60141 61.190624 65.25766L60.159374 65.117035Q60.3 64.460785 60.628124 64.054535Q60.95625 63.648285 61.565624 63.429535Q62.175 63.210785 62.971874 63.210785Q63.76875 63.210785 64.26875 63.398285Q64.76875 63.585785 65.00313 63.867035Q65.2375 64.148285 65.33125 64.585785Q65.37813 64.85141 65.37813 65.554535L65.37813 66.960785Q65.37813 68.429535 65.44063 68.82016Q65.51875 69.210785 65.72188 69.57016L64.6125 69.57016Q64.45625 69.242035 64.40938 68.804535ZM64.31563 66.44516Q63.7375 66.679535 62.596874 66.85141Q61.940624 66.94516 61.675 67.07016Q61.409374 67.179535 61.253124 67.398285Q61.1125 67.617035 61.1125 67.898285Q61.1125 68.32016 61.425 68.60141Q61.753124 68.88266 62.3625 68.88266Q62.971874 68.88266 63.440624 68.617035Q63.925 68.35141 64.14375 67.88266Q64.31563 67.523285 64.31563 66.835785L64.31563 66.44516Z" fill-rule="nonzero"/><path fill="#9e9e9e" d="M24.596874 85.554535L24.596874 86.57016L18.909374 86.57016Q18.909374 86.19516 19.034374 85.835785Q19.253124 85.25766 19.721874 84.69516Q20.20625 84.13266 21.1125 83.398285Q22.51875 82.242035 23.003124 81.57016Q23.503124 80.898285 23.503124 80.304535Q23.503124 79.679535 23.05 79.25766Q22.596874 78.82016 21.878124 78.82016Q21.1125 78.82016 20.659374 79.273285Q20.20625 79.72641 20.190624 80.53891L19.1125 80.429535Q19.221874 79.210785 19.940624 78.585785Q20.675 77.94516 21.909374 77.94516Q23.14375 77.94516 23.8625 78.63266Q24.58125 79.32016 24.58125 80.335785Q24.58125 80.85141 24.3625 81.35141Q24.159374 81.835785 23.659374 82.398285Q23.175 82.94516 22.05 83.898285Q21.096874 84.69516 20.815624 84.992035Q20.55 85.273285 20.378124 85.554535L24.596874 85.554535ZM26.64375 86.57016L26.64375 85.367035L27.846874 85.367035L27.846874 86.57016L26.64375 86.57016ZM29.05 84.304535L30.1125 84.16391Q30.284374 85.054535 30.721874 85.460785Q31.159374 85.85141 31.784374 85.85141Q32.534374 85.85141 33.05 85.335785Q33.565624 84.82016 33.565624 84.054535Q33.565624 83.335785 33.08125 82.867035Q32.6125 82.38266 31.878124 82.38266Q31.58125 82.38266 31.128124 82.50766L31.253124 81.57016Q31.3625 81.585785 31.425 81.585785Q32.096874 81.585785 32.628124 81.242035Q33.175 80.88266 33.175 80.148285Q33.175 79.57016 32.784374 79.19516Q32.39375 78.804535 31.76875 78.804535Q31.159374 78.804535 30.7375 79.19516Q30.33125 79.585785 30.221874 80.35141L29.159374 80.16391Q29.346874 79.117035 30.034374 78.53891Q30.721874 77.94516 31.7375 77.94516Q32.440624 77.94516 33.034374 78.25766Q33.628124 78.554535 33.940624 79.07016Q34.253124 79.585785 34.253124 80.179535Q34.253124 80.72641 33.95625 81.19516Q33.659374 81.648285 33.08125 81.91391Q33.83125 82.085785 34.253124 82.648285Q34.675 83.19516 34.675 84.03891Q34.675 85.16391 33.846874 85.94516Q33.034374 86.72641 31.784374 86.72641Q30.659374 86.72641 29.909374 86.054535Q29.159374 85.367035 29.05 84.304535ZM36.253124 80.03891Q36.253124 79.117035 36.70625 78.47641Q37.175 77.835785 38.05 77.835785Q38.8625 77.835785 39.39375 78.41391Q39.925 78.992035 39.925 80.10141Q39.925 81.19516 39.378124 81.78891Q38.846874 82.367035 38.065624 82.367035Q37.284374 82.367035 36.76875 81.78891Q36.253124 81.210785 36.253124 80.03891ZM38.08125 78.554535Q37.690624 78.554535 37.425 78.898285Q37.175 79.242035 37.175 80.148285Q37.175 80.97641 37.425 81.32016Q37.690624 81.648285 38.08125 81.648285Q38.4875 81.648285 38.7375 81.304535Q39.003124 80.960785 39.003124 80.07016Q39.003124 79.22641 38.7375 78.898285Q38.471874 78.554535 38.08125 78.554535ZM38.08125 86.88266L42.784374 77.835785L43.64375 77.835785L38.95625 86.88266L38.08125 86.88266ZM41.8 84.554535Q41.8 83.63266 42.253124 82.992035Q42.721874 82.35141 43.6125 82.35141Q44.425 82.35141 44.95625 82.929535Q45.4875 83.492035 45.4875 84.617035Q45.4875 85.710785 44.940624 86.304535Q44.409374 86.88266 43.6125 86.88266Q42.846874 86.88266 42.315624 86.304535Q41.8 85.72641 41.8 84.554535ZM43.64375 83.07016Q43.2375 83.07016 42.971874 83.41391Q42.721874 83.75766 42.721874 84.66391Q42.721874 85.47641 42.9875 85.82016Q43.253124 86.16391 43.64375 86.16391Q44.034374 86.16391 44.3 85.82016Q44.565624 85.47641 44.565624 84.57016Q44.565624 83.742035 44.3 83.41391Q44.034374 83.07016 43.64375 83.07016Z" fill-rule="nonzero"/><path stroke="#757575" stroke-width="1.0" stroke-linecap="butt" d="M18.55 74.07016L127.05 74.07016L236.10977 71.36346" fill-rule="nonzero"/><path fill="#9e9e9e" d="M238.10977 71.36346C238.10977 70.25889 237.21434 69.36346 236.10977 69.36346C235.0052 69.36346 234.10977 70.25889 234.10977 71.36346C234.10977 72.468025 235.0052 73.36346 236.10977 73.36346C237.21434 73.36346 238.10977 72.468025 238.10977 71.36346" fill-rule="nonzero"/><path fill="#1a1a1a" d="M19.534374 100.57016L19.534374 91.97641L25.33125 91.97641L25.33125 92.992035L20.675 92.992035L20.675 95.648285L24.70625 95.648285L24.70625 96.66391L20.675 96.66391L20.675 100.57016L19.534374 100.57016ZM26.33125 100.57016L26.33125 94.35141L27.284374 94.35141L27.284374 95.28891Q27.64375 94.63266 27.940624 94.429535Q28.253124 94.210785 28.628124 94.210785Q29.159374 94.210785 29.70625 94.53891L29.346874 95.523285Q28.95625 95.28891 28.58125 95.28891Q28.221874 95.28891 27.940624 95.50766Q27.675 95.710785 27.565624 96.085785Q27.378124 96.648285 27.378124 97.304535L27.378124 100.57016L26.33125 100.57016ZM34.409374 99.804535Q33.815624 100.304535 33.26875 100.50766Q32.7375 100.710785 32.1125 100.710785Q31.08125 100.710785 30.534374 100.210785Q29.9875 99.710785 29.9875 98.929535Q29.9875 98.47641 30.190624 98.10141Q30.39375 97.710785 30.7375 97.492035Q31.08125 97.25766 31.503124 97.148285Q31.8 97.054535 32.440624 96.97641Q33.70625 96.835785 34.315624 96.617035Q34.315624 96.398285 34.315624 96.35141Q34.315624 95.69516 34.01875 95.429535Q33.6125 95.085785 32.815624 95.085785Q32.08125 95.085785 31.721874 95.35141Q31.3625 95.60141 31.190624 96.25766L30.159374 96.117035Q30.3 95.460785 30.628124 95.054535Q30.95625 94.648285 31.565624 94.429535Q32.175 94.210785 32.971874 94.210785Q33.76875 94.210785 34.26875 94.398285Q34.76875 94.585785 35.003124 94.867035Q35.2375 95.148285 35.33125 95.585785Q35.378124 95.85141 35.378124 96.554535L35.378124 97.960785Q35.378124 99.429535 35.440624 99.82016Q35.51875 100.210785 35.721874 100.57016L34.6125 100.57016Q34.45625 100.242035 34.409374 99.804535ZM34.315624 97.44516Q33.7375 97.679535 32.596874 97.85141Q31.940624 97.94516 31.675 98.07016Q31.409374 98.179535 31.253124 98.398285Q31.1125 98.617035 31.1125 98.898285Q31.1125 99.32016 31.425 99.60141Q31.753124 99.88266 32.3625 99.88266Q32.971874 99.88266 33.440624 99.617035Q33.925 99.35141 34.14375 98.88266Q34.315624 98.523285 34.315624 97.835785L34.315624 97.44516ZM37.346874 100.57016L37.346874 94.35141L38.284374 94.35141L38.284374 95.22641Q38.971874 94.210785 40.26875 94.210785Q40.83125 94.210785 41.3 94.41391Q41.784374 94.617035 42.01875 94.94516Q42.253124 95.273285 42.346874 95.710785Q42.39375 96.00766 42.39375 96.742035L42.39375 100.57016L41.346874 100.57016L41.346874 96.78891Q41.346874 96.13266 41.221874 95.82016Q41.096874 95.50766 40.784374 95.32016Q40.471874 95.117035 40.05 95.117035Q39.378124 95.117035 38.878124 95.554535Q38.39375 95.97641 38.39375 97.16391L38.39375 100.57016L37.346874 100.57016ZM48.409374 98.28891L49.440624 98.429535Q49.26875 99.492035 48.565624 100.10141Q47.8625 100.710785 46.846874 100.710785Q45.565624 100.710785 44.784374 99.88266Q44.01875 99.03891 44.01875 97.47641Q44.01875 96.47641 44.346874 95.72641Q44.690624 94.960785 45.3625 94.585785Q46.05 94.210785 46.8625 94.210785Q47.8625 94.210785 48.503124 94.72641Q49.159374 95.22641 49.346874 96.179535L48.315624 96.335785Q48.175 95.710785 47.8 95.398285Q47.425 95.07016 46.89375 95.07016Q46.096874 95.07016 45.596874 95.648285Q45.096874 96.210785 45.096874 97.44516Q45.096874 98.710785 45.58125 99.273285Q46.065624 99.835785 46.83125 99.835785Q47.45625 99.835785 47.8625 99.460785Q48.284374 99.085785 48.409374 98.28891ZM54.596874 98.57016L55.690624 98.69516Q55.440624 99.648285 54.7375 100.179535Q54.034374 100.710785 52.95625 100.710785Q51.596874 100.710785 50.784374 99.867035Q49.9875 99.023285 49.9875 97.50766Q49.9875 95.94516 50.8 95.085785Q51.6125 94.210785 52.89375 94.210785Q54.14375 94.210785 54.925 95.054535Q55.721874 95.898285 55.721874 97.44516Q55.721874 97.53891 55.721874 97.72641L51.08125 97.72641Q51.14375 98.75766 51.659374 99.304535Q52.175 99.835785 52.95625 99.835785Q53.534374 99.835785 53.940624 99.53891Q54.3625 99.22641 54.596874 98.57016ZM51.14375 96.867035L54.6125 96.867035Q54.55 96.07016 54.221874 95.679535Q53.70625 95.07016 52.909374 95.07016Q52.175 95.07016 51.675 95.554535Q51.190624 96.03891 51.14375 96.867035Z" fill-rule="nonzero"/><path fill="#9e9e9e" d="M22.425 117.57016L22.425 115.50766L18.70625 115.50766L18.70625 114.53891L22.628124 108.97641L23.4875 108.97641L23.4875 114.53891L24.64375 114.53891L24.64375 115.50766L23.4875 115.50766L23.4875 117.57016L22.425 117.57016ZM22.425 114.53891L22.425 110.679535L19.7375 114.53891L22.425 114.53891ZM26.64375 117.57016L26.64375 116.367035L27.846874 116.367035L27.846874 117.57016L26.64375 117.57016ZM33.01875 117.57016L31.971874 117.57016L31.971874 110.85141Q31.58125 111.210785 30.95625 111.585785Q30.346874 111.94516 29.8625 112.117035L29.8625 111.10141Q30.7375 110.679535 31.39375 110.10141Q32.065624 109.50766 32.346874 108.94516L33.01875 108.94516L33.01875 117.57016ZM36.253124 111.03891Q36.253124 110.117035 36.70625 109.47641Q37.175 108.835785 38.05 108.835785Q38.8625 108.835785 39.39375 109.41391Q39.925 109.992035 39.925 111.10141Q39.925 112.19516 39.378124 112.78891Q38.846874 113.367035 38.065624 113.367035Q37.284374 113.367035 36.76875 112.78891Q36.253124 112.210785 36.253124 111.03891ZM38.08125 109.554535Q37.690624 109.554535 37.425 109.898285Q37.175 110.242035 37.175 111.148285Q37.175 111.97641 37.425 112.32016Q37.690624 112.648285 38.08125 112.648285Q38.4875 112.648285 38.7375 112.304535Q39.003124 111.960785 39.003124 111.07016Q39.003124 110.22641 38.7375 109.898285Q38.471874 109.554535 38.08125 109.554535ZM38.08125 117.88266L42.784374 108.835785L43.64375 108.835785L38.95625 117.88266L38.08125 117.88266ZM41.8 115.554535Q41.8 114.63266 42.253124 113.992035Q42.721874 113.35141 43.6125 113.35141Q44.425 113.35141 44.95625 113.929535Q45.4875 114.492035 45.4875 115.617035Q45.4875 116.710785 44.940624 117.304535Q44.409374 117.88266 43.6125 117.88266Q42.846874 117.88266 42.315624 117.304535Q41.8 116.72641 41.8 115.554535ZM43.64375 114.07016Q43.2375 114.07016 42.971874 114.41391Q42.721874 114.75766 42.721874 115.66391Q42.721874 116.47641 42.9875 116.82016Q43.253124 117.16391 43.64375 117.16391Q44.034374 117.16391 44.3 116.82016Q44.565624 116.47641 44.565624 115.57016Q44.565624 114.742035 44.3 114.41391Q44.034374 114.07016 43.64375 114.07016Z" fill-rule="nonzero"/><path stroke="#757575" stroke-width="1.0" stroke-linecap="butt" d="M18.55 105.07016L127.05 105.07016L208.68904 82.20232" fill-rule="nonzero"/><path fill="#9e9e9e" d="M210.68904 82.20232C210.68904 81.09775 209.79361 80.20232 208.68904 80.20232C207.58447 80.20232 206.68904 81.09775 206.68904 82.20232C206.68904 83.30689 207.58447 84.20232 208.68904 84.20232C209.79361 84.20232 210.68904 83.30689 210.68904 82.20232" fill-rule="nonzero"/><path fill="#1a1a1a" d="M19.096874 128.80453L20.159374 128.71078Q20.2375 129.36703 20.51875 129.77328Q20.8 130.17953 21.378124 130.44516Q21.971874 130.69516 22.70625 130.69516Q23.346874 130.69516 23.846874 130.50766Q24.346874 130.30453 24.58125 129.97641Q24.83125 129.63266 24.83125 129.24203Q24.83125 128.83578 24.596874 128.53891Q24.3625 128.22641 23.83125 128.02328Q23.471874 127.88266 22.284374 127.60141Q21.1125 127.32016 20.64375 127.07016Q20.01875 126.742035 19.721874 126.273285Q19.425 125.78891 19.425 125.19516Q19.425 124.554535 19.784374 123.992035Q20.159374 123.41391 20.8625 123.13266Q21.58125 122.835785 22.440624 122.835785Q23.39375 122.835785 24.128124 123.148285Q24.8625 123.44516 25.253124 124.054535Q25.64375 124.648285 25.675 125.398285L24.58125 125.47641Q24.4875 124.66391 23.971874 124.25766Q23.471874 123.835785 22.4875 123.835785Q21.45625 123.835785 20.9875 124.210785Q20.51875 124.585785 20.51875 125.117035Q20.51875 125.585785 20.846874 125.88266Q21.175 126.179535 22.55 126.492035Q23.940624 126.804535 24.45625 127.03891Q25.20625 127.398285 25.565624 127.929535Q25.925 128.44516 25.925 129.14828Q25.925 129.83578 25.534374 130.44516Q25.14375 131.03891 24.409374 131.38266Q23.675 131.71078 22.753124 131.71078Q21.58125 131.71078 20.784374 131.38266Q20.003124 131.03891 19.55 130.35141Q19.1125 129.66391 19.096874 128.80453ZM28.4875 131.57016L26.58125 125.35141L27.675 125.35141L28.659374 128.94516L29.034374 130.27328Q29.065624 130.17953 29.3625 128.99203L30.346874 125.35141L31.425 125.35141L32.3625 128.96078L32.675 130.14828L33.034374 128.94516L34.096874 125.35141L35.128124 125.35141L33.175 131.57016L32.08125 131.57016L31.096874 127.835785L30.846874 126.78891L29.596874 131.57016L28.4875 131.57016ZM40.596874 129.57016L41.690624 129.69516Q41.440624 130.64828 40.7375 131.17953Q40.034374 131.71078 38.95625 131.71078Q37.596874 131.71078 36.784374 130.86703Q35.9875 130.02328 35.9875 128.50766Q35.9875 126.94516 36.8 126.085785Q37.6125 125.210785 38.89375 125.210785Q40.14375 125.210785 40.925 126.054535Q41.721874 126.898285 41.721874 128.44516Q41.721874 128.53891 41.721874 128.72641L37.08125 128.72641Q37.14375 129.75766 37.659374 130.30453Q38.175 130.83578 38.95625 130.83578Q39.534374 130.83578 39.940624 130.53891Q40.3625 130.22641 40.596874 129.57016ZM37.14375 127.867035L40.6125 127.867035Q40.55 127.07016 40.221874 126.679535Q39.70625 126.07016 38.909374 126.07016Q38.175 126.07016 37.675 126.554535Q37.190624 127.03891 37.14375 127.867035ZM47.378124 131.57016L47.378124 130.78891Q46.784374 131.71078 45.64375 131.71078Q44.89375 131.71078 44.26875 131.30453Q43.64375 130.88266 43.3 130.14828Q42.95625 129.41391 42.95625 128.46078Q42.95625 127.53891 43.26875 126.773285Q43.58125 126.00766 44.20625 125.617035Q44.83125 125.210785 45.596874 125.210785Q46.159374 125.210785 46.596874 125.44516Q47.034374 125.679535 47.315624 126.054535L47.315624 122.97641L48.3625 122.97641L48.3625 131.57016L47.378124 131.57016ZM44.05 128.46078Q44.05 129.66391 44.55 130.25766Q45.05 130.83578 45.7375 130.83578Q46.425 130.83578 46.909374 130.27328Q47.39375 129.71078 47.39375 128.55453Q47.39375 127.273285 46.89375 126.679535Q46.409374 126.085785 45.690624 126.085785Q44.9875 126.085785 44.51875 126.66391Q44.05 127.22641 44.05 128.46078ZM54.596874 129.57016L55.690624 129.69516Q55.440624 130.64828 54.7375 131.17953Q54.034374 131.71078 52.95625 131.71078Q51.596874 131.71078 50.784374 130.86703Q49.9875 130.02328 49.9875 128.50766Q49.9875 126.94516 50.8 126.085785Q51.6125 125.210785 52.89375 125.210785Q54.14375 125.210785 54.925 126.054535Q55.721874 126.898285 55.721874 128.44516Q55.721874 128.53891 55.721874 128.72641L51.08125 128.72641Q51.14375 129.75766 51.659374 130.30453Q52.175 130.83578 52.95625 130.83578Q53.534374 130.83578 53.940624 130.53891Q54.3625 130.22641 54.596874 129.57016ZM51.14375 127.867035L54.6125 127.867035Q54.55 127.07016 54.221874 126.679535Q53.70625 126.07016 52.909374 126.07016Q52.175 126.07016 51.675 126.554535Q51.190624 127.03891 51.14375 127.867035ZM57.346874 131.57016L57.346874 125.35141L58.284374 125.35141L58.284374 126.22641Q58.971874 125.210785 60.26875 125.210785Q60.83125 125.210785 61.3 125.41391Q61.784374 125.617035 62.01875 125.94516Q62.253124 126.273285 62.346874 126.710785Q62.39375 127.00766 62.39375 127.742035L62.39375 131.57016L61.346874 131.57016L61.346874 127.78891Q61.346874 127.13266 61.221874 126.82016Q61.096874 126.50766 60.784374 126.32016Q60.471874 126.117035 60.05 126.117035Q59.378124 126.117035 58.878124 126.554535Q58.39375 126.97641 58.39375 128.16391L58.39375 131.57016L57.346874 131.57016Z" fill-rule="nonzero"/><path fill="#9e9e9e" d="M22.425 148.57016L22.425 146.50766L18.70625 146.50766L18.70625 145.53891L22.628124 139.97641L23.4875 139.97641L23.4875 145.53891L24.64375 145.53891L24.64375 146.50766L23.4875 146.50766L23.4875 148.57016L22.425 148.57016ZM22.425 145.53891L22.425 141.67953L19.7375 145.53891L22.425 145.53891ZM26.64375 148.57016L26.64375 147.36703L27.846874 147.36703L27.846874 148.57016L26.64375 148.57016ZM29.05 146.30453L30.1125 146.16391Q30.284374 147.05453 30.721874 147.46078Q31.159374 147.85141 31.784374 147.85141Q32.534374 147.85141 33.05 147.33578Q33.565624 146.82016 33.565624 146.05453Q33.565624 145.33578 33.08125 144.86703Q32.6125 144.38266 31.878124 144.38266Q31.58125 144.38266 31.128124 144.50766L31.253124 143.57016Q31.3625 143.58578 31.425 143.58578Q32.096874 143.58578 32.628124 143.24203Q33.175 142.88266 33.175 142.14828Q33.175 141.57016 32.784374 141.19516Q32.39375 140.80453 31.76875 140.80453Q31.159374 140.80453 30.7375 141.19516Q30.33125 141.58578 30.221874 142.35141L29.159374 142.16391Q29.346874 141.11703 30.034374 140.53891Q30.721874 139.94516 31.7375 139.94516Q32.440624 139.94516 33.034374 140.25766Q33.628124 140.55453 33.940624 141.07016Q34.253124 141.58578 34.253124 142.17953Q34.253124 142.72641 33.95625 143.19516Q33.659374 143.64828 33.08125 143.91391Q33.83125 144.08578 34.253124 144.64828Q34.675 145.19516 34.675 146.03891Q34.675 147.16391 33.846874 147.94516Q33.034374 148.72641 31.784374 148.72641Q30.659374 148.72641 29.909374 148.05453Q29.159374 147.36703 29.05 146.30453ZM36.253124 142.03891Q36.253124 141.11703 36.70625 140.47641Q37.175 139.83578 38.05 139.83578Q38.8625 139.83578 39.39375 140.41391Q39.925 140.99203 39.925 142.10141Q39.925 143.19516 39.378124 143.78891Q38.846874 144.36703 38.065624 144.36703Q37.284374 144.36703 36.76875 143.78891Q36.253124 143.21078 36.253124 142.03891ZM38.08125 140.55453Q37.690624 140.55453 37.425 140.89828Q37.175 141.24203 37.175 142.14828Q37.175 142.97641 37.425 143.32016Q37.690624 143.64828 38.08125 143.64828Q38.4875 143.64828 38.7375 143.30453Q39.003124 142.96078 39.003124 142.07016Q39.003124 141.22641 38.7375 140.89828Q38.471874 140.55453 38.08125 140.55453ZM38.08125 148.88266L42.784374 139.83578L43.64375 139.83578L38.95625 148.88266L38.08125 148.88266ZM41.8 146.55453Q41.8 145.63266 42.253124 144.99203Q42.721874 144.35141 43.6125 144.35141Q44.425 144.35141 44.95625 144.92953Q45.4875 145.49203 45.4875 146.61703Q45.4875 147.71078 44.940624 148.30453Q44.409374 148.88266 43.6125 148.88266Q42.846874 148.88266 42.315624 148.30453Q41.8 147.72641 41.8 146.55453ZM43.64375 145.07016Q43.2375 145.07016 42.971874 145.41391Q42.721874 145.75766 42.721874 146.66391Q42.721874 147.47641 42.9875 147.82016Q43.253124 148.16391 43.64375 148.16391Q44.034374 148.16391 44.3 147.82016Q44.565624 147.47641 44.565624 146.57016Q44.565624 145.74203 44.3 145.41391Q44.034374 145.07016 43.64375 145.07016Z" fill-rule="nonzero"/><path stroke="#757575" stroke-width="1.0" stroke-linecap="butt" d="M18.55 136.07016L127.05 136.07016L178.12247 101.93438" fill-rule="nonzero"/><path fill="#9e9e9e" d="M180.12247 101.93438C180.12247 100.82981 179.22704 99.93438 178.12247 99.93438C177.01788 99.93438 176.12247 100.82981 176.12247 101.93438C176.12247 103.03895 177.01788 103.93438 178.12247 103.93438C179.22704 103.93438 180.12247 103.03895 180.12247 101.93438" fill-rule="nonzero"/><path fill="#1a1a1a" d="M25.6125 159.55453L26.7375 159.85141Q26.378124 161.24203 25.45625 161.97641Q24.534374 162.71078 23.190624 162.71078Q21.8 162.71078 20.925 162.14828Q20.05 161.58578 19.596874 160.52328Q19.14375 159.44516 19.14375 158.21078Q19.14375 156.86703 19.659374 155.86703Q20.175 154.86703 21.1125 154.35141Q22.065624 153.83578 23.20625 153.83578Q24.4875 153.83578 25.3625 154.49203Q26.253124 155.14828 26.596874 156.33578L25.471874 156.60141Q25.175 155.66391 24.596874 155.24203Q24.034374 154.80453 23.175 154.80453Q22.190624 154.80453 21.51875 155.28891Q20.8625 155.75766 20.58125 156.55453Q20.315624 157.35141 20.315624 158.21078Q20.315624 159.30453 20.628124 160.11703Q20.95625 160.92953 21.628124 161.33578Q22.3 161.74203 23.096874 161.74203Q24.05 161.74203 24.70625 161.19516Q25.378124 160.64828 25.6125 159.55453ZM32.409374 161.80453Q31.815624 162.30453 31.26875 162.50766Q30.7375 162.71078 30.1125 162.71078Q29.08125 162.71078 28.534374 162.21078Q27.9875 161.71078 27.9875 160.92953Q27.9875 160.47641 28.190624 160.10141Q28.39375 159.71078 28.7375 159.49203Q29.08125 159.25766 29.503124 159.14828Q29.8 159.05453 30.440624 158.97641Q31.70625 158.83578 32.315624 158.61703Q32.315624 158.39828 32.315624 158.35141Q32.315624 157.69516 32.01875 157.42953Q31.6125 157.08578 30.815624 157.08578Q30.08125 157.08578 29.721874 157.35141Q29.3625 157.60141 29.190624 158.25766L28.159374 158.11703Q28.3 157.46078 28.628124 157.05453Q28.95625 156.64828 29.565624 156.42953Q30.175 156.21078 30.971874 156.21078Q31.76875 156.21078 32.26875 156.39828Q32.76875 156.58578 33.003124 156.86703Q33.2375 157.14828 33.33125 157.58578Q33.378124 157.85141 33.378124 158.55453L33.378124 159.96078Q33.378124 161.42953 33.440624 161.82016Q33.51875 162.21078 33.721874 162.57016L32.6125 162.57016Q32.45625 162.24203 32.409374 161.80453ZM32.315624 159.44516Q31.7375 159.67953 30.596874 159.85141Q29.940624 159.94516 29.675 160.07016Q29.409374 160.17953 29.253124 160.39828Q29.1125 160.61703 29.1125 160.89828Q29.1125 161.32016 29.425 161.60141Q29.753124 161.88266 30.3625 161.88266Q30.971874 161.88266 31.440624 161.61703Q31.925 161.35141 32.14375 160.88266Q32.315624 160.52328 32.315624 159.83578L32.315624 159.44516ZM35.346874 162.57016L35.346874 156.35141L36.284374 156.35141L36.284374 157.22641Q36.971874 156.21078 38.26875 156.21078Q38.83125 156.21078 39.3 156.41391Q39.784374 156.61703 40.01875 156.94516Q40.253124 157.27328 40.346874 157.71078Q40.39375 158.00766 40.39375 158.74203L40.39375 162.57016L39.346874 162.57016L39.346874 158.78891Q39.346874 158.13266 39.221874 157.82016Q39.096874 157.50766 38.784374 157.32016Q38.471874 157.11703 38.05 157.11703Q37.378124 157.11703 36.878124 157.55453Q36.39375 157.97641 36.39375 159.16391L36.39375 162.57016L35.346874 162.57016ZM46.409374 161.80453Q45.815624 162.30453 45.26875 162.50766Q44.7375 162.71078 44.1125 162.71078Q43.08125 162.71078 42.534374 162.21078Q41.9875 161.71078 41.9875 160.92953Q41.9875 160.47641 42.190624 160.10141Q42.39375 159.71078 42.7375 159.49203Q43.08125 159.25766 43.503124 159.14828Q43.8 159.05453 44.440624 158.97641Q45.70625 158.83578 46.315624 158.61703Q46.315624 158.39828 46.315624 158.35141Q46.315624 157.69516 46.01875 157.42953Q45.6125 157.08578 44.815624 157.08578Q44.08125 157.08578 43.721874 157.35141Q43.3625 157.60141 43.190624 158.25766L42.159374 158.11703Q42.3 157.46078 42.628124 157.05453Q42.95625 156.64828 43.565624 156.42953Q44.175 156.21078 44.971874 156.21078Q45.76875 156.21078 46.26875 156.39828Q46.76875 156.58578 47.003124 156.86703Q47.2375 157.14828 47.33125 157.58578Q47.378124 157.85141 47.378124 158.55453L47.378124 159.96078Q47.378124 161.42953 47.440624 161.82016Q47.51875 162.21078 47.721874 162.57016L46.6125 162.57016Q46.45625 162.24203 46.409374 161.80453ZM46.315624 159.44516Q45.7375 159.67953 44.596874 159.85141Q43.940624 159.94516 43.675 160.07016Q43.409374 160.17953 43.253124 160.39828Q43.1125 160.61703 43.1125 160.89828Q43.1125 161.32016 43.425 161.60141Q43.753124 161.88266 44.3625 161.88266Q44.971874 161.88266 45.440624 161.61703Q45.925 161.35141 46.14375 160.88266Q46.315624 160.52328 46.315624 159.83578L46.315624 159.44516ZM53.378124 162.57016L53.378124 161.78891Q52.784374 162.71078 51.64375 162.71078Q50.89375 162.71078 50.26875 162.30453Q49.64375 161.88266 49.3 161.14828Q48.95625 160.41391 48.95625 159.46078Q48.95625 158.53891 49.26875 157.77328Q49.58125 157.00766 50.20625 156.61703Q50.83125 156.21078 51.596874 156.21078Q52.159374 156.21078 52.596874 156.44516Q53.034374 156.67953 53.315624 157.05453L53.315624 153.97641L54.3625 153.97641L54.3625 162.57016L53.378124 162.57016ZM50.05 159.46078Q50.05 160.66391 50.55 161.25766Q51.05 161.83578 51.7375 161.83578Q52.425 161.83578 52.909374 161.27328Q53.39375 160.71078 53.39375 159.55453Q53.39375 158.27328 52.89375 157.67953Q52.409374 157.08578 51.690624 157.08578Q50.9875 157.08578 50.51875 157.66391Q50.05 158.22641 50.05 159.46078ZM60.409374 161.80453Q59.815624 162.30453 59.26875 162.50766Q58.7375 162.71078 58.1125 162.71078Q57.08125 162.71078 56.534374 162.21078Q55.9875 161.71078 55.9875 160.92953Q55.9875 160.47641 56.190624 160.10141Q56.39375 159.71078 56.7375 159.49203Q57.08125 159.25766 57.503124 159.14828Q57.8 159.05453 58.440624 158.97641Q59.70625 158.83578 60.315624 158.61703Q60.315624 158.39828 60.315624 158.35141Q60.315624 157.69516 60.01875 157.42953Q59.6125 157.08578 58.815624 157.08578Q58.08125 157.08578 57.721874 157.35141Q57.3625 157.60141 57.190624 158.25766L56.159374 158.11703Q56.3 157.46078 56.628124 157.05453Q56.95625 156.64828 57.565624 156.42953Q58.175 156.21078 58.971874 156.21078Q59.76875 156.21078 60.26875 156.39828Q60.76875 156.58578 61.003124 156.86703Q61.2375 157.14828 61.33125 157.58578Q61.378124 157.85141 61.378124 158.55453L61.378124 159.96078Q61.378124 161.42953 61.440624 161.82016Q61.51875 162.21078 61.721874 162.57016L60.6125 162.57016Q60.45625 162.24203 60.409374 161.80453ZM60.315624 159.44516Q59.7375 159.67953 58.596874 159.85141Q57.940624 159.94516 57.675 160.07016Q57.409374 160.17953 57.253124 160.39828Q57.1125 160.61703 57.1125 160.89828Q57.1125 161.32016 57.425 161.60141Q57.753124 161.88266 58.3625 161.88266Q58.971874 161.88266 59.440624 161.61703Q59.925 161.35141 60.14375 160.88266Q60.315624 160.52328 60.315624 159.83578L60.315624 159.44516Z" fill-rule="nonzero"/><path fill="#9e9e9e" d="M19.20625 177.58578L20.221874 177.49203Q20.346874 178.21078 20.70625 178.53891Q21.08125 178.85141 21.64375 178.85141Q22.128124 178.85141 22.4875 178.63266Q22.8625 178.39828 23.096874 178.03891Q23.33125 177.66391 23.4875 177.03891Q23.64375 176.39828 23.64375 175.74203Q23.64375 175.66391 23.64375 175.52328Q23.33125 176.02328 22.784374 176.35141Q22.2375 176.66391 21.596874 176.66391Q20.51875 176.66391 19.784374 175.89828Q19.05 175.11703 19.05 173.85141Q19.05 172.53891 19.815624 171.74203Q20.596874 170.94516 21.753124 170.94516Q22.58125 170.94516 23.26875 171.39828Q23.971874 171.85141 24.33125 172.69516Q24.690624 173.52328 24.690624 175.10141Q24.690624 176.74203 24.33125 177.72641Q23.9875 178.69516 23.26875 179.21078Q22.565624 179.71078 21.628124 179.71078Q20.6125 179.71078 19.971874 179.16391Q19.33125 178.60141 19.20625 177.58578ZM23.51875 173.78891Q23.51875 172.88266 23.034374 172.35141Q22.565624 171.82016 21.878124 171.82016Q21.175 171.82016 20.64375 172.39828Q20.128124 172.96078 20.128124 173.88266Q20.128124 174.69516 20.628124 175.21078Q21.128124 175.72641 21.846874 175.72641Q22.58125 175.72641 23.05 175.21078Q23.51875 174.69516 23.51875 173.78891ZM26.64375 179.57016L26.64375 178.36703L27.846874 178.36703L27.846874 179.57016L26.64375 179.57016ZM29.05 177.30453L30.1125 177.16391Q30.284374 178.05453 30.721874 178.46078Q31.159374 178.85141 31.784374 178.85141Q32.534374 178.85141 33.05 178.33578Q33.565624 177.82016 33.565624 177.05453Q33.565624 176.33578 33.08125 175.86703Q32.6125 175.38266 31.878124 175.38266Q31.58125 175.38266 31.128124 175.50766L31.253124 174.57016Q31.3625 174.58578 31.425 174.58578Q32.096874 174.58578 32.628124 174.24203Q33.175 173.88266 33.175 173.14828Q33.175 172.57016 32.784374 172.19516Q32.39375 171.80453 31.76875 171.80453Q31.159374 171.80453 30.7375 172.19516Q30.33125 172.58578 30.221874 173.35141L29.159374 173.16391Q29.346874 172.11703 30.034374 171.53891Q30.721874 170.94516 31.7375 170.94516Q32.440624 170.94516 33.034374 171.25766Q33.628124 171.55453 33.940624 172.07016Q34.253124 172.58578 34.253124 173.17953Q34.253124 173.72641 33.95625 174.19516Q33.659374 174.64828 33.08125 174.91391Q33.83125 175.08578 34.253124 175.64828Q34.675 176.19516 34.675 177.03891Q34.675 178.16391 33.846874 178.94516Q33.034374 179.72641 31.784374 179.72641Q30.659374 179.72641 29.909374 179.05453Q29.159374 178.36703 29.05 177.30453ZM36.253124 173.03891Q36.253124 172.11703 36.70625 171.47641Q37.175 170.83578 38.05 170.83578Q38.8625 170.83578 39.39375 171.41391Q39.925 171.99203 39.925 173.10141Q39.925 174.19516 39.378124 174.78891Q38.846874 175.36703 38.065624 175.36703Q37.284374 175.36703 36.76875 174.78891Q36.253124 174.21078 36.253124 173.03891ZM38.08125 171.55453Q37.690624 171.55453 37.425 171.89828Q37.175 172.24203 37.175 173.14828Q37.175 173.97641 37.425 174.32016Q37.690624 174.64828 38.08125 174.64828Q38.4875 174.64828 38.7375 174.30453Q39.003124 173.96078 39.003124 173.07016Q39.003124 172.22641 38.7375 171.89828Q38.471874 171.55453 38.08125 171.55453ZM38.08125 179.88266L42.784374 170.83578L43.64375 170.83578L38.95625 179.88266L38.08125 179.88266ZM41.8 177.55453Q41.8 176.63266 42.253124 175.99203Q42.721874 175.35141 43.6125 175.35141Q44.425 175.35141 44.95625 175.92953Q45.4875 176.49203 45.4875 177.61703Q45.4875 178.71078 44.940624 179.30453Q44.409374 179.88266 43.6125 179.88266Q42.846874 179.88266 42.315624 179.30453Q41.8 178.72641 41.8 177.55453ZM43.64375 176.07016Q43.2375 176.07016 42.971874 176.41391Q42.721874 176.75766 42.721874 177.66391Q42.721874 178.47641 42.9875 178.82016Q43.253124 179.16391 43.64375 179.16391Q44.034374 179.16391 44.3 178.82016Q44.565624 178.47641 44.565624 177.57016Q44.565624 176.74203 44.3 176.41391Q44.034374 176.07016 43.64375 176.07016Z" fill-rule="nonzero"/><path stroke="#757575" stroke-width="1.0" stroke-linecap="butt" d="M18.55 167.07016L127.05 167.07016L146.9878 143.76253" fill-rule="nonzero"/><path fill="#9e9e9e" d="M148.9878 143.76253C148.9878 142.65796 148.09236 141.76253 146.9878 141.76253C145.88322 141.76253 144.9878 142.65796 144.9878 143.76253C144.9878 144.8671 145.88322 145.76253 146.9878 145.76253C148.09236 145.76253 148.9878 144.8671 148.9878 143.76253" fill-rule="nonzero"/><path fill="#1a1a1a" d="M19.503124 231.4752L19.503124 222.88145L25.70625 222.88145L25.70625 223.89708L20.64375 223.89708L20.64375 226.52208L25.39375 226.52208L25.39375 227.5377L20.64375 227.5377L20.64375 230.45958L25.909374 230.45958L25.909374 231.4752L19.503124 231.4752ZM27.346874 231.4752L27.346874 225.25645L28.284374 225.25645L28.284374 226.13145Q28.971874 225.11583 30.26875 225.11583Q30.83125 225.11583 31.3 225.31895Q31.784374 225.52208 32.01875 225.8502Q32.253124 226.17833 32.346874 226.61583Q32.39375 226.9127 32.39375 227.64708L32.39375 231.4752L31.346874 231.4752L31.346874 227.69395Q31.346874 227.0377 31.221874 226.7252Q31.096874 226.4127 30.784374 226.2252Q30.471874 226.02208 30.05 226.02208Q29.378124 226.02208 28.878124 226.45958Q28.39375 226.88145 28.39375 228.06895L28.39375 231.4752L27.346874 231.4752ZM34.14375 231.99083L35.175 232.14708Q35.2375 232.61583 35.534374 232.83458Q35.925 233.13145 36.596874 233.13145Q37.33125 233.13145 37.721874 232.83458Q38.128124 232.5377 38.26875 232.02208Q38.3625 231.69395 38.346874 230.6627Q37.659374 231.4752 36.628124 231.4752Q35.346874 231.4752 34.64375 230.55333Q33.940624 229.61583 33.940624 228.33458Q33.940624 227.44395 34.253124 226.69395Q34.58125 225.92833 35.190624 225.52208Q35.8 225.11583 36.628124 225.11583Q37.7375 225.11583 38.45625 226.00645L38.45625 225.25645L39.425 225.25645L39.425 230.63145Q39.425 232.08458 39.128124 232.69395Q38.83125 233.30333 38.190624 233.64708Q37.55 234.00645 36.6125 234.00645Q35.503124 234.00645 34.815624 233.50645Q34.128124 233.00645 34.14375 231.99083ZM35.01875 228.25645Q35.01875 229.4752 35.503124 230.0377Q35.9875 230.6002 36.721874 230.6002Q37.45625 230.6002 37.940624 230.0377Q38.440624 229.4752 38.440624 228.2877Q38.440624 227.14708 37.925 226.56895Q37.425 225.99083 36.70625 225.99083Q36.003124 225.99083 35.503124 226.56895Q35.01875 227.13145 35.01875 228.25645ZM41.315624 231.4752L41.315624 222.88145L42.378124 222.88145L42.378124 231.4752L41.315624 231.4752ZM48.409374 230.70958Q47.815624 231.20958 47.26875 231.4127Q46.7375 231.61583 46.1125 231.61583Q45.08125 231.61583 44.534374 231.11583Q43.9875 230.61583 43.9875 229.83458Q43.9875 229.38145 44.190624 229.00645Q44.39375 228.61583 44.7375 228.39708Q45.08125 228.1627 45.503124 228.05333Q45.8 227.95958 46.440624 227.88145Q47.70625 227.74083 48.315624 227.52208Q48.315624 227.30333 48.315624 227.25645Q48.315624 226.6002 48.01875 226.33458Q47.6125 225.99083 46.815624 225.99083Q46.08125 225.99083 45.721874 226.25645Q45.3625 226.50645 45.190624 227.1627L44.159374 227.02208Q44.3 226.36583 44.628124 225.95958Q44.95625 225.55333 45.565624 225.33458Q46.175 225.11583 46.971874 225.11583Q47.76875 225.11583 48.26875 225.30333Q48.76875 225.49083 49.003124 225.77208Q49.2375 226.05333 49.33125 226.49083Q49.378124 226.75645 49.378124 227.45958L49.378124 228.86583Q49.378124 230.33458 49.440624 230.7252Q49.51875 231.11583 49.721874 231.4752L48.6125 231.4752Q48.45625 231.14708 48.409374 230.70958ZM48.315624 228.3502Q47.7375 228.58458 46.596874 228.75645Q45.940624 228.8502 45.675 228.9752Q45.409374 229.08458 45.253124 229.30333Q45.1125 229.52208 45.1125 229.80333Q45.1125 230.2252 45.425 230.50645Q45.753124 230.7877 46.3625 230.7877Q46.971874 230.7877 47.440624 230.52208Q47.925 230.25645 48.14375 229.7877Q48.315624 229.42833 48.315624 228.74083L48.315624 228.3502ZM51.346874 231.4752L51.346874 225.25645L52.284374 225.25645L52.284374 226.13145Q52.971874 225.11583 54.26875 225.11583Q54.83125 225.11583 55.3 225.31895Q55.784374 225.52208 56.01875 225.8502Q56.253124 226.17833 56.346874 226.61583Q56.39375 226.9127 56.39375 227.64708L56.39375 231.4752L55.346874 231.4752L55.346874 227.69395Q55.346874 227.0377 55.221874 226.7252Q55.096874 226.4127 54.784374 226.2252Q54.471874 226.02208 54.05 226.02208Q53.378124 226.02208 52.878124 226.45958Q52.39375 226.88145 52.39375 228.06895L52.39375 231.4752L51.346874 231.4752ZM62.378124 231.4752L62.378124 230.69395Q61.784374 231.61583 60.64375 231.61583Q59.89375 231.61583 59.26875 231.20958Q58.64375 230.7877 58.3 230.05333Q57.95625 229.31895 57.95625 228.36583Q57.95625 227.44395 58.26875 226.67833Q58.58125 225.9127 59.20625 225.52208Q59.83125 225.11583 60.596874 225.11583Q61.159374 225.11583 61.596874 225.3502Q62.034374 225.58458 62.315624 225.95958L62.315624 222.88145L63.3625 222.88145L63.3625 231.4752L62.378124 231.4752ZM59.05 228.36583Q59.05 229.56895 59.55 230.1627Q60.05 230.74083 60.7375 230.74083Q61.425 230.74083 61.909374 230.17833Q62.39375 229.61583 62.39375 228.45958Q62.39375 227.17833 61.89375 226.58458Q61.409374 225.99083 60.690624 225.99083Q59.9875 225.99083 59.51875 226.56895Q59.05 227.13145 59.05 228.36583Z" fill-rule="nonzero"/><path fill="#9e9e9e" d="M23.01875 248.4752L21.971874 248.4752L21.971874 241.75645Q21.58125 242.11583 20.95625 242.49083Q20.346874 242.8502 19.8625 243.02208L19.8625 242.00645Q20.7375 241.58458 21.39375 241.00645Q22.065624 240.4127 22.346874 239.8502L23.01875 239.8502L23.01875 248.4752ZM27.675 243.81895Q27.01875 243.56895 26.690624 243.13145Q26.378124 242.67833 26.378124 242.06895Q26.378124 241.13145 27.05 240.49083Q27.7375 239.8502 28.846874 239.8502Q29.971874 239.8502 30.659374 240.50645Q31.346874 241.1627 31.346874 242.1002Q31.346874 242.69395 31.034374 243.13145Q30.721874 243.56895 30.08125 243.81895Q30.878124 244.06895 31.284374 244.64708Q31.690624 245.2252 31.690624 246.02208Q31.690624 247.11583 30.909374 247.86583Q30.14375 248.61583 28.8625 248.61583Q27.596874 248.61583 26.815624 247.86583Q26.034374 247.11583 26.034374 245.99083Q26.034374 245.14708 26.45625 244.58458Q26.89375 244.02208 27.675 243.81895ZM27.45625 242.02208Q27.45625 242.63145 27.846874 243.02208Q28.253124 243.4127 28.878124 243.4127Q29.4875 243.4127 29.878124 243.0377Q30.26875 242.64708 30.26875 242.08458Q30.26875 241.50645 29.8625 241.11583Q29.45625 240.70958 28.8625 240.70958Q28.253124 240.70958 27.846874 241.1002Q27.45625 241.49083 27.45625 242.02208ZM27.128124 245.99083Q27.128124 246.44395 27.33125 246.86583Q27.55 247.2877 27.971874 247.52208Q28.39375 247.75645 28.878124 247.75645Q29.628124 247.75645 30.1125 247.27208Q30.6125 246.7877 30.6125 246.0377Q30.6125 245.27208 30.1125 244.77208Q29.6125 244.27208 28.846874 244.27208Q28.096874 244.27208 27.6125 244.77208Q27.128124 245.25645 27.128124 245.99083ZM33.64375 248.4752L33.64375 247.27208L34.846874 247.27208L34.846874 248.4752L33.64375 248.4752ZM36.05 246.20958L37.1125 246.06895Q37.284374 246.95958 37.721874 247.36583Q38.159374 247.75645 38.784374 247.75645Q39.534374 247.75645 40.05 247.24083Q40.565624 246.7252 40.565624 245.95958Q40.565624 245.24083 40.08125 244.77208Q39.6125 244.2877 38.878124 244.2877Q38.58125 244.2877 38.128124 244.4127L38.253124 243.4752Q38.3625 243.49083 38.425 243.49083Q39.096874 243.49083 39.628124 243.14708Q40.175 242.7877 40.175 242.05333Q40.175 241.4752 39.784374 241.1002Q39.39375 240.70958 38.76875 240.70958Q38.159374 240.70958 37.7375 241.1002Q37.33125 241.49083 37.221874 242.25645L36.159374 242.06895Q36.346874 241.02208 37.034374 240.44395Q37.721874 239.8502 38.7375 239.8502Q39.440624 239.8502 40.034374 240.1627Q40.628124 240.45958 40.940624 240.9752Q41.253124 241.49083 41.253124 242.08458Q41.253124 242.63145 40.95625 243.1002Q40.659374 243.55333 40.08125 243.81895Q40.83125 243.99083 41.253124 244.55333Q41.675 245.1002 41.675 245.94395Q41.675 247.06895 40.846874 247.8502Q40.034374 248.63145 38.784374 248.63145Q37.659374 248.63145 36.909374 247.95958Q36.159374 247.27208 36.05 246.20958ZM43.253124 241.94395Q43.253124 241.02208 43.70625 240.38145Q44.175 239.74083 45.05 239.74083Q45.8625 239.74083 46.39375 240.31895Q46.925 240.89708 46.925 242.00645Q46.925 243.1002 46.378124 243.69395Q45.846874 244.27208 45.065624 244.27208Q44.284374 244.27208 43.76875 243.69395Q43.253124 243.11583 43.253124 241.94395ZM45.08125 240.45958Q44.690624 240.45958 44.425 240.80333Q44.175 241.14708 44.175 242.05333Q44.175 242.88145 44.425 243.2252Q44.690624 243.55333 45.08125 243.55333Q45.4875 243.55333 45.7375 243.20958Q46.003124 242.86583 46.003124 241.9752Q46.003124 241.13145 45.7375 240.80333Q45.471874 240.45958 45.08125 240.45958ZM45.08125 248.7877L49.784374 239.74083L50.64375 239.74083L45.95625 248.7877L45.08125 248.7877ZM48.8 246.45958Q48.8 245.5377 49.253124 244.89708Q49.721874 244.25645 50.6125 244.25645Q51.425 244.25645 51.95625 244.83458Q52.4875 245.39708 52.4875 246.52208Q52.4875 247.61583 51.940624 248.20958Q51.409374 248.7877 50.6125 248.7877Q49.846874 248.7877 49.315624 248.20958Q48.8 247.63145 48.8 246.45958ZM50.64375 244.9752Q50.2375 244.9752 49.971874 245.31895Q49.721874 245.6627 49.721874 246.56895Q49.721874 247.38145 49.9875 247.7252Q50.253124 248.06895 50.64375 248.06895Q51.034374 248.06895 51.3 247.7252Q51.565624 247.38145 51.565624 246.4752Q51.565624 245.64708 51.3 245.31895Q51.034374 244.9752 50.64375 244.9752Z" fill-rule="nonzero"/><path stroke="#757575" stroke-width="1.0" stroke-linecap="butt" d="M18.55 235.9752L127.05 235.9752L169.40266 235.9752" fill-rule="nonzero"/><path fill="#9e9e9e" d="M171.40266 235.9752C171.40266 234.87064 170.50723 233.9752 169.40266 233.9752C168.29808 233.9752 167.40266 234.87064 167.40266 235.9752C167.40266 237.07977 168.29808 237.9752 169.40266 237.9752C170.50723 237.9752 171.40266 237.07977 171.40266 235.9752" fill-rule="nonzero"/><path fill="#1a1a1a" d="M564.0125 99.06296L565.15314 99.06296L565.15314 104.03171Q565.15314 105.32858 564.85626 106.09421Q564.5594 106.84421 563.79376 107.32858Q563.02814 107.79733 561.79376 107.79733Q560.59064 107.79733 559.8094 107.39108Q559.04376 106.96921 558.71564 106.18796Q558.3875 105.39108 558.3875 104.03171L558.3875 99.06296L559.52814 99.06296L559.52814 104.01608Q559.52814 105.14108 559.73126 105.67233Q559.95 106.20358 560.45 106.50046Q560.96564 106.78171 561.7 106.78171Q562.95 106.78171 563.48126 106.21921Q564.0125 105.64108 564.0125 104.01608L564.0125 99.06296ZM566.9969 104.89108L568.0594 104.79733Q568.1375 105.45358 568.41876 105.85983Q568.7 106.26608 569.27814 106.53171Q569.8719 106.78171 570.60626 106.78171Q571.2469 106.78171 571.7469 106.59421Q572.2469 106.39108 572.48126 106.06296Q572.73126 105.71921 572.73126 105.32858Q572.73126 104.92233 572.4969 104.62546Q572.2625 104.31296 571.73126 104.10983Q571.3719 103.96921 570.1844 103.68796Q569.0125 103.40671 568.54376 103.15671Q567.91876 102.82858 567.6219 102.35983Q567.325 101.87546 567.325 101.28171Q567.325 100.64108 567.6844 100.07858Q568.0594 99.50046 568.7625 99.21921Q569.48126 98.92233 570.34064 98.92233Q571.29376 98.92233 572.02814 99.23483Q572.7625 99.53171 573.15314 100.14108Q573.54376 100.73483 573.575 101.48483L572.48126 101.56296Q572.3875 100.75046 571.8719 100.34421Q571.3719 99.92233 570.3875 99.92233Q569.35626 99.92233 568.8875 100.29733Q568.41876 100.67233 568.41876 101.20358Q568.41876 101.67233 568.7469 101.96921Q569.075 102.26608 570.45 102.57858Q571.84064 102.89108 572.35626 103.12546Q573.10626 103.48483 573.46564 104.01608Q573.825 104.53171 573.825 105.23483Q573.825 105.92233 573.4344 106.53171Q573.04376 107.12546 572.3094 107.46921Q571.575 107.79733 570.65314 107.79733Q569.48126 107.79733 568.6844 107.46921Q567.90314 107.12546 567.45 106.43796Q567.0125 105.75046 566.9969 104.89108ZM574.4344 107.65671L577.73126 99.06296L578.95 99.06296L582.46564 107.65671L581.1844 107.65671L580.16876 105.04733L576.59064 105.04733L575.6375 107.65671L574.4344 107.65671ZM576.91876 104.12546L579.825 104.12546L578.9344 101.75046Q578.5125 100.67233 578.325 99.96921Q578.15314 100.79733 577.85626 101.60983L576.91876 104.12546Z" fill-rule="nonzero"/><path fill="#9e9e9e" d="M546.95 122.39108L548.0125 122.25046Q548.1844 123.14108 548.6219 123.54733Q549.0594 123.93796 549.6844 123.93796Q550.4344 123.93796 550.95 123.42233Q551.46564 122.90671 551.46564 122.14108Q551.46564 121.42233 550.98126 120.95358Q550.5125 120.46921 549.77814 120.46921Q549.48126 120.46921 549.02814 120.59421L549.15314 119.65671Q549.2625 119.67233 549.325 119.67233Q549.9969 119.67233 550.52814 119.32858Q551.075 118.96921 551.075 118.23483Q551.075 117.65671 550.6844 117.28171Q550.29376 116.89108 549.66876 116.89108Q549.0594 116.89108 548.6375 117.28171Q548.23126 117.67233 548.1219 118.43796L547.0594 118.25046Q547.2469 117.20358 547.9344 116.62546Q548.6219 116.03171 549.6375 116.03171Q550.34064 116.03171 550.9344 116.34421Q551.52814 116.64108 551.84064 117.15671Q552.15314 117.67233 552.15314 118.26608Q552.15314 118.81296 551.85626 119.28171Q551.5594 119.73483 550.98126 120.00046Q551.73126 120.17233 552.15314 120.73483Q552.575 121.28171 552.575 122.12546Q552.575 123.25046 551.7469 124.03171Q550.9344 124.81296 549.6844 124.81296Q548.5594 124.81296 547.8094 124.14108Q547.0594 123.45358 546.95 122.39108ZM557.91876 124.65671L556.8719 124.65671L556.8719 117.93796Q556.48126 118.29733 555.85626 118.67233Q555.2469 119.03171 554.7625 119.20358L554.7625 118.18796Q555.6375 117.76608 556.29376 117.18796Q556.96564 116.59421 557.2469 116.03171L557.91876 116.03171L557.91876 124.65671ZM561.54376 124.65671L561.54376 123.45358L562.7469 123.45358L562.7469 124.65671L561.54376 124.65671ZM563.95 122.40671L565.0594 122.31296Q565.1844 123.12546 565.6219 123.53171Q566.075 123.93796 566.71564 123.93796Q567.46564 123.93796 567.9969 123.35983Q568.52814 122.78171 568.52814 121.84421Q568.52814 120.93796 568.0125 120.42233Q567.5125 119.89108 566.6844 119.89108Q566.1844 119.89108 565.7625 120.12546Q565.35626 120.35983 565.1219 120.71921L564.1375 120.59421L564.96564 116.18796L569.2469 116.18796L569.2469 117.18796L565.8094 117.18796L565.35626 119.50046Q566.1219 118.95358 566.96564 118.95358Q568.09064 118.95358 568.85626 119.73483Q569.6375 120.51608 569.6375 121.75046Q569.6375 122.90671 568.96564 123.76608Q568.1375 124.79733 566.71564 124.79733Q565.54376 124.79733 564.79376 124.14108Q564.0594 123.48483 563.95 122.40671ZM571.15314 118.12546Q571.15314 117.20358 571.60626 116.56296Q572.075 115.92233 572.95 115.92233Q573.7625 115.92233 574.29376 116.50046Q574.825 117.07858 574.825 118.18796Q574.825 119.28171 574.27814 119.87546Q573.7469 120.45358 572.96564 120.45358Q572.1844 120.45358 571.66876 119.87546Q571.15314 119.29733 571.15314 118.12546ZM572.98126 116.64108Q572.59064 116.64108 572.325 116.98483Q572.075 117.32858 572.075 118.23483Q572.075 119.06296 572.325 119.40671Q572.59064 119.73483 572.98126 119.73483Q573.3875 119.73483 573.6375 119.39108Q573.90314 119.04733 573.90314 118.15671Q573.90314 117.31296 573.6375 116.98483Q573.3719 116.64108 572.98126 116.64108ZM572.98126 124.96921L577.6844 115.92233L578.54376 115.92233L573.85626 124.96921L572.98126 124.96921ZM576.7 122.64108Q576.7 121.71921 577.15314 121.07858Q577.6219 120.43796 578.5125 120.43796Q579.325 120.43796 579.85626 121.01608Q580.3875 121.57858 580.3875 122.70358Q580.3875 123.79733 579.84064 124.39108Q579.3094 124.96921 578.5125 124.96921Q577.7469 124.96921 577.21564 124.39108Q576.7 123.81296 576.7 122.64108ZM578.54376 121.15671Q578.1375 121.15671 577.8719 121.50046Q577.6219 121.84421 577.6219 122.75046Q577.6219 123.56296 577.8875 123.90671Q578.15314 124.25046 578.54376 124.25046Q578.9344 124.25046 579.2 123.90671Q579.46564 123.56296 579.46564 122.65671Q579.46564 121.82858 579.2 121.50046Q578.9344 121.15671 578.54376 121.15671Z" fill-rule="nonzero"/><path stroke="#757575" stroke-width="1.0" stroke-linecap="butt" d="M581.45 112.15671L472.95 112.15671L432.6843 112.15671" fill-rule="nonzero"/><path fill="#9e9e9e" d="M434.6843 112.15671C434.6843 111.05214 433.78885 110.15671 432.6843 110.15671C431.5797 110.15671 430.6843 111.05214 430.6843 112.15671C430.6843 113.26128 431.5797 114.15671 432.6843 114.15671C433.78885 114.15671 434.6843 113.26128 434.6843 112.15671" fill-rule="nonzero"/><path fill="#1a1a1a" d="M547.79376 268.96637L548.825 268.82574Q548.85626 269.81012 549.1844 270.1695Q549.5125 270.52887 550.10626 270.52887Q550.52814 270.52887 550.84064 270.34137Q551.15314 270.13824 551.2625 269.81012Q551.3875 269.46637 551.3875 268.732L551.3875 262.81012L552.5125 262.81012L552.5125 268.6695Q552.5125 269.74762 552.2469 270.34137Q551.9969 270.93512 551.4344 271.24762Q550.8719 271.5445 550.10626 271.5445Q548.98126 271.5445 548.3719 270.90387Q547.77814 270.24762 547.79376 268.96637ZM558.3094 270.63824Q557.71564 271.13824 557.16876 271.34137Q556.6375 271.5445 556.0125 271.5445Q554.98126 271.5445 554.4344 271.0445Q553.8875 270.5445 553.8875 269.76324Q553.8875 269.31012 554.09064 268.93512Q554.29376 268.5445 554.6375 268.32574Q554.98126 268.09137 555.40314 267.982Q555.7 267.88824 556.34064 267.81012Q557.60626 267.6695 558.21564 267.45074Q558.21564 267.232 558.21564 267.18512Q558.21564 266.52887 557.91876 266.26324Q557.5125 265.9195 556.71564 265.9195Q555.98126 265.9195 555.6219 266.18512Q555.2625 266.43512 555.09064 267.09137L554.0594 266.95074Q554.2 266.2945 554.52814 265.88824Q554.85626 265.482 555.46564 265.26324Q556.075 265.0445 556.8719 265.0445Q557.66876 265.0445 558.16876 265.232Q558.66876 265.4195 558.90314 265.70074Q559.1375 265.982 559.23126 266.4195Q559.27814 266.68512 559.27814 267.38824L559.27814 268.7945Q559.27814 270.26324 559.34064 270.65387Q559.41876 271.0445 559.6219 271.40387L558.5125 271.40387Q558.35626 271.07574 558.3094 270.63824ZM558.21564 268.27887Q557.6375 268.51324 556.4969 268.68512Q555.84064 268.77887 555.575 268.90387Q555.3094 269.01324 555.15314 269.232Q555.0125 269.45074 555.0125 269.732Q555.0125 270.15387 555.325 270.43512Q555.65314 270.71637 556.2625 270.71637Q556.8719 270.71637 557.34064 270.45074Q557.825 270.18512 558.04376 269.71637Q558.21564 269.357 558.21564 268.6695L558.21564 268.27887ZM561.2469 273.7945L561.2469 265.18512L562.2 265.18512L562.2 265.982Q562.54376 265.51324 562.96564 265.27887Q563.40314 265.0445 564.0125 265.0445Q564.8094 265.0445 565.41876 265.45074Q566.02814 265.857 566.325 266.607Q566.6375 267.357 566.6375 268.24762Q566.6375 269.20074 566.29376 269.96637Q565.96564 270.732 565.3094 271.13824Q564.65314 271.5445 563.9344 271.5445Q563.40314 271.5445 562.98126 271.32574Q562.5594 271.09137 562.29376 270.76324L562.29376 273.7945L561.2469 273.7945ZM562.2 268.32574Q562.2 269.52887 562.6844 270.107Q563.16876 270.6695 563.85626 270.6695Q564.5594 270.6695 565.0594 270.07574Q565.5594 269.482 565.5594 268.232Q565.5594 267.0445 565.075 266.46637Q564.59064 265.87262 563.90314 265.87262Q563.23126 265.87262 562.71564 266.49762Q562.2 267.12262 562.2 268.32574ZM572.3094 270.63824Q571.71564 271.13824 571.16876 271.34137Q570.6375 271.5445 570.0125 271.5445Q568.98126 271.5445 568.4344 271.0445Q567.8875 270.5445 567.8875 269.76324Q567.8875 269.31012 568.09064 268.93512Q568.29376 268.5445 568.6375 268.32574Q568.98126 268.09137 569.40314 267.982Q569.7 267.88824 570.34064 267.81012Q571.60626 267.6695 572.21564 267.45074Q572.21564 267.232 572.21564 267.18512Q572.21564 266.52887 571.91876 266.26324Q571.5125 265.9195 570.71564 265.9195Q569.98126 265.9195 569.6219 266.18512Q569.2625 266.43512 569.09064 267.09137L568.0594 266.95074Q568.2 266.2945 568.52814 265.88824Q568.85626 265.482 569.46564 265.26324Q570.075 265.0445 570.8719 265.0445Q571.66876 265.0445 572.16876 265.232Q572.66876 265.4195 572.90314 265.70074Q573.1375 265.982 573.23126 266.4195Q573.27814 266.68512 573.27814 267.38824L573.27814 268.7945Q573.27814 270.26324 573.34064 270.65387Q573.41876 271.0445 573.6219 271.40387L572.5125 271.40387Q572.35626 271.07574 572.3094 270.63824ZM572.21564 268.27887Q571.6375 268.51324 570.4969 268.68512Q569.84064 268.77887 569.575 268.90387Q569.3094 269.01324 569.15314 269.232Q569.0125 269.45074 569.0125 269.732Q569.0125 270.15387 569.325 270.43512Q569.65314 270.71637 570.2625 270.71637Q570.8719 270.71637 571.34064 270.45074Q571.825 270.18512 572.04376 269.71637Q572.21564 269.357 572.21564 268.6695L572.21564 268.27887ZM575.2469 271.40387L575.2469 265.18512L576.1844 265.18512L576.1844 266.06012Q576.8719 265.0445 578.16876 265.0445Q578.73126 265.0445 579.2 265.24762Q579.6844 265.45074 579.91876 265.77887Q580.15314 266.107 580.2469 266.5445Q580.29376 266.84137 580.29376 267.57574L580.29376 271.40387L579.2469 271.40387L579.2469 267.62262Q579.2469 266.96637 579.1219 266.65387Q578.9969 266.34137 578.6844 266.15387Q578.3719 265.95074 577.95 265.95074Q577.27814 265.95074 576.77814 266.38824Q576.29376 266.81012 576.29376 267.99762L576.29376 271.40387L575.2469 271.40387Z" fill-rule="nonzero"/><path fill="#9e9e9e" d="M552.4969 287.38824L552.4969 288.40387L546.8094 288.40387Q546.8094 288.02887 546.9344 287.6695Q547.15314 287.09137 547.6219 286.52887Q548.10626 285.96637 549.0125 285.232Q550.41876 284.07574 550.90314 283.40387Q551.40314 282.732 551.40314 282.13824Q551.40314 281.51324 550.95 281.09137Q550.4969 280.65387 549.77814 280.65387Q549.0125 280.65387 548.5594 281.107Q548.10626 281.56012 548.09064 282.37262L547.0125 282.26324Q547.1219 281.0445 547.84064 280.4195Q548.575 279.77887 549.8094 279.77887Q551.04376 279.77887 551.7625 280.46637Q552.48126 281.15387 552.48126 282.1695Q552.48126 282.68512 552.2625 283.18512Q552.0594 283.6695 551.5594 284.232Q551.075 284.77887 549.95 285.732Q548.9969 286.52887 548.71564 286.82574Q548.45 287.107 548.27814 287.38824L552.4969 287.38824ZM557.325 288.40387L557.325 286.34137L553.60626 286.34137L553.60626 285.37262L557.52814 279.81012L558.3875 279.81012L558.3875 285.37262L559.54376 285.37262L559.54376 286.34137L558.3875 286.34137L558.3875 288.40387L557.325 288.40387ZM557.325 285.37262L557.325 281.51324L554.6375 285.37262L557.325 285.37262ZM561.54376 288.40387L561.54376 287.20074L562.7469 287.20074L562.7469 288.40387L561.54376 288.40387ZM564.0125 280.93512L564.0125 279.9195L569.575 279.9195L569.575 280.74762Q568.7625 281.62262 567.95 283.07574Q567.15314 284.51324 566.71564 286.0445Q566.3875 287.12262 566.3094 288.40387L565.21564 288.40387Q565.23126 287.38824 565.60626 285.95074Q565.9969 284.51324 566.7 283.18512Q567.41876 281.857 568.23126 280.93512L564.0125 280.93512ZM571.15314 281.87262Q571.15314 280.95074 571.60626 280.31012Q572.075 279.6695 572.95 279.6695Q573.7625 279.6695 574.29376 280.24762Q574.825 280.82574 574.825 281.93512Q574.825 283.02887 574.27814 283.62262Q573.7469 284.20074 572.96564 284.20074Q572.1844 284.20074 571.66876 283.62262Q571.15314 283.0445 571.15314 281.87262ZM572.98126 280.38824Q572.59064 280.38824 572.325 280.732Q572.075 281.07574 572.075 281.982Q572.075 282.81012 572.325 283.15387Q572.59064 283.482 572.98126 283.482Q573.3875 283.482 573.6375 283.13824Q573.90314 282.7945 573.90314 281.90387Q573.90314 281.06012 573.6375 280.732Q573.3719 280.38824 572.98126 280.38824ZM572.98126 288.71637L577.6844 279.6695L578.54376 279.6695L573.85626 288.71637L572.98126 288.71637ZM576.7 286.38824Q576.7 285.46637 577.15314 284.82574Q577.6219 284.18512 578.5125 284.18512Q579.325 284.18512 579.85626 284.76324Q580.3875 285.32574 580.3875 286.45074Q580.3875 287.5445 579.84064 288.13824Q579.3094 288.71637 578.5125 288.71637Q577.7469 288.71637 577.21564 288.13824Q576.7 287.56012 576.7 286.38824ZM578.54376 284.90387Q578.1375 284.90387 577.8719 285.24762Q577.6219 285.59137 577.6219 286.49762Q577.6219 287.31012 577.8875 287.65387Q578.15314 287.99762 578.54376 287.99762Q578.9344 287.99762 579.2 287.65387Q579.46564 287.31012 579.46564 286.40387Q579.46564 285.57574 579.2 285.24762Q578.9344 284.90387 578.54376 284.90387Z" fill-rule="nonzero"/><path stroke="#757575" stroke-width="1.0" stroke-linecap="butt" d="M581.45 275.90387L472.95 275.90387L359.4576 275.90387" fill-rule="nonzero"/><path fill="#9e9e9e" d="M361.4576 275.90387C361.4576 274.7993 360.56216 273.90387 359.4576 273.90387C358.35303 273.90387 357.4576 274.7993 357.4576 275.90387C357.4576 277.00842 358.35303 277.90387 359.4576 277.90387C360.56216 277.90387 361.4576 277.00842 361.4576 275.90387" fill-rule="nonzero"/></svg>