<svg version="1.1" viewBox="0.0 0.0 600.0 371.0" fill="none" stroke="none" stroke-linecap="square" stroke-miterlimit="10" width="600" height="371" xmlns:xlink="http://www.w3.org/1999/xlink" xmlns="http://www.w3.org/2000/svg"><path fill="#ffffff" d="M0 0L600.0 0L600.0 371.0L0 371.0L0 0Z" fill-rule="nonzero"/><path fill="#2e5dab" d="M466.95 198.02126C466.95 214.0546 462.23688 229.91644 453.10382 244.62004L453.10382 219.57755C462.23688 204.87395 466.95 189.0121 466.95 172.97874Z" fill-rule="nonzero"/><path fill="#4285f4" d="M300.0 56.11375C356.2745 56.11375 408.7624 75.958984 439.61755 108.902C470.4727 141.84502 475.54272 183.45242 453.10382 219.57755L300.0 172.97874Z" fill-rule="nonzero"/><path fill="#efefef" d="M281.85214 56.80625C287.87897 56.344925 293.93723 56.11375 300.0 56.11375L300.0 172.97874Z" fill-rule="nonzero"/><path fill="#000000" d="M262.81055 59.050125C269.0906 58.04564 275.44843 57.29643 281.85214 56.80625L300.0 172.97874Z" fill-rule="nonzero"/><path fill="#0000ff" d="M243.19649 63.08619C249.6106 61.461617 256.1609 60.113735 262.81055 59.050125L300.0 172.97874Z" fill-rule="nonzero"/><path fill="#f1c232" d="M221.40996 69.87203C228.4318 67.249466 235.71252 64.981735 243.19649 63.08619L300.0 172.97874Z" fill-rule="nonzero"/><path fill="#0000ff" d="M186.34602 87.37509C196.90546 80.50552 208.69148 74.62224 221.40996 69.87203L300.0 172.97874Z" fill-rule="nonzero"/><path fill="#ffff00" d="M158.24133 111.24851C166.05688 102.45408 175.50789 94.42596 186.34602 87.37509L300.0 172.97874Z" fill-rule="nonzero"/><path fill="#8f0000" d="M133.1566 202.19695C133.08554 200.8056 133.05 199.41348 133.05 198.02126L133.05 172.97874C133.05 174.37099 133.08554 175.7631 133.1566 177.15445Z" fill-rule="nonzero"/><path fill="#cc0000" d="M133.1566 177.15445C131.9703 153.92853 140.7039 130.98244 158.24133 111.24851L300.0 172.97874Z" fill-rule="nonzero"/><path fill="#a7a7a7" d="M236.30792 306.04742C175.82095 288.57254 135.4947 247.97296 133.1566 202.19695L133.1566 177.15445C135.4947 222.93047 175.82095 263.53003 236.30792 281.0049Z" fill-rule="nonzero"/><path fill="#efefef" d="M236.30792 281.0049C175.82095 263.53003 135.4947 222.93047 133.1566 177.15445L300.0 172.97874Z" fill-rule="nonzero"/><path fill="#8f0000" d="M453.10382 244.62004C416.8241 303.0279 320.4122 330.34543 236.30792 306.04742L236.30792 281.0049C320.4122 305.30292 416.8241 277.98538 453.10382 219.57755Z" fill-rule="nonzero"/><path fill="#cc0000" d="M453.10382 219.57755C416.8241 277.98538 320.4122 305.30292 236.30792 281.0049L300.0 172.97874Z" fill-rule="nonzero"/><path fill="#1a1a1a" d="M19.534374 38.930084L19.534374 30.336334L25.33125 30.336334L25.33125 31.35196L20.675 31.35196L20.675 34.00821L24.70625 34.00821L24.70625 35.023834L20.675 35.023834L20.675 38.930084L19.534374 38.930084ZM26.346874 31.555084L26.346874 30.336334L27.409374 30.336334L27.409374 31.555084L26.346874 31.555084ZM26.346874 38.930084L26.346874 32.711334L27.409374 32.711334L27.409374 38.930084L26.346874 38.930084ZM29.346874 38.930084L29.346874 32.711334L30.284374 32.711334L30.284374 33.586334Q30.971874 32.57071 32.26875 32.57071Q32.83125 32.57071 33.3 32.773834Q33.784374 32.97696 34.01875 33.305084Q34.253124 33.63321 34.346874 34.07071Q34.39375 34.367584 34.39375 35.10196L34.39375 38.930084L33.346874 38.930084L33.346874 35.148834Q33.346874 34.492584 33.221874 34.180084Q33.096874 33.867584 32.784374 33.680084Q32.471874 33.47696 32.05 33.47696Q31.378124 33.47696 30.878124 33.91446Q30.39375 34.336334 30.39375 35.523834L30.39375 38.930084L29.346874 38.930084ZM36.315624 38.930084L36.315624 30.336334L37.378124 30.336334L37.378124 38.930084L36.315624 38.930084ZM43.409374 38.16446Q42.815624 38.66446 42.26875 38.867584Q41.7375 39.07071 41.1125 39.07071Q40.08125 39.07071 39.534374 38.57071Q38.9875 38.07071 38.9875 37.28946Q38.9875 36.836334 39.190624 36.461334Q39.39375 36.07071 39.7375 35.85196Q40.08125 35.617584 40.503124 35.50821Q40.8 35.41446 41.440624 35.336334Q42.70625 35.19571 43.315624 34.97696Q43.315624 34.75821 43.315624 34.711334Q43.315624 34.055084 43.01875 33.78946Q42.6125 33.44571 41.815624 33.44571Q41.08125 33.44571 40.721874 33.711334Q40.3625 33.961334 40.190624 34.617584L39.159374 34.47696Q39.3 33.82071 39.628124 33.41446Q39.95625 33.00821 40.565624 32.78946Q41.175 32.57071 41.971874 32.57071Q42.76875 32.57071 43.26875 32.75821Q43.76875 32.94571 44.003124 33.22696Q44.2375 33.50821 44.33125 33.94571Q44.378124 34.211334 44.378124 34.91446L44.378124 36.32071Q44.378124 37.78946 44.440624 38.180084Q44.51875 38.57071 44.721874 38.930084L43.6125 38.930084Q43.45625 38.60196 43.409374 38.16446ZM43.315624 35.805084Q42.7375 36.03946 41.596874 36.211334Q40.940624 36.305084 40.675 36.430084Q40.409374 36.53946 40.253124 36.75821Q40.1125 36.97696 40.1125 37.25821Q40.1125 37.680084 40.425 37.961334Q40.753124 38.242584 41.3625 38.242584Q41.971874 38.242584 42.440624 37.97696Q42.925 37.711334 43.14375 37.242584Q43.315624 36.88321 43.315624 36.19571L43.315624 35.805084ZM46.346874 38.930084L46.346874 32.711334L47.284374 32.711334L47.284374 33.586334Q47.971874 32.57071 49.26875 32.57071Q49.83125 32.57071 50.3 32.773834Q50.784374 32.97696 51.01875 33.305084Q51.253124 33.63321 51.346874 34.07071Q51.39375 34.367584 51.39375 35.10196L51.39375 38.930084L50.346874 38.930084L50.346874 35.148834Q50.346874 34.492584 50.221874 34.180084Q50.096874 33.867584 49.784374 33.680084Q49.471874 33.47696 49.05 33.47696Q48.378124 33.47696 47.878124 33.91446Q47.39375 34.336334 47.39375 35.523834L47.39375 38.930084L46.346874 38.930084ZM57.378124 38.930084L57.378124 38.148834Q56.784374 39.07071 55.64375 39.07071Q54.89375 39.07071 54.26875 38.66446Q53.64375 38.242584 53.3 37.50821Q52.95625 36.773834 52.95625 35.82071Q52.95625 34.898834 53.26875 34.13321Q53.58125 33.367584 54.20625 32.97696Q54.83125 32.57071 55.596874 32.57071Q56.159374 32.57071 56.596874 32.805084Q57.034374 33.03946 57.315624 33.41446L57.315624 30.336334L58.3625 30.336334L58.3625 38.930084L57.378124 38.930084ZM54.05 35.82071Q54.05 37.023834 54.55 37.617584Q55.05 38.19571 55.7375 38.19571Q56.425 38.19571 56.909374 37.63321Q57.39375 37.07071 57.39375 35.91446Q57.39375 34.63321 56.89375 34.03946Q56.409374 33.44571 55.690624 33.44571Q54.9875 33.44571 54.51875 34.023834Q54.05 34.586334 54.05 35.82071Z" fill-rule="nonzero"/><path fill="#9e9e9e" d="M24.596874 54.91446L24.596874 55.930084L18.909374 55.930084Q18.909374 55.555084 19.034374 55.19571Q19.253124 54.617584 19.721874 54.055084Q20.20625 53.492584 21.1125 52.75821Q22.51875 51.60196 23.003124 50.930084Q23.503124 50.25821 23.503124 49.66446Q23.503124 49.03946 23.05 48.617584Q22.596874 48.180084 21.878124 48.180084Q21.1125 48.180084 20.659374 48.63321Q20.20625 49.086334 20.190624 49.898834L19.1125 49.78946Q19.221874 48.57071 19.940624 47.94571Q20.675 47.305084 21.909374 47.305084Q23.14375 47.305084 23.8625 47.992584Q24.58125 48.680084 24.58125 49.69571Q24.58125 50.211334 24.3625 50.711334Q24.159374 51.19571 23.659374 51.75821Q23.175 52.305084 22.05 53.25821Q21.096874 54.055084 20.815624 54.35196Q20.55 54.63321 20.378124 54.91446L24.596874 54.91446ZM26.64375 55.930084L26.64375 54.72696L27.846874 54.72696L27.846874 55.930084L26.64375 55.930084ZM29.05 51.69571Q29.05 50.16446 29.3625 49.242584Q29.675 48.305084 30.284374 47.805084Q30.909374 47.305084 31.846874 47.305084Q32.534374 47.305084 33.05 47.586334Q33.58125 47.867584 33.925 48.398834Q34.26875 48.91446 34.45625 49.66446Q34.64375 50.41446 34.64375 51.69571Q34.64375 53.211334 34.33125 54.13321Q34.034374 55.055084 33.409374 55.57071Q32.8 56.07071 31.846874 56.07071Q30.6125 56.07071 29.89375 55.180084Q29.05 54.117584 29.05 51.69571ZM30.128124 51.69571Q30.128124 53.805084 30.628124 54.50821Q31.128124 55.211334 31.846874 55.211334Q32.58125 55.211334 33.065624 54.50821Q33.565624 53.805084 33.565624 51.69571Q33.565624 49.57071 33.065624 48.88321Q32.58125 48.180084 31.83125 48.180084Q31.1125 48.180084 30.675 48.78946Q30.128124 49.57071 30.128124 51.69571ZM36.253124 49.398834Q36.253124 48.47696 36.70625 47.836334Q37.175 47.19571 38.05 47.19571Q38.8625 47.19571 39.39375 47.773834Q39.925 48.35196 39.925 49.461334Q39.925 50.555084 39.378124 51.148834Q38.846874 51.72696 38.065624 51.72696Q37.284374 51.72696 36.76875 51.148834Q36.253124 50.57071 36.253124 49.398834ZM38.08125 47.91446Q37.690624 47.91446 37.425 48.25821Q37.175 48.60196 37.175 49.50821Q37.175 50.336334 37.425 50.680084Q37.690624 51.00821 38.08125 51.00821Q38.4875 51.00821 38.7375 50.66446Q39.003124 50.32071 39.003124 49.430084Q39.003124 48.586334 38.7375 48.25821Q38.471874 47.91446 38.08125 47.91446ZM38.08125 56.242584L42.784374 47.19571L43.64375 47.19571L38.95625 56.242584L38.08125 56.242584ZM41.8 53.91446Q41.8 52.992584 42.253124 52.35196Q42.721874 51.711334 43.6125 51.711334Q44.425 51.711334 44.95625 52.28946Q45.4875 52.85196 45.4875 53.97696Q45.4875 55.07071 44.940624 55.66446Q44.409374 56.242584 43.6125 56.242584Q42.846874 56.242584 42.315624 55.66446Q41.8 55.086334 41.8 53.91446ZM43.64375 52.430084Q43.2375 52.430084 42.971874 52.773834Q42.721874 53.117584 42.721874 54.023834Q42.721874 54.836334 42.9875 55.180084Q43.253124 55.523834 43.64375 55.523834Q44.034374 55.523834 44.3 55.180084Q44.565624 54.836334 44.565624 53.930084Q44.565624 53.10196 44.3 52.773834Q44.034374 52.430084 43.64375 52.430084Z" fill-rule="nonzero"/><path stroke="#757575" stroke-width="1.0" stroke-linecap="butt" d="M18.55 43.430084L127.05 43.430084L255.26942 66.463844" fill-rule="nonzero"/><path fill="#9e9e9e" d="M257.26944 66.463844C257.26944 65.359276 256.374 64.463844 255.26942 64.463844C254.16486 64.463844 253.26942 65.359276 253.26942 66.463844C253.26942 67.56841 254.16486 68.463844 255.26942 68.463844C256.374 68.463844 257.26944 67.56841 257.26944 66.463844" fill-rule="nonzero"/><path fill="#1a1a1a" d="M18.534374 69.930084L21.83125 61.336334L23.05 61.336334L26.565624 69.930084L25.284374 69.930084L24.26875 67.32071L20.690624 67.32071L19.7375 69.930084L18.534374 69.930084ZM21.01875 66.398834L23.925 66.398834L23.034374 64.023834Q22.6125 62.94571 22.425 62.242584Q22.253124 63.07071 21.95625 63.88321L21.01875 66.398834ZM30.425 69.930084L30.425 69.00821Q29.690624 70.07071 28.440624 70.07071Q27.89375 70.07071 27.409374 69.867584Q26.940624 69.648834 26.70625 69.336334Q26.471874 69.00821 26.378124 68.53946Q26.315624 68.242584 26.315624 67.555084L26.315624 63.711334L27.378124 63.711334L27.378124 67.16446Q27.378124 67.97696 27.440624 68.273834Q27.534374 68.680084 27.846874 68.930084Q28.175 69.16446 28.659374 69.16446Q29.128124 69.16446 29.534374 68.930084Q29.95625 68.680084 30.128124 68.25821Q30.315624 67.836334 30.315624 67.03946L30.315624 63.711334L31.3625 63.711334L31.3625 69.930084L30.425 69.930084ZM32.925 68.07071L33.95625 67.91446Q34.05 68.53946 34.440624 68.867584Q34.846874 69.19571 35.58125 69.19571Q36.3 69.19571 36.64375 68.91446Q37.003124 68.617584 37.003124 68.211334Q37.003124 67.85196 36.690624 67.648834Q36.471874 67.50821 35.6125 67.28946Q34.45625 66.992584 34.003124 66.78946Q33.565624 66.57071 33.33125 66.19571Q33.096874 65.82071 33.096874 65.35196Q33.096874 64.94571 33.284374 64.586334Q33.471874 64.22696 33.8 63.992584Q34.05 63.82071 34.471874 63.69571Q34.89375 63.57071 35.39375 63.57071Q36.1125 63.57071 36.659374 63.78946Q37.221874 63.992584 37.4875 64.35196Q37.753124 64.711334 37.846874 65.305084L36.815624 65.44571Q36.753124 64.97696 36.409374 64.711334Q36.08125 64.430084 35.45625 64.430084Q34.7375 64.430084 34.425 64.680084Q34.1125 64.91446 34.1125 65.242584Q34.1125 65.44571 34.2375 65.60196Q34.378124 65.773834 34.64375 65.88321Q34.8 65.94571 35.58125 66.148834Q36.70625 66.461334 37.14375 66.648834Q37.58125 66.836334 37.83125 67.19571Q38.08125 67.555084 38.08125 68.10196Q38.08125 68.63321 37.76875 69.10196Q37.471874 69.555084 36.89375 69.82071Q36.315624 70.07071 35.58125 70.07071Q34.3625 70.07071 33.721874 69.57071Q33.096874 69.055084 32.925 68.07071ZM42.64375 68.992584L42.8 69.91446Q42.346874 70.00821 42.003124 70.00821Q41.425 70.00821 41.1125 69.836334Q40.8 69.648834 40.659374 69.35196Q40.534374 69.055084 40.534374 68.10196L40.534374 64.523834L39.76875 64.523834L39.76875 63.711334L40.534374 63.711334L40.534374 62.16446L41.58125 61.53946L41.58125 63.711334L42.64375 63.711334L42.64375 64.523834L41.58125 64.523834L41.58125 68.16446Q41.58125 68.617584 41.628124 68.742584Q41.690624 68.867584 41.815624 68.94571Q41.940624 69.023834 42.175 69.023834Q42.3625 69.023834 42.64375 68.992584ZM43.33125 69.930084L43.33125 63.711334L44.284374 63.711334L44.284374 64.648834Q44.64375 63.992584 44.940624 63.78946Q45.253124 63.57071 45.628124 63.57071Q46.159374 63.57071 46.70625 63.898834L46.346874 64.88321Q45.95625 64.648834 45.58125 64.648834Q45.221874 64.648834 44.940624 64.867584Q44.675 65.07071 44.565624 65.44571Q44.378124 66.00821 44.378124 66.66446L44.378124 69.930084L43.33125 69.930084ZM51.409374 69.16446Q50.815624 69.66446 50.26875 69.867584Q49.7375 70.07071 49.1125 70.07071Q48.08125 70.07071 47.534374 69.57071Q46.9875 69.07071 46.9875 68.28946Q46.9875 67.836334 47.190624 67.461334Q47.39375 67.07071 47.7375 66.85196Q48.08125 66.617584 48.503124 66.50821Q48.8 66.41446 49.440624 66.336334Q50.70625 66.19571 51.315624 65.97696Q51.315624 65.75821 51.315624 65.711334Q51.315624 65.055084 51.01875 64.78946Q50.6125 64.44571 49.815624 64.44571Q49.08125 64.44571 48.721874 64.711334Q48.3625 64.961334 48.190624 65.617584L47.159374 65.47696Q47.3 64.82071 47.628124 64.41446Q47.95625 64.00821 48.565624 63.78946Q49.175 63.57071 49.971874 63.57071Q50.76875 63.57071 51.26875 63.75821Q51.76875 63.94571 52.003124 64.22696Q52.2375 64.50821 52.33125 64.94571Q52.378124 65.211334 52.378124 65.91446L52.378124 67.32071Q52.378124 68.78946 52.440624 69.180084Q52.51875 69.57071 52.721874 69.930084L51.6125 69.930084Q51.45625 69.60196 51.409374 69.16446ZM51.315624 66.805084Q50.7375 67.03946 49.596874 67.211334Q48.940624 67.305084 48.675 67.430084Q48.409374 67.53946 48.253124 67.75821Q48.1125 67.97696 48.1125 68.25821Q48.1125 68.680084 48.425 68.961334Q48.753124 69.242584 49.3625 69.242584Q49.971874 69.242584 50.440624 68.97696Q50.925 68.711334 51.14375 68.242584Q51.315624 67.88321 51.315624 67.19571L51.315624 66.805084ZM54.315624 69.930084L54.315624 61.336334L55.378124 61.336334L55.378124 69.930084L54.315624 69.930084ZM57.346874 62.555084L57.346874 61.336334L58.409374 61.336334L58.409374 62.555084L57.346874 62.555084ZM57.346874 69.930084L57.346874 63.711334L58.409374 63.711334L58.409374 69.930084L57.346874 69.930084ZM64.40938 69.16446Q63.815624 69.66446 63.26875 69.867584Q62.7375 70.07071 62.1125 70.07071Q61.08125 70.07071 60.534374 69.57071Q59.9875 69.07071 59.9875 68.28946Q59.9875 67.836334 60.190624 67.461334Q60.39375 67.07071 60.7375 66.85196Q61.08125 66.617584 61.503124 66.50821Q61.8 66.41446 62.440624 66.336334Q63.70625 66.19571 64.31563 65.97696Q64.31563 65.75821 64.31563 65.711334Q64.31563 65.055084 64.01875 64.78946Q63.6125 64.44571 62.815624 64.44571Q62.08125 64.44571 61.721874 64.711334Q61.3625 64.961334 61.190624 65.617584L60.159374 65.47696Q60.3 64.82071 60.628124 64.41446Q60.95625 64.00821 61.565624 63.78946Q62.175 63.57071 62.971874 63.57071Q63.76875 63.57071 64.26875 63.75821Q64.76875 63.94571 65.00313 64.22696Q65.2375 64.50821 65.33125 64.94571Q65.37813 65.211334 65.37813 65.91446L65.37813 67.32071Q65.37813 68.78946 65.44063 69.180084Q65.51875 69.57071 65.72188 69.930084L64.6125 69.930084Q64.45625 69.60196 64.40938 69.16446ZM64.31563 66.805084Q63.7375 67.03946 62.596874 67.211334Q61.940624 67.305084 61.675 67.430084Q61.409374 67.53946 61.253124 67.75821Q61.1125 67.97696 61.1125 68.25821Q61.1125 68.680084 61.425 68.961334Q61.753124 69.242584 62.3625 69.242584Q62.971874 69.242584 63.440624 68.97696Q63.925 68.711334 64.14375 68.242584Q64.31563 67.88321 64.31563 67.19571L64.31563 66.805084Z" fill-rule="nonzero"/><path fill="#9e9e9e" d="M24.596874 85.91446L24.596874 86.930084L18.909374 86.930084Q18.909374 86.555084 19.034374 86.19571Q19.253124 85.617584 19.721874 85.055084Q20.20625 84.492584 21.1125 83.75821Q22.51875 82.60196 23.003124 81.930084Q23.503124 81.25821 23.503124 80.66446Q23.503124 80.03946 23.05 79.617584Q22.596874 79.180084 21.878124 79.180084Q21.1125 79.180084 20.659374 79.63321Q20.20625 80.086334 20.190624 80.898834L19.1125 80.78946Q19.221874 79.57071 19.940624 78.94571Q20.675 78.305084 21.909374 78.305084Q23.14375 78.305084 23.8625 78.992584Q24.58125 79.680084 24.58125 80.69571Q24.58125 81.211334 24.3625 81.711334Q24.159374 82.19571 23.659374 82.75821Q23.175 83.305084 22.05 84.25821Q21.096874 85.055084 20.815624 85.35196Q20.55 85.63321 20.378124 85.91446L24.596874 85.91446ZM26.64375 86.930084L26.64375 85.72696L27.846874 85.72696L27.846874 86.930084L26.64375 86.930084ZM29.05 84.66446L30.1125 84.523834Q30.284374 85.41446 30.721874 85.82071Q31.159374 86.211334 31.784374 86.211334Q32.534374 86.211334 33.05 85.69571Q33.565624 85.180084 33.565624 84.41446Q33.565624 83.69571 33.08125 83.22696Q32.6125 82.742584 31.878124 82.742584Q31.58125 82.742584 31.128124 82.867584L31.253124 81.930084Q31.3625 81.94571 31.425 81.94571Q32.096874 81.94571 32.628124 81.60196Q33.175 81.242584 33.175 80.50821Q33.175 79.930084 32.784374 79.555084Q32.39375 79.16446 31.76875 79.16446Q31.159374 79.16446 30.7375 79.555084Q30.33125 79.94571 30.221874 80.711334L29.159374 80.523834Q29.346874 79.47696 30.034374 78.898834Q30.721874 78.305084 31.7375 78.305084Q32.440624 78.305084 33.034374 78.617584Q33.628124 78.91446 33.940624 79.430084Q34.253124 79.94571 34.253124 80.53946Q34.253124 81.086334 33.95625 81.555084Q33.659374 82.00821 33.08125 82.273834Q33.83125 82.44571 34.253124 83.00821Q34.675 83.555084 34.675 84.398834Q34.675 85.523834 33.846874 86.305084Q33.034374 87.086334 31.784374 87.086334Q30.659374 87.086334 29.909374 86.41446Q29.159374 85.72696 29.05 84.66446ZM36.253124 80.398834Q36.253124 79.47696 36.70625 78.836334Q37.175 78.19571 38.05 78.19571Q38.8625 78.19571 39.39375 78.773834Q39.925 79.35196 39.925 80.461334Q39.925 81.555084 39.378124 82.148834Q38.846874 82.72696 38.065624 82.72696Q37.284374 82.72696 36.76875 82.148834Q36.253124 81.57071 36.253124 80.398834ZM38.08125 78.91446Q37.690624 78.91446 37.425 79.25821Q37.175 79.60196 37.175 80.50821Q37.175 81.336334 37.425 81.680084Q37.690624 82.00821 38.08125 82.00821Q38.4875 82.00821 38.7375 81.66446Q39.003124 81.32071 39.003124 80.430084Q39.003124 79.586334 38.7375 79.25821Q38.471874 78.91446 38.08125 78.91446ZM38.08125 87.242584L42.784374 78.19571L43.64375 78.19571L38.95625 87.242584L38.08125 87.242584ZM41.8 84.91446Q41.8 83.992584 42.253124 83.35196Q42.721874 82.711334 43.6125 82.711334Q44.425 82.711334 44.95625 83.28946Q45.4875 83.85196 45.4875 84.97696Q45.4875 86.07071 44.940624 86.66446Q44.409374 87.242584 43.6125 87.242584Q42.846874 87.242584 42.315624 86.66446Q41.8 86.086334 41.8 84.91446ZM43.64375 83.430084Q43.2375 83.430084 42.971874 83.773834Q42.721874 84.117584 42.721874 85.023834Q42.721874 85.836334 42.9875 86.180084Q43.253124 86.523834 43.64375 86.523834Q44.034374 86.523834 44.3 86.180084Q44.565624 85.836334 44.565624 84.930084Q44.565624 84.10196 44.3 83.773834Q44.034374 83.430084 43.64375 83.430084Z" fill-rule="nonzero"/><path stroke="#757575" stroke-width="1.0" stroke-linecap="butt" d="M18.55 74.430084L127.05 74.430084L235.52344 71.54509" fill-rule="nonzero"/><path fill="#9e9e9e" d="M237.52344 71.54509C237.52344 70.44052 236.628 69.54509 235.52344 69.54509C234.41885 69.54509 233.52344 70.44052 233.52344 71.54509C233.52344 72.64966 234.41885 73.54509 235.52344 73.54509C236.628 73.54509 237.52344 72.64966 237.52344 71.54509" fill-rule="nonzero"/><path fill="#1a1a1a" d="M19.534374 100.930084L19.534374 92.336334L25.33125 92.336334L25.33125 93.35196L20.675 93.35196L20.675 96.00821L24.70625 96.00821L24.70625 97.023834L20.675 97.023834L20.675 100.930084L19.534374 100.930084ZM26.33125 100.930084L26.33125 94.711334L27.284374 94.711334L27.284374 95.648834Q27.64375 94.992584 27.940624 94.78946Q28.253124 94.57071 28.628124 94.57071Q29.159374 94.57071 29.70625 94.898834L29.346874 95.88321Q28.95625 95.648834 28.58125 95.648834Q28.221874 95.648834 27.940624 95.867584Q27.675 96.07071 27.565624 96.44571Q27.378124 97.00821 27.378124 97.66446L27.378124 100.930084L26.33125 100.930084ZM34.409374 100.16446Q33.815624 100.66446 33.26875 100.867584Q32.7375 101.07071 32.1125 101.07071Q31.08125 101.07071 30.534374 100.57071Q29.9875 100.07071 29.9875 99.28946Q29.9875 98.836334 30.190624 98.461334Q30.39375 98.07071 30.7375 97.85196Q31.08125 97.617584 31.503124 97.50821Q31.8 97.41446 32.440624 97.336334Q33.70625 97.19571 34.315624 96.97696Q34.315624 96.75821 34.315624 96.711334Q34.315624 96.055084 34.01875 95.78946Q33.6125 95.44571 32.815624 95.44571Q32.08125 95.44571 31.721874 95.711334Q31.3625 95.961334 31.190624 96.617584L30.159374 96.47696Q30.3 95.82071 30.628124 95.41446Q30.95625 95.00821 31.565624 94.78946Q32.175 94.57071 32.971874 94.57071Q33.76875 94.57071 34.26875 94.75821Q34.76875 94.94571 35.003124 95.22696Q35.2375 95.50821 35.33125 95.94571Q35.378124 96.211334 35.378124 96.91446L35.378124 98.32071Q35.378124 99.78946 35.440624 100.180084Q35.51875 100.57071 35.721874 100.930084L34.6125 100.930084Q34.45625 100.60196 34.409374 100.16446ZM34.315624 97.805084Q33.7375 98.03946 32.596874 98.211334Q31.940624 98.305084 31.675 98.430084Q31.409374 98.53946 31.253124 98.75821Q31.1125 98.97696 31.1125 99.25821Q31.1125 99.680084 31.425 99.961334Q31.753124 100.242584 32.3625 100.242584Q32.971874 100.242584 33.440624 99.97696Q33.925 99.711334 34.14375 99.242584Q34.315624 98.88321 34.315624 98.19571L34.315624 97.805084ZM37.346874 100.930084L37.346874 94.711334L38.284374 94.711334L38.284374 95.586334Q38.971874 94.57071 40.26875 94.57071Q40.83125 94.57071 41.3 94.773834Q41.784374 94.97696 42.01875 95.305084Q42.253124 95.63321 42.346874 96.07071Q42.39375 96.367584 42.39375 97.10196L42.39375 100.930084L41.346874 100.930084L41.346874 97.148834Q41.346874 96.492584 41.221874 96.180084Q41.096874 95.867584 40.784374 95.680084Q40.471874 95.47696 40.05 95.47696Q39.378124 95.47696 38.878124 95.91446Q38.39375 96.336334 38.39375 97.523834L38.39375 100.930084L37.346874 100.930084ZM48.409374 98.648834L49.440624 98.78946Q49.26875 99.85196 48.565624 100.461334Q47.8625 101.07071 46.846874 101.07071Q45.565624 101.07071 44.784374 100.242584Q44.01875 99.398834 44.01875 97.836334Q44.01875 96.836334 44.346874 96.086334Q44.690624 95.32071 45.3625 94.94571Q46.05 94.57071 46.8625 94.57071Q47.8625 94.57071 48.503124 95.086334Q49.159374 95.586334 49.346874 96.53946L48.315624 96.69571Q48.175 96.07071 47.8 95.75821Q47.425 95.430084 46.89375 95.430084Q46.096874 95.430084 45.596874 96.00821Q45.096874 96.57071 45.096874 97.805084Q45.096874 99.07071 45.58125 99.63321Q46.065624 100.19571 46.83125 100.19571Q47.45625 100.19571 47.8625 99.82071Q48.284374 99.44571 48.409374 98.648834ZM54.596874 98.930084L55.690624 99.055084Q55.440624 100.00821 54.7375 100.53946Q54.034374 101.07071 52.95625 101.07071Q51.596874 101.07071 50.784374 100.22696Q49.9875 99.38321 49.9875 97.867584Q49.9875 96.305084 50.8 95.44571Q51.6125 94.57071 52.89375 94.57071Q54.14375 94.57071 54.925 95.41446Q55.721874 96.25821 55.721874 97.805084Q55.721874 97.898834 55.721874 98.086334L51.08125 98.086334Q51.14375 99.117584 51.659374 99.66446Q52.175 100.19571 52.95625 100.19571Q53.534374 100.19571 53.940624 99.898834Q54.3625 99.586334 54.596874 98.930084ZM51.14375 97.22696L54.6125 97.22696Q54.55 96.430084 54.221874 96.03946Q53.70625 95.430084 52.909374 95.430084Q52.175 95.430084 51.675 95.91446Q51.190624 96.398834 51.14375 97.22696Z" fill-rule="nonzero"/><path fill="#9e9e9e" d="M22.425 117.930084L22.425 115.867584L18.70625 115.867584L18.70625 114.898834L22.628124 109.336334L23.4875 109.336334L23.4875 114.898834L24.64375 114.898834L24.64375 115.867584L23.4875 115.867584L23.4875 117.930084L22.425 117.930084ZM22.425 114.898834L22.425 111.03946L19.7375 114.898834L22.425 114.898834ZM26.64375 117.930084L26.64375 116.72696L27.846874 116.72696L27.846874 117.930084L26.64375 117.930084ZM33.01875 117.930084L31.971874 117.930084L31.971874 111.211334Q31.58125 111.57071 30.95625 111.94571Q30.346874 112.305084 29.8625 112.47696L29.8625 111.461334Q30.7375 111.03946 31.39375 110.461334Q32.065624 109.867584 32.346874 109.305084L33.01875 109.305084L33.01875 117.930084ZM36.253124 111.398834Q36.253124 110.47696 36.70625 109.836334Q37.175 109.19571 38.05 109.19571Q38.8625 109.19571 39.39375 109.773834Q39.925 110.35196 39.925 111.461334Q39.925 112.555084 39.378124 113.148834Q38.846874 113.72696 38.065624 113.72696Q37.284374 113.72696 36.76875 113.148834Q36.253124 112.57071 36.253124 111.398834ZM38.08125 109.91446Q37.690624 109.91446 37.425 110.25821Q37.175 110.60196 37.175 111.50821Q37.175 112.336334 37.425 112.680084Q37.690624 113.00821 38.08125 113.00821Q38.4875 113.00821 38.7375 112.66446Q39.003124 112.32071 39.003124 111.430084Q39.003124 110.586334 38.7375 110.25821Q38.471874 109.91446 38.08125 109.91446ZM38.08125 118.242584L42.784374 109.19571L43.64375 109.19571L38.95625 118.242584L38.08125 118.242584ZM41.8 115.91446Q41.8 114.992584 42.253124 114.35196Q42.721874 113.711334 43.6125 113.711334Q44.425 113.711334 44.95625 114.28946Q45.4875 114.85196 45.4875 115.97696Q45.4875 117.07071 44.940624 117.66446Q44.409374 118.242584 43.6125 118.242584Q42.846874 118.242584 42.315624 117.66446Q41.8 117.086334 41.8 115.91446ZM43.64375 114.430084Q43.2375 114.430084 42.971874 114.773834Q42.721874 115.117584 42.721874 116.023834Q42.721874 116.836334 42.9875 117.180084Q43.253124 117.523834 43.64375 117.523834Q44.034374 117.523834 44.3 117.180084Q44.565624 116.836334 44.565624 115.930084Q44.565624 115.10196 44.3 114.773834Q44.034374 114.430084 43.64375 114.430084Z" fill-rule="nonzero"/><path stroke="#757575" stroke-width="1.0" stroke-linecap="butt" d="M18.55 105.430084L127.05 105.430084L207.91493 82.586296" fill-rule="nonzero"/><path fill="#9e9e9e" d="M209.91493 82.586296C209.91493 81.48173 209.0195 80.586296 207.91493 80.586296C206.81036 80.586296 205.91493 81.48173 205.91493 82.586296C205.91493 83.690865 206.81036 84.586296 207.91493 84.586296C209.0195 84.586296 209.91493 83.690865 209.91493 82.586296" fill-rule="nonzero"/><path fill="#1a1a1a" d="M19.096874 129.16446L20.159374 129.07071Q20.2375 129.72696 20.51875 130.13321Q20.8 130.53946 21.378124 130.80508Q21.971874 131.05508 22.70625 131.05508Q23.346874 131.05508 23.846874 130.86758Q24.346874 130.66446 24.58125 130.33633Q24.83125 129.99258 24.83125 129.60196Q24.83125 129.19571 24.596874 128.89883Q24.3625 128.58633 23.83125 128.38321Q23.471874 128.24258 22.284374 127.961334Q21.1125 127.680084 20.64375 127.430084Q20.01875 127.10196 19.721874 126.63321Q19.425 126.148834 19.425 125.555084Q19.425 124.91446 19.784374 124.35196Q20.159374 123.773834 20.8625 123.492584Q21.58125 123.19571 22.440624 123.19571Q23.39375 123.19571 24.128124 123.50821Q24.8625 123.805084 25.253124 124.41446Q25.64375 125.00821 25.675 125.75821L24.58125 125.836334Q24.4875 125.023834 23.971874 124.617584Q23.471874 124.19571 22.4875 124.19571Q21.45625 124.19571 20.9875 124.57071Q20.51875 124.94571 20.51875 125.47696Q20.51875 125.94571 20.846874 126.242584Q21.175 126.53946 22.55 126.85196Q23.940624 127.16446 24.45625 127.398834Q25.20625 127.75821 25.565624 128.28946Q25.925 128.80508 25.925 129.50821Q25.925 130.19571 25.534374 130.80508Q25.14375 131.39883 24.409374 131.74258Q23.675 132.07071 22.753124 132.07071Q21.58125 132.07071 20.784374 131.74258Q20.003124 131.39883 19.55 130.71133Q19.1125 130.02383 19.096874 129.16446ZM28.4875 131.93008L26.58125 125.711334L27.675 125.711334L28.659374 129.30508L29.034374 130.63321Q29.065624 130.53946 29.3625 129.35196L30.346874 125.711334L31.425 125.711334L32.3625 129.32071L32.675 130.50821L33.034374 129.30508L34.096874 125.711334L35.128124 125.711334L33.175 131.93008L32.08125 131.93008L31.096874 128.19571L30.846874 127.148834L29.596874 131.93008L28.4875 131.93008ZM40.596874 129.93008L41.690624 130.05508Q41.440624 131.00821 40.7375 131.53946Q40.034374 132.07071 38.95625 132.07071Q37.596874 132.07071 36.784374 131.22696Q35.9875 130.38321 35.9875 128.86758Q35.9875 127.305084 36.8 126.44571Q37.6125 125.57071 38.89375 125.57071Q40.14375 125.57071 40.925 126.41446Q41.721874 127.25821 41.721874 128.80508Q41.721874 128.89883 41.721874 129.08633L37.08125 129.08633Q37.14375 130.11758 37.659374 130.66446Q38.175 131.19571 38.95625 131.19571Q39.534374 131.19571 39.940624 130.89883Q40.3625 130.58633 40.596874 129.93008ZM37.14375 128.22696L40.6125 128.22696Q40.55 127.430084 40.221874 127.03946Q39.70625 126.430084 38.909374 126.430084Q38.175 126.430084 37.675 126.91446Q37.190624 127.398834 37.14375 128.22696ZM47.378124 131.93008L47.378124 131.14883Q46.784374 132.07071 45.64375 132.07071Q44.89375 132.07071 44.26875 131.66446Q43.64375 131.24258 43.3 130.50821Q42.95625 129.77383 42.95625 128.82071Q42.95625 127.898834 43.26875 127.13321Q43.58125 126.367584 44.20625 125.97696Q44.83125 125.57071 45.596874 125.57071Q46.159374 125.57071 46.596874 125.805084Q47.034374 126.03946 47.315624 126.41446L47.315624 123.336334L48.3625 123.336334L48.3625 131.93008L47.378124 131.93008ZM44.05 128.82071Q44.05 130.02383 44.55 130.61758Q45.05 131.19571 45.7375 131.19571Q46.425 131.19571 46.909374 130.63321Q47.39375 130.07071 47.39375 128.91446Q47.39375 127.63321 46.89375 127.03946Q46.409374 126.44571 45.690624 126.44571Q44.9875 126.44571 44.51875 127.023834Q44.05 127.586334 44.05 128.82071ZM54.596874 129.93008L55.690624 130.05508Q55.440624 131.00821 54.7375 131.53946Q54.034374 132.07071 52.95625 132.07071Q51.596874 132.07071 50.784374 131.22696Q49.9875 130.38321 49.9875 128.86758Q49.9875 127.305084 50.8 126.44571Q51.6125 125.57071 52.89375 125.57071Q54.14375 125.57071 54.925 126.41446Q55.721874 127.25821 55.721874 128.80508Q55.721874 128.89883 55.721874 129.08633L51.08125 129.08633Q51.14375 130.11758 51.659374 130.66446Q52.175 131.19571 52.95625 131.19571Q53.534374 131.19571 53.940624 130.89883Q54.3625 130.58633 54.596874 129.93008ZM51.14375 128.22696L54.6125 128.22696Q54.55 127.430084 54.221874 127.03946Q53.70625 126.430084 52.909374 126.430084Q52.175 126.430084 51.675 126.91446Q51.190624 127.398834 51.14375 128.22696ZM57.346874 131.93008L57.346874 125.711334L58.284374 125.711334L58.284374 126.586334Q58.971874 125.57071 60.26875 125.57071Q60.83125 125.57071 61.3 125.773834Q61.784374 125.97696 62.01875 126.305084Q62.253124 126.63321 62.346874 127.07071Q62.39375 127.367584 62.39375 128.10196L62.39375 131.93008L61.346874 131.93008L61.346874 128.14883Q61.346874 127.492584 61.221874 127.180084Q61.096874 126.867584 60.784374 126.680084Q60.471874 126.47696 60.05 126.47696Q59.378124 126.47696 58.878124 126.91446Q58.39375 127.336334 58.39375 128.52383L58.39375 131.93008L57.346874 131.93008Z" fill-rule="nonzero"/><path fill="#9e9e9e" d="M22.425 148.93008L22.425 146.86758L18.70625 146.86758L18.70625 145.89883L22.628124 140.33633L23.4875 140.33633L23.4875 145.89883L24.64375 145.89883L24.64375 146.86758L23.4875 146.86758L23.4875 148.93008L22.425 148.93008ZM22.425 145.89883L22.425 142.03946L19.7375 145.89883L22.425 145.89883ZM26.64375 148.93008L26.64375 147.72696L27.846874 147.72696L27.846874 148.93008L26.64375 148.93008ZM34.596874 147.91446L34.596874 148.93008L28.909374 148.93008Q28.909374 148.55508 29.034374 148.19571Q29.253124 147.61758 29.721874 147.05508Q30.20625 146.49258 31.1125 145.75821Q32.51875 144.60196 33.003124 143.93008Q33.503124 143.25821 33.503124 142.66446Q33.503124 142.03946 33.05 141.61758Q32.596874 141.18008 31.878124 141.18008Q31.1125 141.18008 30.659374 141.63321Q30.20625 142.08633 30.190624 142.89883L29.1125 142.78946Q29.221874 141.57071 29.940624 140.94571Q30.675 140.30508 31.909374 140.30508Q33.14375 140.30508 33.8625 140.99258Q34.58125 141.68008 34.58125 142.69571Q34.58125 143.21133 34.3625 143.71133Q34.159374 144.19571 33.659374 144.75821Q33.175 145.30508 32.05 146.25821Q31.096874 147.05508 30.815624 147.35196Q30.55 147.63321 30.378124 147.91446L34.596874 147.91446ZM36.253124 142.39883Q36.253124 141.47696 36.70625 140.83633Q37.175 140.19571 38.05 140.19571Q38.8625 140.19571 39.39375 140.77383Q39.925 141.35196 39.925 142.46133Q39.925 143.55508 39.378124 144.14883Q38.846874 144.72696 38.065624 144.72696Q37.284374 144.72696 36.76875 144.14883Q36.253124 143.57071 36.253124 142.39883ZM38.08125 140.91446Q37.690624 140.91446 37.425 141.25821Q37.175 141.60196 37.175 142.50821Q37.175 143.33633 37.425 143.68008Q37.690624 144.00821 38.08125 144.00821Q38.4875 144.00821 38.7375 143.66446Q39.003124 143.32071 39.003124 142.43008Q39.003124 141.58633 38.7375 141.25821Q38.471874 140.91446 38.08125 140.91446ZM38.08125 149.24258L42.784374 140.19571L43.64375 140.19571L38.95625 149.24258L38.08125 149.24258ZM41.8 146.91446Q41.8 145.99258 42.253124 145.35196Q42.721874 144.71133 43.6125 144.71133Q44.425 144.71133 44.95625 145.28946Q45.4875 145.85196 45.4875 146.97696Q45.4875 148.07071 44.940624 148.66446Q44.409374 149.24258 43.6125 149.24258Q42.846874 149.24258 42.315624 148.66446Q41.8 148.08633 41.8 146.91446ZM43.64375 145.43008Q43.2375 145.43008 42.971874 145.77383Q42.721874 146.11758 42.721874 147.02383Q42.721874 147.83633 42.9875 148.18008Q43.253124 148.52383 43.64375 148.52383Q44.034374 148.52383 44.3 148.18008Q44.565624 147.83633 44.565624 146.93008Q44.565624 146.10196 44.3 145.77383Q44.034374 145.43008 43.64375 145.43008Z" fill-rule="nonzero"/><path stroke="#757575" stroke-width="1.0" stroke-linecap="butt" d="M18.55 136.43008L127.05 136.43008L177.6022 102.374" fill-rule="nonzero"/><path fill="#9e9e9e" d="M179.6022 102.374C179.6022 101.26943 178.70677 100.374 177.6022 100.374C176.49763 100.374 175.6022 101.26943 175.6022 102.374C175.6022 103.47857 176.49763 104.374 177.6022 104.374C178.70677 104.374 179.6022 103.47857 179.6022 102.374" fill-rule="nonzero"/><path fill="#1a1a1a" d="M25.6125 159.91446L26.7375 160.21133Q26.378124 161.60196 25.45625 162.33633Q24.534374 163.07071 23.190624 163.07071Q21.8 163.07071 20.925 162.50821Q20.05 161.94571 19.596874 160.88321Q19.14375 159.80508 19.14375 158.57071Q19.14375 157.22696 19.659374 156.22696Q20.175 155.22696 21.1125 154.71133Q22.065624 154.19571 23.20625 154.19571Q24.4875 154.19571 25.3625 154.85196Q26.253124 155.50821 26.596874 156.69571L25.471874 156.96133Q25.175 156.02383 24.596874 155.60196Q24.034374 155.16446 23.175 155.16446Q22.190624 155.16446 21.51875 155.64883Q20.8625 156.11758 20.58125 156.91446Q20.315624 157.71133 20.315624 158.57071Q20.315624 159.66446 20.628124 160.47696Q20.95625 161.28946 21.628124 161.69571Q22.3 162.10196 23.096874 162.10196Q24.05 162.10196 24.70625 161.55508Q25.378124 161.00821 25.6125 159.91446ZM32.409374 162.16446Q31.815624 162.66446 31.26875 162.86758Q30.7375 163.07071 30.1125 163.07071Q29.08125 163.07071 28.534374 162.57071Q27.9875 162.07071 27.9875 161.28946Q27.9875 160.83633 28.190624 160.46133Q28.39375 160.07071 28.7375 159.85196Q29.08125 159.61758 29.503124 159.50821Q29.8 159.41446 30.440624 159.33633Q31.70625 159.19571 32.315624 158.97696Q32.315624 158.75821 32.315624 158.71133Q32.315624 158.05508 32.01875 157.78946Q31.6125 157.44571 30.815624 157.44571Q30.08125 157.44571 29.721874 157.71133Q29.3625 157.96133 29.190624 158.61758L28.159374 158.47696Q28.3 157.82071 28.628124 157.41446Q28.95625 157.00821 29.565624 156.78946Q30.175 156.57071 30.971874 156.57071Q31.76875 156.57071 32.26875 156.75821Q32.76875 156.94571 33.003124 157.22696Q33.2375 157.50821 33.33125 157.94571Q33.378124 158.21133 33.378124 158.91446L33.378124 160.32071Q33.378124 161.78946 33.440624 162.18008Q33.51875 162.57071 33.721874 162.93008L32.6125 162.93008Q32.45625 162.60196 32.409374 162.16446ZM32.315624 159.80508Q31.7375 160.03946 30.596874 160.21133Q29.940624 160.30508 29.675 160.43008Q29.409374 160.53946 29.253124 160.75821Q29.1125 160.97696 29.1125 161.25821Q29.1125 161.68008 29.425 161.96133Q29.753124 162.24258 30.3625 162.24258Q30.971874 162.24258 31.440624 161.97696Q31.925 161.71133 32.14375 161.24258Q32.315624 160.88321 32.315624 160.19571L32.315624 159.80508ZM35.346874 162.93008L35.346874 156.71133L36.284374 156.71133L36.284374 157.58633Q36.971874 156.57071 38.26875 156.57071Q38.83125 156.57071 39.3 156.77383Q39.784374 156.97696 40.01875 157.30508Q40.253124 157.63321 40.346874 158.07071Q40.39375 158.36758 40.39375 159.10196L40.39375 162.93008L39.346874 162.93008L39.346874 159.14883Q39.346874 158.49258 39.221874 158.18008Q39.096874 157.86758 38.784374 157.68008Q38.471874 157.47696 38.05 157.47696Q37.378124 157.47696 36.878124 157.91446Q36.39375 158.33633 36.39375 159.52383L36.39375 162.93008L35.346874 162.93008ZM46.409374 162.16446Q45.815624 162.66446 45.26875 162.86758Q44.7375 163.07071 44.1125 163.07071Q43.08125 163.07071 42.534374 162.57071Q41.9875 162.07071 41.9875 161.28946Q41.9875 160.83633 42.190624 160.46133Q42.39375 160.07071 42.7375 159.85196Q43.08125 159.61758 43.503124 159.50821Q43.8 159.41446 44.440624 159.33633Q45.70625 159.19571 46.315624 158.97696Q46.315624 158.75821 46.315624 158.71133Q46.315624 158.05508 46.01875 157.78946Q45.6125 157.44571 44.815624 157.44571Q44.08125 157.44571 43.721874 157.71133Q43.3625 157.96133 43.190624 158.61758L42.159374 158.47696Q42.3 157.82071 42.628124 157.41446Q42.95625 157.00821 43.565624 156.78946Q44.175 156.57071 44.971874 156.57071Q45.76875 156.57071 46.26875 156.75821Q46.76875 156.94571 47.003124 157.22696Q47.2375 157.50821 47.33125 157.94571Q47.378124 158.21133 47.378124 158.91446L47.378124 160.32071Q47.378124 161.78946 47.440624 162.18008Q47.51875 162.57071 47.721874 162.93008L46.6125 162.93008Q46.45625 162.60196 46.409374 162.16446ZM46.315624 159.80508Q45.7375 160.03946 44.596874 160.21133Q43.940624 160.30508 43.675 160.43008Q43.409374 160.53946 43.253124 160.75821Q43.1125 160.97696 43.1125 161.25821Q43.1125 161.68008 43.425 161.96133Q43.753124 162.24258 44.3625 162.24258Q44.971874 162.24258 45.440624 161.97696Q45.925 161.71133 46.14375 161.24258Q46.315624 160.88321 46.315624 160.19571L46.315624 159.80508ZM53.378124 162.93008L53.378124 162.14883Q52.784374 163.07071 51.64375 163.07071Q50.89375 163.07071 50.26875 162.66446Q49.64375 162.24258 49.3 161.50821Q48.95625 160.77383 48.95625 159.82071Q48.95625 158.89883 49.26875 158.13321Q49.58125 157.36758 50.20625 156.97696Q50.83125 156.57071 51.596874 156.57071Q52.159374 156.57071 52.596874 156.80508Q53.034374 157.03946 53.315624 157.41446L53.315624 154.33633L54.3625 154.33633L54.3625 162.93008L53.378124 162.93008ZM50.05 159.82071Q50.05 161.02383 50.55 161.61758Q51.05 162.19571 51.7375 162.19571Q52.425 162.19571 52.909374 161.63321Q53.39375 161.07071 53.39375 159.91446Q53.39375 158.63321 52.89375 158.03946Q52.409374 157.44571 51.690624 157.44571Q50.9875 157.44571 50.51875 158.02383Q50.05 158.58633 50.05 159.82071ZM60.409374 162.16446Q59.815624 162.66446 59.26875 162.86758Q58.7375 163.07071 58.1125 163.07071Q57.08125 163.07071 56.534374 162.57071Q55.9875 162.07071 55.9875 161.28946Q55.9875 160.83633 56.190624 160.46133Q56.39375 160.07071 56.7375 159.85196Q57.08125 159.61758 57.503124 159.50821Q57.8 159.41446 58.440624 159.33633Q59.70625 159.19571 60.315624 158.97696Q60.315624 158.75821 60.315624 158.71133Q60.315624 158.05508 60.01875 157.78946Q59.6125 157.44571 58.815624 157.44571Q58.08125 157.44571 57.721874 157.71133Q57.3625 157.96133 57.190624 158.61758L56.159374 158.47696Q56.3 157.82071 56.628124 157.41446Q56.95625 157.00821 57.565624 156.78946Q58.175 156.57071 58.971874 156.57071Q59.76875 156.57071 60.26875 156.75821Q60.76875 156.94571 61.003124 157.22696Q61.2375 157.50821 61.33125 157.94571Q61.378124 158.21133 61.378124 158.91446L61.378124 160.32071Q61.378124 161.78946 61.440624 162.18008Q61.51875 162.57071 61.721874 162.93008L60.6125 162.93008Q60.45625 162.60196 60.409374 162.16446ZM60.315624 159.80508Q59.7375 160.03946 58.596874 160.21133Q57.940624 160.30508 57.675 160.43008Q57.409374 160.53946 57.253124 160.75821Q57.1125 160.97696 57.1125 161.25821Q57.1125 161.68008 57.425 161.96133Q57.753124 162.24258 58.3625 162.24258Q58.971874 162.24258 59.440624 161.97696Q59.925 161.71133 60.14375 161.24258Q60.315624 160.88321 60.315624 160.19571L60.315624 159.80508Z" fill-rule="nonzero"/><path fill="#9e9e9e" d="M19.20625 177.94571L20.221874 177.85196Q20.346874 178.57071 20.70625 178.89883Q21.08125 179.21133 21.64375 179.21133Q22.128124 179.21133 22.4875 178.99258Q22.8625 178.75821 23.096874 178.39883Q23.33125 178.02383 23.4875 177.39883Q23.64375 176.75821 23.64375 176.10196Q23.64375 176.02383 23.64375 175.88321Q23.33125 176.38321 22.784374 176.71133Q22.2375 177.02383 21.596874 177.02383Q20.51875 177.02383 19.784374 176.25821Q19.05 175.47696 19.05 174.21133Q19.05 172.89883 19.815624 172.10196Q20.596874 171.30508 21.753124 171.30508Q22.58125 171.30508 23.26875 171.75821Q23.971874 172.21133 24.33125 173.05508Q24.690624 173.88321 24.690624 175.46133Q24.690624 177.10196 24.33125 178.08633Q23.9875 179.05508 23.26875 179.57071Q22.565624 180.07071 21.628124 180.07071Q20.6125 180.07071 19.971874 179.52383Q19.33125 178.96133 19.20625 177.94571ZM23.51875 174.14883Q23.51875 173.24258 23.034374 172.71133Q22.565624 172.18008 21.878124 172.18008Q21.175 172.18008 20.64375 172.75821Q20.128124 173.32071 20.128124 174.24258Q20.128124 175.05508 20.628124 175.57071Q21.128124 176.08633 21.846874 176.08633Q22.58125 176.08633 23.05 175.57071Q23.51875 175.05508 23.51875 174.14883ZM26.64375 179.93008L26.64375 178.72696L27.846874 178.72696L27.846874 179.93008L26.64375 179.93008ZM32.425 179.93008L32.425 177.86758L28.70625 177.86758L28.70625 176.89883L32.628124 171.33633L33.4875 171.33633L33.4875 176.89883L34.64375 176.89883L34.64375 177.86758L33.4875 177.86758L33.4875 179.93008L32.425 179.93008ZM32.425 176.89883L32.425 173.03946L29.7375 176.89883L32.425 176.89883ZM36.253124 173.39883Q36.253124 172.47696 36.70625 171.83633Q37.175 171.19571 38.05 171.19571Q38.8625 171.19571 39.39375 171.77383Q39.925 172.35196 39.925 173.46133Q39.925 174.55508 39.378124 175.14883Q38.846874 175.72696 38.065624 175.72696Q37.284374 175.72696 36.76875 175.14883Q36.253124 174.57071 36.253124 173.39883ZM38.08125 171.91446Q37.690624 171.91446 37.425 172.25821Q37.175 172.60196 37.175 173.50821Q37.175 174.33633 37.425 174.68008Q37.690624 175.00821 38.08125 175.00821Q38.4875 175.00821 38.7375 174.66446Q39.003124 174.32071 39.003124 173.43008Q39.003124 172.58633 38.7375 172.25821Q38.471874 171.91446 38.08125 171.91446ZM38.08125 180.24258L42.784374 171.19571L43.64375 171.19571L38.95625 180.24258L38.08125 180.24258ZM41.8 177.91446Q41.8 176.99258 42.253124 176.35196Q42.721874 175.71133 43.6125 175.71133Q44.425 175.71133 44.95625 176.28946Q45.4875 176.85196 45.4875 177.97696Q45.4875 179.07071 44.940624 179.66446Q44.409374 180.24258 43.6125 180.24258Q42.846874 180.24258 42.315624 179.66446Q41.8 179.08633 41.8 177.91446ZM43.64375 176.43008Q43.2375 176.43008 42.971874 176.77383Q42.721874 177.11758 42.721874 178.02383Q42.721874 178.83633 42.9875 179.18008Q43.253124 179.52383 43.64375 179.52383Q44.034374 179.52383 44.3 179.18008Q44.565624 178.83633 44.565624 177.93008Q44.565624 177.10196 44.3 176.77383Q44.034374 176.43008 43.64375 176.43008Z" fill-rule="nonzero"/><path stroke="#757575" stroke-width="1.0" stroke-linecap="butt" d="M18.55 167.43008L127.05 167.43008L146.74368 144.39632" fill-rule="nonzero"/><path fill="#9e9e9e" d="M148.74368 144.39632C148.74368 143.29175 147.84825 142.39632 146.74368 142.39632C145.63911 142.39632 144.74368 143.29175 144.74368 144.39632C144.74368 145.50089 145.63911 146.39632 146.74368 146.39632C147.84825 146.39632 148.74368 145.50089 148.74368 144.39632" fill-rule="nonzero"/><path fill="#1a1a1a" d="M19.503124 231.85692L19.503124 223.26317L25.70625 223.26317L25.70625 224.2788L20.64375 224.2788L20.64375 226.9038L25.39375 226.9038L25.39375 227.91942L20.64375 227.91942L20.64375 230.8413L25.909374 230.8413L25.909374 231.85692L19.503124 231.85692ZM27.346874 231.85692L27.346874 225.63817L28.284374 225.63817L28.284374 226.51317Q28.971874 225.49754 30.26875 225.49754Q30.83125 225.49754 31.3 225.70067Q31.784374 225.9038 32.01875 226.23192Q32.253124 226.56004 32.346874 226.99754Q32.39375 227.29442 32.39375 228.0288L32.39375 231.85692L31.346874 231.85692L31.346874 228.07567Q31.346874 227.41942 31.221874 227.10692Q31.096874 226.79442 30.784374 226.60692Q30.471874 226.4038 30.05 226.4038Q29.378124 226.4038 28.878124 226.8413Q28.39375 227.26317 28.39375 228.45067L28.39375 231.85692L27.346874 231.85692ZM34.14375 232.37254L35.175 232.5288Q35.2375 232.99754 35.534374 233.2163Q35.925 233.51317 36.596874 233.51317Q37.33125 233.51317 37.721874 233.2163Q38.128124 232.91942 38.26875 232.4038Q38.3625 232.07567 38.346874 231.04442Q37.659374 231.85692 36.628124 231.85692Q35.346874 231.85692 34.64375 230.93504Q33.940624 229.99754 33.940624 228.7163Q33.940624 227.82567 34.253124 227.07567Q34.58125 226.31004 35.190624 225.9038Q35.8 225.49754 36.628124 225.49754Q37.7375 225.49754 38.45625 226.38817L38.45625 225.63817L39.425 225.63817L39.425 231.01317Q39.425 232.4663 39.128124 233.07567Q38.83125 233.68504 38.190624 234.0288Q37.55 234.38817 36.6125 234.38817Q35.503124 234.38817 34.815624 233.88817Q34.128124 233.38817 34.14375 232.37254ZM35.01875 228.63817Q35.01875 229.85692 35.503124 230.41942Q35.9875 230.98192 36.721874 230.98192Q37.45625 230.98192 37.940624 230.41942Q38.440624 229.85692 38.440624 228.66942Q38.440624 227.5288 37.925 226.95067Q37.425 226.37254 36.70625 226.37254Q36.003124 226.37254 35.503124 226.95067Q35.01875 227.51317 35.01875 228.63817ZM41.315624 231.85692L41.315624 223.26317L42.378124 223.26317L42.378124 231.85692L41.315624 231.85692ZM48.409374 231.0913Q47.815624 231.5913 47.26875 231.79442Q46.7375 231.99754 46.1125 231.99754Q45.08125 231.99754 44.534374 231.49754Q43.9875 230.99754 43.9875 230.2163Q43.9875 229.76317 44.190624 229.38817Q44.39375 228.99754 44.7375 228.7788Q45.08125 228.54442 45.503124 228.43504Q45.8 228.3413 46.440624 228.26317Q47.70625 228.12254 48.315624 227.9038Q48.315624 227.68504 48.315624 227.63817Q48.315624 226.98192 48.01875 226.7163Q47.6125 226.37254 46.815624 226.37254Q46.08125 226.37254 45.721874 226.63817Q45.3625 226.88817 45.190624 227.54442L44.159374 227.4038Q44.3 226.74754 44.628124 226.3413Q44.95625 225.93504 45.565624 225.7163Q46.175 225.49754 46.971874 225.49754Q47.76875 225.49754 48.26875 225.68504Q48.76875 225.87254 49.003124 226.1538Q49.2375 226.43504 49.33125 226.87254Q49.378124 227.13817 49.378124 227.8413L49.378124 229.24754Q49.378124 230.7163 49.440624 231.10692Q49.51875 231.49754 49.721874 231.85692L48.6125 231.85692Q48.45625 231.5288 48.409374 231.0913ZM48.315624 228.73192Q47.7375 228.9663 46.596874 229.13817Q45.940624 229.23192 45.675 229.35692Q45.409374 229.4663 45.253124 229.68504Q45.1125 229.9038 45.1125 230.18504Q45.1125 230.60692 45.425 230.88817Q45.753124 231.16942 46.3625 231.16942Q46.971874 231.16942 47.440624 230.9038Q47.925 230.63817 48.14375 230.16942Q48.315624 229.81004 48.315624 229.12254L48.315624 228.73192ZM51.346874 231.85692L51.346874 225.63817L52.284374 225.63817L52.284374 226.51317Q52.971874 225.49754 54.26875 225.49754Q54.83125 225.49754 55.3 225.70067Q55.784374 225.9038 56.01875 226.23192Q56.253124 226.56004 56.346874 226.99754Q56.39375 227.29442 56.39375 228.0288L56.39375 231.85692L55.346874 231.85692L55.346874 228.07567Q55.346874 227.41942 55.221874 227.10692Q55.096874 226.79442 54.784374 226.60692Q54.471874 226.4038 54.05 226.4038Q53.378124 226.4038 52.878124 226.8413Q52.39375 227.26317 52.39375 228.45067L52.39375 231.85692L51.346874 231.85692ZM62.378124 231.85692L62.378124 231.07567Q61.784374 231.99754 60.64375 231.99754Q59.89375 231.99754 59.26875 231.5913Q58.64375 231.16942 58.3 230.43504Q57.95625 229.70067 57.95625 228.74754Q57.95625 227.82567 58.26875 227.06004Q58.58125 226.29442 59.20625 225.9038Q59.83125 225.49754 60.596874 225.49754Q61.159374 225.49754 61.596874 225.73192Q62.034374 225.9663 62.315624 226.3413L62.315624 223.26317L63.3625 223.26317L63.3625 231.85692L62.378124 231.85692ZM59.05 228.74754Q59.05 229.95067 59.55 230.54442Q60.05 231.12254 60.7375 231.12254Q61.425 231.12254 61.909374 230.56004Q62.39375 229.99754 62.39375 228.8413Q62.39375 227.56004 61.89375 226.9663Q61.409374 226.37254 60.690624 226.37254Q59.9875 226.37254 59.51875 226.95067Q59.05 227.51317 59.05 228.74754Z" fill-rule="nonzero"/><path fill="#9e9e9e" d="M23.01875 248.85692L21.971874 248.85692L21.971874 242.13817Q21.58125 242.49754 20.95625 242.87254Q20.346874 243.23192 19.8625 243.4038L19.8625 242.38817Q20.7375 241.9663 21.39375 241.38817Q22.065624 240.79442 22.346874 240.23192L23.01875 240.23192L23.01875 248.85692ZM27.675 244.20067Q27.01875 243.95067 26.690624 243.51317Q26.378124 243.06004 26.378124 242.45067Q26.378124 241.51317 27.05 240.87254Q27.7375 240.23192 28.846874 240.23192Q29.971874 240.23192 30.659374 240.88817Q31.346874 241.54442 31.346874 242.48192Q31.346874 243.07567 31.034374 243.51317Q30.721874 243.95067 30.08125 244.20067Q30.878124 244.45067 31.284374 245.0288Q31.690624 245.60692 31.690624 246.4038Q31.690624 247.49754 30.909374 248.24754Q30.14375 248.99754 28.8625 248.99754Q27.596874 248.99754 26.815624 248.24754Q26.034374 247.49754 26.034374 246.37254Q26.034374 245.5288 26.45625 244.9663Q26.89375 244.4038 27.675 244.20067ZM27.45625 242.4038Q27.45625 243.01317 27.846874 243.4038Q28.253124 243.79442 28.878124 243.79442Q29.4875 243.79442 29.878124 243.41942Q30.26875 243.0288 30.26875 242.4663Q30.26875 241.88817 29.8625 241.49754Q29.45625 241.0913 28.8625 241.0913Q28.253124 241.0913 27.846874 241.48192Q27.45625 241.87254 27.45625 242.4038ZM27.128124 246.37254Q27.128124 246.82567 27.33125 247.24754Q27.55 247.66942 27.971874 247.9038Q28.39375 248.13817 28.878124 248.13817Q29.628124 248.13817 30.1125 247.6538Q30.6125 247.16942 30.6125 246.41942Q30.6125 245.6538 30.1125 245.1538Q29.6125 244.6538 28.846874 244.6538Q28.096874 244.6538 27.6125 245.1538Q27.128124 245.63817 27.128124 246.37254ZM33.64375 248.85692L33.64375 247.6538L34.846874 247.6538L34.846874 248.85692L33.64375 248.85692ZM41.596874 247.8413L41.596874 248.85692L35.909374 248.85692Q35.909374 248.48192 36.034374 248.12254Q36.253124 247.54442 36.721874 246.98192Q37.20625 246.41942 38.1125 245.68504Q39.51875 244.5288 40.003124 243.85692Q40.503124 243.18504 40.503124 242.5913Q40.503124 241.9663 40.05 241.54442Q39.596874 241.10692 38.878124 241.10692Q38.1125 241.10692 37.659374 241.56004Q37.20625 242.01317 37.190624 242.82567L36.1125 242.7163Q36.221874 241.49754 36.940624 240.87254Q37.675 240.23192 38.909374 240.23192Q40.14375 240.23192 40.8625 240.91942Q41.58125 241.60692 41.58125 242.62254Q41.58125 243.13817 41.3625 243.63817Q41.159374 244.12254 40.659374 244.68504Q40.175 245.23192 39.05 246.18504Q38.096874 246.98192 37.815624 247.2788Q37.55 247.56004 37.378124 247.8413L41.596874 247.8413ZM43.253124 242.32567Q43.253124 241.4038 43.70625 240.76317Q44.175 240.12254 45.05 240.12254Q45.8625 240.12254 46.39375 240.70067Q46.925 241.2788 46.925 242.38817Q46.925 243.48192 46.378124 244.07567Q45.846874 244.6538 45.065624 244.6538Q44.284374 244.6538 43.76875 244.07567Q43.253124 243.49754 43.253124 242.32567ZM45.08125 240.8413Q44.690624 240.8413 44.425 241.18504Q44.175 241.5288 44.175 242.43504Q44.175 243.26317 44.425 243.60692Q44.690624 243.93504 45.08125 243.93504Q45.4875 243.93504 45.7375 243.5913Q46.003124 243.24754 46.003124 242.35692Q46.003124 241.51317 45.7375 241.18504Q45.471874 240.8413 45.08125 240.8413ZM45.08125 249.16942L49.784374 240.12254L50.64375 240.12254L45.95625 249.16942L45.08125 249.16942ZM48.8 246.8413Q48.8 245.91942 49.253124 245.2788Q49.721874 244.63817 50.6125 244.63817Q51.425 244.63817 51.95625 245.2163Q52.4875 245.7788 52.4875 246.9038Q52.4875 247.99754 51.940624 248.5913Q51.409374 249.16942 50.6125 249.16942Q49.846874 249.16942 49.315624 248.5913Q48.8 248.01317 48.8 246.8413ZM50.64375 245.35692Q50.2375 245.35692 49.971874 245.70067Q49.721874 246.04442 49.721874 246.95067Q49.721874 247.76317 49.9875 248.10692Q50.253124 248.45067 50.64375 248.45067Q51.034374 248.45067 51.3 248.10692Q51.565624 247.76317 51.565624 246.85692Q51.565624 246.0288 51.3 245.70067Q51.034374 245.35692 50.64375 245.35692Z" fill-rule="nonzero"/><path stroke="#757575" stroke-width="1.0" stroke-linecap="butt" d="M18.55 236.35692L127.05 236.35692L169.78012 236.35692" fill-rule="nonzero"/><path fill="#9e9e9e" d="M171.78012 236.35692C171.78012 235.25235 170.88469 234.35692 169.78012 234.35692C168.67555 234.35692 167.78012 235.25235 167.78012 236.35692C167.78012 237.46149 168.67555 238.35692 169.78012 238.35692C170.88469 238.35692 171.78012 237.46149 171.78012 236.35692" fill-rule="nonzero"/><path fill="#1a1a1a" d="M564.0125 99.012085L565.15314 99.012085L565.15314 103.980835Q565.15314 105.27771 564.85626 106.043335Q564.5594 106.793335 563.79376 107.27771Q563.02814 107.74646 561.79376 107.74646Q560.59064 107.74646 559.8094 107.34021Q559.04376 106.918335 558.71564 106.137085Q558.3875 105.34021 558.3875 103.980835L558.3875 99.012085L559.52814 99.012085L559.52814 103.96521Q559.52814 105.09021 559.73126 105.62146Q559.95 106.15271 560.45 106.449585Q560.96564 106.730835 561.7 106.730835Q562.95 106.730835 563.48126 106.168335Q564.0125 105.59021 564.0125 103.96521L564.0125 99.012085ZM566.9969 104.84021L568.0594 104.74646Q568.1375 105.40271 568.41876 105.80896Q568.7 106.21521 569.27814 106.480835Q569.8719 106.730835 570.60626 106.730835Q571.2469 106.730835 571.7469 106.543335Q572.2469 106.34021 572.48126 106.012085Q572.73126 105.668335 572.73126 105.27771Q572.73126 104.87146 572.4969 104.574585Q572.2625 104.262085 571.73126 104.05896Q571.3719 103.918335 570.1844 103.637085Q569.0125 103.355835 568.54376 103.105835Q567.91876 102.77771 567.6219 102.30896Q567.325 101.824585 567.325 101.230835Q567.325 100.59021 567.6844 100.02771Q568.0594 99.449585 568.7625 99.168335Q569.48126 98.87146 570.34064 98.87146Q571.29376 98.87146 572.02814 99.18396Q572.7625 99.480835 573.15314 100.09021Q573.54376 100.68396 573.575 101.43396L572.48126 101.512085Q572.3875 100.699585 571.8719 100.293335Q571.3719 99.87146 570.3875 99.87146Q569.35626 99.87146 568.8875 100.24646Q568.41876 100.62146 568.41876 101.15271Q568.41876 101.62146 568.7469 101.918335Q569.075 102.21521 570.45 102.52771Q571.84064 102.84021 572.35626 103.074585Q573.10626 103.43396 573.46564 103.96521Q573.825 104.480835 573.825 105.18396Q573.825 105.87146 573.4344 106.480835Q573.04376 107.074585 572.3094 107.418335Q571.575 107.74646 570.65314 107.74646Q569.48126 107.74646 568.6844 107.418335Q567.90314 107.074585 567.45 106.387085Q567.0125 105.699585 566.9969 104.84021ZM574.4344 107.605835L577.73126 99.012085L578.95 99.012085L582.46564 107.605835L581.1844 107.605835L580.16876 104.99646L576.59064 104.99646L575.6375 107.605835L574.4344 107.605835ZM576.91876 104.074585L579.825 104.074585L578.9344 101.699585Q578.5125 100.62146 578.325 99.918335Q578.15314 100.74646 577.85626 101.55896L576.91876 104.074585Z" fill-rule="nonzero"/><path fill="#9e9e9e" d="M546.95 122.34021L548.0125 122.199585Q548.1844 123.09021 548.6219 123.49646Q549.0594 123.887085 549.6844 123.887085Q550.4344 123.887085 550.95 123.37146Q551.46564 122.855835 551.46564 122.09021Q551.46564 121.37146 550.98126 120.90271Q550.5125 120.418335 549.77814 120.418335Q549.48126 120.418335 549.02814 120.543335L549.15314 119.605835Q549.2625 119.62146 549.325 119.62146Q549.9969 119.62146 550.52814 119.27771Q551.075 118.918335 551.075 118.18396Q551.075 117.605835 550.6844 117.230835Q550.29376 116.84021 549.66876 116.84021Q549.0594 116.84021 548.6375 117.230835Q548.23126 117.62146 548.1219 118.387085L547.0594 118.199585Q547.2469 117.15271 547.9344 116.574585Q548.6219 115.980835 549.6375 115.980835Q550.34064 115.980835 550.9344 116.293335Q551.52814 116.59021 551.84064 117.105835Q552.15314 117.62146 552.15314 118.21521Q552.15314 118.762085 551.85626 119.230835Q551.5594 119.68396 550.98126 119.949585Q551.73126 120.12146 552.15314 120.68396Q552.575 121.230835 552.575 122.074585Q552.575 123.199585 551.7469 123.980835Q550.9344 124.762085 549.6844 124.762085Q548.5594 124.762085 547.8094 124.09021Q547.0594 123.40271 546.95 122.34021ZM557.91876 124.605835L556.8719 124.605835L556.8719 117.887085Q556.48126 118.24646 555.85626 118.62146Q555.2469 118.980835 554.7625 119.15271L554.7625 118.137085Q555.6375 117.71521 556.29376 117.137085Q556.96564 116.543335 557.2469 115.980835L557.91876 115.980835L557.91876 124.605835ZM561.54376 124.605835L561.54376 123.40271L562.7469 123.40271L562.7469 124.605835L561.54376 124.605835ZM563.95 122.355835L565.0594 122.262085Q565.1844 123.074585 565.6219 123.480835Q566.075 123.887085 566.71564 123.887085Q567.46564 123.887085 567.9969 123.30896Q568.52814 122.730835 568.52814 121.793335Q568.52814 120.887085 568.0125 120.37146Q567.5125 119.84021 566.6844 119.84021Q566.1844 119.84021 565.7625 120.074585Q565.35626 120.30896 565.1219 120.668335L564.1375 120.543335L564.96564 116.137085L569.2469 116.137085L569.2469 117.137085L565.8094 117.137085L565.35626 119.449585Q566.1219 118.90271 566.96564 118.90271Q568.09064 118.90271 568.85626 119.68396Q569.6375 120.46521 569.6375 121.699585Q569.6375 122.855835 568.96564 123.71521Q568.1375 124.74646 566.71564 124.74646Q565.54376 124.74646 564.79376 124.09021Q564.0594 123.43396 563.95 122.355835ZM571.15314 118.074585Q571.15314 117.15271 571.60626 116.512085Q572.075 115.87146 572.95 115.87146Q573.7625 115.87146 574.29376 116.449585Q574.825 117.02771 574.825 118.137085Q574.825 119.230835 574.27814 119.824585Q573.7469 120.40271 572.96564 120.40271Q572.1844 120.40271 571.66876 119.824585Q571.15314 119.24646 571.15314 118.074585ZM572.98126 116.59021Q572.59064 116.59021 572.325 116.93396Q572.075 117.27771 572.075 118.18396Q572.075 119.012085 572.325 119.355835Q572.59064 119.68396 572.98126 119.68396Q573.3875 119.68396 573.6375 119.34021Q573.90314 118.99646 573.90314 118.105835Q573.90314 117.262085 573.6375 116.93396Q573.3719 116.59021 572.98126 116.59021ZM572.98126 124.918335L577.6844 115.87146L578.54376 115.87146L573.85626 124.918335L572.98126 124.918335ZM576.7 122.59021Q576.7 121.668335 577.15314 121.02771Q577.6219 120.387085 578.5125 120.387085Q579.325 120.387085 579.85626 120.96521Q580.3875 121.52771 580.3875 122.65271Q580.3875 123.74646 579.84064 124.34021Q579.3094 124.918335 578.5125 124.918335Q577.7469 124.918335 577.21564 124.34021Q576.7 123.762085 576.7 122.59021ZM578.54376 121.105835Q578.1375 121.105835 577.8719 121.449585Q577.6219 121.793335 577.6219 122.699585Q577.6219 123.512085 577.8875 123.855835Q578.15314 124.199585 578.54376 124.199585Q578.9344 124.199585 579.2 123.855835Q579.46564 123.512085 579.46564 122.605835Q579.46564 121.77771 579.2 121.449585Q578.9344 121.105835 578.54376 121.105835Z" fill-rule="nonzero"/><path stroke="#757575" stroke-width="1.0" stroke-linecap="butt" d="M581.45 112.105835L472.95 112.105835L432.63666 112.105835" fill-rule="nonzero"/><path fill="#9e9e9e" d="M434.63666 112.105835C434.63666 111.00127 433.74124 110.105835 432.63666 110.105835C431.5321 110.105835 430.63666 111.00127 430.63666 112.105835C430.63666 113.2104 431.5321 114.105835 432.63666 114.105835C433.74124 114.105835 434.63666 113.2104 434.63666 112.105835" fill-rule="nonzero"/><path fill="#1a1a1a" d="M547.79376 268.95206L548.825 268.81143Q548.85626 269.7958 549.1844 270.15518Q549.5125 270.51456 550.10626 270.51456Q550.52814 270.51456 550.84064 270.32706Q551.15314 270.12393 551.2625 269.7958Q551.3875 269.45206 551.3875 268.71768L551.3875 262.7958L552.5125 262.7958L552.5125 268.65518Q552.5125 269.7333 552.2469 270.32706Q551.9969 270.9208 551.4344 271.2333Q550.8719 271.53018 550.10626 271.53018Q548.98126 271.53018 548.3719 270.88956Q547.77814 270.2333 547.79376 268.95206ZM558.3094 270.62393Q557.71564 271.12393 557.16876 271.32706Q556.6375 271.53018 556.0125 271.53018Q554.98126 271.53018 554.4344 271.03018Q553.8875 270.53018 553.8875 269.74893Q553.8875 269.2958 554.09064 268.9208Q554.29376 268.53018 554.6375 268.31143Q554.98126 268.07706 555.40314 267.96768Q555.7 267.87393 556.34064 267.7958Q557.60626 267.65518 558.21564 267.43643Q558.21564 267.21768 558.21564 267.1708Q558.21564 266.51456 557.91876 266.24893Q557.5125 265.90518 556.71564 265.90518Q555.98126 265.90518 555.6219 266.1708Q555.2625 266.4208 555.09064 267.07706L554.0594 266.93643Q554.2 266.28018 554.52814 265.87393Q554.85626 265.46768 555.46564 265.24893Q556.075 265.03018 556.8719 265.03018Q557.66876 265.03018 558.16876 265.21768Q558.66876 265.40518 558.90314 265.68643Q559.1375 265.96768 559.23126 266.40518Q559.27814 266.6708 559.27814 267.37393L559.27814 268.78018Q559.27814 270.24893 559.34064 270.63956Q559.41876 271.03018 559.6219 271.38956L558.5125 271.38956Q558.35626 271.06143 558.3094 270.62393ZM558.21564 268.26456Q557.6375 268.49893 556.4969 268.6708Q555.84064 268.76456 555.575 268.88956Q555.3094 268.99893 555.15314 269.21768Q555.0125 269.43643 555.0125 269.71768Q555.0125 270.13956 555.325 270.4208Q555.65314 270.70206 556.2625 270.70206Q556.8719 270.70206 557.34064 270.43643Q557.825 270.1708 558.04376 269.70206Q558.21564 269.34268 558.21564 268.65518L558.21564 268.26456ZM561.2469 273.78018L561.2469 265.1708L562.2 265.1708L562.2 265.96768Q562.54376 265.49893 562.96564 265.26456Q563.40314 265.03018 564.0125 265.03018Q564.8094 265.03018 565.41876 265.43643Q566.02814 265.84268 566.325 266.59268Q566.6375 267.34268 566.6375 268.2333Q566.6375 269.18643 566.29376 269.95206Q565.96564 270.71768 565.3094 271.12393Q564.65314 271.53018 563.9344 271.53018Q563.40314 271.53018 562.98126 271.31143Q562.5594 271.07706 562.29376 270.74893L562.29376 273.78018L561.2469 273.78018ZM562.2 268.31143Q562.2 269.51456 562.6844 270.09268Q563.16876 270.65518 563.85626 270.65518Q564.5594 270.65518 565.0594 270.06143Q565.5594 269.46768 565.5594 268.21768Q565.5594 267.03018 565.075 266.45206Q564.59064 265.8583 563.90314 265.8583Q563.23126 265.8583 562.71564 266.4833Q562.2 267.1083 562.2 268.31143ZM572.3094 270.62393Q571.71564 271.12393 571.16876 271.32706Q570.6375 271.53018 570.0125 271.53018Q568.98126 271.53018 568.4344 271.03018Q567.8875 270.53018 567.8875 269.74893Q567.8875 269.2958 568.09064 268.9208Q568.29376 268.53018 568.6375 268.31143Q568.98126 268.07706 569.40314 267.96768Q569.7 267.87393 570.34064 267.7958Q571.60626 267.65518 572.21564 267.43643Q572.21564 267.21768 572.21564 267.1708Q572.21564 266.51456 571.91876 266.24893Q571.5125 265.90518 570.71564 265.90518Q569.98126 265.90518 569.6219 266.1708Q569.2625 266.4208 569.09064 267.07706L568.0594 266.93643Q568.2 266.28018 568.52814 265.87393Q568.85626 265.46768 569.46564 265.24893Q570.075 265.03018 570.8719 265.03018Q571.66876 265.03018 572.16876 265.21768Q572.66876 265.40518 572.90314 265.68643Q573.1375 265.96768 573.23126 266.40518Q573.27814 266.6708 573.27814 267.37393L573.27814 268.78018Q573.27814 270.24893 573.34064 270.63956Q573.41876 271.03018 573.6219 271.38956L572.5125 271.38956Q572.35626 271.06143 572.3094 270.62393ZM572.21564 268.26456Q571.6375 268.49893 570.4969 268.6708Q569.84064 268.76456 569.575 268.88956Q569.3094 268.99893 569.15314 269.21768Q569.0125 269.43643 569.0125 269.71768Q569.0125 270.13956 569.325 270.4208Q569.65314 270.70206 570.2625 270.70206Q570.8719 270.70206 571.34064 270.43643Q571.825 270.1708 572.04376 269.70206Q572.21564 269.34268 572.21564 268.65518L572.21564 268.26456ZM575.2469 271.38956L575.2469 265.1708L576.1844 265.1708L576.1844 266.0458Q576.8719 265.03018 578.16876 265.03018Q578.73126 265.03018 579.2 265.2333Q579.6844 265.43643 579.91876 265.76456Q580.15314 266.09268 580.2469 266.53018Q580.29376 266.82706 580.29376 267.56143L580.29376 271.38956L579.2469 271.38956L579.2469 267.6083Q579.2469 266.95206 579.1219 266.63956Q578.9969 266.32706 578.6844 266.13956Q578.3719 265.93643 577.95 265.93643Q577.27814 265.93643 576.77814 266.37393Q576.29376 266.7958 576.29376 267.9833L576.29376 271.38956L575.2469 271.38956Z" fill-rule="nonzero"/><path fill="#9e9e9e" d="M552.4969 287.37393L552.4969 288.38956L546.8094 288.38956Q546.8094 288.01456 546.9344 287.65518Q547.15314 287.07706 547.6219 286.51456Q548.10626 285.95206 549.0125 285.21768Q550.41876 284.06143 550.90314 283.38956Q551.40314 282.71768 551.40314 282.12393Q551.40314 281.49893 550.95 281.07706Q550.4969 280.63956 549.77814 280.63956Q549.0125 280.63956 548.5594 281.09268Q548.10626 281.5458 548.09064 282.3583L547.0125 282.24893Q547.1219 281.03018 547.84064 280.40518Q548.575 279.76456 549.8094 279.76456Q551.04376 279.76456 551.7625 280.45206Q552.48126 281.13956 552.48126 282.15518Q552.48126 282.6708 552.2625 283.1708Q552.0594 283.65518 551.5594 284.21768Q551.075 284.76456 549.95 285.71768Q548.9969 286.51456 548.71564 286.81143Q548.45 287.09268 548.27814 287.37393L552.4969 287.37393ZM557.325 288.38956L557.325 286.32706L553.60626 286.32706L553.60626 285.3583L557.52814 279.7958L558.3875 279.7958L558.3875 285.3583L559.54376 285.3583L559.54376 286.32706L558.3875 286.32706L558.3875 288.38956L557.325 288.38956ZM557.325 285.3583L557.325 281.49893L554.6375 285.3583L557.325 285.3583ZM561.54376 288.38956L561.54376 287.18643L562.7469 287.18643L562.7469 288.38956L561.54376 288.38956ZM564.0125 280.9208L564.0125 279.90518L569.575 279.90518L569.575 280.7333Q568.7625 281.6083 567.95 283.06143Q567.15314 284.49893 566.71564 286.03018Q566.3875 287.1083 566.3094 288.38956L565.21564 288.38956Q565.23126 287.37393 565.60626 285.93643Q565.9969 284.49893 566.7 283.1708Q567.41876 281.84268 568.23126 280.9208L564.0125 280.9208ZM571.15314 281.8583Q571.15314 280.93643 571.60626 280.2958Q572.075 279.65518 572.95 279.65518Q573.7625 279.65518 574.29376 280.2333Q574.825 280.81143 574.825 281.9208Q574.825 283.01456 574.27814 283.6083Q573.7469 284.18643 572.96564 284.18643Q572.1844 284.18643 571.66876 283.6083Q571.15314 283.03018 571.15314 281.8583ZM572.98126 280.37393Q572.59064 280.37393 572.325 280.71768Q572.075 281.06143 572.075 281.96768Q572.075 282.7958 572.325 283.13956Q572.59064 283.46768 572.98126 283.46768Q573.3875 283.46768 573.6375 283.12393Q573.90314 282.78018 573.90314 281.88956Q573.90314 281.0458 573.6375 280.71768Q573.3719 280.37393 572.98126 280.37393ZM572.98126 288.70206L577.6844 279.65518L578.54376 279.65518L573.85626 288.70206L572.98126 288.70206ZM576.7 286.37393Q576.7 285.45206 577.15314 284.81143Q577.6219 284.1708 578.5125 284.1708Q579.325 284.1708 579.85626 284.74893Q580.3875 285.31143 580.3875 286.43643Q580.3875 287.53018 579.84064 288.12393Q579.3094 288.70206 578.5125 288.70206Q577.7469 288.70206 577.21564 288.12393Q576.7 287.5458 576.7 286.37393ZM578.54376 284.88956Q578.1375 284.88956 577.8719 285.2333Q577.6219 285.57706 577.6219 286.4833Q577.6219 287.2958 577.8875 287.63956Q578.15314 287.9833 578.54376 287.9833Q578.9344 287.9833 579.2 287.63956Q579.46564 287.2958 579.46564 286.38956Q579.46564 285.56143 579.2 285.2333Q578.9344 284.88956 578.54376 284.88956Z" fill-rule="nonzero"/><path stroke="#757575" stroke-width="1.0" stroke-linecap="butt" d="M581.45 275.88956L472.95 275.88956L359.5081 275.88956" fill-rule="nonzero"/><path fill="#9e9e9e" d="M361.5081 275.88956C361.5081 274.785 360.61264 273.88956 359.5081 273.88956C358.4035 273.88956 357.5081 274.785 357.5081 275.88956C357.5081 276.99414 358.4035 277.88956 359.5081 277.88956C360.61264 277.88956 361.5081 276.99414 361.5081 275.88956" fill-rule="nonzero"/></svg>