<svg version="1.1" viewBox="0.0 0.0 600.0 371.0" fill="none" stroke="none" stroke-linecap="square" stroke-miterlimit="10" width="600" height="371" xmlns:xlink="http://www.w3.org/1999/xlink" xmlns="http://www.w3.org/2000/svg"><path fill="#d9d9d9" d="M0 0L600.0 0L600.0 371.0L0 371.0L0 0Z" fill-rule="nonzero"/><path fill="#999999" d="M300.0 56.11375C325.78995 56.11375 351.22922 60.296165 374.3226 68.33296L300.0 172.97874Z" fill-rule="nonzero"/><path fill="#000000" d="M374.3226 68.33296C395.88446 75.836754 414.87225 86.51672 429.98337 99.64017L300.0 172.97874Z" fill-rule="nonzero"/><path fill="#f1c232" d="M429.98337 99.64017C435.7108 104.61423 440.8459 109.90867 445.33707 115.47027L300.0 172.97874Z" fill-rule="nonzero"/><path fill="#b30000" d="M466.95 198.02126C466.95 236.93434 439.28052 273.29486 393.1471 295.0058L393.1471 269.9633C439.28052 248.25235 466.95 211.89185 466.95 172.97874Z" fill-rule="nonzero"/><path fill="#ff0000" d="M445.33707 115.47027C488.24612 168.60635 465.51062 235.90817 393.1471 269.9633L300.0 172.97874Z" fill-rule="nonzero"/><path fill="#b36b00" d="M393.1471 295.0058C373.44742 304.2767 351.1499 310.50034 327.7421 313.26147L327.7421 288.219C351.1499 285.45782 373.44742 279.2342 393.1471 269.9633Z" fill-rule="nonzero"/><path fill="#ff9900" d="M393.1471 269.9633C373.44742 279.2342 351.1499 285.45782 327.7421 288.219L300.0 172.97874Z" fill-rule="nonzero"/><path fill="#ffffff" d="M277.7691 57.15447C285.13803 56.46143 292.56488 56.11375 300.0 56.11375L300.0 172.97874Z" fill-rule="nonzero"/><path fill="#9900ff" d="M211.52998 73.87161C231.6608 65.066216 254.24268 59.3671 277.7691 57.15447L300.0 172.97874Z" fill-rule="nonzero"/><path fill="#0000b3" d="M327.7421 313.26147C279.29736 318.97598 229.7161 309.46426 192.20213 287.25937C154.68819 265.05447 133.05 232.41068 133.05 198.02126L133.05 172.97874C133.05 207.36818 154.68819 240.01198 192.20213 262.21686C229.7161 284.42175 279.29736 293.93347 327.7421 288.219Z" fill-rule="nonzero"/><path fill="#0000ff" d="M327.7421 288.219C249.16666 297.48767 172.18634 266.59415 143.91287 214.44516C115.63939 162.29617 143.95473 103.4296 211.52998 73.87161L300.0 172.97874Z" fill-rule="nonzero"/><path fill="#000000" d="M322.30682 83.9052L322.68182 82.0927L329.2912 82.0927L328.99432 83.49895Q328.36932 83.99895 327.6037 85.01457Q326.8537 86.0302 326.19745 87.2802Q325.55682 88.5302 325.15057 89.67082Q324.57245 91.2177 324.44745 91.98332L322.57245 91.98332Q322.69745 91.23332 323.15057 89.92082Q323.71307 88.31145 324.55682 86.81145Q325.40057 85.29582 326.58807 83.9052L322.30682 83.9052ZM336.9162 84.4052L335.07245 84.56145Q335.02557 83.9677 334.7912 83.73332Q334.55682 83.48332 334.1662 83.48332Q333.6662 83.48332 333.2912 83.88957Q332.7287 84.45207 332.40057 85.7177Q333.02557 85.29582 333.74432 85.29582Q334.90057 85.29582 335.65057 86.0927Q336.40057 86.88957 336.40057 88.24895Q336.40057 89.3427 335.86932 90.31145Q335.3537 91.26457 334.55682 91.7177Q333.77557 92.1552 332.90057 92.1552Q332.07245 92.1552 331.38495 91.74895Q330.71307 91.32707 330.3537 90.51457Q329.99432 89.70207 329.99432 88.35832Q329.99432 85.67082 331.18182 83.79582Q332.36932 81.92082 334.32245 81.92082Q335.43182 81.92082 336.08807 82.54582Q336.75995 83.1552 336.9162 84.4052ZM331.86932 89.0302Q331.86932 89.82707 332.18182 90.20207Q332.50995 90.57707 332.96307 90.57707Q333.5412 90.57707 333.94745 90.04582Q334.50995 89.32707 334.50995 88.12395Q334.50995 87.3427 334.19745 86.9677Q333.88495 86.5927 333.44745 86.5927Q333.07245 86.5927 332.68182 86.88957Q332.30682 87.17082 332.08807 87.79582Q331.86932 88.4052 331.86932 89.0302Z" fill-rule="nonzero"/><path fill="#000000" d="M371.0957 102.26108L371.4707 100.44858L378.08008 100.44858L377.7832 101.85483Q377.1582 102.35483 376.39258 103.37045Q375.64258 104.38608 374.98633 105.63608Q374.3457 106.88608 373.93945 108.0267Q373.36133 109.57358 373.23633 110.3392L371.36133 110.3392Q371.48633 109.5892 371.93945 108.2767Q372.50195 106.66733 373.3457 105.16733Q374.18945 103.6517 375.37695 102.26108L371.0957 102.26108ZM379.29883 104.5892L379.67383 102.8392Q382.20508 101.72983 383.5957 100.26108L384.79883 100.26108L382.67383 110.3392L380.70508 110.3392L382.1582 103.38608Q381.54883 103.79233 380.73633 104.12045Q379.93945 104.44858 379.29883 104.5892Z" fill-rule="nonzero"/><path fill="#000000" d="M416.83994 191.80191L414.91806 191.50504Q415.15244 190.11441 415.9962 189.38004Q416.85556 188.63004 418.1212 188.63004Q419.52744 188.63004 420.3243 189.39566Q421.1212 190.14566 421.1212 191.31754Q421.1212 191.91129 420.8712 192.52066Q420.6368 193.11441 420.0743 193.77066Q419.66806 194.22379 418.7462 195.08316Q417.83994 195.92691 417.54306 196.23941Q417.2462 196.55191 416.96494 196.89566L420.4493 196.89566L420.0743 198.69254L413.98056 198.69254Q414.0743 197.95816 414.41806 197.28629Q414.7618 196.61441 415.2618 196.05191Q415.7618 195.47379 417.1212 194.19254Q418.1212 193.22379 418.3868 192.92691Q418.8712 192.39566 419.04306 192.00504Q419.23056 191.61441 419.23056 191.30191Q419.23056 190.80191 418.9337 190.48941Q418.6368 190.16129 418.16806 190.16129Q417.71494 190.16129 417.35556 190.52066Q417.0118 190.86441 416.83994 191.80191ZM425.46494 196.64566L421.52744 196.64566L421.85556 195.00504L427.27744 188.67691L428.98056 188.67691L427.65244 194.97379L428.8712 194.97379L428.52744 196.64566L427.3087 196.64566L426.8868 198.69254L425.02744 198.69254L425.46494 196.64566ZM425.8087 194.97379L426.46494 191.84879L423.8243 194.97379L425.8087 194.97379ZM437.1993 191.11441L435.35556 191.27066Q435.3087 190.67691 435.0743 190.44254Q434.83994 190.19254 434.4493 190.19254Q433.9493 190.19254 433.5743 190.59879Q433.0118 191.16129 432.6837 192.42691Q433.3087 192.00504 434.02744 192.00504Q435.1837 192.00504 435.9337 192.80191Q436.6837 193.59879 436.6837 194.95816Q436.6837 196.05191 436.15244 197.02066Q435.6368 197.97379 434.83994 198.42691Q434.0587 198.86441 433.1837 198.86441Q432.35556 198.86441 431.66806 198.45816Q430.9962 198.03629 430.6368 197.22379Q430.27744 196.41129 430.27744 195.06754Q430.27744 192.38004 431.46494 190.50504Q432.65244 188.63004 434.60556 188.63004Q435.71494 188.63004 436.3712 189.25504Q437.04306 189.86441 437.1993 191.11441ZM432.15244 195.73941Q432.15244 196.53629 432.46494 196.91129Q432.79306 197.28629 433.2462 197.28629Q433.8243 197.28629 434.23056 196.75504Q434.79306 196.03629 434.79306 194.83316Q434.79306 194.05191 434.48056 193.67691Q434.16806 193.30191 433.73056 193.30191Q433.35556 193.30191 432.96494 193.59879Q432.58994 193.88004 432.3712 194.50504Q432.15244 195.11441 432.15244 195.73941Z" fill-rule="nonzero"/><path fill="#000000" d="M339.65512 251.00967L340.03012 249.19717L346.6395 249.19717L346.34262 250.60342Q345.71762 251.10342 344.952 252.11905Q344.202 253.13467 343.54575 254.38467Q342.90512 255.63467 342.49887 256.7753Q341.92075 258.32217 341.79575 259.0878L339.92075 259.0878Q340.04575 258.3378 340.49887 257.0253Q341.06137 255.41592 341.90512 253.91592Q342.74887 252.4003 343.93637 251.00967L339.65512 251.00967ZM347.10825 255.82217Q347.10825 254.32217 347.62387 252.75967Q348.24887 250.86905 349.23325 249.94717Q350.21762 249.0253 351.42075 249.0253Q352.6395 249.0253 353.42075 249.91592Q354.202 250.79092 354.202 252.4628Q354.202 254.00967 353.62387 255.72842Q353.06137 257.43155 352.09262 258.35342Q351.12387 259.25967 349.90512 259.25967Q348.68637 259.25967 347.8895 258.38467Q347.10825 257.49405 347.10825 255.82217ZM349.03012 256.22842Q349.03012 257.0253 349.28012 257.35342Q349.54575 257.68155 349.96762 257.68155Q350.5145 257.68155 350.93637 257.18155Q351.49887 256.50967 351.93637 254.50967Q352.28012 252.93155 352.28012 252.00967Q352.28012 251.25967 352.0145 250.93155Q351.7645 250.60342 351.34262 250.60342Q350.827 250.60342 350.42075 251.10342Q349.827 251.82217 349.40512 253.6503Q349.03012 255.22842 349.03012 256.22842Z" fill-rule="nonzero"/><path fill="#000000" d="M174.48909 207.23723L170.55159 207.23723L170.87971 205.5966L176.30159 199.26848L178.00471 199.26848L176.67659 205.56535L177.89534 205.56535L177.55159 207.23723L176.33284 207.23723L175.91096 209.2841L174.05159 209.2841L174.48909 207.23723ZM174.83284 205.56535L175.48909 202.44035L172.84846 205.56535L174.83284 205.56535ZM179.05159 206.4091L180.95784 206.23723Q180.95784 206.37785 180.95784 206.44035Q180.95784 207.14348 181.25471 207.50285Q181.56721 207.8466 182.06721 207.8466Q182.77034 207.8466 183.33284 207.17473Q183.91096 206.50285 183.91096 205.33098Q183.91096 204.62785 183.58284 204.2841Q183.27034 203.92473 182.73909 203.92473Q182.34846 203.92473 181.98909 204.11223Q181.62971 204.2841 181.30159 204.64348L179.69221 204.51848L181.20784 199.39348L186.25471 199.39348L185.87971 201.19035L182.55159 201.19035L182.09846 202.73723Q182.37971 202.61223 182.66096 202.54973Q182.95784 202.4716 183.23909 202.4716Q184.37971 202.4716 185.11409 203.25285Q185.86409 204.01848 185.86409 205.31535Q185.86409 206.36223 185.34846 207.37785Q184.83284 208.37785 183.91096 208.92473Q182.98909 209.45598 181.98909 209.45598Q180.70784 209.45598 179.87971 208.62785Q179.06721 207.79973 179.05159 206.4091ZM186.87971 206.6591L188.75471 206.44035Q188.86409 207.23723 189.16096 207.54973Q189.47346 207.86223 189.98909 207.86223Q190.64534 207.86223 191.08284 207.4091Q191.53596 206.95598 191.53596 206.25285Q191.53596 205.62785 191.17659 205.26848Q190.81721 204.9091 190.22346 204.9091Q190.06721 204.9091 189.91096 204.94035L190.25471 203.31535Q190.34846 203.31535 190.44221 203.31535Q191.23909 203.31535 191.64534 202.92473Q192.05159 202.51848 192.05159 201.8466Q192.05159 201.3466 191.77034 201.08098Q191.50471 200.79973 191.05159 200.79973Q190.62971 200.79973 190.28596 201.11223Q189.95784 201.4091 189.75471 202.17473L187.97346 201.81535Q188.30159 200.70598 188.91096 200.11223Q189.83284 199.2216 191.19221 199.2216Q192.56721 199.2216 193.28596 199.98723Q194.00471 200.75285 194.00471 201.83098Q194.00471 202.61223 193.53596 203.23723Q193.08284 203.86223 192.28596 204.1591Q192.92659 204.50285 193.22346 205.0341Q193.52034 205.56535 193.52034 206.14348Q193.52034 207.25285 192.73909 208.19035Q191.66096 209.45598 189.97346 209.45598Q188.69221 209.45598 187.86409 208.73723Q187.05159 208.00285 186.87971 206.6591Z" fill-rule="nonzero"/><path fill="#000000" d="M251.05522 87.58295L251.43022 85.77045L258.0396 85.77045L257.74274 87.1767Q257.11774 87.6767 256.3521 88.69232Q255.6021 89.70795 254.94585 90.95795Q254.30522 92.20795 253.89897 93.34857Q253.32085 94.89545 253.19585 95.66107L251.32085 95.66107Q251.44585 94.91107 251.89897 93.59857Q252.46147 91.9892 253.30522 90.4892Q254.14897 88.97357 255.33647 87.58295L251.05522 87.58295ZM258.50836 92.39545Q258.50836 90.89545 259.024 89.33295Q259.649 87.44232 260.63336 86.52045Q261.61774 85.59857 262.82086 85.59857Q264.0396 85.59857 264.82086 86.4892Q265.6021 87.3642 265.6021 89.03607Q265.6021 90.58295 265.024 92.3017Q264.4615 94.00482 263.49274 94.9267Q262.524 95.83295 261.30524 95.83295Q260.0865 95.83295 259.2896 94.95795Q258.50836 94.06732 258.50836 92.39545ZM260.43024 92.8017Q260.43024 93.59857 260.68024 93.9267Q260.94586 94.25482 261.36774 94.25482Q261.9146 94.25482 262.3365 93.75482Q262.899 93.08295 263.3365 91.08295Q263.68024 89.50482 263.68024 88.58295Q263.68024 87.83295 263.4146 87.50482Q263.1646 87.1767 262.74274 87.1767Q262.2271 87.1767 261.82086 87.6767Q261.2271 88.39545 260.80524 90.22357Q260.43024 91.8017 260.43024 92.8017Z" fill-rule="nonzero"/><path fill="#1a1a1a" d="M19.425 45.37105L19.425 36.7773L22.20625 36.7773Q23.784374 36.7773 24.26875 36.9023Q25.003124 37.105427 25.503124 37.761677Q26.003124 38.4023 26.003124 39.417927Q26.003124 40.2148 25.70625 40.761677Q25.425 41.292927 24.9875 41.605427Q24.55 41.9023 24.08125 42.011677Q23.471874 42.136677 22.284374 42.136677L21.159374 42.136677L21.159374 45.37105L19.425 45.37105ZM21.159374 38.230427L21.159374 40.667927L22.1125 40.667927Q23.128124 40.667927 23.471874 40.542927Q23.83125 40.4023 24.01875 40.12105Q24.221874 39.824177 24.221874 39.449177Q24.221874 38.980427 23.940624 38.68355Q23.659374 38.37105 23.2375 38.292927Q22.940624 38.230427 22.003124 38.230427L21.159374 38.230427ZM26.9875 42.574177L28.675 42.417927Q28.83125 43.261677 29.284374 43.667927Q29.753124 44.05855 30.55 44.05855Q31.378124 44.05855 31.8 43.7148Q32.2375 43.355427 32.2375 42.87105Q32.2375 42.574177 32.05 42.355427Q31.878124 42.136677 31.425 41.980427Q31.128124 41.87105 30.05 41.605427Q28.64375 41.261677 28.08125 40.761677Q27.3 40.042927 27.3 39.0273Q27.3 38.37105 27.659374 37.80855Q28.034374 37.230427 28.7375 36.93355Q29.440624 36.636677 30.425 36.636677Q32.05 36.636677 32.8625 37.355427Q33.675 38.05855 33.721874 39.230427L31.9875 39.30855Q31.878124 38.6523 31.503124 38.37105Q31.14375 38.074177 30.409374 38.074177Q29.659374 38.074177 29.221874 38.386677Q28.95625 38.574177 28.95625 38.917927Q28.95625 39.2148 29.20625 39.43355Q29.534374 39.7148 30.8 40.011677Q32.065624 40.30855 32.675 40.636677Q33.284374 40.949177 33.628124 41.511677Q33.971874 42.05855 33.971874 42.87105Q33.971874 43.605427 33.55 44.261677Q33.14375 44.9023 32.39375 45.2148Q31.64375 45.5273 30.534374 45.5273Q28.89375 45.5273 28.01875 44.7773Q27.159374 44.011677 26.9875 42.574177ZM35.08125 43.167927L36.721874 42.99605Q36.8 43.542927 37.14375 43.87105Q37.4875 44.199177 37.940624 44.199177Q38.45625 44.199177 38.815624 43.7773Q39.175 43.355427 39.175 42.511677Q39.175 41.730427 38.815624 41.3398Q38.45625 40.93355 37.89375 40.93355Q37.175 40.93355 36.6125 41.55855L35.284374 41.37105L36.128124 36.9023L40.4875 36.9023L40.4875 38.43355L37.378124 38.43355L37.1125 39.9023Q37.675 39.62105 38.2375 39.62105Q39.33125 39.62105 40.096874 40.417927Q40.8625 41.2148 40.8625 42.480427Q40.8625 43.542927 40.253124 44.386677Q39.409374 45.511677 37.925 45.511677Q36.7375 45.511677 35.9875 44.886677Q35.2375 44.24605 35.08125 43.167927Z" fill-rule="nonzero"/><path fill="#787878" d="M24.628124 60.8398L24.628124 62.37105L18.846874 62.37105Q18.940624 61.49605 19.409374 60.730427Q19.878124 59.949177 21.26875 58.667927Q22.378124 57.636677 22.628124 57.261677Q22.971874 56.74605 22.971874 56.24605Q22.971874 55.699177 22.675 55.4023Q22.378124 55.105427 21.8625 55.105427Q21.346874 55.105427 21.034374 55.417927Q20.7375 55.730427 20.690624 56.449177L19.05 56.292927Q19.190624 54.93355 19.95625 54.3398Q20.7375 53.74605 21.89375 53.74605Q23.175 53.74605 23.89375 54.43355Q24.628124 55.12105 24.628124 56.136677Q24.628124 56.7148 24.409374 57.24605Q24.20625 57.761677 23.753124 58.3398Q23.45625 58.7148 22.675 59.43355Q21.89375 60.1523 21.690624 60.386677Q21.4875 60.62105 21.346874 60.8398L24.628124 60.8398ZM26.409374 62.37105L26.409374 60.730427L28.065624 60.730427L28.065624 62.37105L26.409374 62.37105ZM33.26875 62.37105L31.628124 62.37105L31.628124 56.167927Q30.721874 57.011677 29.503124 57.417927L29.503124 55.917927Q30.14375 55.7148 30.89375 55.12105Q31.659374 54.5273 31.940624 53.74605L33.26875 53.74605L33.26875 62.37105ZM36.065624 55.9023Q36.065624 54.74605 36.565624 54.199177Q37.08125 53.636677 37.95625 53.636677Q38.846874 53.636677 39.346874 54.199177Q39.8625 54.74605 39.8625 55.9023Q39.8625 57.05855 39.346874 57.62105Q38.846874 58.167927 37.9875 58.167927Q37.08125 58.167927 36.565624 57.62105Q36.065624 57.05855 36.065624 55.9023ZM37.3625 55.886677Q37.3625 56.730427 37.55 57.011677Q37.690624 57.230427 37.95625 57.230427Q38.221874 57.230427 38.3625 57.011677Q38.55 56.730427 38.55 55.886677Q38.55 55.05855 38.3625 54.7773Q38.221874 54.55855 37.95625 54.55855Q37.690624 54.55855 37.55 54.761677Q37.3625 55.05855 37.3625 55.886677ZM39.20625 62.699177L37.9875 62.699177L42.565624 53.636677L43.753124 53.636677L39.20625 62.699177ZM41.8625 60.449177Q41.8625 59.292927 42.3625 58.730427Q42.878124 58.167927 43.753124 58.167927Q44.64375 58.167927 45.14375 58.730427Q45.659374 59.292927 45.659374 60.449177Q45.659374 61.605427 45.14375 62.167927Q44.64375 62.7148 43.784374 62.7148Q42.878124 62.7148 42.3625 62.167927Q41.8625 61.605427 41.8625 60.449177ZM43.14375 60.43355Q43.14375 61.2773 43.346874 61.55855Q43.4875 61.7773 43.753124 61.7773Q44.01875 61.7773 44.159374 61.55855Q44.346874 61.2773 44.346874 60.43355Q44.346874 59.605427 44.159374 59.30855Q44.01875 59.105427 43.753124 59.105427Q43.4875 59.105427 43.346874 59.30855Q43.14375 59.605427 43.14375 60.43355Z" fill-rule="nonzero"/><path stroke="#4f4f4f" stroke-width="1.0" stroke-linecap="butt" d="M18.55 49.87105L127.05 49.87105L289.41675 62.204445" fill-rule="nonzero"/><path fill="#787878" d="M291.41675 62.204445C291.41675 61.099876 290.5213 60.204445 289.41675 60.204445C288.31216 60.204445 287.41675 61.099876 287.41675 62.204445C287.41675 63.309017 288.31216 64.204445 289.41675 64.204445C290.5213 64.204445 291.41675 63.309017 291.41675 62.204445" fill-rule="nonzero"/><path fill="#1a1a1a" d="M21.6125 76.37105L18.55 67.7773L20.425 67.7773L22.596874 74.13667L24.70625 67.7773L26.55 67.7773L23.471874 76.37105L21.6125 76.37105ZM27.425 76.37105L27.425 67.7773L31.08125 67.7773Q32.45625 67.7773 33.08125 68.01167Q33.70625 68.24605 34.08125 68.8398Q34.45625 69.43355 34.45625 70.18355Q34.45625 71.1523 33.878124 71.79292Q33.315624 72.41792 32.190624 72.57417Q32.753124 72.9023 33.1125 73.30855Q33.4875 73.69917 34.096874 74.69917L35.159374 76.37105L33.08125 76.37105L31.83125 74.49605Q31.159374 73.49605 30.909374 73.24605Q30.659374 72.98042 30.378124 72.88667Q30.1125 72.7773 29.51875 72.7773L29.159374 72.7773L29.159374 76.37105L27.425 76.37105ZM29.159374 71.41792L30.440624 71.41792Q31.690624 71.41792 32.003124 71.30855Q32.315624 71.19917 32.4875 70.94917Q32.675 70.68355 32.675 70.29292Q32.675 69.87105 32.440624 69.60542Q32.20625 69.3398 31.784374 69.26167Q31.565624 69.23042 30.51875 69.23042L29.159374 69.23042L29.159374 71.41792Z" fill-rule="nonzero"/><path fill="#787878" d="M24.64375 86.88667L23.05 87.05855Q22.9875 86.57417 22.7375 86.3398Q22.4875 86.10542 22.096874 86.10542Q21.58125 86.10542 21.221874 86.57417Q20.8625 87.04292 20.76875 88.51167Q21.378124 87.79292 22.3 87.79292Q23.33125 87.79292 24.065624 88.57417Q24.8 89.35542 24.8 90.60542Q24.8 91.91792 24.01875 92.7148Q23.253124 93.51167 22.034374 93.51167Q20.7375 93.51167 19.89375 92.51167Q19.065624 91.49605 19.065624 89.19917Q19.065624 86.82417 19.925 85.79292Q20.8 84.74605 22.20625 84.74605Q23.175 84.74605 23.815624 85.29292Q24.45625 85.8398 24.64375 86.88667ZM20.909374 90.48042Q20.909374 91.2773 21.26875 91.7148Q21.64375 92.1523 22.1125 92.1523Q22.58125 92.1523 22.878124 91.79292Q23.190624 91.43355 23.190624 90.62105Q23.190624 89.7773 22.8625 89.4023Q22.534374 89.01167 22.034374 89.01167Q21.565624 89.01167 21.2375 89.38667Q20.909374 89.74605 20.909374 90.48042ZM26.409374 93.37105L26.409374 91.73042L28.065624 91.73042L28.065624 93.37105L26.409374 93.37105ZM30.471874 88.73042Q29.83125 88.4648 29.534374 87.99605Q29.253124 87.5273 29.253124 86.9648Q29.253124 85.99605 29.925 85.37105Q30.596874 84.74605 31.83125 84.74605Q33.05 84.74605 33.721874 85.37105Q34.409374 85.99605 34.409374 86.9648Q34.409374 87.55855 34.096874 88.0273Q33.784374 88.49605 33.221874 88.73042Q33.940624 89.0273 34.315624 89.57417Q34.690624 90.12105 34.690624 90.8398Q34.690624 92.0273 33.925 92.7773Q33.175 93.5273 31.909374 93.5273Q30.7375 93.5273 29.95625 92.9023Q29.034374 92.18355 29.034374 90.91792Q29.034374 90.2148 29.378124 89.63667Q29.721874 89.05855 30.471874 88.73042ZM30.815624 87.07417Q30.815624 87.57417 31.08125 87.85542Q31.3625 88.12105 31.83125 88.12105Q32.3 88.12105 32.58125 87.8398Q32.8625 87.55855 32.8625 87.07417Q32.8625 86.60542 32.58125 86.3398Q32.3 86.05855 31.846874 86.05855Q31.378124 86.05855 31.096874 86.3398Q30.815624 86.62105 30.815624 87.07417ZM30.659374 90.76167Q30.659374 91.43355 31.003124 91.82417Q31.3625 92.19917 31.878124 92.19917Q32.39375 92.19917 32.721874 91.8398Q33.05 91.4648 33.05 90.7773Q33.05 90.16792 32.70625 89.80855Q32.378124 89.43355 31.8625 89.43355Q31.253124 89.43355 30.95625 89.85542Q30.659374 90.2773 30.659374 90.76167ZM36.065624 86.9023Q36.065624 85.74605 36.565624 85.19917Q37.08125 84.63667 37.95625 84.63667Q38.846874 84.63667 39.346874 85.19917Q39.8625 85.74605 39.8625 86.9023Q39.8625 88.05855 39.346874 88.62105Q38.846874 89.16792 37.9875 89.16792Q37.08125 89.16792 36.565624 88.62105Q36.065624 88.05855 36.065624 86.9023ZM37.3625 86.88667Q37.3625 87.73042 37.55 88.01167Q37.690624 88.23042 37.95625 88.23042Q38.221874 88.23042 38.3625 88.01167Q38.55 87.73042 38.55 86.88667Q38.55 86.05855 38.3625 85.7773Q38.221874 85.55855 37.95625 85.55855Q37.690624 85.55855 37.55 85.76167Q37.3625 86.05855 37.3625 86.88667ZM39.20625 93.69917L37.9875 93.69917L42.565624 84.63667L43.753124 84.63667L39.20625 93.69917ZM41.8625 91.44917Q41.8625 90.29292 42.3625 89.73042Q42.878124 89.16792 43.753124 89.16792Q44.64375 89.16792 45.14375 89.73042Q45.659374 90.29292 45.659374 91.44917Q45.659374 92.60542 45.14375 93.16792Q44.64375 93.7148 43.784374 93.7148Q42.878124 93.7148 42.3625 93.16792Q41.8625 92.60542 41.8625 91.44917ZM43.14375 91.43355Q43.14375 92.2773 43.346874 92.55855Q43.4875 92.7773 43.753124 92.7773Q44.01875 92.7773 44.159374 92.55855Q44.346874 92.2773 44.346874 91.43355Q44.346874 90.60542 44.159374 90.30855Q44.01875 90.10542 43.753124 90.10542Q43.4875 90.10542 43.346874 90.30855Q43.14375 90.60542 43.14375 91.43355Z" fill-rule="nonzero"/><path stroke="#4f4f4f" stroke-width="1.0" stroke-linecap="butt" d="M18.55 80.87105L127.05 80.87105L246.20738 68.53765" fill-rule="nonzero"/><path fill="#787878" d="M248.20738 68.53765C248.20738 67.43308 247.31195 66.53765 246.20738 66.53765C245.10281 66.53765 244.20738 67.43308 244.20738 68.53765C244.20738 69.64223 245.10281 70.53765 246.20738 70.53765C247.31195 70.53765 248.20738 69.64223 248.20738 68.53765" fill-rule="nonzero"/><path fill="#1a1a1a" d="M19.425 207.87184L19.425 199.27809L22.20625 199.27809Q23.784374 199.27809 24.26875 199.40309Q25.003124 199.60622 25.503124 200.26247Q26.003124 200.90309 26.003124 201.91872Q26.003124 202.71559 25.70625 203.26247Q25.425 203.79372 24.9875 204.10622Q24.55 204.40309 24.08125 204.51247Q23.471874 204.63747 22.284374 204.63747L21.159374 204.63747L21.159374 207.87184L19.425 207.87184ZM21.159374 200.73122L21.159374 203.16872L22.1125 203.16872Q23.128124 203.16872 23.471874 203.04372Q23.83125 202.90309 24.01875 202.62184Q24.221874 202.32497 24.221874 201.94997Q24.221874 201.48122 23.940624 201.18434Q23.659374 200.87184 23.2375 200.79372Q22.940624 200.73122 22.003124 200.73122L21.159374 200.73122ZM26.9875 205.07497L28.675 204.91872Q28.83125 205.76247 29.284374 206.16872Q29.753124 206.55934 30.55 206.55934Q31.378124 206.55934 31.8 206.21559Q32.2375 205.85622 32.2375 205.37184Q32.2375 205.07497 32.05 204.85622Q31.878124 204.63747 31.425 204.48122Q31.128124 204.37184 30.05 204.10622Q28.64375 203.76247 28.08125 203.26247Q27.3 202.54372 27.3 201.52809Q27.3 200.87184 27.659374 200.30934Q28.034374 199.73122 28.7375 199.43434Q29.440624 199.13747 30.425 199.13747Q32.05 199.13747 32.8625 199.85622Q33.675 200.55934 33.721874 201.73122L31.9875 201.80934Q31.878124 201.15309 31.503124 200.87184Q31.14375 200.57497 30.409374 200.57497Q29.659374 200.57497 29.221874 200.88747Q28.95625 201.07497 28.95625 201.41872Q28.95625 201.71559 29.20625 201.93434Q29.534374 202.21559 30.8 202.51247Q32.065624 202.80934 32.675 203.13747Q33.284374 203.44997 33.628124 204.01247Q33.971874 204.55934 33.971874 205.37184Q33.971874 206.10622 33.55 206.76247Q33.14375 207.40309 32.39375 207.71559Q31.64375 208.02809 30.534374 208.02809Q28.89375 208.02809 28.01875 207.27809Q27.159374 206.51247 26.9875 205.07497ZM38.284374 207.87184L38.284374 206.13747L34.76875 206.13747L34.76875 204.69997L38.503124 199.24684L39.878124 199.24684L39.878124 204.69997L40.95625 204.69997L40.95625 206.13747L39.878124 206.13747L39.878124 207.87184L38.284374 207.87184ZM38.284374 204.69997L38.284374 201.76247L36.315624 204.69997L38.284374 204.69997Z" fill-rule="nonzero"/><path fill="#787878" d="M22.284374 224.87184L22.284374 223.13747L18.76875 223.13747L18.76875 221.69997L22.503124 216.24684L23.878124 216.24684L23.878124 221.69997L24.95625 221.69997L24.95625 223.13747L23.878124 223.13747L23.878124 224.87184L22.284374 224.87184ZM22.284374 221.69997L22.284374 218.76247L20.315624 221.69997L22.284374 221.69997ZM26.003124 222.59059L27.596874 222.40309Q27.675 223.01247 28.003124 223.34059Q28.346874 223.65309 28.815624 223.65309Q29.33125 223.65309 29.675 223.26247Q30.01875 222.87184 30.01875 222.21559Q30.01875 221.60622 29.675 221.24684Q29.346874 220.87184 28.878124 220.87184Q28.55 220.87184 28.1125 220.99684L28.3 219.65309Q28.971874 219.66872 29.315624 219.37184Q29.675 219.05934 29.675 218.54372Q29.675 218.12184 29.409374 217.87184Q29.159374 217.60622 28.721874 217.60622Q28.3 217.60622 28.003124 217.90309Q27.70625 218.18434 27.64375 218.74684L26.128124 218.49684Q26.284374 217.71559 26.596874 217.24684Q26.925 216.77809 27.4875 216.51247Q28.065624 216.24684 28.76875 216.24684Q29.9875 216.24684 30.721874 217.01247Q31.315624 217.65309 31.315624 218.44997Q31.315624 219.57497 30.08125 220.24684Q30.83125 220.41872 31.26875 220.96559Q31.70625 221.51247 31.70625 222.29372Q31.70625 223.41872 30.878124 224.21559Q30.05 225.01247 28.83125 225.01247Q27.659374 225.01247 26.89375 224.34059Q26.128124 223.66872 26.003124 222.59059ZM33.409374 224.87184L33.409374 223.23122L35.065624 223.23122L35.065624 224.87184L33.409374 224.87184ZM37.471874 220.23122Q36.83125 219.96559 36.534374 219.49684Q36.253124 219.02809 36.253124 218.46559Q36.253124 217.49684 36.925 216.87184Q37.596874 216.24684 38.83125 216.24684Q40.05 216.24684 40.721874 216.87184Q41.409374 217.49684 41.409374 218.46559Q41.409374 219.05934 41.096874 219.52809Q40.784374 219.99684 40.221874 220.23122Q40.940624 220.52809 41.315624 221.07497Q41.690624 221.62184 41.690624 222.34059Q41.690624 223.52809 40.925 224.27809Q40.175 225.02809 38.909374 225.02809Q37.7375 225.02809 36.95625 224.40309Q36.034374 223.68434 36.034374 222.41872Q36.034374 221.71559 36.378124 221.13747Q36.721874 220.55934 37.471874 220.23122ZM37.815624 218.57497Q37.815624 219.07497 38.08125 219.35622Q38.3625 219.62184 38.83125 219.62184Q39.3 219.62184 39.58125 219.34059Q39.8625 219.05934 39.8625 218.57497Q39.8625 218.10622 39.58125 217.84059Q39.3 217.55934 38.846874 217.55934Q38.378124 217.55934 38.096874 217.84059Q37.815624 218.12184 37.815624 218.57497ZM37.659374 222.26247Q37.659374 222.93434 38.003124 223.32497Q38.3625 223.69997 38.878124 223.69997Q39.39375 223.69997 39.721874 223.34059Q40.05 222.96559 40.05 222.27809Q40.05 221.66872 39.70625 221.30934Q39.378124 220.93434 38.8625 220.93434Q38.253124 220.93434 37.95625 221.35622Q37.659374 221.77809 37.659374 222.26247ZM43.065624 218.40309Q43.065624 217.24684 43.565624 216.69997Q44.08125 216.13747 44.95625 216.13747Q45.846874 216.13747 46.346874 216.69997Q46.8625 217.24684 46.8625 218.40309Q46.8625 219.55934 46.346874 220.12184Q45.846874 220.66872 44.9875 220.66872Q44.08125 220.66872 43.565624 220.12184Q43.065624 219.55934 43.065624 218.40309ZM44.3625 218.38747Q44.3625 219.23122 44.55 219.51247Q44.690624 219.73122 44.95625 219.73122Q45.221874 219.73122 45.3625 219.51247Q45.55 219.23122 45.55 218.38747Q45.55 217.55934 45.3625 217.27809Q45.221874 217.05934 44.95625 217.05934Q44.690624 217.05934 44.55 217.26247Q44.3625 217.55934 44.3625 218.38747ZM46.20625 225.19997L44.9875 225.19997L49.565624 216.13747L50.753124 216.13747L46.20625 225.19997ZM48.8625 222.94997Q48.8625 221.79372 49.3625 221.23122Q49.878124 220.66872 50.753124 220.66872Q51.64375 220.66872 52.14375 221.23122Q52.659374 221.79372 52.659374 222.94997Q52.659374 224.10622 52.14375 224.66872Q51.64375 225.21559 50.784374 225.21559Q49.878124 225.21559 49.3625 224.66872Q48.8625 224.10622 48.8625 222.94997ZM50.14375 222.93434Q50.14375 223.77809 50.346874 224.05934Q50.4875 224.27809 50.753124 224.27809Q51.01875 224.27809 51.159374 224.05934Q51.346874 223.77809 51.346874 222.93434Q51.346874 222.10622 51.159374 221.80934Q51.01875 221.60622 50.753124 221.60622Q50.4875 221.60622 50.346874 221.80934Q50.14375 222.10622 50.14375 222.93434Z" fill-rule="nonzero"/><path stroke="#4f4f4f" stroke-width="1.0" stroke-linecap="butt" d="M18.55 212.37184L127.05 212.37184L151.71722 212.37184" fill-rule="nonzero"/><path fill="#787878" d="M153.71722 212.37184C153.71722 211.26727 152.8218 210.37184 151.71722 210.37184C150.61266 210.37184 149.71722 211.26727 149.71722 212.37184C149.71722 213.47641 150.61266 214.37184 151.71722 214.37184C152.8218 214.37184 153.71722 213.47641 153.71722 212.37184" fill-rule="nonzero"/><path fill="#1a1a1a" d="M559.325 52.25755L559.325 43.6638L562.10626 43.6638Q563.6844 43.6638 564.16876 43.7888Q564.90314 43.991924 565.40314 44.648174Q565.90314 45.2888 565.90314 46.304424Q565.90314 47.1013 565.60626 47.648174Q565.325 48.179424 564.8875 48.491924Q564.45 48.7888 563.98126 48.898174Q563.3719 49.023174 562.1844 49.023174L561.0594 49.023174L561.0594 52.25755L559.325 52.25755ZM561.0594 45.116924L561.0594 47.554424L562.0125 47.554424Q563.02814 47.554424 563.3719 47.429424Q563.73126 47.2888 563.91876 47.00755Q564.1219 46.710674 564.1219 46.335674Q564.1219 45.866924 563.84064 45.57005Q563.5594 45.25755 563.1375 45.179424Q562.84064 45.116924 561.90314 45.116924L561.0594 45.116924ZM566.8875 49.460674L568.575 49.304424Q568.73126 50.148174 569.1844 50.554424Q569.65314 50.94505 570.45 50.94505Q571.27814 50.94505 571.7 50.6013Q572.1375 50.241924 572.1375 49.75755Q572.1375 49.460674 571.95 49.241924Q571.77814 49.023174 571.325 48.866924Q571.02814 48.75755 569.95 48.491924Q568.54376 48.148174 567.98126 47.648174Q567.2 46.929424 567.2 45.9138Q567.2 45.25755 567.5594 44.69505Q567.9344 44.116924 568.6375 43.82005Q569.34064 43.523174 570.325 43.523174Q571.95 43.523174 572.7625 44.241924Q573.575 44.94505 573.6219 46.116924L571.8875 46.19505Q571.77814 45.5388 571.40314 45.25755Q571.04376 44.960674 570.3094 44.960674Q569.5594 44.960674 569.1219 45.273174Q568.85626 45.460674 568.85626 45.804424Q568.85626 46.1013 569.10626 46.32005Q569.4344 46.6013 570.7 46.898174Q571.96564 47.19505 572.575 47.523174Q573.1844 47.835674 573.52814 48.398174Q573.8719 48.94505 573.8719 49.75755Q573.8719 50.491924 573.45 51.148174Q573.04376 51.7888 572.29376 52.1013Q571.54376 52.4138 570.4344 52.4138Q568.79376 52.4138 567.91876 51.6638Q567.0594 50.898174 566.8875 49.460674ZM579.16876 52.25755L577.52814 52.25755L577.52814 46.054424Q576.6219 46.898174 575.40314 47.304424L575.40314 45.804424Q576.04376 45.6013 576.79376 45.00755Q577.5594 44.4138 577.84064 43.63255L579.16876 43.63255L579.16876 52.25755Z" fill-rule="nonzero"/><path fill="#787878" d="M555.96564 62.320053L555.96564 60.788803L561.59064 60.788803L561.59064 61.976303Q560.8875 62.663803 560.16876 63.945053Q559.45 65.2263 559.075 66.67943Q558.7 68.11693 558.7 69.25755L557.1219 69.25755Q557.15314 67.4763 557.84064 65.63255Q558.54376 63.77318 559.7 62.320053L555.96564 62.320053ZM563.3094 69.25755L563.3094 67.61693L564.96564 67.61693L564.96564 69.25755L563.3094 69.25755ZM565.90314 66.9763L567.4969 66.7888Q567.575 67.39818 567.90314 67.7263Q568.2469 68.0388 568.71564 68.0388Q569.23126 68.0388 569.575 67.64818Q569.91876 67.25755 569.91876 66.6013Q569.91876 65.99193 569.575 65.63255Q569.2469 65.25755 568.77814 65.25755Q568.45 65.25755 568.0125 65.38255L568.2 64.0388Q568.8719 64.05443 569.21564 63.757553Q569.575 63.445053 569.575 62.92943Q569.575 62.507553 569.3094 62.257553Q569.0594 61.99193 568.6219 61.99193Q568.2 61.99193 567.90314 62.288803Q567.60626 62.570053 567.54376 63.132553L566.02814 62.882553Q566.1844 62.101303 566.4969 61.632553Q566.825 61.163803 567.3875 60.89818Q567.96564 60.632553 568.66876 60.632553Q569.8875 60.632553 570.6219 61.39818Q571.21564 62.038803 571.21564 62.83568Q571.21564 63.96068 569.98126 64.63255Q570.73126 64.80443 571.16876 65.3513Q571.60626 65.89818 571.60626 66.67943Q571.60626 67.80443 570.77814 68.6013Q569.95 69.39818 568.73126 69.39818Q567.5594 69.39818 566.79376 68.7263Q566.02814 68.05443 565.90314 66.9763ZM572.96564 62.788803Q572.96564 61.632553 573.46564 61.08568Q573.98126 60.52318 574.85626 60.52318Q575.7469 60.52318 576.2469 61.08568Q576.7625 61.632553 576.7625 62.788803Q576.7625 63.945053 576.2469 64.50755Q575.7469 65.05443 574.8875 65.05443Q573.98126 65.05443 573.46564 64.50755Q572.96564 63.945053 572.96564 62.788803ZM574.2625 62.77318Q574.2625 63.61693 574.45 63.89818Q574.59064 64.11693 574.85626 64.11693Q575.1219 64.11693 575.2625 63.89818Q575.45 63.61693 575.45 62.77318Q575.45 61.945053 575.2625 61.663803Q575.1219 61.445053 574.85626 61.445053Q574.59064 61.445053 574.45 61.64818Q574.2625 61.945053 574.2625 62.77318ZM576.10626 69.58568L574.8875 69.58568L579.46564 60.52318L580.65314 60.52318L576.10626 69.58568ZM578.7625 67.33568Q578.7625 66.17943 579.2625 65.61693Q579.77814 65.05443 580.65314 65.05443Q581.54376 65.05443 582.04376 65.61693Q582.5594 66.17943 582.5594 67.33568Q582.5594 68.49193 582.04376 69.05443Q581.54376 69.6013 580.6844 69.6013Q579.77814 69.6013 579.2625 69.05443Q578.7625 68.49193 578.7625 67.33568ZM580.04376 67.32005Q580.04376 68.1638 580.2469 68.44505Q580.3875 68.6638 580.65314 68.6638Q580.91876 68.6638 581.0594 68.44505Q581.2469 68.1638 581.2469 67.32005Q581.2469 66.49193 581.0594 66.19505Q580.91876 65.99193 580.65314 65.99193Q580.3875 65.99193 580.2469 66.19505Q580.04376 66.49193 580.04376 67.32005Z" fill-rule="nonzero"/><path stroke="#4f4f4f" stroke-width="1.0" stroke-linecap="butt" d="M581.45 56.75755L472.95 56.75755L336.2639 64.89802" fill-rule="nonzero"/><path fill="#787878" d="M338.2639 64.89802C338.2639 63.793446 337.36847 62.898018 336.2639 62.898018C335.15933 62.898018 334.2639 63.793446 334.2639 64.89802C334.2639 66.00259 335.15933 66.89802 336.2639 66.89802C337.36847 66.89802 338.2639 66.00259 338.2639 64.89802" fill-rule="nonzero"/><path fill="#1a1a1a" d="M559.325 83.25755L559.325 74.6638L562.10626 74.6638Q563.6844 74.6638 564.16876 74.7888Q564.90314 74.99193 565.40314 75.64818Q565.90314 76.2888 565.90314 77.30443Q565.90314 78.1013 565.60626 78.64818Q565.325 79.17943 564.8875 79.49193Q564.45 79.7888 563.98126 79.89818Q563.3719 80.02318 562.1844 80.02318L561.0594 80.02318L561.0594 83.25755L559.325 83.25755ZM561.0594 76.11693L561.0594 78.55443L562.0125 78.55443Q563.02814 78.55443 563.3719 78.42943Q563.73126 78.2888 563.91876 78.00755Q564.1219 77.71068 564.1219 77.33568Q564.1219 76.86693 563.84064 76.57005Q563.5594 76.25755 563.1375 76.17943Q562.84064 76.11693 561.90314 76.11693L561.0594 76.11693ZM566.8875 80.46068L568.575 80.30443Q568.73126 81.14818 569.1844 81.55443Q569.65314 81.94505 570.45 81.94505Q571.27814 81.94505 571.7 81.6013Q572.1375 81.24193 572.1375 80.75755Q572.1375 80.46068 571.95 80.24193Q571.77814 80.02318 571.325 79.86693Q571.02814 79.75755 569.95 79.49193Q568.54376 79.14818 567.98126 78.64818Q567.2 77.92943 567.2 76.9138Q567.2 76.25755 567.5594 75.69505Q567.9344 75.11693 568.6375 74.82005Q569.34064 74.52318 570.325 74.52318Q571.95 74.52318 572.7625 75.24193Q573.575 75.94505 573.6219 77.11693L571.8875 77.19505Q571.77814 76.5388 571.40314 76.25755Q571.04376 75.96068 570.3094 75.96068Q569.5594 75.96068 569.1219 76.27318Q568.85626 76.46068 568.85626 76.80443Q568.85626 77.1013 569.10626 77.32005Q569.4344 77.6013 570.7 77.89818Q571.96564 78.19505 572.575 78.52318Q573.1844 78.83568 573.52814 79.39818Q573.8719 79.94505 573.8719 80.75755Q573.8719 81.49193 573.45 82.14818Q573.04376 82.7888 572.29376 83.1013Q571.54376 83.4138 570.4344 83.4138Q568.79376 83.4138 567.91876 82.6638Q567.0594 81.89818 566.8875 80.46068ZM580.52814 81.7263L580.52814 83.25755L574.7469 83.25755Q574.84064 82.38255 575.3094 81.61693Q575.77814 80.83568 577.16876 79.55443Q578.27814 78.52318 578.52814 78.14818Q578.8719 77.63255 578.8719 77.13255Q578.8719 76.58568 578.575 76.2888Q578.27814 75.99193 577.7625 75.99193Q577.2469 75.99193 576.9344 76.30443Q576.6375 76.61693 576.59064 77.33568L574.95 77.17943Q575.09064 75.82005 575.85626 75.2263Q576.6375 74.63255 577.79376 74.63255Q579.075 74.63255 579.79376 75.32005Q580.52814 76.00755 580.52814 77.02318Q580.52814 77.6013 580.3094 78.13255Q580.10626 78.64818 579.65314 79.2263Q579.35626 79.6013 578.575 80.32005Q577.79376 81.0388 577.59064 81.27318Q577.3875 81.50755 577.2469 81.7263L580.52814 81.7263Z" fill-rule="nonzero"/><path fill="#787878" d="M561.54376 93.77318L559.95 93.94505Q559.8875 93.46068 559.6375 93.2263Q559.3875 92.99193 558.9969 92.99193Q558.48126 92.99193 558.1219 93.46068Q557.7625 93.92943 557.66876 95.39818Q558.27814 94.67943 559.2 94.67943Q560.23126 94.67943 560.96564 95.46068Q561.7 96.24193 561.7 97.49193Q561.7 98.80443 560.91876 99.6013Q560.15314 100.39818 558.9344 100.39818Q557.6375 100.39818 556.79376 99.39818Q555.96564 98.38255 555.96564 96.08568Q555.96564 93.71068 556.825 92.67943Q557.7 91.63255 559.10626 91.63255Q560.075 91.63255 560.71564 92.17943Q561.35626 92.7263 561.54376 93.77318ZM557.8094 97.36693Q557.8094 98.1638 558.16876 98.6013Q558.54376 99.0388 559.0125 99.0388Q559.48126 99.0388 559.77814 98.67943Q560.09064 98.32005 560.09064 97.50755Q560.09064 96.6638 559.7625 96.2888Q559.4344 95.89818 558.9344 95.89818Q558.46564 95.89818 558.1375 96.27318Q557.8094 96.63255 557.8094 97.36693ZM563.3094 100.25755L563.3094 98.61693L564.96564 98.61693L564.96564 100.25755L563.3094 100.25755ZM565.9969 98.27318L567.59064 98.1013Q567.65314 98.58568 567.8875 98.82005Q568.1375 99.05443 568.54376 99.05443Q569.0594 99.05443 569.40314 98.58568Q569.7625 98.11693 569.8719 96.63255Q569.2469 97.3513 568.3094 97.3513Q567.3094 97.3513 566.5594 96.57005Q565.825 95.7888 565.825 94.5388Q565.825 93.2263 566.60626 92.42943Q567.3875 91.63255 568.59064 91.63255Q569.8875 91.63255 570.73126 92.64818Q571.575 93.64818 571.575 95.96068Q571.575 98.32005 570.7 99.36693Q569.825 100.4138 568.41876 100.4138Q567.41876 100.4138 566.79376 99.88255Q566.16876 99.33568 565.9969 98.27318ZM569.71564 94.67943Q569.71564 93.88255 569.35626 93.44505Q568.9969 92.99193 568.5125 92.99193Q568.0594 92.99193 567.7469 93.3513Q567.45 93.71068 567.45 94.5388Q567.45 95.36693 567.77814 95.75755Q568.10626 96.14818 568.59064 96.14818Q569.075 96.14818 569.3875 95.77318Q569.71564 95.39818 569.71564 94.67943ZM572.96564 93.7888Q572.96564 92.63255 573.46564 92.08568Q573.98126 91.52318 574.85626 91.52318Q575.7469 91.52318 576.2469 92.08568Q576.7625 92.63255 576.7625 93.7888Q576.7625 94.94505 576.2469 95.50755Q575.7469 96.05443 574.8875 96.05443Q573.98126 96.05443 573.46564 95.50755Q572.96564 94.94505 572.96564 93.7888ZM574.2625 93.77318Q574.2625 94.61693 574.45 94.89818Q574.59064 95.11693 574.85626 95.11693Q575.1219 95.11693 575.2625 94.89818Q575.45 94.61693 575.45 93.77318Q575.45 92.94505 575.2625 92.6638Q575.1219 92.44505 574.85626 92.44505Q574.59064 92.44505 574.45 92.64818Q574.2625 92.94505 574.2625 93.77318ZM576.10626 100.58568L574.8875 100.58568L579.46564 91.52318L580.65314 91.52318L576.10626 100.58568ZM578.7625 98.33568Q578.7625 97.17943 579.2625 96.61693Q579.77814 96.05443 580.65314 96.05443Q581.54376 96.05443 582.04376 96.61693Q582.5594 97.17943 582.5594 98.33568Q582.5594 99.49193 582.04376 100.05443Q581.54376 100.6013 580.6844 100.6013Q579.77814 100.6013 579.2625 100.05443Q578.7625 99.49193 578.7625 98.33568ZM580.04376 98.32005Q580.04376 99.1638 580.2469 99.44505Q580.3875 99.6638 580.65314 99.6638Q580.91876 99.6638 581.0594 99.44505Q581.2469 99.1638 581.2469 98.32005Q581.2469 97.49193 581.0594 97.19505Q580.91876 96.99193 580.65314 96.99193Q580.3875 96.99193 580.2469 97.19505Q580.04376 97.49193 580.04376 98.32005Z" fill-rule="nonzero"/><path stroke="#4f4f4f" stroke-width="1.0" stroke-linecap="butt" d="M581.45 87.75755L472.95 87.75755L399.3434 86.43417" fill-rule="nonzero"/><path fill="#787878" d="M401.3434 86.43417C401.3434 85.329605 400.44797 84.43417 399.3434 84.43417C398.23883 84.43417 397.3434 85.329605 397.3434 86.43417C397.3434 87.53874 398.23883 88.43417 399.3434 88.43417C400.44797 88.43417 401.3434 87.53874 401.3434 86.43417" fill-rule="nonzero"/><path fill="#1a1a1a" d="M558.325 114.25755L558.325 105.6638L561.10626 105.6638Q562.6844 105.6638 563.16876 105.7888Q563.90314 105.99193 564.40314 106.64818Q564.90314 107.2888 564.90314 108.30443Q564.90314 109.1013 564.60626 109.64818Q564.325 110.17943 563.8875 110.49193Q563.45 110.7888 562.98126 110.89818Q562.3719 111.02318 561.1844 111.02318L560.0594 111.02318L560.0594 114.25755L558.325 114.25755ZM560.0594 107.11693L560.0594 109.55443L561.0125 109.55443Q562.02814 109.55443 562.3719 109.42943Q562.73126 109.2888 562.91876 109.00755Q563.1219 108.71068 563.1219 108.33568Q563.1219 107.86693 562.84064 107.57005Q562.5594 107.25755 562.1375 107.17943Q561.84064 107.11693 560.90314 107.11693L560.0594 107.11693ZM565.8875 111.46068L567.575 111.30443Q567.73126 112.14818 568.1844 112.55443Q568.65314 112.94505 569.45 112.94505Q570.27814 112.94505 570.7 112.6013Q571.1375 112.24193 571.1375 111.75755Q571.1375 111.46068 570.95 111.24193Q570.77814 111.02318 570.325 110.86693Q570.02814 110.75755 568.95 110.49193Q567.54376 110.14818 566.98126 109.64818Q566.2 108.92943 566.2 107.9138Q566.2 107.25755 566.5594 106.69505Q566.9344 106.11693 567.6375 105.82005Q568.34064 105.52318 569.325 105.52318Q570.95 105.52318 571.7625 106.24193Q572.575 106.94505 572.6219 108.11693L570.8875 108.19505Q570.77814 107.5388 570.40314 107.25755Q570.04376 106.96068 569.3094 106.96068Q568.5594 106.96068 568.1219 107.27318Q567.85626 107.46068 567.85626 107.80443Q567.85626 108.1013 568.10626 108.32005Q568.4344 108.6013 569.7 108.89818Q570.96564 109.19505 571.575 109.52318Q572.1844 109.83568 572.52814 110.39818Q572.8719 110.94505 572.8719 111.75755Q572.8719 112.49193 572.45 113.14818Q572.04376 113.7888 571.29376 114.1013Q570.54376 114.4138 569.4344 114.4138Q567.79376 114.4138 566.91876 113.6638Q566.0594 112.89818 565.8875 111.46068ZM574.325 114.25755L574.325 105.6638L577.10626 105.6638Q578.6844 105.6638 579.16876 105.7888Q579.90314 105.99193 580.40314 106.64818Q580.90314 107.2888 580.90314 108.30443Q580.90314 109.1013 580.60626 109.64818Q580.325 110.17943 579.8875 110.49193Q579.45 110.7888 578.98126 110.89818Q578.3719 111.02318 577.1844 111.02318L576.0594 111.02318L576.0594 114.25755L574.325 114.25755ZM576.0594 107.11693L576.0594 109.55443L577.0125 109.55443Q578.02814 109.55443 578.3719 109.42943Q578.73126 109.2888 578.91876 109.00755Q579.1219 108.71068 579.1219 108.33568Q579.1219 107.86693 578.84064 107.57005Q578.5594 107.25755 578.1375 107.17943Q577.84064 107.11693 576.90314 107.11693L576.0594 107.11693Z" fill-rule="nonzero"/><path fill="#787878" d="M561.52814 129.7263L561.52814 131.25755L555.7469 131.25755Q555.84064 130.38255 556.3094 129.61693Q556.77814 128.83568 558.16876 127.55443Q559.27814 126.52318 559.52814 126.14818Q559.8719 125.63255 559.8719 125.13255Q559.8719 124.58568 559.575 124.2888Q559.27814 123.99193 558.7625 123.99193Q558.2469 123.99193 557.9344 124.30443Q557.6375 124.61693 557.59064 125.33568L555.95 125.17943Q556.09064 123.82005 556.85626 123.2263Q557.6375 122.63255 558.79376 122.63255Q560.075 122.63255 560.79376 123.32005Q561.52814 124.00755 561.52814 125.02318Q561.52814 125.6013 561.3094 126.13255Q561.10626 126.64818 560.65314 127.2263Q560.35626 127.6013 559.575 128.32005Q558.79376 129.0388 558.59064 129.27318Q558.3875 129.50755 558.2469 129.7263L561.52814 129.7263ZM563.3094 131.25755L563.3094 129.61693L564.96564 129.61693L564.96564 131.25755L563.3094 131.25755ZM571.54376 124.77318L569.95 124.94505Q569.8875 124.46068 569.6375 124.2263Q569.3875 123.99193 568.9969 123.99193Q568.48126 123.99193 568.1219 124.46068Q567.7625 124.92943 567.66876 126.39818Q568.27814 125.67943 569.2 125.67943Q570.23126 125.67943 570.96564 126.46068Q571.7 127.24193 571.7 128.49193Q571.7 129.80443 570.91876 130.6013Q570.15314 131.39818 568.9344 131.39818Q567.6375 131.39818 566.79376 130.39818Q565.96564 129.38255 565.96564 127.08568Q565.96564 124.71068 566.825 123.67943Q567.7 122.63255 569.10626 122.63255Q570.075 122.63255 570.71564 123.17943Q571.35626 123.7263 571.54376 124.77318ZM567.8094 128.36693Q567.8094 129.1638 568.16876 129.6013Q568.54376 130.0388 569.0125 130.0388Q569.48126 130.0388 569.77814 129.67943Q570.09064 129.32005 570.09064 128.50755Q570.09064 127.6638 569.7625 127.2888Q569.4344 126.89818 568.9344 126.89818Q568.46564 126.89818 568.1375 127.27318Q567.8094 127.63255 567.8094 128.36693ZM572.96564 124.7888Q572.96564 123.63255 573.46564 123.08568Q573.98126 122.52318 574.85626 122.52318Q575.7469 122.52318 576.2469 123.08568Q576.7625 123.63255 576.7625 124.7888Q576.7625 125.94505 576.2469 126.50755Q575.7469 127.05443 574.8875 127.05443Q573.98126 127.05443 573.46564 126.50755Q572.96564 125.94505 572.96564 124.7888ZM574.2625 124.77318Q574.2625 125.61693 574.45 125.89818Q574.59064 126.11693 574.85626 126.11693Q575.1219 126.11693 575.2625 125.89818Q575.45 125.61693 575.45 124.77318Q575.45 123.94505 575.2625 123.6638Q575.1219 123.44505 574.85626 123.44505Q574.59064 123.44505 574.45 123.64818Q574.2625 123.94505 574.2625 124.77318ZM576.10626 131.58568L574.8875 131.58568L579.46564 122.52318L580.65314 122.52318L576.10626 131.58568ZM578.7625 129.33568Q578.7625 128.17943 579.2625 127.61693Q579.77814 127.05443 580.65314 127.05443Q581.54376 127.05443 582.04376 127.61693Q582.5594 128.17943 582.5594 129.33568Q582.5594 130.49193 582.04376 131.05443Q581.54376 131.6013 580.6844 131.6013Q579.77814 131.6013 579.2625 131.05443Q578.7625 130.49193 578.7625 129.33568ZM580.04376 129.32005Q580.04376 130.1638 580.2469 130.44505Q580.3875 130.6638 580.65314 130.6638Q580.91876 130.6638 581.0594 130.44505Q581.2469 130.1638 581.2469 129.32005Q581.2469 128.49193 581.0594 128.19505Q580.91876 127.99193 580.65314 127.99193Q580.3875 127.99193 580.2469 128.19505Q580.04376 128.49193 580.04376 129.32005Z" fill-rule="nonzero"/><path stroke="#4f4f4f" stroke-width="1.0" stroke-linecap="butt" d="M581.45 118.75755L472.95 118.75755L431.21762 110.61708" fill-rule="nonzero"/><path fill="#787878" d="M433.21762 110.61708C433.21762 109.51251 432.3222 108.61708 431.21762 108.61708C430.11307 108.61708 429.21762 109.51251 429.21762 110.61708C429.21762 111.72166 430.11307 112.61708 431.21762 112.61708C432.3222 112.61708 433.21762 111.72166 433.21762 110.61708" fill-rule="nonzero"/><path fill="#1a1a1a" d="M559.325 194.02747L559.325 185.43372L562.10626 185.43372Q563.6844 185.43372 564.16876 185.55872Q564.90314 185.76184 565.40314 186.41809Q565.90314 187.05872 565.90314 188.07434Q565.90314 188.87122 565.60626 189.41809Q565.325 189.94934 564.8875 190.26184Q564.45 190.55872 563.98126 190.66809Q563.3719 190.79309 562.1844 190.79309L561.0594 190.79309L561.0594 194.02747L559.325 194.02747ZM561.0594 186.88684L561.0594 189.32434L562.0125 189.32434Q563.02814 189.32434 563.3719 189.19934Q563.73126 189.05872 563.91876 188.77747Q564.1219 188.48059 564.1219 188.10559Q564.1219 187.63684 563.84064 187.33997Q563.5594 187.02747 563.1375 186.94934Q562.84064 186.88684 561.90314 186.88684L561.0594 186.88684ZM566.8875 191.23059L568.575 191.07434Q568.73126 191.91809 569.1844 192.32434Q569.65314 192.71497 570.45 192.71497Q571.27814 192.71497 571.7 192.37122Q572.1375 192.01184 572.1375 191.52747Q572.1375 191.23059 571.95 191.01184Q571.77814 190.79309 571.325 190.63684Q571.02814 190.52747 569.95 190.26184Q568.54376 189.91809 567.98126 189.41809Q567.2 188.69934 567.2 187.68372Q567.2 187.02747 567.5594 186.46497Q567.9344 185.88684 568.6375 185.58997Q569.34064 185.29309 570.325 185.29309Q571.95 185.29309 572.7625 186.01184Q573.575 186.71497 573.6219 187.88684L571.8875 187.96497Q571.77814 187.30872 571.40314 187.02747Q571.04376 186.73059 570.3094 186.73059Q569.5594 186.73059 569.1219 187.04309Q568.85626 187.23059 568.85626 187.57434Q568.85626 187.87122 569.10626 188.08997Q569.4344 188.37122 570.7 188.66809Q571.96564 188.96497 572.575 189.29309Q573.1844 189.60559 573.52814 190.16809Q573.8719 190.71497 573.8719 191.52747Q573.8719 192.26184 573.45 192.91809Q573.04376 193.55872 572.29376 193.87122Q571.54376 194.18372 570.4344 194.18372Q568.79376 194.18372 567.91876 193.43372Q567.0594 192.66809 566.8875 191.23059ZM574.90314 191.74622L576.4969 191.55872Q576.575 192.16809 576.90314 192.49622Q577.2469 192.80872 577.71564 192.80872Q578.23126 192.80872 578.575 192.41809Q578.91876 192.02747 578.91876 191.37122Q578.91876 190.76184 578.575 190.40247Q578.2469 190.02747 577.77814 190.02747Q577.45 190.02747 577.0125 190.15247L577.2 188.80872Q577.8719 188.82434 578.21564 188.52747Q578.575 188.21497 578.575 187.69934Q578.575 187.27747 578.3094 187.02747Q578.0594 186.76184 577.6219 186.76184Q577.2 186.76184 576.90314 187.05872Q576.60626 187.33997 576.54376 187.90247L575.02814 187.65247Q575.1844 186.87122 575.4969 186.40247Q575.825 185.93372 576.3875 185.66809Q576.96564 185.40247 577.66876 185.40247Q578.8875 185.40247 579.6219 186.16809Q580.21564 186.80872 580.21564 187.60559Q580.21564 188.73059 578.98126 189.40247Q579.73126 189.57434 580.16876 190.12122Q580.60626 190.66809 580.60626 191.44934Q580.60626 192.57434 579.77814 193.37122Q578.95 194.16809 577.73126 194.16809Q576.5594 194.16809 575.79376 193.49622Q575.02814 192.82434 574.90314 191.74622Z" fill-rule="nonzero"/><path fill="#787878" d="M554.52814 209.49622L554.52814 211.02747L548.7469 211.02747Q548.84064 210.15247 549.3094 209.38684Q549.77814 208.60559 551.16876 207.32434Q552.27814 206.29309 552.52814 205.91809Q552.8719 205.40247 552.8719 204.90247Q552.8719 204.35559 552.575 204.05872Q552.27814 203.76184 551.7625 203.76184Q551.2469 203.76184 550.9344 204.07434Q550.6375 204.38684 550.59064 205.10559L548.95 204.94934Q549.09064 203.58997 549.85626 202.99622Q550.6375 202.40247 551.79376 202.40247Q553.075 202.40247 553.79376 203.08997Q554.52814 203.77747 554.52814 204.79309Q554.52814 205.37122 554.3094 205.90247Q554.10626 206.41809 553.65314 206.99622Q553.35626 207.37122 552.575 208.08997Q551.79376 208.80872 551.59064 209.04309Q551.3875 209.27747 551.2469 209.49622L554.52814 209.49622ZM555.90314 208.74622L557.4969 208.55872Q557.575 209.16809 557.90314 209.49622Q558.2469 209.80872 558.71564 209.80872Q559.23126 209.80872 559.575 209.41809Q559.91876 209.02747 559.91876 208.37122Q559.91876 207.76184 559.575 207.40247Q559.2469 207.02747 558.77814 207.02747Q558.45 207.02747 558.0125 207.15247L558.2 205.80872Q558.8719 205.82434 559.21564 205.52747Q559.575 205.21497 559.575 204.69934Q559.575 204.27747 559.3094 204.02747Q559.0594 203.76184 558.6219 203.76184Q558.2 203.76184 557.90314 204.05872Q557.60626 204.33997 557.54376 204.90247L556.02814 204.65247Q556.1844 203.87122 556.4969 203.40247Q556.825 202.93372 557.3875 202.66809Q557.96564 202.40247 558.66876 202.40247Q559.8875 202.40247 560.6219 203.16809Q561.21564 203.80872 561.21564 204.60559Q561.21564 205.73059 559.98126 206.40247Q560.73126 206.57434 561.16876 207.12122Q561.60626 207.66809 561.60626 208.44934Q561.60626 209.57434 560.77814 210.37122Q559.95 211.16809 558.73126 211.16809Q557.5594 211.16809 556.79376 210.49622Q556.02814 209.82434 555.90314 208.74622ZM563.3094 211.02747L563.3094 209.38684L564.96564 209.38684L564.96564 211.02747L563.3094 211.02747ZM567.3719 206.38684Q566.73126 206.12122 566.4344 205.65247Q566.15314 205.18372 566.15314 204.62122Q566.15314 203.65247 566.825 203.02747Q567.4969 202.40247 568.73126 202.40247Q569.95 202.40247 570.6219 203.02747Q571.3094 203.65247 571.3094 204.62122Q571.3094 205.21497 570.9969 205.68372Q570.6844 206.15247 570.1219 206.38684Q570.84064 206.68372 571.21564 207.23059Q571.59064 207.77747 571.59064 208.49622Q571.59064 209.68372 570.825 210.43372Q570.075 211.18372 568.8094 211.18372Q567.6375 211.18372 566.85626 210.55872Q565.9344 209.83997 565.9344 208.57434Q565.9344 207.87122 566.27814 207.29309Q566.6219 206.71497 567.3719 206.38684ZM567.71564 204.73059Q567.71564 205.23059 567.98126 205.51184Q568.2625 205.77747 568.73126 205.77747Q569.2 205.77747 569.48126 205.49622Q569.7625 205.21497 569.7625 204.73059Q569.7625 204.26184 569.48126 203.99622Q569.2 203.71497 568.7469 203.71497Q568.27814 203.71497 567.9969 203.99622Q567.71564 204.27747 567.71564 204.73059ZM567.5594 208.41809Q567.5594 209.08997 567.90314 209.48059Q568.2625 209.85559 568.77814 209.85559Q569.29376 209.85559 569.6219 209.49622Q569.95 209.12122 569.95 208.43372Q569.95 207.82434 569.60626 207.46497Q569.27814 207.08997 568.7625 207.08997Q568.15314 207.08997 567.85626 207.51184Q567.5594 207.93372 567.5594 208.41809ZM572.96564 204.55872Q572.96564 203.40247 573.46564 202.85559Q573.98126 202.29309 574.85626 202.29309Q575.7469 202.29309 576.2469 202.85559Q576.7625 203.40247 576.7625 204.55872Q576.7625 205.71497 576.2469 206.27747Q575.7469 206.82434 574.8875 206.82434Q573.98126 206.82434 573.46564 206.27747Q572.96564 205.71497 572.96564 204.55872ZM574.2625 204.54309Q574.2625 205.38684 574.45 205.66809Q574.59064 205.88684 574.85626 205.88684Q575.1219 205.88684 575.2625 205.66809Q575.45 205.38684 575.45 204.54309Q575.45 203.71497 575.2625 203.43372Q575.1219 203.21497 574.85626 203.21497Q574.59064 203.21497 574.45 203.41809Q574.2625 203.71497 574.2625 204.54309ZM576.10626 211.35559L574.8875 211.35559L579.46564 202.29309L580.65314 202.29309L576.10626 211.35559ZM578.7625 209.10559Q578.7625 207.94934 579.2625 207.38684Q579.77814 206.82434 580.65314 206.82434Q581.54376 206.82434 582.04376 207.38684Q582.5594 207.94934 582.5594 209.10559Q582.5594 210.26184 582.04376 210.82434Q581.54376 211.37122 580.6844 211.37122Q579.77814 211.37122 579.2625 210.82434Q578.7625 210.26184 578.7625 209.10559ZM580.04376 209.08997Q580.04376 209.93372 580.2469 210.21497Q580.3875 210.43372 580.65314 210.43372Q580.91876 210.43372 581.0594 210.21497Q581.2469 209.93372 581.2469 209.08997Q581.2469 208.26184 581.0594 207.96497Q580.91876 207.76184 580.65314 207.76184Q580.3875 207.76184 580.2469 207.96497Q580.04376 208.26184 580.04376 209.08997Z" fill-rule="nonzero"/><path stroke="#4f4f4f" stroke-width="1.0" stroke-linecap="butt" d="M581.45 198.52747L472.95 198.52747L454.34583 198.52747" fill-rule="nonzero"/><path fill="#787878" d="M456.34583 198.52747C456.34583 197.4229 455.4504 196.52747 454.34583 196.52747C453.24127 196.52747 452.34583 197.4229 452.34583 198.52747C452.34583 199.63205 453.24127 200.52747 454.34583 200.52747C455.4504 200.52747 456.34583 199.63205 456.34583 198.52747" fill-rule="nonzero"/><path fill="#1a1a1a" d="M558.5125 271.6046L555.45 263.01086L557.325 263.01086L559.4969 269.37024L561.60626 263.01086L563.45 263.01086L560.3719 271.6046L558.5125 271.6046ZM564.27814 271.6046L564.27814 263.01086L566.0125 263.01086L566.0125 271.6046L564.27814 271.6046ZM569.2625 271.6046L569.2625 264.464L566.71564 264.464L566.71564 263.01086L573.52814 263.01086L573.52814 264.464L570.9969 264.464L570.9969 271.6046L569.2625 271.6046ZM582.075 271.6046L580.1844 271.6046L579.4344 269.6515L575.9969 269.6515L575.29376 271.6046L573.45 271.6046L576.79376 263.01086L578.6375 263.01086L582.075 271.6046ZM578.8719 268.19836L577.7 265.01086L576.52814 268.19836L578.8719 268.19836Z" fill-rule="nonzero"/><path fill="#787878" d="M561.54376 282.12024L559.95 282.2921Q559.8875 281.80774 559.6375 281.57336Q559.3875 281.339 558.9969 281.339Q558.48126 281.339 558.1219 281.80774Q557.7625 282.2765 557.66876 283.74524Q558.27814 283.0265 559.2 283.0265Q560.23126 283.0265 560.96564 283.80774Q561.7 284.589 561.7 285.839Q561.7 287.1515 560.91876 287.94836Q560.15314 288.74524 558.9344 288.74524Q557.6375 288.74524 556.79376 287.74524Q555.96564 286.7296 555.96564 284.43274Q555.96564 282.05774 556.825 281.0265Q557.7 279.9796 559.10626 279.9796Q560.075 279.9796 560.71564 280.5265Q561.35626 281.07336 561.54376 282.12024ZM557.8094 285.714Q557.8094 286.51086 558.16876 286.94836Q558.54376 287.38586 559.0125 287.38586Q559.48126 287.38586 559.77814 287.0265Q560.09064 286.6671 560.09064 285.8546Q560.09064 285.01086 559.7625 284.63586Q559.4344 284.24524 558.9344 284.24524Q558.46564 284.24524 558.1375 284.62024Q557.8094 284.9796 557.8094 285.714ZM563.3094 288.6046L563.3094 286.964L564.96564 286.964L564.96564 288.6046L563.3094 288.6046ZM567.3719 283.964Q566.73126 283.69836 566.4344 283.2296Q566.15314 282.76086 566.15314 282.19836Q566.15314 281.2296 566.825 280.6046Q567.4969 279.9796 568.73126 279.9796Q569.95 279.9796 570.6219 280.6046Q571.3094 281.2296 571.3094 282.19836Q571.3094 282.7921 570.9969 283.26086Q570.6844 283.7296 570.1219 283.964Q570.84064 284.26086 571.21564 284.80774Q571.59064 285.3546 571.59064 286.07336Q571.59064 287.26086 570.825 288.01086Q570.075 288.76086 568.8094 288.76086Q567.6375 288.76086 566.85626 288.13586Q565.9344 287.4171 565.9344 286.1515Q565.9344 285.44836 566.27814 284.87024Q566.6219 284.2921 567.3719 283.964ZM567.71564 282.30774Q567.71564 282.80774 567.98126 283.089Q568.2625 283.3546 568.73126 283.3546Q569.2 283.3546 569.48126 283.07336Q569.7625 282.7921 569.7625 282.30774Q569.7625 281.839 569.48126 281.57336Q569.2 281.2921 568.7469 281.2921Q568.27814 281.2921 567.9969 281.57336Q567.71564 281.8546 567.71564 282.30774ZM567.5594 285.99524Q567.5594 286.6671 567.90314 287.05774Q568.2625 287.43274 568.77814 287.43274Q569.29376 287.43274 569.6219 287.07336Q569.95 286.69836 569.95 286.01086Q569.95 285.4015 569.60626 285.0421Q569.27814 284.6671 568.7625 284.6671Q568.15314 284.6671 567.85626 285.089Q567.5594 285.51086 567.5594 285.99524ZM572.96564 282.13586Q572.96564 280.9796 573.46564 280.43274Q573.98126 279.87024 574.85626 279.87024Q575.7469 279.87024 576.2469 280.43274Q576.7625 280.9796 576.7625 282.13586Q576.7625 283.2921 576.2469 283.8546Q575.7469 284.4015 574.8875 284.4015Q573.98126 284.4015 573.46564 283.8546Q572.96564 283.2921 572.96564 282.13586ZM574.2625 282.12024Q574.2625 282.964 574.45 283.24524Q574.59064 283.464 574.85626 283.464Q575.1219 283.464 575.2625 283.24524Q575.45 282.964 575.45 282.12024Q575.45 281.2921 575.2625 281.01086Q575.1219 280.7921 574.85626 280.7921Q574.59064 280.7921 574.45 280.99524Q574.2625 281.2921 574.2625 282.12024ZM576.10626 288.93274L574.8875 288.93274L579.46564 279.87024L580.65314 279.87024L576.10626 288.93274ZM578.7625 286.68274Q578.7625 285.5265 579.2625 284.964Q579.77814 284.4015 580.65314 284.4015Q581.54376 284.4015 582.04376 284.964Q582.5594 285.5265 582.5594 286.68274Q582.5594 287.839 582.04376 288.4015Q581.54376 288.94836 580.6844 288.94836Q579.77814 288.94836 579.2625 288.4015Q578.7625 287.839 578.7625 286.68274ZM580.04376 286.6671Q580.04376 287.51086 580.2469 287.7921Q580.3875 288.01086 580.65314 288.01086Q580.91876 288.01086 581.0594 287.7921Q581.2469 287.51086 581.2469 286.6671Q581.2469 285.839 581.0594 285.5421Q580.91876 285.339 580.65314 285.339Q580.3875 285.339 580.2469 285.5421Q580.04376 285.839 580.04376 286.6671Z" fill-rule="nonzero"/><path stroke="#4f4f4f" stroke-width="1.0" stroke-linecap="butt" d="M581.45 276.1046L472.95 276.1046L358.74338 276.1046" fill-rule="nonzero"/><path fill="#787878" d="M360.74338 276.1046C360.74338 275.00003 359.84796 274.1046 358.74338 274.1046C357.63882 274.1046 356.74338 275.00003 356.74338 276.1046C356.74338 277.2092 357.63882 278.1046 358.74338 278.1046C359.84796 278.1046 360.74338 277.2092 360.74338 276.1046" fill-rule="nonzero"/></svg>