<svg version="1.1" viewBox="0.0 0.0 600.0 371.0" fill="none" stroke="none" stroke-linecap="square" stroke-miterlimit="10" width="600" height="371" xmlns:xlink="http://www.w3.org/1999/xlink" xmlns="http://www.w3.org/2000/svg"><path fill="#d9d9d9" d="M0 0L600.0 0L600.0 371.0L0 371.0L0 0Z" fill-rule="nonzero"/><path fill="#2e5dab" d="M482.25 199.4125C482.25 207.62993 481.13565 215.82881 478.92194 223.8988L478.92194 196.0738C481.13565 188.00381 482.25 179.80493 482.25 171.5875Z" fill-rule="nonzero"/><path fill="#4285f4" d="M296.75 41.7375C352.07495 41.7375 404.5124 59.023735 439.75195 88.878746C474.99155 118.733765 489.3548 158.04114 478.92194 196.0738L296.75 171.5875Z" fill-rule="nonzero"/><path fill="#ffff00" d="M295.6239 41.73989C295.99927 41.738297 296.37463 41.7375 296.75 41.7375L296.75 171.5875Z" fill-rule="nonzero"/><path fill="#274e13" d="M294.49783 41.74707C294.87317 41.74388 295.24854 41.74149 295.6239 41.73989L296.75 171.5875Z" fill-rule="nonzero"/><path fill="#00ff00" d="M293.37183 41.759033C293.74716 41.75425 294.12247 41.75026 294.49783 41.74707L296.75 171.5875Z" fill-rule="nonzero"/><path fill="#000000" d="M292.24597 41.77578C292.62125 41.7694 292.99652 41.76382 293.37183 41.759033L296.75 171.5875Z" fill-rule="nonzero"/><path fill="#0000ff" d="M291.12027 41.797314C291.49548 41.789337 291.87073 41.78216 292.24597 41.77578L296.75 171.5875Z" fill-rule="nonzero"/><path fill="#ffffff" d="M289.99478 41.823627C290.3699 41.81406 290.7451 41.805286 291.12027 41.797314L296.75 171.5875Z" fill-rule="nonzero"/><path fill="#ff0000" d="M288.86957 41.854725C289.2446 41.843563 289.61966 41.8332 289.99478 41.823627L296.75 171.5875Z" fill-rule="nonzero"/><path fill="#ffffff" d="M287.7446 41.890602C288.11954 41.877846 288.4945 41.865887 288.86957 41.854725L296.75 171.5875Z" fill-rule="nonzero"/><path fill="#0235c8" d="M286.62 41.931263C286.9948 41.916912 287.3697 41.90336 287.7446 41.890602L296.75 171.5875Z" fill-rule="nonzero"/><path fill="#38761d" d="M285.49576 41.9767C285.87042 41.96076 286.24518 41.94561 286.62 41.931263L296.75 171.5875Z" fill-rule="nonzero"/><path fill="#0000ff" d="M284.37192 42.026913C284.74646 42.009377 285.12106 41.99264 285.49576 41.9767L296.75 171.5875Z" fill-rule="nonzero"/><path fill="#980000" d="M283.24854 42.081898C283.62292 42.062775 283.99738 42.044445 284.37192 42.026913L296.75 171.5875Z" fill-rule="nonzero"/><path fill="#ff0000" d="M282.12567 42.14166C282.49988 42.120945 282.87418 42.101025 283.24854 42.081898L296.75 171.5875Z" fill-rule="nonzero"/><path fill="#ffff00" d="M281.00333 42.20619C281.37735 42.183884 281.75146 42.162373 282.12567 42.14166L296.75 171.5875Z" fill-rule="nonzero"/><path fill="#ff0000" d="M279.8816 42.27549C280.2554 42.251595 280.62933 42.228497 281.00333 42.20619L296.75 171.5875Z" fill-rule="nonzero"/><path fill="#0000ff" d="M278.76044 42.349552C279.13406 42.32407 279.50775 42.29938 279.8816 42.27549L296.75 171.5875Z" fill-rule="nonzero"/><path fill="#4a86e8" d="M277.63998 42.428383C278.01337 42.40131 278.38684 42.375034 278.76044 42.349552L296.75 171.5875Z" fill-rule="nonzero"/><path fill="#000000" d="M276.5202 42.511967C276.89334 42.483315 277.2666 42.455452 277.63998 42.428383L296.75 171.5875Z" fill-rule="nonzero"/><path fill="#ff0000" d="M275.40118 42.60031C275.77408 42.570072 276.14706 42.540623 276.5202 42.511967L296.75 171.5875Z" fill-rule="nonzero"/><path fill="#00ff00" d="M273.16556 42.79126C273.91022 42.724445 274.65543 42.660793 275.40118 42.60031L296.75 171.5875Z" fill-rule="nonzero"/><path fill="#ff0000" d="M270.93338 43.00119C271.67682 42.92805 272.4209 42.858074 273.16556 42.79126L296.75 171.5875Z" fill-rule="nonzero"/><path fill="#ffffff" d="M268.70505 43.23008C269.44714 43.150627 270.18994 43.07433 270.93338 43.00119L296.75 171.5875Z" fill-rule="nonzero"/><path fill="#00ff00" d="M266.4808 43.477886C267.2215 43.392136 267.96292 43.309532 268.70505 43.23008L296.75 171.5875Z" fill-rule="nonzero"/><path fill="#ff0000" d="M263.15295 43.885C264.26044 43.742226 265.36978 43.606518 266.4808 43.477886L296.75 171.5875Z" fill-rule="nonzero"/><path fill="#00ff00" d="M259.8362 44.334465C260.93982 44.177597 262.04544 44.02777 263.15295 43.885L296.75 171.5875Z" fill-rule="nonzero"/><path fill="#ff0000" d="M256.53174 44.826138C257.63107 44.655228 258.7326 44.49133 259.8362 44.334465L296.75 171.5875Z" fill-rule="nonzero"/><path fill="#ffffff" d="M252.14671 45.54707C253.60416 45.294346 255.06595 45.054016 256.53174 44.826138L296.75 171.5875Z" fill-rule="nonzero"/><path fill="#ff0000" d="M247.78798 46.34232C249.23624 46.0649 250.68925 45.799793 252.14671 45.54707L296.75 171.5875Z" fill-rule="nonzero"/><path fill="#00ff00" d="M243.4581 47.21142C244.89632 46.909462 246.3397 46.619743 247.78798 46.34232L296.75 171.5875Z" fill-rule="nonzero"/><path fill="#ff0000" d="M238.09026 48.400856C239.87085 47.98539 241.66032 47.588863 243.4581 47.21142L296.75 171.5875Z" fill-rule="nonzero"/><path fill="#ffff00" d="M231.72061 49.97788C233.82997 49.42518 235.95354 48.899418 238.09026 48.400856L296.75 171.5875Z" fill-rule="nonzero"/><path fill="#ffffff" d="M225.43723 51.71623C227.51643 51.110123 229.61125 50.53058 231.72061 49.97788L296.75 171.5875Z" fill-rule="nonzero"/><path fill="#00ff00" d="M218.22676 53.94511C220.60742 53.166485 223.01146 52.423355 225.43723 51.71623L296.75 171.5875Z" fill-rule="nonzero"/><path fill="#ff0000" d="M209.16628 57.122322C212.14455 56.00569 215.16583 54.946224 218.22676 53.94511L296.75 171.5875Z" fill-rule="nonzero"/><path fill="#0b5394" d="M200.36717 60.64114C203.25389 59.412327 206.18802 58.23895 209.16628 57.122322L296.75 171.5875Z" fill-rule="nonzero"/><path fill="#ff9900" d="M190.00592 65.390434C193.3832 63.727047 196.83887 62.143066 200.36717 60.64114L296.75 171.5875Z" fill-rule="nonzero"/><path fill="#ffff00" d="M179.24695 71.11059C182.73286 69.11305 186.32156 67.20507 190.00592 65.390434L296.75 171.5875Z" fill-rule="nonzero"/><path fill="#ff0000" d="M165.88065 79.5609C170.13799 76.59429 174.59868 73.7742 179.24695 71.11059L296.75 171.5875Z" fill-rule="nonzero"/><path fill="#000000" d="M153.03339 89.48795C157.06897 86.02642 161.35709 82.713 165.88065 79.5609L296.75 171.5875Z" fill-rule="nonzero"/><path fill="#c9daf8" d="M141.09999 100.948784C144.77657 96.97919 148.7603 93.153206 153.03339 89.48795L296.75 171.5875Z" fill-rule="nonzero"/><path fill="#ffd966" d="M129.53313 115.37456C132.94681 110.39876 136.81026 105.58039 141.09999 100.948784L296.75 171.5875Z" fill-rule="nonzero"/><path fill="#0000ff" d="M115.60151 143.62714C118.67639 133.86563 123.35122 124.38532 129.53313 115.37456L296.75 171.5875Z" fill-rule="nonzero"/><path fill="#b3b300" d="M111.2861 201.97424C111.26203 201.12044 111.25 200.26648 111.25 199.4125L111.25 171.5875C111.25 172.44148 111.26203 173.29544 111.2861 174.14925Z" fill-rule="nonzero"/><path fill="#ffff00" d="M111.2861 174.14925C110.99695 163.8916 112.44552 153.6461 115.60151 143.62714L296.75 171.5875Z" fill-rule="nonzero"/><path fill="#b30000" d="M138.40166 267.04877C121.29153 247.42046 111.93416 224.96373 111.2861 201.97424L111.2861 174.14925C111.93416 197.13873 121.29153 219.59546 138.40166 239.22379Z" fill-rule="nonzero"/><path fill="#ff0000" d="M138.40166 239.22379C121.29153 219.59546 111.93416 197.13873 111.2861 174.14925L296.75 171.5875Z" fill-rule="nonzero"/><path fill="#b3b3b3" d="M296.18695 329.2619C231.72165 329.12494 171.9805 305.5696 138.40166 267.04877L138.40166 239.22379C171.9805 277.7446 231.72165 301.29993 296.18695 301.4369Z" fill-rule="nonzero"/><path fill="#ffffff" d="M296.18695 301.4369C231.72165 301.29993 171.9805 277.7446 138.40166 239.22379L296.75 171.5875Z" fill-rule="nonzero"/><path fill="#b30000" d="M478.92194 223.8988C462.10632 285.1998 385.35925 329.4514 296.18695 329.2619L296.18695 301.4369C385.35925 301.62637 462.10632 257.37482 478.92194 196.0738Z" fill-rule="nonzero"/><path fill="#ff0000" d="M478.92194 196.0738C462.10632 257.37482 385.35925 301.62637 296.18695 301.4369L296.75 171.5875Z" fill-rule="nonzero"/><path fill="#000000" d="M0.875 45.584682L0.875 36.990932L3.65625 36.990932Q5.234375 36.990932 5.71875 37.115932Q6.453125 37.319057 6.953125 37.975307Q7.453125 38.615932 7.453125 39.631557Q7.453125 40.428432 7.15625 40.975307Q6.875 41.506557 6.4375 41.819057Q6.0 42.115932 5.53125 42.225307Q4.921875 42.350307 3.734375 42.350307L2.609375 42.350307L2.609375 45.584682L0.875 45.584682ZM2.609375 38.444057L2.609375 40.881557L3.5625 40.881557Q4.578125 40.881557 4.921875 40.756557Q5.28125 40.615932 5.46875 40.334682Q5.671875 40.037807 5.671875 39.662807Q5.671875 39.194057 5.390625 38.897182Q5.109375 38.584682 4.6875 38.506557Q4.390625 38.444057 3.453125 38.444057L2.609375 38.444057ZM8.484375 42.381557Q8.484375 41.569057 8.890625 40.803432Q9.296875 40.022182 10.03125 39.631557Q10.765625 39.225307 11.6875 39.225307Q13.09375 39.225307 14.0 40.147182Q14.90625 41.053432 14.90625 42.459682Q14.90625 43.865932 13.984375 44.803432Q13.078125 45.725307 11.703125 45.725307Q10.84375 45.725307 10.0625 45.334682Q9.296875 44.944057 8.890625 44.209682Q8.484375 43.459682 8.484375 42.381557ZM10.171875 42.475307Q10.171875 43.397182 10.609375 43.897182Q11.046875 44.381557 11.6875 44.381557Q12.34375 44.381557 12.765625 43.897182Q13.203125 43.397182 13.203125 42.459682Q13.203125 41.553432 12.765625 41.069057Q12.34375 40.569057 11.6875 40.569057Q11.046875 40.569057 10.609375 41.069057Q10.171875 41.553432 10.171875 42.475307ZM15.859375 45.584682L15.859375 36.990932L17.515625 36.990932L17.515625 45.584682L15.859375 45.584682ZM20.09375 41.256557L18.59375 40.990932Q18.84375 40.084682 19.453125 39.662807Q20.078125 39.225307 21.296875 39.225307Q22.390625 39.225307 22.921875 39.490932Q23.46875 39.740932 23.6875 40.147182Q23.90625 40.537807 23.90625 41.615932L23.890625 43.537807Q23.890625 44.365932 23.96875 44.756557Q24.046875 45.131557 24.265625 45.584682L22.640625 45.584682Q22.578125 45.412807 22.484375 45.100307Q22.4375 44.944057 22.421875 44.897182Q22.0 45.319057 21.515625 45.522182Q21.046875 45.725307 20.5 45.725307Q19.53125 45.725307 18.96875 45.209682Q18.421875 44.678432 18.421875 43.881557Q18.421875 43.350307 18.671875 42.944057Q18.9375 42.537807 19.390625 42.319057Q19.84375 42.084682 20.703125 41.928432Q21.84375 41.709682 22.296875 41.522182L22.296875 41.365932Q22.296875 40.881557 22.0625 40.678432Q21.828125 40.475307 21.171875 40.475307Q20.734375 40.475307 20.484375 40.647182Q20.25 40.819057 20.09375 41.256557ZM22.296875 42.600307Q21.984375 42.694057 21.296875 42.850307Q20.609375 42.990932 20.390625 43.131557Q20.078125 43.365932 20.078125 43.709682Q20.078125 44.053432 20.328125 44.319057Q20.59375 44.569057 20.984375 44.569057Q21.4375 44.569057 21.84375 44.272182Q22.140625 44.053432 22.234375 43.725307Q22.296875 43.522182 22.296875 42.928432L22.296875 42.600307ZM31.515625 45.584682L29.875 45.584682L29.875 42.412807Q29.875 41.397182 29.765625 41.100307Q29.671875 40.803432 29.421875 40.647182Q29.1875 40.475307 28.859375 40.475307Q28.421875 40.475307 28.078125 40.709682Q27.75 40.944057 27.625 41.334682Q27.5 41.725307 27.5 42.772182L27.5 45.584682L25.84375 45.584682L25.84375 39.365932L27.375 39.365932L27.375 40.272182Q28.1875 39.225307 29.4375 39.225307Q29.96875 39.225307 30.421875 39.428432Q30.875 39.615932 31.109375 39.928432Q31.34375 40.225307 31.421875 40.615932Q31.515625 40.990932 31.515625 41.709682L31.515625 45.584682ZM38.5625 45.584682L37.046875 45.584682L37.046875 44.662807Q36.65625 45.209682 36.140625 45.475307Q35.625 45.725307 35.09375 45.725307Q34.015625 45.725307 33.25 44.865932Q32.5 43.990932 32.5 42.444057Q32.5 40.865932 33.234375 40.053432Q33.984375 39.225307 35.125 39.225307Q36.15625 39.225307 36.921875 40.084682L36.921875 36.990932L38.5625 36.990932L38.5625 45.584682ZM34.171875 42.334682Q34.171875 43.334682 34.453125 43.772182Q34.84375 44.428432 35.5625 44.428432Q36.125 44.428432 36.515625 43.944057Q36.921875 43.459682 36.921875 42.490932Q36.921875 41.428432 36.53125 40.959682Q36.15625 40.475307 35.546875 40.475307Q34.96875 40.475307 34.5625 40.944057Q34.171875 41.412807 34.171875 42.334682Z" fill-rule="nonzero"/><path fill="#787878" d="M4.71875 62.584682L3.078125 62.584682L3.078125 56.381557Q2.171875 57.225307 0.953125 57.631557L0.953125 56.131557Q1.59375 55.928432 2.34375 55.334682Q3.109375 54.740932 3.390625 53.959682L4.71875 53.959682L4.71875 62.584682ZM7.859375 62.584682L7.859375 60.944057L9.515625 60.944057L9.515625 62.584682L7.859375 62.584682ZM10.53125 60.381557L12.171875 60.209682Q12.25 60.756557 12.59375 61.084682Q12.9375 61.412807 13.390625 61.412807Q13.90625 61.412807 14.265625 60.990932Q14.625 60.569057 14.625 59.725307Q14.625 58.944057 14.265625 58.553432Q13.90625 58.147182 13.34375 58.147182Q12.625 58.147182 12.0625 58.772182L10.734375 58.584682L11.578125 54.115932L15.9375 54.115932L15.9375 55.647182L12.828125 55.647182L12.5625 57.115932Q13.125 56.834682 13.6875 56.834682Q14.78125 56.834682 15.546875 57.631557Q16.3125 58.428432 16.3125 59.694057Q16.3125 60.756557 15.703125 61.600307Q14.859375 62.725307 13.375 62.725307Q12.1875 62.725307 11.4375 62.100307Q10.6875 61.459682 10.53125 60.381557ZM17.515625 56.115932Q17.515625 54.959682 18.015625 54.412807Q18.53125 53.850307 19.40625 53.850307Q20.296875 53.850307 20.796875 54.412807Q21.3125 54.959682 21.3125 56.115932Q21.3125 57.272182 20.796875 57.834682Q20.296875 58.381557 19.4375 58.381557Q18.53125 58.381557 18.015625 57.834682Q17.515625 57.272182 17.515625 56.115932ZM18.8125 56.100307Q18.8125 56.944057 19.0 57.225307Q19.140625 57.444057 19.40625 57.444057Q19.671875 57.444057 19.8125 57.225307Q20.0 56.944057 20.0 56.100307Q20.0 55.272182 19.8125 54.990932Q19.671875 54.772182 19.40625 54.772182Q19.140625 54.772182 19.0 54.975307Q18.8125 55.272182 18.8125 56.100307ZM20.65625 62.912807L19.4375 62.912807L24.015625 53.850307L25.203125 53.850307L20.65625 62.912807ZM23.3125 60.662807Q23.3125 59.506557 23.8125 58.944057Q24.328125 58.381557 25.203125 58.381557Q26.09375 58.381557 26.59375 58.944057Q27.109375 59.506557 27.109375 60.662807Q27.109375 61.819057 26.59375 62.381557Q26.09375 62.928432 25.234375 62.928432Q24.328125 62.928432 23.8125 62.381557Q23.3125 61.819057 23.3125 60.662807ZM24.59375 60.647182Q24.59375 61.490932 24.796875 61.772182Q24.9375 61.990932 25.203125 61.990932Q25.46875 61.990932 25.609375 61.772182Q25.796875 61.490932 25.796875 60.647182Q25.796875 59.819057 25.609375 59.522182Q25.46875 59.319057 25.203125 59.319057Q24.9375 59.319057 24.796875 59.522182Q24.59375 59.819057 24.59375 60.647182Z" fill-rule="nonzero"/><path stroke="#4f4f4f" stroke-width="1.0" stroke-linecap="butt" d="M0 50.084682L105.25 50.084682L178.63383 80.04039" fill-rule="nonzero"/><path fill="#787878" d="M180.63383 80.04039C180.63383 78.93582 179.7384 78.04039 178.63383 78.04039C177.52927 78.04039 176.63383 78.93582 176.63383 80.04039C176.63383 81.14496 177.52927 82.04039 178.63383 82.04039C179.7384 82.04039 180.63383 81.14496 180.63383 80.04039" fill-rule="nonzero"/><path fill="#000000" d="M4.875 73.42843L4.875 71.9753L8.609375 71.9753L8.609375 75.39718Q8.0625 75.92843 7.03125 76.33468Q6.0 76.7253 4.9375 76.7253Q3.59375 76.7253 2.578125 76.1628Q1.578125 75.6003 1.078125 74.55343Q0.578125 73.49093 0.578125 72.25655Q0.578125 70.9128 1.140625 69.88155Q1.703125 68.83468 2.78125 68.27218Q3.609375 67.8503 4.84375 67.8503Q6.4375 67.8503 7.328125 68.52218Q8.234375 69.19405 8.5 70.36593L6.78125 70.69405Q6.59375 70.06905 6.09375 69.70968Q5.59375 69.33468 4.84375 69.33468Q3.703125 69.33468 3.03125 70.05343Q2.359375 70.77218 2.359375 72.19405Q2.359375 73.7253 3.03125 74.49093Q3.71875 75.24093 4.828125 75.24093Q5.375 75.24093 5.921875 75.0378Q6.46875 74.81905 6.859375 74.52218L6.859375 73.42843L4.875 73.42843ZM12.46875 74.6003L14.109375 74.88155Q13.796875 75.7878 13.109375 76.25655Q12.421875 76.7253 11.40625 76.7253Q9.78125 76.7253 9.0 75.6628Q8.375 74.81905 8.375 73.52218Q8.375 71.9753 9.1875 71.1003Q10.0 70.2253 11.234375 70.2253Q12.625 70.2253 13.421875 71.14718Q14.234375 72.05343 14.1875 73.94405L10.0625 73.94405Q10.09375 74.67843 10.46875 75.08468Q10.84375 75.49093 11.421875 75.49093Q11.796875 75.49093 12.0625 75.2878Q12.328125 75.06905 12.46875 74.6003ZM12.5625 72.94405Q12.546875 72.2253 12.1875 71.8503Q11.84375 71.4753 11.328125 71.4753Q10.796875 71.4753 10.4375 71.86593Q10.09375 72.27218 10.09375 72.94405L12.5625 72.94405ZM17.4375 76.58468L15.796875 76.58468L15.796875 70.36593L17.328125 70.36593L17.328125 71.24093Q17.71875 70.61593 18.03125 70.42843Q18.34375 70.2253 18.734375 70.2253Q19.296875 70.2253 19.828125 70.5378L19.3125 71.95968Q18.890625 71.69405 18.546875 71.69405Q18.1875 71.69405 17.953125 71.89718Q17.71875 72.08468 17.578125 72.58468Q17.4375 73.06905 17.4375 74.6628L17.4375 76.58468ZM20.734375 70.36593L22.25 70.36593L22.25 71.20968Q23.078125 70.2253 24.203125 70.2253Q24.796875 70.2253 25.234375 70.4753Q25.671875 70.70968 25.953125 71.20968Q26.359375 70.70968 26.828125 70.4753Q27.3125 70.2253 27.859375 70.2253Q28.53125 70.2253 29.0 70.50655Q29.484375 70.77218 29.71875 71.31905Q29.890625 71.70968 29.890625 72.6003L29.890625 76.58468L28.25 76.58468L28.25 73.02218Q28.25 72.1003 28.078125 71.83468Q27.84375 71.4753 27.375 71.4753Q27.03125 71.4753 26.71875 71.69405Q26.421875 71.89718 26.28125 72.30343Q26.140625 72.70968 26.140625 73.6003L26.140625 76.58468L24.5 76.58468L24.5 73.17843Q24.5 72.27218 24.40625 72.00655Q24.328125 71.74093 24.140625 71.61593Q23.953125 71.4753 23.640625 71.4753Q23.265625 71.4753 22.953125 71.69405Q22.65625 71.89718 22.515625 72.2878Q22.390625 72.6628 22.390625 73.55343L22.390625 76.58468L20.734375 76.58468L20.734375 70.36593ZM33.09375 72.25655L31.59375 71.99093Q31.84375 71.08468 32.453125 70.6628Q33.078125 70.2253 34.296875 70.2253Q35.390625 70.2253 35.921875 70.49093Q36.46875 70.74093 36.6875 71.14718Q36.90625 71.5378 36.90625 72.61593L36.890625 74.5378Q36.890625 75.36593 36.96875 75.75655Q37.046875 76.13155 37.265625 76.58468L35.640625 76.58468Q35.578125 76.4128 35.484375 76.1003Q35.4375 75.94405 35.421875 75.89718Q35.0 76.31905 34.515625 76.52218Q34.046875 76.7253 33.5 76.7253Q32.53125 76.7253 31.96875 76.20968Q31.421875 75.67843 31.421875 74.88155Q31.421875 74.3503 31.671875 73.94405Q31.9375 73.5378 32.390625 73.31905Q32.84375 73.08468 33.703125 72.92843Q34.84375 72.70968 35.296875 72.52218L35.296875 72.36593Q35.296875 71.88155 35.0625 71.67843Q34.828125 71.4753 34.171875 71.4753Q33.734375 71.4753 33.484375 71.64718Q33.25 71.81905 33.09375 72.25655ZM35.296875 73.6003Q34.984375 73.69405 34.296875 73.8503Q33.609375 73.99093 33.390625 74.13155Q33.078125 74.36593 33.078125 74.70968Q33.078125 75.05343 33.328125 75.31905Q33.59375 75.56905 33.984375 75.56905Q34.4375 75.56905 34.84375 75.27218Q35.140625 75.05343 35.234375 74.7253Q35.296875 74.52218 35.296875 73.92843L35.296875 73.6003ZM44.515625 76.58468L42.875 76.58468L42.875 73.4128Q42.875 72.39718 42.765625 72.1003Q42.671875 71.80343 42.421875 71.64718Q42.1875 71.4753 41.859375 71.4753Q41.421875 71.4753 41.078125 71.70968Q40.75 71.94405 40.625 72.33468Q40.5 72.7253 40.5 73.77218L40.5 76.58468L38.84375 76.58468L38.84375 70.36593L40.375 70.36593L40.375 71.27218Q41.1875 70.2253 42.4375 70.2253Q42.96875 70.2253 43.421875 70.42843Q43.875 70.61593 44.109375 70.92843Q44.34375 71.2253 44.421875 71.61593Q44.515625 71.99093 44.515625 72.70968L44.515625 76.58468ZM45.078125 70.36593L46.828125 70.36593L48.328125 74.77218L49.78125 70.36593L51.484375 70.36593L49.28125 76.3503L48.890625 77.42843Q48.671875 77.9753 48.46875 78.25655Q48.28125 78.55343 48.015625 78.7253Q47.765625 78.9128 47.390625 79.00655Q47.03125 79.11593 46.5625 79.11593Q46.078125 79.11593 45.625 79.00655L45.484375 77.7253Q45.875 77.80343 46.171875 77.80343Q46.75 77.80343 47.015625 77.45968Q47.296875 77.13155 47.453125 76.6003L45.078125 70.36593Z" fill-rule="nonzero"/><path fill="#787878" d="M4.71875 93.58468L3.078125 93.58468L3.078125 87.38155Q2.171875 88.2253 0.953125 88.63155L0.953125 87.13155Q1.59375 86.92843 2.34375 86.33468Q3.109375 85.74093 3.390625 84.95968L4.71875 84.95968L4.71875 93.58468ZM7.859375 93.58468L7.859375 91.94405L9.515625 91.94405L9.515625 93.58468L7.859375 93.58468ZM16.09375 87.1003L14.5 87.27218Q14.4375 86.7878 14.1875 86.55343Q13.9375 86.31905 13.546875 86.31905Q13.03125 86.31905 12.671875 86.7878Q12.3125 87.25655 12.21875 88.7253Q12.828125 88.00655 13.75 88.00655Q14.78125 88.00655 15.515625 88.7878Q16.25 89.56905 16.25 90.81905Q16.25 92.13155 15.46875 92.92843Q14.703125 93.7253 13.484375 93.7253Q12.1875 93.7253 11.34375 92.7253Q10.515625 91.70968 10.515625 89.4128Q10.515625 87.0378 11.375 86.00655Q12.25 84.95968 13.65625 84.95968Q14.625 84.95968 15.265625 85.50655Q15.90625 86.05343 16.09375 87.1003ZM12.359375 90.69405Q12.359375 91.49093 12.71875 91.92843Q13.09375 92.36593 13.5625 92.36593Q14.03125 92.36593 14.328125 92.00655Q14.640625 91.64718 14.640625 90.83468Q14.640625 89.99093 14.3125 89.61593Q13.984375 89.2253 13.484375 89.2253Q13.015625 89.2253 12.6875 89.6003Q12.359375 89.95968 12.359375 90.69405ZM17.515625 87.11593Q17.515625 85.95968 18.015625 85.4128Q18.53125 84.8503 19.40625 84.8503Q20.296875 84.8503 20.796875 85.4128Q21.3125 85.95968 21.3125 87.11593Q21.3125 88.27218 20.796875 88.83468Q20.296875 89.38155 19.4375 89.38155Q18.53125 89.38155 18.015625 88.83468Q17.515625 88.27218 17.515625 87.11593ZM18.8125 87.1003Q18.8125 87.94405 19.0 88.2253Q19.140625 88.44405 19.40625 88.44405Q19.671875 88.44405 19.8125 88.2253Q20.0 87.94405 20.0 87.1003Q20.0 86.27218 19.8125 85.99093Q19.671875 85.77218 19.40625 85.77218Q19.140625 85.77218 19.0 85.9753Q18.8125 86.27218 18.8125 87.1003ZM20.65625 93.9128L19.4375 93.9128L24.015625 84.8503L25.203125 84.8503L20.65625 93.9128ZM23.3125 91.6628Q23.3125 90.50655 23.8125 89.94405Q24.328125 89.38155 25.203125 89.38155Q26.09375 89.38155 26.59375 89.94405Q27.109375 90.50655 27.109375 91.6628Q27.109375 92.81905 26.59375 93.38155Q26.09375 93.92843 25.234375 93.92843Q24.328125 93.92843 23.8125 93.38155Q23.3125 92.81905 23.3125 91.6628ZM24.59375 91.64718Q24.59375 92.49093 24.796875 92.77218Q24.9375 92.99093 25.203125 92.99093Q25.46875 92.99093 25.609375 92.77218Q25.796875 92.49093 25.796875 91.64718Q25.796875 90.81905 25.609375 90.52218Q25.46875 90.31905 25.203125 90.31905Q24.9375 90.31905 24.796875 90.52218Q24.59375 90.81905 24.59375 91.64718Z" fill-rule="nonzero"/><path stroke="#4f4f4f" stroke-width="1.0" stroke-linecap="butt" d="M0 81.08468L105.25 81.08468L166.14783 88.76734" fill-rule="nonzero"/><path fill="#787878" d="M168.14783 88.76734C168.14783 87.66277 167.2524 86.76734 166.14783 86.76734C165.04326 86.76734 164.14783 87.66277 164.14783 88.76734C164.14783 89.87191 165.04326 90.76734 166.14783 90.76734C167.2524 90.76734 168.14783 89.87191 168.14783 88.76734" fill-rule="nonzero"/><path fill="#000000" d="M0.890625 107.58468L0.890625 98.99093L6.78125 98.99093L6.78125 100.44405L2.625 100.44405L2.625 102.4753L6.203125 102.4753L6.203125 103.92843L2.625 103.92843L2.625 107.58468L0.890625 107.58468ZM6.859375 100.52218L6.859375 98.99093L8.515625 98.99093L8.515625 100.52218L6.859375 100.52218ZM6.859375 107.58468L6.859375 101.36593L8.515625 101.36593L8.515625 107.58468L6.859375 107.58468ZM15.515625 107.58468L13.875 107.58468L13.875 104.4128Q13.875 103.39718 13.765625 103.1003Q13.671875 102.80343 13.421875 102.64718Q13.1875 102.4753 12.859375 102.4753Q12.421875 102.4753 12.078125 102.70968Q11.75 102.94405 11.625 103.33468Q11.5 103.7253 11.5 104.77218L11.5 107.58468L9.84375 107.58468L9.84375 101.36593L11.375 101.36593L11.375 102.27218Q12.1875 101.2253 13.4375 101.2253Q13.96875 101.2253 14.421875 101.42843Q14.875 101.61593 15.109375 101.92843Q15.34375 102.2253 15.421875 102.61593Q15.515625 102.99093 15.515625 103.70968L15.515625 107.58468ZM16.859375 107.58468L16.859375 98.99093L18.515625 98.99093L18.515625 107.58468L16.859375 107.58468ZM21.09375 103.25655L19.59375 102.99093Q19.84375 102.08468 20.453125 101.6628Q21.078125 101.2253 22.296875 101.2253Q23.390625 101.2253 23.921875 101.49093Q24.46875 101.74093 24.6875 102.14718Q24.90625 102.5378 24.90625 103.61593L24.890625 105.5378Q24.890625 106.36593 24.96875 106.75655Q25.046875 107.13155 25.265625 107.58468L23.640625 107.58468Q23.578125 107.4128 23.484375 107.1003Q23.4375 106.94405 23.421875 106.89718Q23.0 107.31905 22.515625 107.52218Q22.046875 107.7253 21.5 107.7253Q20.53125 107.7253 19.96875 107.20968Q19.421875 106.67843 19.421875 105.88155Q19.421875 105.3503 19.671875 104.94405Q19.9375 104.5378 20.390625 104.31905Q20.84375 104.08468 21.703125 103.92843Q22.84375 103.70968 23.296875 103.52218L23.296875 103.36593Q23.296875 102.88155 23.0625 102.67843Q22.828125 102.4753 22.171875 102.4753Q21.734375 102.4753 21.484375 102.64718Q21.25 102.81905 21.09375 103.25655ZM23.296875 104.6003Q22.984375 104.69405 22.296875 104.8503Q21.609375 104.99093 21.390625 105.13155Q21.078125 105.36593 21.078125 105.70968Q21.078125 106.05343 21.328125 106.31905Q21.59375 106.56905 21.984375 106.56905Q22.4375 106.56905 22.84375 106.27218Q23.140625 106.05343 23.234375 105.7253Q23.296875 105.52218 23.296875 104.92843L23.296875 104.6003ZM32.515625 107.58468L30.875 107.58468L30.875 104.4128Q30.875 103.39718 30.765625 103.1003Q30.671875 102.80343 30.421875 102.64718Q30.1875 102.4753 29.859375 102.4753Q29.421875 102.4753 29.078125 102.70968Q28.75 102.94405 28.625 103.33468Q28.5 103.7253 28.5 104.77218L28.5 107.58468L26.84375 107.58468L26.84375 101.36593L28.375 101.36593L28.375 102.27218Q29.1875 101.2253 30.4375 101.2253Q30.96875 101.2253 31.421875 101.42843Q31.875 101.61593 32.109375 101.92843Q32.34375 102.2253 32.421875 102.61593Q32.515625 102.99093 32.515625 103.70968L32.515625 107.58468ZM39.5625 107.58468L38.046875 107.58468L38.046875 106.6628Q37.65625 107.20968 37.140625 107.4753Q36.625 107.7253 36.09375 107.7253Q35.015625 107.7253 34.25 106.86593Q33.5 105.99093 33.5 104.44405Q33.5 102.86593 34.234375 102.05343Q34.984375 101.2253 36.125 101.2253Q37.15625 101.2253 37.921875 102.08468L37.921875 98.99093L39.5625 98.99093L39.5625 107.58468ZM35.171875 104.33468Q35.171875 105.33468 35.453125 105.77218Q35.84375 106.42843 36.5625 106.42843Q37.125 106.42843 37.515625 105.94405Q37.921875 105.45968 37.921875 104.49093Q37.921875 103.42843 37.53125 102.95968Q37.15625 102.4753 36.546875 102.4753Q35.96875 102.4753 35.5625 102.94405Q35.171875 103.4128 35.171875 104.33468Z" fill-rule="nonzero"/><path fill="#787878" d="M4.71875 124.58468L3.078125 124.58468L3.078125 118.38155Q2.171875 119.2253 0.953125 119.63155L0.953125 118.13155Q1.59375 117.92843 2.34375 117.33468Q3.109375 116.74093 3.390625 115.95968L4.71875 115.95968L4.71875 124.58468ZM7.859375 124.58468L7.859375 122.94405L9.515625 122.94405L9.515625 124.58468L7.859375 124.58468ZM10.515625 117.64718L10.515625 116.11593L16.140625 116.11593L16.140625 117.30343Q15.4375 117.99093 14.71875 119.27218Q14.0 120.55343 13.625 122.00655Q13.25 123.44405 13.25 124.58468L11.671875 124.58468Q11.703125 122.80343 12.390625 120.95968Q13.09375 119.1003 14.25 117.64718L10.515625 117.64718ZM17.515625 118.11593Q17.515625 116.95968 18.015625 116.4128Q18.53125 115.8503 19.40625 115.8503Q20.296875 115.8503 20.796875 116.4128Q21.3125 116.95968 21.3125 118.11593Q21.3125 119.27218 20.796875 119.83468Q20.296875 120.38155 19.4375 120.38155Q18.53125 120.38155 18.015625 119.83468Q17.515625 119.27218 17.515625 118.11593ZM18.8125 118.1003Q18.8125 118.94405 19.0 119.2253Q19.140625 119.44405 19.40625 119.44405Q19.671875 119.44405 19.8125 119.2253Q20.0 118.94405 20.0 118.1003Q20.0 117.27218 19.8125 116.99093Q19.671875 116.77218 19.40625 116.77218Q19.140625 116.77218 19.0 116.9753Q18.8125 117.27218 18.8125 118.1003ZM20.65625 124.9128L19.4375 124.9128L24.015625 115.8503L25.203125 115.8503L20.65625 124.9128ZM23.3125 122.6628Q23.3125 121.50655 23.8125 120.94405Q24.328125 120.38155 25.203125 120.38155Q26.09375 120.38155 26.59375 120.94405Q27.109375 121.50655 27.109375 122.6628Q27.109375 123.81905 26.59375 124.38155Q26.09375 124.92843 25.234375 124.92843Q24.328125 124.92843 23.8125 124.38155Q23.3125 123.81905 23.3125 122.6628ZM24.59375 122.64718Q24.59375 123.49093 24.796875 123.77218Q24.9375 123.99093 25.203125 123.99093Q25.46875 123.99093 25.609375 123.77218Q25.796875 123.49093 25.796875 122.64718Q25.796875 121.81905 25.609375 121.52218Q25.46875 121.31905 25.203125 121.31905Q24.9375 121.31905 24.796875 121.52218Q24.59375 121.81905 24.59375 122.64718Z" fill-rule="nonzero"/><path stroke="#4f4f4f" stroke-width="1.0" stroke-linecap="butt" d="M0 112.08468L105.25 112.08468L154.33835 98.928406" fill-rule="nonzero"/><path fill="#787878" d="M156.33835 98.928406C156.33835 97.82383 155.44292 96.928406 154.33835 96.928406C153.23378 96.928406 152.33835 97.82383 152.33835 98.928406C152.33835 100.032974 153.23378 100.928406 154.33835 100.928406C155.44292 100.928406 156.33835 100.032974 156.33835 98.928406" fill-rule="nonzero"/><path fill="#000000" d="M8.625 138.58469L6.734375 138.58469L5.984375 136.63156L2.546875 136.63156L1.84375 138.58469L0 138.58469L3.34375 129.99094L5.1875 129.99094L8.625 138.58469ZM5.421875 135.17844L4.25 131.99094L3.078125 135.17844L5.421875 135.17844ZM12.953125 138.58469L12.953125 137.64719Q12.625 138.14719 12.0625 138.44406Q11.515625 138.72531 10.890625 138.72531Q10.265625 138.72531 9.765625 138.45969Q9.265625 138.17844 9.046875 137.67844Q8.828125 137.17844 8.828125 136.30344L8.828125 132.36594L10.46875 132.36594L10.46875 135.22531Q10.46875 136.53781 10.5625 136.83469Q10.65625 137.13156 10.890625 137.30344Q11.140625 137.47531 11.5 137.47531Q11.921875 137.47531 12.25 137.24094Q12.59375 137.00656 12.71875 136.66281Q12.84375 136.31906 12.84375 134.99094L12.84375 132.36594L14.484375 132.36594L14.484375 138.58469L12.953125 138.58469ZM15.28125 136.80344L16.9375 136.55344Q17.046875 137.03781 17.359375 137.28781Q17.6875 137.53781 18.265625 137.53781Q18.90625 137.53781 19.21875 137.30344Q19.4375 137.13156 19.4375 136.86594Q19.4375 136.67844 19.328125 136.55344Q19.203125 136.42844 18.78125 136.33469Q16.78125 135.89719 16.25 135.53781Q15.515625 135.02219 15.515625 134.13156Q15.515625 133.31906 16.140625 132.77219Q16.78125 132.22531 18.125 132.22531Q19.40625 132.22531 20.03125 132.64719Q20.65625 133.05344 20.890625 133.86594L19.328125 134.14719Q19.234375 133.78781 18.953125 133.60031Q18.671875 133.39719 18.15625 133.39719Q17.515625 133.39719 17.234375 133.58469Q17.046875 133.70969 17.046875 133.91281Q17.046875 134.10031 17.203125 134.22531Q17.421875 134.38156 18.734375 134.67844Q20.0625 134.97531 20.578125 135.41281Q21.09375 135.85031 21.09375 136.63156Q21.09375 137.49094 20.375 138.11594Q19.671875 138.72531 18.265625 138.72531Q17.0 138.72531 16.25 138.20969Q15.515625 137.69406 15.28125 136.80344ZM25.71875 132.36594L25.71875 133.67844L24.59375 133.67844L24.59375 136.17844Q24.59375 136.94406 24.625 137.06906Q24.65625 137.19406 24.765625 137.28781Q24.890625 137.36594 25.046875 137.36594Q25.28125 137.36594 25.703125 137.19406L25.84375 138.47531Q25.28125 138.72531 24.546875 138.72531Q24.109375 138.72531 23.75 138.58469Q23.390625 138.42844 23.21875 138.19406Q23.0625 137.94406 22.984375 137.55344Q22.9375 137.25656 22.9375 136.38156L22.9375 133.67844L22.1875 133.67844L22.1875 132.36594L22.9375 132.36594L22.9375 131.13156L24.59375 130.16281L24.59375 132.36594L25.71875 132.36594ZM28.4375 138.58469L26.796875 138.58469L26.796875 132.36594L28.328125 132.36594L28.328125 133.24094Q28.71875 132.61594 29.03125 132.42844Q29.34375 132.22531 29.734375 132.22531Q30.296875 132.22531 30.828125 132.53781L30.3125 133.95969Q29.890625 133.69406 29.546875 133.69406Q29.1875 133.69406 28.953125 133.89719Q28.71875 134.08469 28.578125 134.58469Q28.4375 135.06906 28.4375 136.66281L28.4375 138.58469ZM33.09375 134.25656L31.59375 133.99094Q31.84375 133.08469 32.453125 132.66281Q33.078125 132.22531 34.296875 132.22531Q35.390625 132.22531 35.921875 132.49094Q36.46875 132.74094 36.6875 133.14719Q36.90625 133.53781 36.90625 134.61594L36.890625 136.53781Q36.890625 137.36594 36.96875 137.75656Q37.046875 138.13156 37.265625 138.58469L35.640625 138.58469Q35.578125 138.41281 35.484375 138.10031Q35.4375 137.94406 35.421875 137.89719Q35.0 138.31906 34.515625 138.52219Q34.046875 138.72531 33.5 138.72531Q32.53125 138.72531 31.96875 138.20969Q31.421875 137.67844 31.421875 136.88156Q31.421875 136.35031 31.671875 135.94406Q31.9375 135.53781 32.390625 135.31906Q32.84375 135.08469 33.703125 134.92844Q34.84375 134.70969 35.296875 134.52219L35.296875 134.36594Q35.296875 133.88156 35.0625 133.67844Q34.828125 133.47531 34.171875 133.47531Q33.734375 133.47531 33.484375 133.64719Q33.25 133.81906 33.09375 134.25656ZM35.296875 135.60031Q34.984375 135.69406 34.296875 135.85031Q33.609375 135.99094 33.390625 136.13156Q33.078125 136.36594 33.078125 136.70969Q33.078125 137.05344 33.328125 137.31906Q33.59375 137.56906 33.984375 137.56906Q34.4375 137.56906 34.84375 137.27219Q35.140625 137.05344 35.234375 136.72531Q35.296875 136.52219 35.296875 135.92844L35.296875 135.60031ZM38.859375 138.58469L38.859375 129.99094L40.515625 129.99094L40.515625 138.58469L38.859375 138.58469ZM41.859375 131.52219L41.859375 129.99094L43.515625 129.99094L43.515625 131.52219L41.859375 131.52219ZM41.859375 138.58469L41.859375 132.36594L43.515625 132.36594L43.515625 138.58469L41.859375 138.58469ZM46.09375 134.25656L44.59375 133.99094Q44.84375 133.08469 45.453125 132.66281Q46.078125 132.22531 47.296875 132.22531Q48.390625 132.22531 48.921875 132.49094Q49.46875 132.74094 49.6875 133.14719Q49.90625 133.53781 49.90625 134.61594L49.890625 136.53781Q49.890625 137.36594 49.96875 137.75656Q50.046875 138.13156 50.265625 138.58469L48.640625 138.58469Q48.578125 138.41281 48.484375 138.10031Q48.4375 137.94406 48.421875 137.89719Q48.0 138.31906 47.515625 138.52219Q47.046875 138.72531 46.5 138.72531Q45.53125 138.72531 44.96875 138.20969Q44.421875 137.67844 44.421875 136.88156Q44.421875 136.35031 44.671875 135.94406Q44.9375 135.53781 45.390625 135.31906Q45.84375 135.08469 46.703125 134.92844Q47.84375 134.70969 48.296875 134.52219L48.296875 134.36594Q48.296875 133.88156 48.0625 133.67844Q47.828125 133.47531 47.171875 133.47531Q46.734375 133.47531 46.484375 133.64719Q46.25 133.81906 46.09375 134.25656ZM48.296875 135.60031Q47.984375 135.69406 47.296875 135.85031Q46.609375 135.99094 46.390625 136.13156Q46.078125 136.36594 46.078125 136.70969Q46.078125 137.05344 46.328125 137.31906Q46.59375 137.56906 46.984375 137.56906Q47.4375 137.56906 47.84375 137.27219Q48.140625 137.05344 48.234375 136.72531Q48.296875 136.52219 48.296875 135.92844L48.296875 135.60031Z" fill-rule="nonzero"/><path fill="#787878" d="M6.078125 154.05344L6.078125 155.58469L0.296875 155.58469Q0.390625 154.70969 0.859375 153.94406Q1.328125 153.16281 2.71875 151.88156Q3.828125 150.85031 4.078125 150.47531Q4.421875 149.95969 4.421875 149.45969Q4.421875 148.91281 4.125 148.61594Q3.828125 148.31906 3.3125 148.31906Q2.796875 148.31906 2.484375 148.63156Q2.1875 148.94406 2.140625 149.66281L0.5 149.50656Q0.640625 148.14719 1.40625 147.55344Q2.1875 146.95969 3.34375 146.95969Q4.625 146.95969 5.34375 147.64719Q6.078125 148.33469 6.078125 149.35031Q6.078125 149.92844 5.859375 150.45969Q5.65625 150.97531 5.203125 151.55344Q4.90625 151.92844 4.125 152.64719Q3.34375 153.36594 3.140625 153.60031Q2.9375 153.83469 2.796875 154.05344L6.078125 154.05344ZM7.859375 155.58469L7.859375 153.94406L9.515625 153.94406L9.515625 155.58469L7.859375 155.58469ZM13.296875 146.95969Q14.546875 146.95969 15.25 147.85031Q16.078125 148.89719 16.078125 151.35031Q16.078125 153.78781 15.234375 154.85031Q14.546875 155.72531 13.296875 155.72531Q12.046875 155.72531 11.265625 154.77219Q10.5 153.80344 10.5 151.33469Q10.5 148.89719 11.34375 147.83469Q12.046875 146.95969 13.296875 146.95969ZM13.296875 148.31906Q13.0 148.31906 12.765625 148.52219Q12.53125 148.70969 12.390625 149.19406Q12.234375 149.83469 12.234375 151.35031Q12.234375 152.86594 12.375 153.42844Q12.53125 153.99094 12.765625 154.17844Q13.0 154.36594 13.296875 154.36594Q13.59375 154.36594 13.828125 154.17844Q14.0625 153.99094 14.1875 153.49094Q14.359375 152.86594 14.359375 151.35031Q14.359375 149.83469 14.203125 149.27219Q14.0625 148.70969 13.828125 148.52219Q13.59375 148.31906 13.296875 148.31906ZM17.515625 149.11594Q17.515625 147.95969 18.015625 147.41281Q18.53125 146.85031 19.40625 146.85031Q20.296875 146.85031 20.796875 147.41281Q21.3125 147.95969 21.3125 149.11594Q21.3125 150.27219 20.796875 150.83469Q20.296875 151.38156 19.4375 151.38156Q18.53125 151.38156 18.015625 150.83469Q17.515625 150.27219 17.515625 149.11594ZM18.8125 149.10031Q18.8125 149.94406 19.0 150.22531Q19.140625 150.44406 19.40625 150.44406Q19.671875 150.44406 19.8125 150.22531Q20.0 149.94406 20.0 149.10031Q20.0 148.27219 19.8125 147.99094Q19.671875 147.77219 19.40625 147.77219Q19.140625 147.77219 19.0 147.97531Q18.8125 148.27219 18.8125 149.10031ZM20.65625 155.91281L19.4375 155.91281L24.015625 146.85031L25.203125 146.85031L20.65625 155.91281ZM23.3125 153.66281Q23.3125 152.50656 23.8125 151.94406Q24.328125 151.38156 25.203125 151.38156Q26.09375 151.38156 26.59375 151.94406Q27.109375 152.50656 27.109375 153.66281Q27.109375 154.81906 26.59375 155.38156Q26.09375 155.92844 25.234375 155.92844Q24.328125 155.92844 23.8125 155.38156Q23.3125 154.81906 23.3125 153.66281ZM24.59375 153.64719Q24.59375 154.49094 24.796875 154.77219Q24.9375 154.99094 25.203125 154.99094Q25.46875 154.99094 25.609375 154.77219Q25.796875 154.49094 25.796875 153.64719Q25.796875 152.81906 25.609375 152.52219Q25.46875 152.31906 25.203125 152.31906Q24.9375 152.31906 24.796875 152.52219Q24.59375 152.81906 24.59375 153.64719Z" fill-rule="nonzero"/><path stroke="#4f4f4f" stroke-width="1.0" stroke-linecap="butt" d="M0 143.08469L105.25 143.08469L143.07614 111.21034" fill-rule="nonzero"/><path fill="#787878" d="M145.07614 111.21034C145.07614 110.105774 144.18071 109.21034 143.07614 109.21034C141.97157 109.21034 141.07614 110.105774 141.07614 111.21034C141.07614 112.31491 141.97157 113.21034 143.07614 113.21034C144.18071 113.21034 145.07614 112.31491 145.07614 111.21034" fill-rule="nonzero"/><path fill="#000000" d="M0.890625 169.58469L0.890625 160.99094L6.78125 160.99094L6.78125 162.44406L2.625 162.44406L2.625 164.47531L6.203125 164.47531L6.203125 165.92844L2.625 165.92844L2.625 169.58469L0.890625 169.58469ZM8.4375 169.58469L6.796875 169.58469L6.796875 163.36594L8.328125 163.36594L8.328125 164.24094Q8.71875 163.61594 9.03125 163.42844Q9.34375 163.22531 9.734375 163.22531Q10.296875 163.22531 10.828125 163.53781L10.3125 164.95969Q9.890625 164.69406 9.546875 164.69406Q9.1875 164.69406 8.953125 164.89719Q8.71875 165.08469 8.578125 165.58469Q8.4375 166.06906 8.4375 167.66281L8.4375 169.58469ZM13.09375 165.25656L11.59375 164.99094Q11.84375 164.08469 12.453125 163.66281Q13.078125 163.22531 14.296875 163.22531Q15.390625 163.22531 15.921875 163.49094Q16.46875 163.74094 16.6875 164.14719Q16.90625 164.53781 16.90625 165.61594L16.890625 167.53781Q16.890625 168.36594 16.96875 168.75656Q17.046875 169.13156 17.265625 169.58469L15.640625 169.58469Q15.578125 169.41281 15.484375 169.10031Q15.4375 168.94406 15.421875 168.89719Q15.0 169.31906 14.515625 169.52219Q14.046875 169.72531 13.5 169.72531Q12.53125 169.72531 11.96875 169.20969Q11.421875 168.67844 11.421875 167.88156Q11.421875 167.35031 11.671875 166.94406Q11.9375 166.53781 12.390625 166.31906Q12.84375 166.08469 13.703125 165.92844Q14.84375 165.70969 15.296875 165.52219L15.296875 165.36594Q15.296875 164.88156 15.0625 164.67844Q14.828125 164.47531 14.171875 164.47531Q13.734375 164.47531 13.484375 164.64719Q13.25 164.81906 13.09375 165.25656ZM15.296875 166.60031Q14.984375 166.69406 14.296875 166.85031Q13.609375 166.99094 13.390625 167.13156Q13.078125 167.36594 13.078125 167.70969Q13.078125 168.05344 13.328125 168.31906Q13.59375 168.56906 13.984375 168.56906Q14.4375 168.56906 14.84375 168.27219Q15.140625 168.05344 15.234375 167.72531Q15.296875 167.52219 15.296875 166.92844L15.296875 166.60031ZM24.515625 169.58469L22.875 169.58469L22.875 166.41281Q22.875 165.39719 22.765625 165.10031Q22.671875 164.80344 22.421875 164.64719Q22.1875 164.47531 21.859375 164.47531Q21.421875 164.47531 21.078125 164.70969Q20.75 164.94406 20.625 165.33469Q20.5 165.72531 20.5 166.77219L20.5 169.58469L18.84375 169.58469L18.84375 163.36594L20.375 163.36594L20.375 164.27219Q21.1875 163.22531 22.4375 163.22531Q22.96875 163.22531 23.421875 163.42844Q23.875 163.61594 24.109375 163.92844Q24.34375 164.22531 24.421875 164.61594Q24.515625 164.99094 24.515625 165.70969L24.515625 169.58469ZM31.28125 165.19406L29.671875 165.49094Q29.578125 165.00656 29.28125 164.77219Q29.0 164.52219 28.546875 164.52219Q27.921875 164.52219 27.546875 164.94406Q27.1875 165.36594 27.1875 166.36594Q27.1875 167.47531 27.5625 167.92844Q27.9375 168.38156 28.5625 168.38156Q29.03125 168.38156 29.328125 168.11594Q29.625 167.85031 29.75 167.19406L31.375 167.47531Q31.125 168.58469 30.40625 169.16281Q29.6875 169.72531 28.484375 169.72531Q27.125 169.72531 26.3125 168.86594Q25.5 168.00656 25.5 166.47531Q25.5 164.94406 26.3125 164.08469Q27.125 163.22531 28.515625 163.22531Q29.65625 163.22531 30.328125 163.70969Q31.0 164.19406 31.28125 165.19406ZM36.46875 167.60031L38.109375 167.88156Q37.796875 168.78781 37.109375 169.25656Q36.421875 169.72531 35.40625 169.72531Q33.78125 169.72531 33.0 168.66281Q32.375 167.81906 32.375 166.52219Q32.375 164.97531 33.1875 164.10031Q34.0 163.22531 35.234375 163.22531Q36.625 163.22531 37.421875 164.14719Q38.234375 165.05344 38.1875 166.94406L34.0625 166.94406Q34.09375 167.67844 34.46875 168.08469Q34.84375 168.49094 35.421875 168.49094Q35.796875 168.49094 36.0625 168.28781Q36.328125 168.06906 36.46875 167.60031ZM36.5625 165.94406Q36.546875 165.22531 36.1875 164.85031Q35.84375 164.47531 35.328125 164.47531Q34.796875 164.47531 34.4375 164.86594Q34.09375 165.27219 34.09375 165.94406L36.5625 165.94406Z" fill-rule="nonzero"/><path fill="#787878" d="M0.453125 184.30344L2.046875 184.11594Q2.125 184.72531 2.453125 185.05344Q2.796875 185.36594 3.265625 185.36594Q3.78125 185.36594 4.125 184.97531Q4.46875 184.58469 4.46875 183.92844Q4.46875 183.31906 4.125 182.95969Q3.796875 182.58469 3.328125 182.58469Q3.0 182.58469 2.5625 182.70969L2.75 181.36594Q3.421875 181.38156 3.765625 181.08469Q4.125 180.77219 4.125 180.25656Q4.125 179.83469 3.859375 179.58469Q3.609375 179.31906 3.171875 179.31906Q2.75 179.31906 2.453125 179.61594Q2.15625 179.89719 2.09375 180.45969L0.578125 180.20969Q0.734375 179.42844 1.046875 178.95969Q1.375 178.49094 1.9375 178.22531Q2.515625 177.95969 3.21875 177.95969Q4.4375 177.95969 5.171875 178.72531Q5.765625 179.36594 5.765625 180.16281Q5.765625 181.28781 4.53125 181.95969Q5.28125 182.13156 5.71875 182.67844Q6.15625 183.22531 6.15625 184.00656Q6.15625 185.13156 5.328125 185.92844Q4.5 186.72531 3.28125 186.72531Q2.109375 186.72531 1.34375 186.05344Q0.578125 185.38156 0.453125 184.30344ZM7.859375 186.58469L7.859375 184.94406L9.515625 184.94406L9.515625 186.58469L7.859375 186.58469ZM10.515625 179.64719L10.515625 178.11594L16.140625 178.11594L16.140625 179.30344Q15.4375 179.99094 14.71875 181.27219Q14.0 182.55344 13.625 184.00656Q13.25 185.44406 13.25 186.58469L11.671875 186.58469Q11.703125 184.80344 12.390625 182.95969Q13.09375 181.10031 14.25 179.64719L10.515625 179.64719ZM17.515625 180.11594Q17.515625 178.95969 18.015625 178.41281Q18.53125 177.85031 19.40625 177.85031Q20.296875 177.85031 20.796875 178.41281Q21.3125 178.95969 21.3125 180.11594Q21.3125 181.27219 20.796875 181.83469Q20.296875 182.38156 19.4375 182.38156Q18.53125 182.38156 18.015625 181.83469Q17.515625 181.27219 17.515625 180.11594ZM18.8125 180.10031Q18.8125 180.94406 19.0 181.22531Q19.140625 181.44406 19.40625 181.44406Q19.671875 181.44406 19.8125 181.22531Q20.0 180.94406 20.0 180.10031Q20.0 179.27219 19.8125 178.99094Q19.671875 178.77219 19.40625 178.77219Q19.140625 178.77219 19.0 178.97531Q18.8125 179.27219 18.8125 180.10031ZM20.65625 186.91281L19.4375 186.91281L24.015625 177.85031L25.203125 177.85031L20.65625 186.91281ZM23.3125 184.66281Q23.3125 183.50656 23.8125 182.94406Q24.328125 182.38156 25.203125 182.38156Q26.09375 182.38156 26.59375 182.94406Q27.109375 183.50656 27.109375 184.66281Q27.109375 185.81906 26.59375 186.38156Q26.09375 186.92844 25.234375 186.92844Q24.328125 186.92844 23.8125 186.38156Q23.3125 185.81906 23.3125 184.66281ZM24.59375 184.64719Q24.59375 185.49094 24.796875 185.77219Q24.9375 185.99094 25.203125 185.99094Q25.46875 185.99094 25.609375 185.77219Q25.796875 185.49094 25.796875 184.64719Q25.796875 183.81906 25.609375 183.52219Q25.46875 183.31906 25.203125 183.31906Q24.9375 183.31906 24.796875 183.52219Q24.59375 183.81906 24.59375 184.64719Z" fill-rule="nonzero"/><path stroke="#4f4f4f" stroke-width="1.0" stroke-linecap="butt" d="M0 174.08469L105.25 174.08469L130.16957 131.33772" fill-rule="nonzero"/><path fill="#787878" d="M132.16957 131.33772C132.16957 130.23315 131.27414 129.33772 130.16957 129.33772C129.065 129.33772 128.16957 130.23315 128.16957 131.33772C128.16957 132.4423 129.065 133.33772 130.16957 133.33772C131.27414 133.33772 132.16957 132.4423 132.16957 131.33772" fill-rule="nonzero"/><path fill="#000000" d="M0.4375 197.78781L2.125 197.63156Q2.28125 198.47531 2.734375 198.88156Q3.203125 199.27219 4.0 199.27219Q4.828125 199.27219 5.25 198.92844Q5.6875 198.56906 5.6875 198.08469Q5.6875 197.78781 5.5 197.56906Q5.328125 197.35031 4.875 197.19406Q4.578125 197.08469 3.5 196.81906Q2.09375 196.47531 1.53125 195.97531Q0.75 195.25656 0.75 194.24094Q0.75 193.58469 1.109375 193.02219Q1.484375 192.44406 2.1875 192.14719Q2.890625 191.85031 3.875 191.85031Q5.5 191.85031 6.3125 192.56906Q7.125 193.27219 7.171875 194.44406L5.4375 194.52219Q5.328125 193.86594 4.953125 193.58469Q4.59375 193.28781 3.859375 193.28781Q3.109375 193.28781 2.671875 193.60031Q2.40625 193.78781 2.40625 194.13156Q2.40625 194.42844 2.65625 194.64719Q2.984375 194.92844 4.25 195.22531Q5.515625 195.52219 6.125 195.85031Q6.734375 196.16281 7.078125 196.72531Q7.421875 197.27219 7.421875 198.08469Q7.421875 198.81906 7.0 199.47531Q6.59375 200.11594 5.84375 200.42844Q5.09375 200.74094 3.984375 200.74094Q2.34375 200.74094 1.46875 199.99094Q0.609375 199.22531 0.4375 197.78781ZM10.015625 200.58469L8.046875 194.36594L9.65625 194.36594L10.8125 198.44406L11.890625 194.36594L13.484375 194.36594L14.515625 198.44406L15.703125 194.36594L17.328125 194.36594L15.328125 200.58469L13.75 200.58469L12.671875 196.58469L11.625 200.58469L10.015625 200.58469ZM22.46875 198.60031L24.109375 198.88156Q23.796875 199.78781 23.109375 200.25656Q22.421875 200.72531 21.40625 200.72531Q19.78125 200.72531 19.0 199.66281Q18.375 198.81906 18.375 197.52219Q18.375 195.97531 19.1875 195.10031Q20.0 194.22531 21.234375 194.22531Q22.625 194.22531 23.421875 195.14719Q24.234375 196.05344 24.1875 197.94406L20.0625 197.94406Q20.09375 198.67844 20.46875 199.08469Q20.84375 199.49094 21.421875 199.49094Q21.796875 199.49094 22.0625 199.28781Q22.328125 199.06906 22.46875 198.60031ZM22.5625 196.94406Q22.546875 196.22531 22.1875 195.85031Q21.84375 195.47531 21.328125 195.47531Q20.796875 195.47531 20.4375 195.86594Q20.09375 196.27219 20.09375 196.94406L22.5625 196.94406ZM31.5625 200.58469L30.046875 200.58469L30.046875 199.66281Q29.65625 200.20969 29.140625 200.47531Q28.625 200.72531 28.09375 200.72531Q27.015625 200.72531 26.25 199.86594Q25.5 198.99094 25.5 197.44406Q25.5 195.86594 26.234375 195.05344Q26.984375 194.22531 28.125 194.22531Q29.15625 194.22531 29.921875 195.08469L29.921875 191.99094L31.5625 191.99094L31.5625 200.58469ZM27.171875 197.33469Q27.171875 198.33469 27.453125 198.77219Q27.84375 199.42844 28.5625 199.42844Q29.125 199.42844 29.515625 198.94406Q29.921875 198.45969 29.921875 197.49094Q29.921875 196.42844 29.53125 195.95969Q29.15625 195.47531 28.546875 195.47531Q27.96875 195.47531 27.5625 195.94406Q27.171875 196.41281 27.171875 197.33469ZM36.46875 198.60031L38.109375 198.88156Q37.796875 199.78781 37.109375 200.25656Q36.421875 200.72531 35.40625 200.72531Q33.78125 200.72531 33.0 199.66281Q32.375 198.81906 32.375 197.52219Q32.375 195.97531 33.1875 195.10031Q34.0 194.22531 35.234375 194.22531Q36.625 194.22531 37.421875 195.14719Q38.234375 196.05344 38.1875 197.94406L34.0625 197.94406Q34.09375 198.67844 34.46875 199.08469Q34.84375 199.49094 35.421875 199.49094Q35.796875 199.49094 36.0625 199.28781Q36.328125 199.06906 36.46875 198.60031ZM36.5625 196.94406Q36.546875 196.22531 36.1875 195.85031Q35.84375 195.47531 35.328125 195.47531Q34.796875 195.47531 34.4375 195.86594Q34.09375 196.27219 34.09375 196.94406L36.5625 196.94406ZM45.515625 200.58469L43.875 200.58469L43.875 197.41281Q43.875 196.39719 43.765625 196.10031Q43.671875 195.80344 43.421875 195.64719Q43.1875 195.47531 42.859375 195.47531Q42.421875 195.47531 42.078125 195.70969Q41.75 195.94406 41.625 196.33469Q41.5 196.72531 41.5 197.77219L41.5 200.58469L39.84375 200.58469L39.84375 194.36594L41.375 194.36594L41.375 195.27219Q42.1875 194.22531 43.4375 194.22531Q43.96875 194.22531 44.421875 194.42844Q44.875 194.61594 45.109375 194.92844Q45.34375 195.22531 45.421875 195.61594Q45.515625 195.99094 45.515625 196.70969L45.515625 200.58469Z" fill-rule="nonzero"/><path fill="#787878" d="M0.453125 215.30344L2.046875 215.11594Q2.125 215.72531 2.453125 216.05344Q2.796875 216.36594 3.265625 216.36594Q3.78125 216.36594 4.125 215.97531Q4.46875 215.58469 4.46875 214.92844Q4.46875 214.31906 4.125 213.95969Q3.796875 213.58469 3.328125 213.58469Q3.0 213.58469 2.5625 213.70969L2.75 212.36594Q3.421875 212.38156 3.765625 212.08469Q4.125 211.77219 4.125 211.25656Q4.125 210.83469 3.859375 210.58469Q3.609375 210.31906 3.171875 210.31906Q2.75 210.31906 2.453125 210.61594Q2.15625 210.89719 2.09375 211.45969L0.578125 211.20969Q0.734375 210.42844 1.046875 209.95969Q1.375 209.49094 1.9375 209.22531Q2.515625 208.95969 3.21875 208.95969Q4.4375 208.95969 5.171875 209.72531Q5.765625 210.36594 5.765625 211.16281Q5.765625 212.28781 4.53125 212.95969Q5.28125 213.13156 5.71875 213.67844Q6.15625 214.22531 6.15625 215.00656Q6.15625 216.13156 5.328125 216.92844Q4.5 217.72531 3.28125 217.72531Q2.109375 217.72531 1.34375 217.05344Q0.578125 216.38156 0.453125 215.30344ZM7.859375 217.58469L7.859375 215.94406L9.515625 215.94406L9.515625 217.58469L7.859375 217.58469ZM11.921875 212.94406Q11.28125 212.67844 10.984375 212.20969Q10.703125 211.74094 10.703125 211.17844Q10.703125 210.20969 11.375 209.58469Q12.046875 208.95969 13.28125 208.95969Q14.5 208.95969 15.171875 209.58469Q15.859375 210.20969 15.859375 211.17844Q15.859375 211.77219 15.546875 212.24094Q15.234375 212.70969 14.671875 212.94406Q15.390625 213.24094 15.765625 213.78781Q16.140625 214.33469 16.140625 215.05344Q16.140625 216.24094 15.375 216.99094Q14.625 217.74094 13.359375 217.74094Q12.1875 217.74094 11.40625 217.11594Q10.484375 216.39719 10.484375 215.13156Q10.484375 214.42844 10.828125 213.85031Q11.171875 213.27219 11.921875 212.94406ZM12.265625 211.28781Q12.265625 211.78781 12.53125 212.06906Q12.8125 212.33469 13.28125 212.33469Q13.75 212.33469 14.03125 212.05344Q14.3125 211.77219 14.3125 211.28781Q14.3125 210.81906 14.03125 210.55344Q13.75 210.27219 13.296875 210.27219Q12.828125 210.27219 12.546875 210.55344Q12.265625 210.83469 12.265625 211.28781ZM12.109375 214.97531Q12.109375 215.64719 12.453125 216.03781Q12.8125 216.41281 13.328125 216.41281Q13.84375 216.41281 14.171875 216.05344Q14.5 215.67844 14.5 214.99094Q14.5 214.38156 14.15625 214.02219Q13.828125 213.64719 13.3125 213.64719Q12.703125 213.64719 12.40625 214.06906Q12.109375 214.49094 12.109375 214.97531ZM17.515625 211.11594Q17.515625 209.95969 18.015625 209.41281Q18.53125 208.85031 19.40625 208.85031Q20.296875 208.85031 20.796875 209.41281Q21.3125 209.95969 21.3125 211.11594Q21.3125 212.27219 20.796875 212.83469Q20.296875 213.38156 19.4375 213.38156Q18.53125 213.38156 18.015625 212.83469Q17.515625 212.27219 17.515625 211.11594ZM18.8125 211.10031Q18.8125 211.94406 19.0 212.22531Q19.140625 212.44406 19.40625 212.44406Q19.671875 212.44406 19.8125 212.22531Q20.0 211.94406 20.0 211.10031Q20.0 210.27219 19.8125 209.99094Q19.671875 209.77219 19.40625 209.77219Q19.140625 209.77219 19.0 209.97531Q18.8125 210.27219 18.8125 211.10031ZM20.65625 217.91281L19.4375 217.91281L24.015625 208.85031L25.203125 208.85031L20.65625 217.91281ZM23.3125 215.66281Q23.3125 214.50656 23.8125 213.94406Q24.328125 213.38156 25.203125 213.38156Q26.09375 213.38156 26.59375 213.94406Q27.109375 214.50656 27.109375 215.66281Q27.109375 216.81906 26.59375 217.38156Q26.09375 217.92844 25.234375 217.92844Q24.328125 217.92844 23.8125 217.38156Q23.3125 216.81906 23.3125 215.66281ZM24.59375 215.64719Q24.59375 216.49094 24.796875 216.77219Q24.9375 216.99094 25.203125 216.99094Q25.46875 216.99094 25.609375 216.77219Q25.796875 216.49094 25.796875 215.64719Q25.796875 214.81906 25.609375 214.52219Q25.46875 214.31906 25.203125 214.31906Q24.9375 214.31906 24.796875 214.52219Q24.59375 214.81906 24.59375 215.64719Z" fill-rule="nonzero"/><path stroke="#4f4f4f" stroke-width="1.0" stroke-linecap="butt" d="M0 205.08469L105.25 205.08469L121.38178 159.43813" fill-rule="nonzero"/><path fill="#787878" d="M123.38178 159.43813C123.38178 158.33356 122.48635 157.43813 121.38178 157.43813C120.277214 157.43813 119.38178 158.33356 119.38178 159.43813C119.38178 160.5427 120.277214 161.43813 121.38178 161.43813C122.48635 161.43813 123.38178 160.5427 123.38178 159.43813" fill-rule="nonzero"/><path fill="#000000" d="M6.375 228.42844L8.046875 228.95969Q7.671875 230.36594 6.765625 231.05344Q5.859375 231.72531 4.484375 231.72531Q2.765625 231.72531 1.65625 230.56906Q0.5625 229.39719 0.5625 227.36594Q0.5625 225.22531 1.671875 224.03781Q2.78125 222.85031 4.59375 222.85031Q6.171875 222.85031 7.15625 223.77219Q7.734375 224.33469 8.03125 225.36594L6.3125 225.77219Q6.15625 225.10031 5.671875 224.72531Q5.1875 224.33469 4.5 224.33469Q3.546875 224.33469 2.953125 225.02219Q2.359375 225.69406 2.359375 227.24094Q2.359375 228.86594 2.9375 229.55344Q3.53125 230.24094 4.46875 230.24094Q5.15625 230.24094 5.65625 229.80344Q6.15625 229.36594 6.375 228.42844ZM10.09375 227.25656L8.59375 226.99094Q8.84375 226.08469 9.453125 225.66281Q10.078125 225.22531 11.296875 225.22531Q12.390625 225.22531 12.921875 225.49094Q13.46875 225.74094 13.6875 226.14719Q13.90625 226.53781 13.90625 227.61594L13.890625 229.53781Q13.890625 230.36594 13.96875 230.75656Q14.046875 231.13156 14.265625 231.58469L12.640625 231.58469Q12.578125 231.41281 12.484375 231.10031Q12.4375 230.94406 12.421875 230.89719Q12.0 231.31906 11.515625 231.52219Q11.046875 231.72531 10.5 231.72531Q9.53125 231.72531 8.96875 231.20969Q8.421875 230.67844 8.421875 229.88156Q8.421875 229.35031 8.671875 228.94406Q8.9375 228.53781 9.390625 228.31906Q9.84375 228.08469 10.703125 227.92844Q11.84375 227.70969 12.296875 227.52219L12.296875 227.36594Q12.296875 226.88156 12.0625 226.67844Q11.828125 226.47531 11.171875 226.47531Q10.734375 226.47531 10.484375 226.64719Q10.25 226.81906 10.09375 227.25656ZM12.296875 228.60031Q11.984375 228.69406 11.296875 228.85031Q10.609375 228.99094 10.390625 229.13156Q10.078125 229.36594 10.078125 229.70969Q10.078125 230.05344 10.328125 230.31906Q10.59375 230.56906 10.984375 230.56906Q11.4375 230.56906 11.84375 230.27219Q12.140625 230.05344 12.234375 229.72531Q12.296875 229.52219 12.296875 228.92844L12.296875 228.60031ZM21.515625 231.58469L19.875 231.58469L19.875 228.41281Q19.875 227.39719 19.765625 227.10031Q19.671875 226.80344 19.421875 226.64719Q19.1875 226.47531 18.859375 226.47531Q18.421875 226.47531 18.078125 226.70969Q17.75 226.94406 17.625 227.33469Q17.5 227.72531 17.5 228.77219L17.5 231.58469L15.84375 231.58469L15.84375 225.36594L17.375 225.36594L17.375 226.27219Q18.1875 225.22531 19.4375 225.22531Q19.96875 225.22531 20.421875 225.42844Q20.875 225.61594 21.109375 225.92844Q21.34375 226.22531 21.421875 226.61594Q21.515625 226.99094 21.515625 227.70969L21.515625 231.58469ZM24.09375 227.25656L22.59375 226.99094Q22.84375 226.08469 23.453125 225.66281Q24.078125 225.22531 25.296875 225.22531Q26.390625 225.22531 26.921875 225.49094Q27.46875 225.74094 27.6875 226.14719Q27.90625 226.53781 27.90625 227.61594L27.890625 229.53781Q27.890625 230.36594 27.96875 230.75656Q28.046875 231.13156 28.265625 231.58469L26.640625 231.58469Q26.578125 231.41281 26.484375 231.10031Q26.4375 230.94406 26.421875 230.89719Q26.0 231.31906 25.515625 231.52219Q25.046875 231.72531 24.5 231.72531Q23.53125 231.72531 22.96875 231.20969Q22.421875 230.67844 22.421875 229.88156Q22.421875 229.35031 22.671875 228.94406Q22.9375 228.53781 23.390625 228.31906Q23.84375 228.08469 24.703125 227.92844Q25.84375 227.70969 26.296875 227.52219L26.296875 227.36594Q26.296875 226.88156 26.0625 226.67844Q25.828125 226.47531 25.171875 226.47531Q24.734375 226.47531 24.484375 226.64719Q24.25 226.81906 24.09375 227.25656ZM26.296875 228.60031Q25.984375 228.69406 25.296875 228.85031Q24.609375 228.99094 24.390625 229.13156Q24.078125 229.36594 24.078125 229.70969Q24.078125 230.05344 24.328125 230.31906Q24.59375 230.56906 24.984375 230.56906Q25.4375 230.56906 25.84375 230.27219Q26.140625 230.05344 26.234375 229.72531Q26.296875 229.52219 26.296875 228.92844L26.296875 228.60031ZM35.5625 231.58469L34.046875 231.58469L34.046875 230.66281Q33.65625 231.20969 33.140625 231.47531Q32.625 231.72531 32.09375 231.72531Q31.015625 231.72531 30.25 230.86594Q29.5 229.99094 29.5 228.44406Q29.5 226.86594 30.234375 226.05344Q30.984375 225.22531 32.125 225.22531Q33.15625 225.22531 33.921875 226.08469L33.921875 222.99094L35.5625 222.99094L35.5625 231.58469ZM31.171875 228.33469Q31.171875 229.33469 31.453125 229.77219Q31.84375 230.42844 32.5625 230.42844Q33.125 230.42844 33.515625 229.94406Q33.921875 229.45969 33.921875 228.49094Q33.921875 227.42844 33.53125 226.95969Q33.15625 226.47531 32.546875 226.47531Q31.96875 226.47531 31.5625 226.94406Q31.171875 227.41281 31.171875 228.33469ZM38.09375 227.25656L36.59375 226.99094Q36.84375 226.08469 37.453125 225.66281Q38.078125 225.22531 39.296875 225.22531Q40.390625 225.22531 40.921875 225.49094Q41.46875 225.74094 41.6875 226.14719Q41.90625 226.53781 41.90625 227.61594L41.890625 229.53781Q41.890625 230.36594 41.96875 230.75656Q42.046875 231.13156 42.265625 231.58469L40.640625 231.58469Q40.578125 231.41281 40.484375 231.10031Q40.4375 230.94406 40.421875 230.89719Q40.0 231.31906 39.515625 231.52219Q39.046875 231.72531 38.5 231.72531Q37.53125 231.72531 36.96875 231.20969Q36.421875 230.67844 36.421875 229.88156Q36.421875 229.35031 36.671875 228.94406Q36.9375 228.53781 37.390625 228.31906Q37.84375 228.08469 38.703125 227.92844Q39.84375 227.70969 40.296875 227.52219L40.296875 227.36594Q40.296875 226.88156 40.0625 226.67844Q39.828125 226.47531 39.171875 226.47531Q38.734375 226.47531 38.484375 226.64719Q38.25 226.81906 38.09375 227.25656ZM40.296875 228.60031Q39.984375 228.69406 39.296875 228.85031Q38.609375 228.99094 38.390625 229.13156Q38.078125 229.36594 38.078125 229.70969Q38.078125 230.05344 38.328125 230.31906Q38.59375 230.56906 38.984375 230.56906Q39.4375 230.56906 39.84375 230.27219Q40.140625 230.05344 40.234375 229.72531Q40.296875 229.52219 40.296875 228.92844L40.296875 228.60031Z" fill-rule="nonzero"/><path fill="#787878" d="M1.921875 243.94406Q1.28125 243.67844 0.984375 243.20969Q0.703125 242.74094 0.703125 242.17844Q0.703125 241.20969 1.375 240.58469Q2.046875 239.95969 3.28125 239.95969Q4.5 239.95969 5.171875 240.58469Q5.859375 241.20969 5.859375 242.17844Q5.859375 242.77219 5.546875 243.24094Q5.234375 243.70969 4.671875 243.94406Q5.390625 244.24094 5.765625 244.78781Q6.140625 245.33469 6.140625 246.05344Q6.140625 247.24094 5.375 247.99094Q4.625 248.74094 3.359375 248.74094Q2.1875 248.74094 1.40625 248.11594Q0.484375 247.39719 0.484375 246.13156Q0.484375 245.42844 0.828125 244.85031Q1.171875 244.27219 1.921875 243.94406ZM2.265625 242.28781Q2.265625 242.78781 2.53125 243.06906Q2.8125 243.33469 3.28125 243.33469Q3.75 243.33469 4.03125 243.05344Q4.3125 242.77219 4.3125 242.28781Q4.3125 241.81906 4.03125 241.55344Q3.75 241.27219 3.296875 241.27219Q2.828125 241.27219 2.546875 241.55344Q2.265625 241.83469 2.265625 242.28781ZM2.109375 245.97531Q2.109375 246.64719 2.453125 247.03781Q2.8125 247.41281 3.328125 247.41281Q3.84375 247.41281 4.171875 247.05344Q4.5 246.67844 4.5 245.99094Q4.5 245.38156 4.15625 245.02219Q3.828125 244.64719 3.3125 244.64719Q2.703125 244.64719 2.40625 245.06906Q2.109375 245.49094 2.109375 245.97531ZM7.859375 248.58469L7.859375 246.94406L9.515625 246.94406L9.515625 248.58469L7.859375 248.58469ZM13.734375 248.58469L13.734375 246.85031L10.21875 246.85031L10.21875 245.41281L13.953125 239.95969L15.328125 239.95969L15.328125 245.41281L16.40625 245.41281L16.40625 246.85031L15.328125 246.85031L15.328125 248.58469L13.734375 248.58469ZM13.734375 245.41281L13.734375 242.47531L11.765625 245.41281L13.734375 245.41281ZM17.515625 242.11594Q17.515625 240.95969 18.015625 240.41281Q18.53125 239.85031 19.40625 239.85031Q20.296875 239.85031 20.796875 240.41281Q21.3125 240.95969 21.3125 242.11594Q21.3125 243.27219 20.796875 243.83469Q20.296875 244.38156 19.4375 244.38156Q18.53125 244.38156 18.015625 243.83469Q17.515625 243.27219 17.515625 242.11594ZM18.8125 242.10031Q18.8125 242.94406 19.0 243.22531Q19.140625 243.44406 19.40625 243.44406Q19.671875 243.44406 19.8125 243.22531Q20.0 242.94406 20.0 242.10031Q20.0 241.27219 19.8125 240.99094Q19.671875 240.77219 19.40625 240.77219Q19.140625 240.77219 19.0 240.97531Q18.8125 241.27219 18.8125 242.10031ZM20.65625 248.91281L19.4375 248.91281L24.015625 239.85031L25.203125 239.85031L20.65625 248.91281ZM23.3125 246.66281Q23.3125 245.50656 23.8125 244.94406Q24.328125 244.38156 25.203125 244.38156Q26.09375 244.38156 26.59375 244.94406Q27.109375 245.50656 27.109375 246.66281Q27.109375 247.81906 26.59375 248.38156Q26.09375 248.92844 25.234375 248.92844Q24.328125 248.92844 23.8125 248.38156Q23.3125 247.81906 23.3125 246.66281ZM24.59375 246.64719Q24.59375 247.49094 24.796875 247.77219Q24.9375 247.99094 25.203125 247.99094Q25.46875 247.99094 25.609375 247.77219Q25.796875 247.49094 25.796875 246.64719Q25.796875 245.81906 25.609375 245.52219Q25.46875 245.31906 25.203125 245.31906Q24.9375 245.31906 24.796875 245.52219Q24.59375 245.81906 24.59375 246.64719Z" fill-rule="nonzero"/><path stroke="#4f4f4f" stroke-width="1.0" stroke-linecap="butt" d="M0 236.08469L105.25 236.08469L127.57457 206.12897" fill-rule="nonzero"/><path fill="#787878" d="M129.57457 206.12897C129.57457 205.0244 128.67914 204.12897 127.57457 204.12897C126.47 204.12897 125.57457 205.0244 125.57457 206.12897C125.57457 207.23355 126.47 208.12897 127.57457 208.12897C128.67914 208.12897 129.57457 207.23355 129.57457 206.12897" fill-rule="nonzero"/><path fill="#000000" d="M0.875 274.56744L0.875 265.9737L7.25 265.9737L7.25 267.42682L2.609375 267.42682L2.609375 269.33307L6.921875 269.33307L6.921875 270.7862L2.609375 270.7862L2.609375 273.11432L7.40625 273.11432L7.40625 274.56744L0.875 274.56744ZM13.515625 274.56744L11.875 274.56744L11.875 271.39557Q11.875 270.37994 11.765625 270.08307Q11.671875 269.7862 11.421875 269.62994Q11.1875 269.45807 10.859375 269.45807Q10.421875 269.45807 10.078125 269.69244Q9.75 269.92682 9.625 270.31744Q9.5 270.70807 9.5 271.75494L9.5 274.56744L7.84375 274.56744L7.84375 268.3487L9.375 268.3487L9.375 269.25494Q10.1875 268.20807 11.4375 268.20807Q11.96875 268.20807 12.421875 268.4112Q12.875 268.5987 13.109375 268.9112Q13.34375 269.20807 13.421875 269.5987Q13.515625 269.9737 13.515625 270.69244L13.515625 274.56744ZM14.703125 274.9737L16.59375 275.20807Q16.640625 275.5362 16.8125 275.6612Q17.046875 275.83307 17.546875 275.83307Q18.1875 275.83307 18.515625 275.64557Q18.734375 275.50494 18.84375 275.2237Q18.921875 275.02057 18.921875 274.4737L18.921875 273.55182Q18.171875 274.56744 17.046875 274.56744Q15.796875 274.56744 15.0625 273.50494Q14.5 272.6612 14.5 271.42682Q14.5 269.8487 15.25 269.0362Q16.0 268.20807 17.125 268.20807Q18.265625 268.20807 19.015625 269.2237L19.015625 268.3487L20.5625 268.3487L20.5625 273.92682Q20.5625 275.0362 20.375 275.56744Q20.203125 276.11432 19.875 276.42682Q19.546875 276.73932 19.0 276.9112Q18.453125 277.0987 17.609375 277.0987Q16.03125 277.0987 15.359375 276.55182Q14.703125 276.00494 14.703125 275.17682Q14.703125 275.0987 14.703125 274.9737ZM16.1875 271.33307Q16.1875 272.31744 16.5625 272.7862Q16.953125 273.23932 17.515625 273.23932Q18.109375 273.23932 18.53125 272.77057Q18.953125 272.2862 18.953125 271.36432Q18.953125 270.39557 18.546875 269.92682Q18.15625 269.45807 17.546875 269.45807Q16.953125 269.45807 16.5625 269.92682Q16.1875 270.37994 16.1875 271.33307ZM21.859375 274.56744L21.859375 265.9737L23.515625 265.9737L23.515625 274.56744L21.859375 274.56744ZM26.09375 270.23932L24.59375 269.9737Q24.84375 269.06744 25.453125 268.64557Q26.078125 268.20807 27.296875 268.20807Q28.390625 268.20807 28.921875 268.4737Q29.46875 268.7237 29.6875 269.12994Q29.90625 269.52057 29.90625 270.5987L29.890625 272.52057Q29.890625 273.3487 29.96875 273.73932Q30.046875 274.11432 30.265625 274.56744L28.640625 274.56744Q28.578125 274.39557 28.484375 274.08307Q28.4375 273.92682 28.421875 273.87994Q28.0 274.30182 27.515625 274.50494Q27.046875 274.70807 26.5 274.70807Q25.53125 274.70807 24.96875 274.19244Q24.421875 273.6612 24.421875 272.86432Q24.421875 272.33307 24.671875 271.92682Q24.9375 271.52057 25.390625 271.30182Q25.84375 271.06744 26.703125 270.9112Q27.84375 270.69244 28.296875 270.50494L28.296875 270.3487Q28.296875 269.86432 28.0625 269.6612Q27.828125 269.45807 27.171875 269.45807Q26.734375 269.45807 26.484375 269.62994Q26.25 269.80182 26.09375 270.23932ZM28.296875 271.58307Q27.984375 271.67682 27.296875 271.83307Q26.609375 271.9737 26.390625 272.11432Q26.078125 272.3487 26.078125 272.69244Q26.078125 273.0362 26.328125 273.30182Q26.59375 273.55182 26.984375 273.55182Q27.4375 273.55182 27.84375 273.25494Q28.140625 273.0362 28.234375 272.70807Q28.296875 272.50494 28.296875 271.9112L28.296875 271.58307ZM37.515625 274.56744L35.875 274.56744L35.875 271.39557Q35.875 270.37994 35.765625 270.08307Q35.671875 269.7862 35.421875 269.62994Q35.1875 269.45807 34.859375 269.45807Q34.421875 269.45807 34.078125 269.69244Q33.75 269.92682 33.625 270.31744Q33.5 270.70807 33.5 271.75494L33.5 274.56744L31.84375 274.56744L31.84375 268.3487L33.375 268.3487L33.375 269.25494Q34.1875 268.20807 35.4375 268.20807Q35.96875 268.20807 36.421875 268.4112Q36.875 268.5987 37.109375 268.9112Q37.34375 269.20807 37.421875 269.5987Q37.515625 269.9737 37.515625 270.69244L37.515625 274.56744ZM44.5625 274.56744L43.046875 274.56744L43.046875 273.64557Q42.65625 274.19244 42.140625 274.45807Q41.625 274.70807 41.09375 274.70807Q40.015625 274.70807 39.25 273.8487Q38.5 272.9737 38.5 271.42682Q38.5 269.8487 39.234375 269.0362Q39.984375 268.20807 41.125 268.20807Q42.15625 268.20807 42.921875 269.06744L42.921875 265.9737L44.5625 265.9737L44.5625 274.56744ZM40.171875 271.31744Q40.171875 272.31744 40.453125 272.75494Q40.84375 273.4112 41.5625 273.4112Q42.125 273.4112 42.515625 272.92682Q42.921875 272.44244 42.921875 271.4737Q42.921875 270.4112 42.53125 269.94244Q42.15625 269.45807 41.546875 269.45807Q40.96875 269.45807 40.5625 269.92682Q40.171875 270.39557 40.171875 271.31744Z" fill-rule="nonzero"/><path fill="#787878" d="M4.71875 291.56744L3.078125 291.56744L3.078125 285.36432Q2.171875 286.20807 0.953125 286.61432L0.953125 285.11432Q1.59375 284.9112 2.34375 284.31744Q3.109375 283.7237 3.390625 282.94244L4.71875 282.94244L4.71875 291.56744ZM13.09375 285.08307L11.5 285.25494Q11.4375 284.77057 11.1875 284.5362Q10.9375 284.30182 10.546875 284.30182Q10.03125 284.30182 9.671875 284.77057Q9.3125 285.23932 9.21875 286.70807Q9.828125 285.98932 10.75 285.98932Q11.78125 285.98932 12.515625 286.77057Q13.25 287.55182 13.25 288.80182Q13.25 290.11432 12.46875 290.9112Q11.703125 291.70807 10.484375 291.70807Q9.1875 291.70807 8.34375 290.70807Q7.515625 289.69244 7.515625 287.39557Q7.515625 285.02057 8.375 283.98932Q9.25 282.94244 10.65625 282.94244Q11.625 282.94244 12.265625 283.48932Q12.90625 284.0362 13.09375 285.08307ZM9.359375 288.67682Q9.359375 289.4737 9.71875 289.9112Q10.09375 290.3487 10.5625 290.3487Q11.03125 290.3487 11.328125 289.98932Q11.640625 289.62994 11.640625 288.81744Q11.640625 287.9737 11.3125 287.5987Q10.984375 287.20807 10.484375 287.20807Q10.015625 287.20807 9.6875 287.58307Q9.359375 287.94244 9.359375 288.67682ZM14.859375 291.56744L14.859375 289.92682L16.515625 289.92682L16.515625 291.56744L14.859375 291.56744ZM23.078125 290.0362L23.078125 291.56744L17.296875 291.56744Q17.390625 290.69244 17.859375 289.92682Q18.328125 289.14557 19.71875 287.86432Q20.828125 286.83307 21.078125 286.45807Q21.421875 285.94244 21.421875 285.44244Q21.421875 284.89557 21.125 284.5987Q20.828125 284.30182 20.3125 284.30182Q19.796875 284.30182 19.484375 284.61432Q19.1875 284.92682 19.140625 285.64557L17.5 285.48932Q17.640625 284.12994 18.40625 283.5362Q19.1875 282.94244 20.34375 282.94244Q21.625 282.94244 22.34375 283.62994Q23.078125 284.31744 23.078125 285.33307Q23.078125 285.9112 22.859375 286.44244Q22.65625 286.95807 22.203125 287.5362Q21.90625 287.9112 21.125 288.62994Q20.34375 289.3487 20.140625 289.58307Q19.9375 289.81744 19.796875 290.0362L23.078125 290.0362ZM24.515625 285.0987Q24.515625 283.94244 25.015625 283.39557Q25.53125 282.83307 26.40625 282.83307Q27.296875 282.83307 27.796875 283.39557Q28.3125 283.94244 28.3125 285.0987Q28.3125 286.25494 27.796875 286.81744Q27.296875 287.36432 26.4375 287.36432Q25.53125 287.36432 25.015625 286.81744Q24.515625 286.25494 24.515625 285.0987ZM25.8125 285.08307Q25.8125 285.92682 26.0 286.20807Q26.140625 286.42682 26.40625 286.42682Q26.671875 286.42682 26.8125 286.20807Q27.0 285.92682 27.0 285.08307Q27.0 284.25494 26.8125 283.9737Q26.671875 283.75494 26.40625 283.75494Q26.140625 283.75494 26.0 283.95807Q25.8125 284.25494 25.8125 285.08307ZM27.65625 291.89557L26.4375 291.89557L31.015625 282.83307L32.203125 282.83307L27.65625 291.89557ZM30.3125 289.64557Q30.3125 288.48932 30.8125 287.92682Q31.328125 287.36432 32.203125 287.36432Q33.09375 287.36432 33.59375 287.92682Q34.109375 288.48932 34.109375 289.64557Q34.109375 290.80182 33.59375 291.36432Q33.09375 291.9112 32.234375 291.9112Q31.328125 291.9112 30.8125 291.36432Q30.3125 290.80182 30.3125 289.64557ZM31.59375 289.62994Q31.59375 290.4737 31.796875 290.75494Q31.9375 290.9737 32.203125 290.9737Q32.46875 290.9737 32.609375 290.75494Q32.796875 290.4737 32.796875 289.62994Q32.796875 288.80182 32.609375 288.50494Q32.46875 288.30182 32.203125 288.30182Q31.9375 288.30182 31.796875 288.50494Q31.59375 288.80182 31.59375 289.62994Z" fill-rule="nonzero"/><path stroke="#4f4f4f" stroke-width="1.0" stroke-linecap="butt" d="M0 279.06744L105.25 279.06744L210.2638 279.06744" fill-rule="nonzero"/><path fill="#787878" d="M212.2638 279.06744C212.2638 277.9629 211.36836 277.06744 210.2638 277.06744C209.15923 277.06744 208.2638 277.9629 208.2638 279.06744C208.2638 280.17203 209.15923 281.06744 210.2638 281.06744C211.36836 281.06744 212.2638 280.17203 212.2638 279.06744" fill-rule="nonzero"/><path fill="#000000" d="M570.3594 79.92043L572.09375 79.92043L572.09375 84.57668Q572.09375 85.68606 572.15625 86.01418Q572.2656 86.54543 572.6875 86.85793Q573.1094 87.17043 573.84375 87.17043Q574.5781 87.17043 574.9531 86.87356Q575.3281 86.57668 575.40625 86.13918Q575.4844 85.70168 575.4844 84.67043L575.4844 79.92043L577.21875 79.92043L577.21875 84.43606Q577.21875 85.98293 577.0781 86.62356Q576.9375 87.26418 576.5469 87.70168Q576.1719 88.13918 575.53125 88.40481Q574.90625 88.65481 573.8906 88.65481Q572.65625 88.65481 572.0156 88.37356Q571.3906 88.09231 571.0156 87.63918Q570.65625 87.18606 570.53125 86.68606Q570.3594 85.95168 570.3594 84.49856L570.3594 79.92043ZM577.9375 85.71731L579.625 85.56106Q579.78125 86.40481 580.2344 86.81106Q580.7031 87.20168 581.5 87.20168Q582.3281 87.20168 582.75 86.85793Q583.1875 86.49856 583.1875 86.01418Q583.1875 85.71731 583.0 85.49856Q582.8281 85.27981 582.375 85.12356Q582.0781 85.01418 581.0 84.74856Q579.59375 84.40481 579.03125 83.90481Q578.25 83.18606 578.25 82.17043Q578.25 81.51418 578.6094 80.95168Q578.9844 80.37356 579.6875 80.07668Q580.3906 79.77981 581.375 79.77981Q583.0 79.77981 583.8125 80.49856Q584.625 81.20168 584.6719 82.37356L582.9375 82.45168Q582.8281 81.79543 582.4531 81.51418Q582.09375 81.21731 581.3594 81.21731Q580.6094 81.21731 580.1719 81.52981Q579.90625 81.71731 579.90625 82.06106Q579.90625 82.35793 580.15625 82.57668Q580.4844 82.85793 581.75 83.15481Q583.0156 83.45168 583.625 83.77981Q584.2344 84.09231 584.5781 84.65481Q584.9219 85.20168 584.9219 86.01418Q584.9219 86.74856 584.5 87.40481Q584.09375 88.04543 583.34375 88.35793Q582.59375 88.67043 581.4844 88.67043Q579.84375 88.67043 578.96875 87.92043Q578.1094 87.15481 577.9375 85.71731ZM594.125 88.51418L592.2344 88.51418L591.4844 86.56106L588.0469 86.56106L587.34375 88.51418L585.5 88.51418L588.84375 79.92043L590.6875 79.92043L594.125 88.51418ZM590.9219 85.10793L589.75 81.92043L588.5781 85.10793L590.9219 85.10793Z" fill-rule="nonzero"/><path fill="#787878" d="M566.5781 103.98293L566.5781 105.51418L560.7969 105.51418Q560.8906 104.63918 561.3594 103.87356Q561.8281 103.09231 563.21875 101.81106Q564.3281 100.77981 564.5781 100.40481Q564.9219 99.88918 564.9219 99.38918Q564.9219 98.84231 564.625 98.54543Q564.3281 98.24856 563.8125 98.24856Q563.2969 98.24856 562.9844 98.56106Q562.6875 98.87356 562.6406 99.59231L561.0 99.43606Q561.1406 98.07668 561.90625 97.48293Q562.6875 96.88918 563.84375 96.88918Q565.125 96.88918 565.84375 97.57668Q566.5781 98.26418 566.5781 99.27981Q566.5781 99.85793 566.3594 100.38918Q566.15625 100.90481 565.7031 101.48293Q565.40625 101.85793 564.625 102.57668Q563.84375 103.29543 563.6406 103.52981Q563.4375 103.76418 563.2969 103.98293L566.5781 103.98293ZM569.4219 100.87356Q568.78125 100.60793 568.4844 100.13918Q568.2031 99.67043 568.2031 99.10793Q568.2031 98.13918 568.875 97.51418Q569.5469 96.88918 570.78125 96.88918Q572.0 96.88918 572.6719 97.51418Q573.3594 98.13918 573.3594 99.10793Q573.3594 99.70168 573.0469 100.17043Q572.7344 100.63918 572.1719 100.87356Q572.8906 101.17043 573.2656 101.71731Q573.6406 102.26418 573.6406 102.98293Q573.6406 104.17043 572.875 104.92043Q572.125 105.67043 570.8594 105.67043Q569.6875 105.67043 568.90625 105.04543Q567.9844 104.32668 567.9844 103.06106Q567.9844 102.35793 568.3281 101.77981Q568.6719 101.20168 569.4219 100.87356ZM569.7656 99.21731Q569.7656 99.71731 570.03125 99.99856Q570.3125 100.26418 570.78125 100.26418Q571.25 100.26418 571.53125 99.98293Q571.8125 99.70168 571.8125 99.21731Q571.8125 98.74856 571.53125 98.48293Q571.25 98.20168 570.7969 98.20168Q570.3281 98.20168 570.0469 98.48293Q569.7656 98.76418 569.7656 99.21731ZM569.6094 102.90481Q569.6094 103.57668 569.9531 103.96731Q570.3125 104.34231 570.8281 104.34231Q571.34375 104.34231 571.6719 103.98293Q572.0 103.60793 572.0 102.92043Q572.0 102.31106 571.65625 101.95168Q571.3281 101.57668 570.8125 101.57668Q570.2031 101.57668 569.90625 101.99856Q569.6094 102.42043 569.6094 102.90481ZM575.3594 105.51418L575.3594 103.87356L577.0156 103.87356L577.0156 105.51418L575.3594 105.51418ZM580.7969 96.88918Q582.0469 96.88918 582.75 97.77981Q583.5781 98.82668 583.5781 101.27981Q583.5781 103.71731 582.7344 104.77981Q582.0469 105.65481 580.7969 105.65481Q579.5469 105.65481 578.7656 104.70168Q578.0 103.73293 578.0 101.26418Q578.0 98.82668 578.84375 97.76418Q579.5469 96.88918 580.7969 96.88918ZM580.7969 98.24856Q580.5 98.24856 580.2656 98.45168Q580.03125 98.63918 579.8906 99.12356Q579.7344 99.76418 579.7344 101.27981Q579.7344 102.79543 579.875 103.35793Q580.03125 103.92043 580.2656 104.10793Q580.5 104.29543 580.7969 104.29543Q581.09375 104.29543 581.3281 104.10793Q581.5625 103.92043 581.6875 103.42043Q581.8594 102.79543 581.8594 101.27981Q581.8594 99.76418 581.7031 99.20168Q581.5625 98.63918 581.3281 98.45168Q581.09375 98.24856 580.7969 98.24856ZM585.0156 99.04543Q585.0156 97.88918 585.5156 97.34231Q586.03125 96.77981 586.90625 96.77981Q587.7969 96.77981 588.2969 97.34231Q588.8125 97.88918 588.8125 99.04543Q588.8125 100.20168 588.2969 100.76418Q587.7969 101.31106 586.9375 101.31106Q586.03125 101.31106 585.5156 100.76418Q585.0156 100.20168 585.0156 99.04543ZM586.3125 99.02981Q586.3125 99.87356 586.5 100.15481Q586.6406 100.37356 586.90625 100.37356Q587.1719 100.37356 587.3125 100.15481Q587.5 99.87356 587.5 99.02981Q587.5 98.20168 587.3125 97.92043Q587.1719 97.70168 586.90625 97.70168Q586.6406 97.70168 586.5 97.90481Q586.3125 98.20168 586.3125 99.02981ZM588.15625 105.84231L586.9375 105.84231L591.5156 96.77981L592.7031 96.77981L588.15625 105.84231ZM590.8125 103.59231Q590.8125 102.43606 591.3125 101.87356Q591.8281 101.31106 592.7031 101.31106Q593.59375 101.31106 594.09375 101.87356Q594.6094 102.43606 594.6094 103.59231Q594.6094 104.74856 594.09375 105.31106Q593.59375 105.85793 592.7344 105.85793Q591.8281 105.85793 591.3125 105.31106Q590.8125 104.74856 590.8125 103.59231ZM592.09375 103.57668Q592.09375 104.42043 592.2969 104.70168Q592.4375 104.92043 592.7031 104.92043Q592.96875 104.92043 593.1094 104.70168Q593.2969 104.42043 593.2969 103.57668Q593.2969 102.74856 593.1094 102.45168Q592.96875 102.24856 592.7031 102.24856Q592.4375 102.24856 592.2969 102.45168Q592.09375 102.74856 592.09375 103.57668Z" fill-rule="nonzero"/><path stroke="#4f4f4f" stroke-width="1.0" stroke-linecap="butt" d="M593.5 93.01418L488.25 93.01418L432.60187 93.01418" fill-rule="nonzero"/><path fill="#787878" d="M434.60187 93.01418C434.60187 91.909615 433.70642 91.01418 432.60187 91.01418C431.49728 91.01418 430.60187 91.909615 430.60187 93.01418C430.60187 94.11876 431.49728 95.01418 432.60187 95.01418C433.70642 95.01418 434.60187 94.11876 434.60187 93.01418" fill-rule="nonzero"/><path fill="#000000" d="M562.46875 253.7092L564.2031 253.7092L564.2031 259.1467Q564.2031 260.2092 564.0156 260.78732Q563.7656 261.53732 563.09375 261.99045Q562.4375 262.44357 561.3594 262.44357Q560.0781 262.44357 559.3906 261.74045Q558.71875 261.0217 558.7031 259.6467L560.34375 259.4592Q560.375 260.19357 560.5625 260.50607Q560.84375 260.9592 561.40625 260.9592Q562.0 260.9592 562.2344 260.63107Q562.46875 260.30295 562.46875 259.25607L562.46875 253.7092ZM567.59375 257.97482L566.09375 257.7092Q566.34375 256.80295 566.9531 256.38107Q567.5781 255.94357 568.7969 255.94357Q569.8906 255.94357 570.4219 256.2092Q570.96875 256.4592 571.1875 256.86545Q571.40625 257.25607 571.40625 258.3342L571.3906 260.25607Q571.3906 261.0842 571.46875 261.47482Q571.5469 261.84982 571.7656 262.30295L570.1406 262.30295Q570.0781 262.13107 569.9844 261.81857Q569.9375 261.66232 569.9219 261.61545Q569.5 262.03732 569.0156 262.24045Q568.5469 262.44357 568.0 262.44357Q567.03125 262.44357 566.46875 261.92795Q565.9219 261.3967 565.9219 260.59982Q565.9219 260.06857 566.1719 259.66232Q566.4375 259.25607 566.8906 259.03732Q567.34375 258.80295 568.2031 258.6467Q569.34375 258.42795 569.7969 258.24045L569.7969 258.0842Q569.7969 257.59982 569.5625 257.3967Q569.3281 257.19357 568.6719 257.19357Q568.2344 257.19357 567.9844 257.36545Q567.75 257.53732 567.59375 257.97482ZM569.7969 259.31857Q569.4844 259.41232 568.7969 259.56857Q568.1094 259.7092 567.8906 259.84982Q567.5781 260.0842 567.5781 260.42795Q567.5781 260.7717 567.8281 261.03732Q568.09375 261.28732 568.4844 261.28732Q568.9375 261.28732 569.34375 260.99045Q569.6406 260.7717 569.7344 260.44357Q569.7969 260.24045 569.7969 259.6467L569.7969 259.31857ZM573.3125 256.0842L574.84375 256.0842L574.84375 256.99045Q575.15625 256.5217 575.65625 256.24045Q576.1719 255.94357 576.7969 255.94357Q577.875 255.94357 578.625 256.78732Q579.3906 257.63107 579.3906 259.16232Q579.3906 260.7092 578.625 261.5842Q577.8594 262.44357 576.78125 262.44357Q576.2656 262.44357 575.84375 262.24045Q575.4219 262.03732 574.96875 261.53732L574.96875 264.67795L573.3125 264.67795L573.3125 256.0842ZM574.9375 259.0842Q574.9375 260.13107 575.3594 260.63107Q575.78125 261.13107 576.375 261.13107Q576.9531 261.13107 577.3281 260.67795Q577.7031 260.2092 577.7031 259.16232Q577.7031 258.19357 577.3125 257.72482Q576.9219 257.24045 576.34375 257.24045Q575.7344 257.24045 575.3281 257.7092Q574.9375 258.17795 574.9375 259.0842ZM581.59375 257.97482L580.09375 257.7092Q580.34375 256.80295 580.9531 256.38107Q581.5781 255.94357 582.7969 255.94357Q583.8906 255.94357 584.4219 256.2092Q584.96875 256.4592 585.1875 256.86545Q585.40625 257.25607 585.40625 258.3342L585.3906 260.25607Q585.3906 261.0842 585.46875 261.47482Q585.5469 261.84982 585.7656 262.30295L584.1406 262.30295Q584.0781 262.13107 583.9844 261.81857Q583.9375 261.66232 583.9219 261.61545Q583.5 262.03732 583.0156 262.24045Q582.5469 262.44357 582.0 262.44357Q581.03125 262.44357 580.46875 261.92795Q579.9219 261.3967 579.9219 260.59982Q579.9219 260.06857 580.1719 259.66232Q580.4375 259.25607 580.8906 259.03732Q581.34375 258.80295 582.2031 258.6467Q583.34375 258.42795 583.7969 258.24045L583.7969 258.0842Q583.7969 257.59982 583.5625 257.3967Q583.3281 257.19357 582.6719 257.19357Q582.2344 257.19357 581.9844 257.36545Q581.75 257.53732 581.59375 257.97482ZM583.7969 259.31857Q583.4844 259.41232 582.7969 259.56857Q582.1094 259.7092 581.8906 259.84982Q581.5781 260.0842 581.5781 260.42795Q581.5781 260.7717 581.8281 261.03732Q582.09375 261.28732 582.4844 261.28732Q582.9375 261.28732 583.34375 260.99045Q583.6406 260.7717 583.7344 260.44357Q583.7969 260.24045 583.7969 259.6467L583.7969 259.31857ZM593.0156 262.30295L591.375 262.30295L591.375 259.13107Q591.375 258.11545 591.2656 257.81857Q591.1719 257.5217 590.9219 257.36545Q590.6875 257.19357 590.3594 257.19357Q589.9219 257.19357 589.5781 257.42795Q589.25 257.66232 589.125 258.05295Q589.0 258.44357 589.0 259.49045L589.0 262.30295L587.34375 262.30295L587.34375 256.0842L588.875 256.0842L588.875 256.99045Q589.6875 255.94357 590.9375 255.94357Q591.46875 255.94357 591.9219 256.1467Q592.375 256.3342 592.6094 256.6467Q592.84375 256.94357 592.9219 257.3342Q593.0156 257.7092 593.0156 258.42795L593.0156 262.30295Z" fill-rule="nonzero"/><path fill="#787878" d="M566.5781 277.7717L566.5781 279.30295L560.7969 279.30295Q560.8906 278.42795 561.3594 277.66232Q561.8281 276.88107 563.21875 275.59982Q564.3281 274.56857 564.5781 274.19357Q564.9219 273.67795 564.9219 273.17795Q564.9219 272.63107 564.625 272.3342Q564.3281 272.03732 563.8125 272.03732Q563.2969 272.03732 562.9844 272.34982Q562.6875 272.66232 562.6406 273.38107L561.0 273.22482Q561.1406 271.86545 561.90625 271.2717Q562.6875 270.67795 563.84375 270.67795Q565.125 270.67795 565.84375 271.36545Q566.5781 272.05295 566.5781 273.06857Q566.5781 273.6467 566.3594 274.17795Q566.15625 274.69357 565.7031 275.2717Q565.40625 275.6467 564.625 276.36545Q563.84375 277.0842 563.6406 277.31857Q563.4375 277.55295 563.2969 277.7717L566.5781 277.7717ZM573.5781 277.7717L573.5781 279.30295L567.7969 279.30295Q567.8906 278.42795 568.3594 277.66232Q568.8281 276.88107 570.21875 275.59982Q571.3281 274.56857 571.5781 274.19357Q571.9219 273.67795 571.9219 273.17795Q571.9219 272.63107 571.625 272.3342Q571.3281 272.03732 570.8125 272.03732Q570.2969 272.03732 569.9844 272.34982Q569.6875 272.66232 569.6406 273.38107L568.0 273.22482Q568.1406 271.86545 568.90625 271.2717Q569.6875 270.67795 570.84375 270.67795Q572.125 270.67795 572.84375 271.36545Q573.5781 272.05295 573.5781 273.06857Q573.5781 273.6467 573.3594 274.17795Q573.15625 274.69357 572.7031 275.2717Q572.40625 275.6467 571.625 276.36545Q570.84375 277.0842 570.6406 277.31857Q570.4375 277.55295 570.2969 277.7717L573.5781 277.7717ZM575.3594 279.30295L575.3594 277.66232L577.0156 277.66232L577.0156 279.30295L575.3594 279.30295ZM580.7969 270.67795Q582.0469 270.67795 582.75 271.56857Q583.5781 272.61545 583.5781 275.06857Q583.5781 277.50607 582.7344 278.56857Q582.0469 279.44357 580.7969 279.44357Q579.5469 279.44357 578.7656 278.49045Q578.0 277.5217 578.0 275.05295Q578.0 272.61545 578.84375 271.55295Q579.5469 270.67795 580.7969 270.67795ZM580.7969 272.03732Q580.5 272.03732 580.2656 272.24045Q580.03125 272.42795 579.8906 272.91232Q579.7344 273.55295 579.7344 275.06857Q579.7344 276.5842 579.875 277.1467Q580.03125 277.7092 580.2656 277.8967Q580.5 278.0842 580.7969 278.0842Q581.09375 278.0842 581.3281 277.8967Q581.5625 277.7092 581.6875 277.2092Q581.8594 276.5842 581.8594 275.06857Q581.8594 273.55295 581.7031 272.99045Q581.5625 272.42795 581.3281 272.24045Q581.09375 272.03732 580.7969 272.03732ZM585.0156 272.8342Q585.0156 271.67795 585.5156 271.13107Q586.03125 270.56857 586.90625 270.56857Q587.7969 270.56857 588.2969 271.13107Q588.8125 271.67795 588.8125 272.8342Q588.8125 273.99045 588.2969 274.55295Q587.7969 275.09982 586.9375 275.09982Q586.03125 275.09982 585.5156 274.55295Q585.0156 273.99045 585.0156 272.8342ZM586.3125 272.81857Q586.3125 273.66232 586.5 273.94357Q586.6406 274.16232 586.90625 274.16232Q587.1719 274.16232 587.3125 273.94357Q587.5 273.66232 587.5 272.81857Q587.5 271.99045 587.3125 271.7092Q587.1719 271.49045 586.90625 271.49045Q586.6406 271.49045 586.5 271.69357Q586.3125 271.99045 586.3125 272.81857ZM588.15625 279.63107L586.9375 279.63107L591.5156 270.56857L592.7031 270.56857L588.15625 279.63107ZM590.8125 277.38107Q590.8125 276.22482 591.3125 275.66232Q591.8281 275.09982 592.7031 275.09982Q593.59375 275.09982 594.09375 275.66232Q594.6094 276.22482 594.6094 277.38107Q594.6094 278.53732 594.09375 279.09982Q593.59375 279.6467 592.7344 279.6467Q591.8281 279.6467 591.3125 279.09982Q590.8125 278.53732 590.8125 277.38107ZM592.09375 277.36545Q592.09375 278.2092 592.2969 278.49045Q592.4375 278.7092 592.7031 278.7092Q592.96875 278.7092 593.1094 278.49045Q593.2969 278.2092 593.2969 277.36545Q593.2969 276.53732 593.1094 276.24045Q592.96875 276.03732 592.7031 276.03732Q592.4375 276.03732 592.2969 276.24045Q592.09375 276.53732 592.09375 277.36545Z" fill-rule="nonzero"/><path stroke="#4f4f4f" stroke-width="1.0" stroke-linecap="butt" d="M593.5 266.80295L488.25 266.80295L408.7913 266.80295" fill-rule="nonzero"/><path fill="#787878" d="M410.7913 266.80295C410.7913 265.69836 409.89584 264.80295 408.7913 264.80295C407.6867 264.80295 406.7913 265.69836 406.7913 266.80295C406.7913 267.9075 407.6867 268.80295 408.7913 268.80295C409.89584 268.80295 410.7913 267.9075 410.7913 266.80295" fill-rule="nonzero"/></svg>