<svg version="1.1" viewBox="0.0 0.0 990.0 612.0" fill="none" stroke="none" stroke-linecap="square" stroke-miterlimit="10" width="990" height="612" xmlns:xlink="http://www.w3.org/1999/xlink" xmlns="http://www.w3.org/2000/svg"><path fill="#ffffff" d="M0 0L990.0 0L990.0 612.0L0 612.0L0 0Z" fill-rule="nonzero"/><path stroke="#cccccc" stroke-width="1.0" stroke-linecap="butt" d="M152.5 38.5L152.5 519.5" fill-rule="nonzero"/><path stroke="#cccccc" stroke-width="1.0" stroke-linecap="butt" d="M286.5 38.5L286.5 519.5" fill-rule="nonzero"/><path stroke="#cccccc" stroke-width="1.0" stroke-linecap="butt" d="M420.5 38.5L420.5 519.5" fill-rule="nonzero"/><path stroke="#cccccc" stroke-width="1.0" stroke-linecap="butt" d="M555.5 38.5L555.5 519.5" fill-rule="nonzero"/><path stroke="#cccccc" stroke-width="1.0" stroke-linecap="butt" d="M689.5 38.5L689.5 519.5" fill-rule="nonzero"/><path stroke="#cccccc" stroke-width="1.0" stroke-linecap="butt" d="M823.5 38.5L823.5 519.5" fill-rule="nonzero"/><path stroke="#cccccc" stroke-width="1.0" stroke-linecap="butt" d="M957.5 38.5L957.5 519.5" fill-rule="nonzero"/><path stroke="#e6e6e6" stroke-width="1.0" stroke-linecap="butt" d="M107.5 38.5L107.5 519.5" fill-rule="nonzero"/><path stroke="#e6e6e6" stroke-width="1.0" stroke-linecap="butt" d="M197.5 38.5L197.5 519.5" fill-rule="nonzero"/><path stroke="#e6e6e6" stroke-width="1.0" stroke-linecap="butt" d="M242.5 38.5L242.5 519.5" fill-rule="nonzero"/><path stroke="#e6e6e6" stroke-width="1.0" stroke-linecap="butt" d="M331.5 38.5L331.5 519.5" fill-rule="nonzero"/><path stroke="#e6e6e6" stroke-width="1.0" stroke-linecap="butt" d="M376.5 38.5L376.5 519.5" fill-rule="nonzero"/><path stroke="#e6e6e6" stroke-width="1.0" stroke-linecap="butt" d="M465.5 38.5L465.5 519.5" fill-rule="nonzero"/><path stroke="#e6e6e6" stroke-width="1.0" stroke-linecap="butt" d="M510.5 38.5L510.5 519.5" fill-rule="nonzero"/><path stroke="#e6e6e6" stroke-width="1.0" stroke-linecap="butt" d="M599.5 38.5L599.5 519.5" fill-rule="nonzero"/><path stroke="#e6e6e6" stroke-width="1.0" stroke-linecap="butt" d="M644.5 38.5L644.5 519.5" fill-rule="nonzero"/><path stroke="#e6e6e6" stroke-width="1.0" stroke-linecap="butt" d="M733.5 38.5L733.5 519.5" fill-rule="nonzero"/><path stroke="#e6e6e6" stroke-width="1.0" stroke-linecap="butt" d="M778.5 38.5L778.5 519.5" fill-rule="nonzero"/><path stroke="#e6e6e6" stroke-width="1.0" stroke-linecap="butt" d="M867.5 38.5L867.5 519.5" fill-rule="nonzero"/><path stroke="#e6e6e6" stroke-width="1.0" stroke-linecap="butt" d="M912.5 38.5L912.5 519.5" fill-rule="nonzero"/><path stroke="#333333" stroke-width="1.0" stroke-linecap="butt" d="M83.5 519.5L959.5 519.5" fill-rule="nonzero"/><path stroke="#cccccc" stroke-width="1.0" stroke-linecap="butt" d="M83.5 398.5L959.5 398.5" fill-rule="nonzero"/><path stroke="#cccccc" stroke-width="1.0" stroke-linecap="butt" d="M83.5 278.5L959.5 278.5" fill-rule="nonzero"/><path stroke="#cccccc" stroke-width="1.0" stroke-linecap="butt" d="M83.5 158.5L959.5 158.5" fill-rule="nonzero"/><path stroke="#cccccc" stroke-width="1.0" stroke-linecap="butt" d="M83.5 38.5L959.5 38.5" fill-rule="nonzero"/><path stroke="#e6e6e6" stroke-width="1.0" stroke-linecap="butt" d="M83.5 494.5L959.5 494.5" fill-rule="nonzero"/><path stroke="#e6e6e6" stroke-width="1.0" stroke-linecap="butt" d="M83.5 470.5L959.5 470.5" fill-rule="nonzero"/><path stroke="#e6e6e6" stroke-width="1.0" stroke-linecap="butt" d="M83.5 446.5L959.5 446.5" fill-rule="nonzero"/><path stroke="#e6e6e6" stroke-width="1.0" stroke-linecap="butt" d="M83.5 422.5L959.5 422.5" fill-rule="nonzero"/><path stroke="#e6e6e6" stroke-width="1.0" stroke-linecap="butt" d="M83.5 374.5L959.5 374.5" fill-rule="nonzero"/><path stroke="#e6e6e6" stroke-width="1.0" stroke-linecap="butt" d="M83.5 350.5L959.5 350.5" fill-rule="nonzero"/><path stroke="#e6e6e6" stroke-width="1.0" stroke-linecap="butt" d="M83.5 326.5L959.5 326.5" fill-rule="nonzero"/><path stroke="#e6e6e6" stroke-width="1.0" stroke-linecap="butt" d="M83.5 302.5L959.5 302.5" fill-rule="nonzero"/><path stroke="#e6e6e6" stroke-width="1.0" stroke-linecap="butt" d="M83.5 254.5L959.5 254.5" fill-rule="nonzero"/><path stroke="#e6e6e6" stroke-width="1.0" stroke-linecap="butt" d="M83.5 230.5L959.5 230.5" fill-rule="nonzero"/><path stroke="#e6e6e6" stroke-width="1.0" stroke-linecap="butt" d="M83.5 206.5L959.5 206.5" fill-rule="nonzero"/><path stroke="#e6e6e6" stroke-width="1.0" stroke-linecap="butt" d="M83.5 182.5L959.5 182.5" fill-rule="nonzero"/><path stroke="#e6e6e6" stroke-width="1.0" stroke-linecap="butt" d="M83.5 134.5L959.5 134.5" fill-rule="nonzero"/><path stroke="#e6e6e6" stroke-width="1.0" stroke-linecap="butt" d="M83.5 110.5L959.5 110.5" fill-rule="nonzero"/><path stroke="#e6e6e6" stroke-width="1.0" stroke-linecap="butt" d="M83.5 86.5L959.5 86.5" fill-rule="nonzero"/><path stroke="#e6e6e6" stroke-width="1.0" stroke-linecap="butt" d="M83.5 62.5L959.5 62.5" fill-rule="nonzero"/><path stroke="#000000" stroke-width="1.0" stroke-linecap="butt" d="M959.5 519.5L83.5 519.5" fill-rule="nonzero"/><path stroke="#000000" stroke-width="1.0" stroke-linecap="butt" d="M83.5 519.5L83.5 38.5" fill-rule="nonzero"/><clipPath id="id_0"><path d="M83.6 38.1L959.4 38.1L959.4 519.0L83.6 519.0L83.6 38.1Z" clip-rule="nonzero"/></clipPath><path stroke="#ff0000" stroke-width="2.0" stroke-linecap="butt" clip-path="url(#id_0)" d="M85.590904 517.2567C85.590904 517.2567 130.29953 503.69815 152.65384 501.51688C175.00816 499.3356 197.36247 503.63724 219.71678 504.16904C242.07109 504.70084 264.4254 509.44452 286.77972 504.70764C309.13403 499.9708 331.48834 476.0494 353.84265 475.74786C376.19696 475.4463 398.55127 509.266 420.9056 502.89825C443.25992 496.53055 465.61423 445.40045 487.96854 437.54156C510.32285 429.68265 532.6772 520.8336 555.0315 455.7448C577.3858 390.656 599.7401 61.715397 622.0944 47.00867C644.4487 32.30195 666.80304 346.61298 689.15735 367.5045C711.51166 388.39597 733.86597 184.67432 756.2203 172.35767C778.5746 160.04102 800.9289 309.72095 823.2832 293.60458C845.6375 277.48822 867.9918 108.6849 890.3461 75.65949C912.70044 42.634087 957.4091 95.45213 957.4091 95.45213" fill-rule="nonzero"/><path stroke="#0000ff" stroke-width="2.0" stroke-linecap="butt" clip-path="url(#id_0)" d="M85.590904 517.2567C85.590904 517.2567 130.29953 503.6675 152.65384 502.1168C175.00816 500.5661 197.36247 507.42053 219.71678 507.9525C242.07109 508.48453 264.4254 509.5345 286.77972 505.30878C309.13403 501.08307 331.48834 482.69946 353.84265 482.59827C376.19696 482.49707 398.55127 507.6121 420.9056 504.70163C443.25992 501.7912 465.61423 468.7187 487.96854 465.1356C510.32285 461.5525 532.6772 518.98956 555.0315 483.203C577.3858 447.41644 599.7401 259.9456 622.0944 250.41615C644.4487 240.88672 666.80304 413.4244 689.15735 426.0264C711.51166 438.6284 733.86597 326.48492 756.2203 326.02805C778.5746 325.5712 800.9289 420.151 823.2832 423.28528C845.6375 426.41953 867.9918 353.53574 890.3461 344.83365C912.70044 336.13156 957.4091 371.07275 957.4091 371.07275" fill-rule="nonzero"/><path stroke="#00ff00" stroke-width="2.0" stroke-linecap="butt" clip-path="url(#id_0)" d="M85.590904 519.0C85.590904 519.0 130.29953 519.03064 152.65384 518.4001C175.00816 517.7695 197.36247 515.21674 219.71678 515.2165C242.07109 515.2163 264.4254 518.91003 286.77972 518.39886C309.13403 517.8877 331.48834 512.35 353.84265 512.1496C376.19696 511.94922 398.55127 520.6539 420.9056 517.19666C443.25992 513.7394 465.61423 495.68176 487.96854 491.40594C510.32285 487.13016 532.6772 520.84406 555.0315 491.5418C577.3858 462.23956 599.7401 320.7698 622.0944 315.59253C644.4487 310.41522 666.80304 452.18857 689.15735 460.4781C711.51166 468.76758 733.86597 377.1894 756.2203 365.32962C778.5746 353.46982 800.9289 408.56995 823.2832 389.3193C845.6375 370.06866 867.9918 274.14917 890.3461 249.82584C912.70044 225.50252 957.4091 243.37938 957.4091 243.37938" fill-rule="nonzero"/><path fill="#ff0000" clip-path="url(#id_0)" d="M85.590904 515.2567L87.590904 517.2567L85.590904 519.2567L83.590904 517.2567Z" fill-rule="nonzero"/><path fill="#ff0000" clip-path="url(#id_0)" d="M152.65384 499.51688L154.65384 501.51688L152.65384 503.51688L150.65384 501.51688Z" fill-rule="nonzero"/><path fill="#ff0000" clip-path="url(#id_0)" d="M219.71678 502.16904L221.71678 504.16904L219.71678 506.16904L217.71678 504.16904Z" fill-rule="nonzero"/><path fill="#ff0000" clip-path="url(#id_0)" d="M286.77972 502.70764L288.77972 504.70764L286.77972 506.70764L284.77972 504.70764Z" fill-rule="nonzero"/><path fill="#ff0000" clip-path="url(#id_0)" d="M353.84265 473.74786L355.84265 475.74786L353.84265 477.74786L351.84265 475.74786Z" fill-rule="nonzero"/><path fill="#ff0000" clip-path="url(#id_0)" d="M420.9056 500.89825L422.9056 502.89825L420.9056 504.89825L418.9056 502.89825Z" fill-rule="nonzero"/><path fill="#ff0000" clip-path="url(#id_0)" d="M487.96854 435.54156L489.96854 437.54156L487.96854 439.54156L485.96854 437.54156Z" fill-rule="nonzero"/><path fill="#ff0000" clip-path="url(#id_0)" d="M555.0315 453.7448L557.0315 455.7448L555.0315 457.7448L553.0315 455.7448Z" fill-rule="nonzero"/><path fill="#ff0000" clip-path="url(#id_0)" d="M622.0944 45.00867L624.0944 47.00867L622.0944 49.00867L620.0944 47.00867Z" fill-rule="nonzero"/><path fill="#ff0000" clip-path="url(#id_0)" d="M689.15735 365.5045L691.15735 367.5045L689.15735 369.5045L687.15735 367.5045Z" fill-rule="nonzero"/><path fill="#ff0000" clip-path="url(#id_0)" d="M756.2203 170.35767L758.2203 172.35767L756.2203 174.35767L754.2203 172.35767Z" fill-rule="nonzero"/><path fill="#ff0000" clip-path="url(#id_0)" d="M823.2832 291.60458L825.2832 293.60458L823.2832 295.60458L821.2832 293.60458Z" fill-rule="nonzero"/><path fill="#ff0000" clip-path="url(#id_0)" d="M890.3461 73.65949L892.3461 75.65949L890.3461 77.65949L888.3461 75.65949Z" fill-rule="nonzero"/><path fill="#ff0000" clip-path="url(#id_0)" d="M957.4091 93.45213L959.4091 95.45213L957.4091 97.45213L955.4091 95.45213Z" fill-rule="nonzero"/><path fill="#0000ff" clip-path="url(#id_0)" d="M85.590904 515.2567L87.590904 517.2567L85.590904 519.2567L83.590904 517.2567Z" fill-rule="nonzero"/><path fill="#0000ff" clip-path="url(#id_0)" d="M152.65384 500.1168L154.65384 502.1168L152.65384 504.1168L150.65384 502.1168Z" fill-rule="nonzero"/><path fill="#0000ff" clip-path="url(#id_0)" d="M219.71678 505.9525L221.71678 507.9525L219.71678 509.9525L217.71678 507.9525Z" fill-rule="nonzero"/><path fill="#0000ff" clip-path="url(#id_0)" d="M286.77972 503.30878L288.77972 505.30878L286.77972 507.30878L284.77972 505.30878Z" fill-rule="nonzero"/><path fill="#0000ff" clip-path="url(#id_0)" d="M353.84265 480.59827L355.84265 482.59827L353.84265 484.59827L351.84265 482.59827Z" fill-rule="nonzero"/><path fill="#0000ff" clip-path="url(#id_0)" d="M420.9056 502.70163L422.9056 504.70163L420.9056 506.70163L418.9056 504.70163Z" fill-rule="nonzero"/><path fill="#0000ff" clip-path="url(#id_0)" d="M487.96854 463.1356L489.96854 465.1356L487.96854 467.1356L485.96854 465.1356Z" fill-rule="nonzero"/><path fill="#0000ff" clip-path="url(#id_0)" d="M555.0315 481.203L557.0315 483.203L555.0315 485.203L553.0315 483.203Z" fill-rule="nonzero"/><path fill="#0000ff" clip-path="url(#id_0)" d="M622.0944 248.41615L624.0944 250.41615L622.0944 252.41615L620.0944 250.41615Z" fill-rule="nonzero"/><path fill="#0000ff" clip-path="url(#id_0)" d="M689.15735 424.0264L691.15735 426.0264L689.15735 428.0264L687.15735 426.0264Z" fill-rule="nonzero"/><path fill="#0000ff" clip-path="url(#id_0)" d="M756.2203 324.02805L758.2203 326.02805L756.2203 328.02805L754.2203 326.02805Z" fill-rule="nonzero"/><path fill="#0000ff" clip-path="url(#id_0)" d="M823.2832 421.28528L825.2832 423.28528L823.2832 425.28528L821.2832 423.28528Z" fill-rule="nonzero"/><path fill="#0000ff" clip-path="url(#id_0)" d="M890.3461 342.83365L892.3461 344.83365L890.3461 346.83365L888.3461 344.83365Z" fill-rule="nonzero"/><path fill="#0000ff" clip-path="url(#id_0)" d="M957.4091 369.07275L959.4091 371.07275L957.4091 373.07275L955.4091 371.07275Z" fill-rule="nonzero"/><path fill="#00ff00" clip-path="url(#id_0)" d="M85.590904 517.0L87.590904 519.0L85.590904 521.0L83.590904 519.0Z" fill-rule="nonzero"/><path fill="#00ff00" clip-path="url(#id_0)" d="M152.65384 516.4001L154.65384 518.4001L152.65384 520.4001L150.65384 518.4001Z" fill-rule="nonzero"/><path fill="#00ff00" clip-path="url(#id_0)" d="M219.71678 513.2165L221.71678 515.2165L219.71678 517.2165L217.71678 515.2165Z" fill-rule="nonzero"/><path fill="#00ff00" clip-path="url(#id_0)" d="M286.77972 516.39886L288.77972 518.39886L286.77972 520.39886L284.77972 518.39886Z" fill-rule="nonzero"/><path fill="#00ff00" clip-path="url(#id_0)" d="M353.84265 510.14957L355.84265 512.1496L353.84265 514.1496L351.84265 512.1496Z" fill-rule="nonzero"/><path fill="#00ff00" clip-path="url(#id_0)" d="M420.9056 515.19666L422.9056 517.19666L420.9056 519.19666L418.9056 517.19666Z" fill-rule="nonzero"/><path fill="#00ff00" clip-path="url(#id_0)" d="M487.96854 489.40594L489.96854 491.40594L487.96854 493.40594L485.96854 491.40594Z" fill-rule="nonzero"/><path fill="#00ff00" clip-path="url(#id_0)" d="M555.0315 489.5418L557.0315 491.5418L555.0315 493.5418L553.0315 491.5418Z" fill-rule="nonzero"/><path fill="#00ff00" clip-path="url(#id_0)" d="M622.0944 313.59253L624.0944 315.59253L622.0944 317.59253L620.0944 315.59253Z" fill-rule="nonzero"/><path fill="#00ff00" clip-path="url(#id_0)" d="M689.15735 458.4781L691.15735 460.4781L689.15735 462.4781L687.15735 460.4781Z" fill-rule="nonzero"/><path fill="#00ff00" clip-path="url(#id_0)" d="M756.2203 363.32962L758.2203 365.32962L756.2203 367.32962L754.2203 365.32962Z" fill-rule="nonzero"/><path fill="#00ff00" clip-path="url(#id_0)" d="M823.2832 387.3193L825.2832 389.3193L823.2832 391.3193L821.2832 389.3193Z" fill-rule="nonzero"/><path fill="#00ff00" clip-path="url(#id_0)" d="M890.3461 247.82584L892.3461 249.82584L890.3461 251.82584L888.3461 249.82584Z" fill-rule="nonzero"/><path fill="#00ff00" clip-path="url(#id_0)" d="M957.4091 241.37938L959.4091 243.37938L957.4091 245.37938L955.4091 243.37938Z" fill-rule="nonzero"/><path stroke="#000000" stroke-width="1.0" stroke-linecap="butt" d="M107.5 522.5L107.5 516.5" fill-rule="nonzero"/><path stroke="#000000" stroke-width="1.0" stroke-linecap="butt" d="M197.5 522.5L197.5 516.5" fill-rule="nonzero"/><path stroke="#000000" stroke-width="1.0" stroke-linecap="butt" d="M242.5 522.5L242.5 516.5" fill-rule="nonzero"/><path stroke="#000000" stroke-width="1.0" stroke-linecap="butt" d="M331.5 522.5L331.5 516.5" fill-rule="nonzero"/><path stroke="#000000" stroke-width="1.0" stroke-linecap="butt" d="M376.5 522.5L376.5 516.5" fill-rule="nonzero"/><path stroke="#000000" stroke-width="1.0" stroke-linecap="butt" d="M465.5 522.5L465.5 516.5" fill-rule="nonzero"/><path stroke="#000000" stroke-width="1.0" stroke-linecap="butt" d="M510.5 522.5L510.5 516.5" fill-rule="nonzero"/><path stroke="#000000" stroke-width="1.0" stroke-linecap="butt" d="M599.5 522.5L599.5 516.5" fill-rule="nonzero"/><path stroke="#000000" stroke-width="1.0" stroke-linecap="butt" d="M644.5 522.5L644.5 516.5" fill-rule="nonzero"/><path stroke="#000000" stroke-width="1.0" stroke-linecap="butt" d="M733.5 522.5L733.5 516.5" fill-rule="nonzero"/><path stroke="#000000" stroke-width="1.0" stroke-linecap="butt" d="M778.5 522.5L778.5 516.5" fill-rule="nonzero"/><path stroke="#000000" stroke-width="1.0" stroke-linecap="butt" d="M867.5 522.5L867.5 516.5" fill-rule="nonzero"/><path stroke="#000000" stroke-width="1.0" stroke-linecap="butt" d="M912.5 522.5L912.5 516.5" fill-rule="nonzero"/><path stroke="#000000" stroke-width="1.0" stroke-linecap="butt" d="M152.5 525.5L152.5 513.5" fill-rule="nonzero"/><path stroke="#000000" stroke-width="1.0" stroke-linecap="butt" d="M286.5 525.5L286.5 513.5" fill-rule="nonzero"/><path stroke="#000000" stroke-width="1.0" stroke-linecap="butt" d="M420.5 525.5L420.5 513.5" fill-rule="nonzero"/><path stroke="#000000" stroke-width="1.0" stroke-linecap="butt" d="M555.5 525.5L555.5 513.5" fill-rule="nonzero"/><path stroke="#000000" stroke-width="1.0" stroke-linecap="butt" d="M689.5 525.5L689.5 513.5" fill-rule="nonzero"/><path stroke="#000000" stroke-width="1.0" stroke-linecap="butt" d="M823.5 525.5L823.5 513.5" fill-rule="nonzero"/><path stroke="#000000" stroke-width="1.0" stroke-linecap="butt" d="M957.5 525.5L957.5 513.5" fill-rule="nonzero"/><path stroke="#000000" stroke-width="1.0" stroke-linecap="butt" d="M80.5 494.5L86.5 494.5" fill-rule="nonzero"/><path stroke="#000000" stroke-width="1.0" stroke-linecap="butt" d="M80.5 470.5L86.5 470.5" fill-rule="nonzero"/><path stroke="#000000" stroke-width="1.0" stroke-linecap="butt" d="M80.5 446.5L86.5 446.5" fill-rule="nonzero"/><path stroke="#000000" stroke-width="1.0" stroke-linecap="butt" d="M80.5 422.5L86.5 422.5" fill-rule="nonzero"/><path stroke="#000000" stroke-width="1.0" stroke-linecap="butt" d="M80.5 374.5L86.5 374.5" fill-rule="nonzero"/><path stroke="#000000" stroke-width="1.0" stroke-linecap="butt" d="M80.5 350.5L86.5 350.5" fill-rule="nonzero"/><path stroke="#000000" stroke-width="1.0" stroke-linecap="butt" d="M80.5 326.5L86.5 326.5" fill-rule="nonzero"/><path stroke="#000000" stroke-width="1.0" stroke-linecap="butt" d="M80.5 302.5L86.5 302.5" fill-rule="nonzero"/><path stroke="#000000" stroke-width="1.0" stroke-linecap="butt" d="M80.5 254.5L86.5 254.5" fill-rule="nonzero"/><path stroke="#000000" stroke-width="1.0" stroke-linecap="butt" d="M80.5 230.5L86.5 230.5" fill-rule="nonzero"/><path stroke="#000000" stroke-width="1.0" stroke-linecap="butt" d="M80.5 206.5L86.5 206.5" fill-rule="nonzero"/><path stroke="#000000" stroke-width="1.0" stroke-linecap="butt" d="M80.5 182.5L86.5 182.5" fill-rule="nonzero"/><path stroke="#000000" stroke-width="1.0" stroke-linecap="butt" d="M80.5 134.5L86.5 134.5" fill-rule="nonzero"/><path stroke="#000000" stroke-width="1.0" stroke-linecap="butt" d="M80.5 110.5L86.5 110.5" fill-rule="nonzero"/><path stroke="#000000" stroke-width="1.0" stroke-linecap="butt" d="M80.5 86.5L86.5 86.5" fill-rule="nonzero"/><path stroke="#000000" stroke-width="1.0" stroke-linecap="butt" d="M80.5 62.5L86.5 62.5" fill-rule="nonzero"/><path stroke="#000000" stroke-width="1.0" stroke-linecap="butt" d="M77.5 519.5L89.5 519.5" fill-rule="nonzero"/><path stroke="#000000" stroke-width="1.0" stroke-linecap="butt" d="M77.5 398.5L89.5 398.5" fill-rule="nonzero"/><path stroke="#000000" stroke-width="1.0" stroke-linecap="butt" d="M77.5 278.5L89.5 278.5" fill-rule="nonzero"/><path stroke="#000000" stroke-width="1.0" stroke-linecap="butt" d="M77.5 158.5L89.5 158.5" fill-rule="nonzero"/><path stroke="#000000" stroke-width="1.0" stroke-linecap="butt" d="M77.5 38.5L89.5 38.5" fill-rule="nonzero"/><path fill="#000000" d="M53.725 516.3281Q53.13125 515.7344 52.35 515.7344Q51.521873 515.7344 50.896873 516.34375Q50.271873 516.9531 50.13125 518.0156L53.4125 518.0156L53.2875 518.8125L50.053123 518.8125L50.053123 519.5781L53.146873 519.5781L53.021873 520.3594L50.1625 520.3594Q50.31875 521.4844 50.896873 522.0781Q51.490623 522.6719 52.35 522.6719Q53.19375 522.6719 53.725 522.09375L53.725 523.3125Q53.13125 523.6406 52.365623 523.6406Q49.75625 523.6406 49.19375 520.3594L48.459373 520.3594L48.6 519.5781L49.1 519.5781Q49.1 519.4375 49.1 519.21875L49.1 518.8125L48.459373 518.8125L48.6 518.0156L49.1625 518.0156Q49.396873 516.46875 50.271873 515.625Q51.1625 514.7656 52.428123 514.7656Q53.271873 514.7656 53.928123 515.25L53.725 516.3281ZM53.990623 519.2656Q53.990623 517.09375 54.56875 515.9844Q55.1625 514.875 56.303123 514.875Q57.303123 514.875 57.88125 515.78125Q58.584373 516.8594 58.584373 519.2656Q58.584373 521.40625 58.00625 522.53125Q57.428123 523.6406 56.2875 523.6406Q55.271873 523.6406 54.63125 522.65625Q53.990623 521.6719 53.990623 519.2656ZM54.88125 519.2656Q54.88125 521.3594 55.271873 522.0781Q55.678123 522.78125 56.303123 522.78125Q56.896873 522.78125 57.2875 522.0625Q57.69375 521.34375 57.69375 519.2656Q57.69375 517.1719 57.2875 516.46875Q56.896873 515.75 56.25625 515.75Q55.6625 515.75 55.271873 516.46875Q54.88125 517.1875 54.88125 519.2656ZM59.50625 523.5L59.50625 522.2969L60.490623 522.2969L60.490623 523.5L59.50625 523.5ZM61.990623 519.2656Q61.990623 517.09375 62.56875 515.9844Q63.1625 514.875 64.30312 514.875Q65.30312 514.875 65.88125 515.78125Q66.58437 516.8594 66.58437 519.2656Q66.58437 521.40625 66.00625 522.53125Q65.42812 523.6406 64.2875 523.6406Q63.271873 523.6406 62.63125 522.65625Q61.990623 521.6719 61.990623 519.2656ZM62.88125 519.2656Q62.88125 521.3594 63.271873 522.0781Q63.678123 522.78125 64.30312 522.78125Q64.89687 522.78125 65.2875 522.0625Q65.69375 521.34375 65.69375 519.2656Q65.69375 517.1719 65.2875 516.46875Q64.89687 515.75 64.25625 515.75Q63.6625 515.75 63.271873 516.46875Q62.88125 517.1875 62.88125 519.2656ZM66.99062 519.2656Q66.99062 517.09375 67.56875 515.9844Q68.1625 514.875 69.30312 514.875Q70.30312 514.875 70.88125 515.78125Q71.58437 516.8594 71.58437 519.2656Q71.58437 521.40625 71.00625 522.53125Q70.42812 523.6406 69.2875 523.6406Q68.27187 523.6406 67.63125 522.65625Q66.99062 521.6719 66.99062 519.2656ZM67.88125 519.2656Q67.88125 521.3594 68.27187 522.0781Q68.67812 522.78125 69.30312 522.78125Q69.89687 522.78125 70.2875 522.0625Q70.69375 521.34375 70.69375 519.2656Q70.69375 517.1719 70.2875 516.46875Q69.89687 515.75 69.25625 515.75Q68.6625 515.75 68.27187 516.46875Q67.88125 517.1875 67.88125 519.2656Z" fill-rule="nonzero"/><path fill="#000000" d="M35.725 396.10312Q35.13125 395.50937 34.35 395.50937Q33.521873 395.50937 32.896873 396.11874Q32.271873 396.72812 32.13125 397.79062L35.4125 397.79062L35.2875 398.5875L32.053123 398.5875L32.053123 399.35312L35.146873 399.35312L35.021873 400.13437L32.1625 400.13437Q32.31875 401.25937 32.896873 401.85312Q33.490623 402.44687 34.35 402.44687Q35.19375 402.44687 35.725 401.86874L35.725 403.0875Q35.13125 403.41562 34.365623 403.41562Q31.75625 403.41562 31.19375 400.13437L30.459375 400.13437L30.6 399.35312L31.1 399.35312Q31.1 399.2125 31.1 398.99374L31.1 398.5875L30.459375 398.5875L30.6 397.79062L31.1625 397.79062Q31.396875 396.24374 32.271873 395.4Q33.1625 394.54062 34.428123 394.54062Q35.271873 394.54062 35.928123 395.025L35.725 396.10312ZM39.25625 403.275L38.38125 403.275L38.38125 396.55624Q38.084373 396.9 37.584373 397.275Q37.084373 397.63437 36.6625 397.82187L36.6625 396.80624Q37.365623 396.4 37.9125 395.80624Q38.459373 395.2125 38.69375 394.65L39.25625 394.65L39.25625 403.275ZM41.490623 403.275L41.490623 402.07187L42.475 402.07187L42.475 403.275Q42.475 403.97812 42.271873 404.36874Q42.06875 404.75937 41.678123 404.97812L41.428123 404.525Q41.69375 404.38437 41.81875 404.10312Q41.959373 403.82187 41.975 403.275L41.490623 403.275ZM43.990623 399.04062Q43.990623 396.86874 44.56875 395.75937Q45.1625 394.65 46.303123 394.65Q47.303123 394.65 47.88125 395.55624Q48.584373 396.63437 48.584373 399.04062Q48.584373 401.18124 48.00625 402.30624Q47.428123 403.41562 46.2875 403.41562Q45.271873 403.41562 44.63125 402.43124Q43.990623 401.44687 43.990623 399.04062ZM44.88125 399.04062Q44.88125 401.13437 45.271873 401.85312Q45.678123 402.55624 46.303123 402.55624Q46.896873 402.55624 47.2875 401.8375Q47.69375 401.11874 47.69375 399.04062Q47.69375 396.94687 47.2875 396.24374Q46.896873 395.525 46.25625 395.525Q45.6625 395.525 45.271873 396.24374Q44.88125 396.9625 44.88125 399.04062ZM48.990623 399.04062Q48.990623 396.86874 49.56875 395.75937Q50.1625 394.65 51.303123 394.65Q52.303123 394.65 52.88125 395.55624Q53.584373 396.63437 53.584373 399.04062Q53.584373 401.18124 53.00625 402.30624Q52.428123 403.41562 51.2875 403.41562Q50.271873 403.41562 49.63125 402.43124Q48.990623 401.44687 48.990623 399.04062ZM49.88125 399.04062Q49.88125 401.13437 50.271873 401.85312Q50.678123 402.55624 51.303123 402.55624Q51.896873 402.55624 52.2875 401.8375Q52.69375 401.11874 52.69375 399.04062Q52.69375 396.94687 52.2875 396.24374Q51.896873 395.525 51.25625 395.525Q50.6625 395.525 50.271873 396.24374Q49.88125 396.9625 49.88125 399.04062ZM53.990623 399.04062Q53.990623 396.86874 54.56875 395.75937Q55.1625 394.65 56.303123 394.65Q57.303123 394.65 57.88125 395.55624Q58.584373 396.63437 58.584373 399.04062Q58.584373 401.18124 58.00625 402.30624Q57.428123 403.41562 56.2875 403.41562Q55.271873 403.41562 54.63125 402.43124Q53.990623 401.44687 53.990623 399.04062ZM54.88125 399.04062Q54.88125 401.13437 55.271873 401.85312Q55.678123 402.55624 56.303123 402.55624Q56.896873 402.55624 57.2875 401.8375Q57.69375 401.11874 57.69375 399.04062Q57.69375 396.94687 57.2875 396.24374Q56.896873 395.525 56.25625 395.525Q55.6625 395.525 55.271873 396.24374Q54.88125 396.9625 54.88125 399.04062ZM59.50625 403.275L59.50625 402.07187L60.490623 402.07187L60.490623 403.275L59.50625 403.275ZM61.990623 399.04062Q61.990623 396.86874 62.56875 395.75937Q63.1625 394.65 64.30312 394.65Q65.30312 394.65 65.88125 395.55624Q66.58437 396.63437 66.58437 399.04062Q66.58437 401.18124 66.00625 402.30624Q65.42812 403.41562 64.2875 403.41562Q63.271873 403.41562 62.63125 402.43124Q61.990623 401.44687 61.990623 399.04062ZM62.88125 399.04062Q62.88125 401.13437 63.271873 401.85312Q63.678123 402.55624 64.30312 402.55624Q64.89687 402.55624 65.2875 401.8375Q65.69375 401.11874 65.69375 399.04062Q65.69375 396.94687 65.2875 396.24374Q64.89687 395.525 64.25625 395.525Q63.6625 395.525 63.271873 396.24374Q62.88125 396.9625 62.88125 399.04062ZM66.99062 399.04062Q66.99062 396.86874 67.56875 395.75937Q68.1625 394.65 69.30312 394.65Q70.30312 394.65 70.88125 395.55624Q71.58437 396.63437 71.58437 399.04062Q71.58437 401.18124 71.00625 402.30624Q70.42812 403.41562 69.2875 403.41562Q68.27187 403.41562 67.63125 402.43124Q66.99062 401.44687 66.99062 399.04062ZM67.88125 399.04062Q67.88125 401.13437 68.27187 401.85312Q68.67812 402.55624 69.30312 402.55624Q69.89687 402.55624 70.2875 401.8375Q70.69375 401.11874 70.69375 399.04062Q70.69375 396.94687 70.2875 396.24374Q69.89687 395.525 69.25625 395.525Q68.6625 395.525 68.27187 396.24374Q67.88125 396.9625 67.88125 399.04062Z" fill-rule="nonzero"/><path fill="#000000" d="M35.725 275.8781Q35.13125 275.28436 34.35 275.28436Q33.521873 275.28436 32.896873 275.89374Q32.271873 276.5031 32.13125 277.5656L35.4125 277.5656L35.2875 278.3625L32.053123 278.3625L32.053123 279.1281L35.146873 279.1281L35.021873 279.90936L32.1625 279.90936Q32.31875 281.03436 32.896873 281.6281Q33.490623 282.22186 34.35 282.22186Q35.19375 282.22186 35.725 281.64374L35.725 282.8625Q35.13125 283.1906 34.365623 283.1906Q31.75625 283.1906 31.19375 279.90936L30.459375 279.90936L30.6 279.1281L31.1 279.1281Q31.1 278.9875 31.1 278.76874L31.1 278.3625L30.459375 278.3625L30.6 277.5656L31.1625 277.5656Q31.396875 276.01874 32.271873 275.175Q33.1625 274.3156 34.428123 274.3156Q35.271873 274.3156 35.928123 274.8L35.725 275.8781ZM40.553123 282.03436L40.553123 283.05L35.896873 283.05Q35.88125 282.4406 36.271873 281.675Q36.6625 280.90936 37.69375 279.8781Q38.9125 278.65936 39.2875 278.0031Q39.6625 277.34686 39.6625 276.78436Q39.6625 276.1281 39.271873 275.72186Q38.88125 275.3 38.31875 275.3Q37.725 275.3 37.334373 275.7531Q36.94375 276.1906 36.94375 277.01874L36.053123 276.90936Q36.146873 275.675 36.75625 275.05Q37.365623 274.425 38.35 274.425Q39.428123 274.425 39.975 275.15936Q40.5375 275.8781 40.5375 276.8Q40.5375 277.6281 40.1 278.3781Q39.678123 279.1281 38.459373 280.3781Q37.69375 281.175 37.459373 281.47186Q37.240623 281.7531 37.1 282.03436L40.553123 282.03436ZM41.490623 283.05L41.490623 281.84686L42.475 281.84686L42.475 283.05Q42.475 283.7531 42.271873 284.14374Q42.06875 284.53436 41.678123 284.7531L41.428123 284.3Q41.69375 284.15936 41.81875 283.8781Q41.959373 283.59686 41.975 283.05L41.490623 283.05ZM43.990623 278.8156Q43.990623 276.64374 44.56875 275.53436Q45.1625 274.425 46.303123 274.425Q47.303123 274.425 47.88125 275.33124Q48.584373 276.40936 48.584373 278.8156Q48.584373 280.95624 48.00625 282.08124Q47.428123 283.1906 46.2875 283.1906Q45.271873 283.1906 44.63125 282.20624Q43.990623 281.22186 43.990623 278.8156ZM44.88125 278.8156Q44.88125 280.90936 45.271873 281.6281Q45.678123 282.33124 46.303123 282.33124Q46.896873 282.33124 47.2875 281.6125Q47.69375 280.89374 47.69375 278.8156Q47.69375 276.72186 47.2875 276.01874Q46.896873 275.3 46.25625 275.3Q45.6625 275.3 45.271873 276.01874Q44.88125 276.7375 44.88125 278.8156ZM48.990623 278.8156Q48.990623 276.64374 49.56875 275.53436Q50.1625 274.425 51.303123 274.425Q52.303123 274.425 52.88125 275.33124Q53.584373 276.40936 53.584373 278.8156Q53.584373 280.95624 53.00625 282.08124Q52.428123 283.1906 51.2875 283.1906Q50.271873 283.1906 49.63125 282.20624Q48.990623 281.22186 48.990623 278.8156ZM49.88125 278.8156Q49.88125 280.90936 50.271873 281.6281Q50.678123 282.33124 51.303123 282.33124Q51.896873 282.33124 52.2875 281.6125Q52.69375 280.89374 52.69375 278.8156Q52.69375 276.72186 52.2875 276.01874Q51.896873 275.3 51.25625 275.3Q50.6625 275.3 50.271873 276.01874Q49.88125 276.7375 49.88125 278.8156ZM53.990623 278.8156Q53.990623 276.64374 54.56875 275.53436Q55.1625 274.425 56.303123 274.425Q57.303123 274.425 57.88125 275.33124Q58.584373 276.40936 58.584373 278.8156Q58.584373 280.95624 58.00625 282.08124Q57.428123 283.1906 56.2875 283.1906Q55.271873 283.1906 54.63125 282.20624Q53.990623 281.22186 53.990623 278.8156ZM54.88125 278.8156Q54.88125 280.90936 55.271873 281.6281Q55.678123 282.33124 56.303123 282.33124Q56.896873 282.33124 57.2875 281.6125Q57.69375 280.89374 57.69375 278.8156Q57.69375 276.72186 57.2875 276.01874Q56.896873 275.3 56.25625 275.3Q55.6625 275.3 55.271873 276.01874Q54.88125 276.7375 54.88125 278.8156ZM59.50625 283.05L59.50625 281.84686L60.490623 281.84686L60.490623 283.05L59.50625 283.05ZM61.990623 278.8156Q61.990623 276.64374 62.56875 275.53436Q63.1625 274.425 64.30312 274.425Q65.30312 274.425 65.88125 275.33124Q66.58437 276.40936 66.58437 278.8156Q66.58437 280.95624 66.00625 282.08124Q65.42812 283.1906 64.2875 283.1906Q63.271873 283.1906 62.63125 282.20624Q61.990623 281.22186 61.990623 278.8156ZM62.88125 278.8156Q62.88125 280.90936 63.271873 281.6281Q63.678123 282.33124 64.30312 282.33124Q64.89687 282.33124 65.2875 281.6125Q65.69375 280.89374 65.69375 278.8156Q65.69375 276.72186 65.2875 276.01874Q64.89687 275.3 64.25625 275.3Q63.6625 275.3 63.271873 276.01874Q62.88125 276.7375 62.88125 278.8156ZM66.99062 278.8156Q66.99062 276.64374 67.56875 275.53436Q68.1625 274.425 69.30312 274.425Q70.30312 274.425 70.88125 275.33124Q71.58437 276.40936 71.58437 278.8156Q71.58437 280.95624 71.00625 282.08124Q70.42812 283.1906 69.2875 283.1906Q68.27187 283.1906 67.63125 282.20624Q66.99062 281.22186 66.99062 278.8156ZM67.88125 278.8156Q67.88125 280.90936 68.27187 281.6281Q68.67812 282.33124 69.30312 282.33124Q69.89687 282.33124 70.2875 281.6125Q70.69375 280.89374 70.69375 278.8156Q70.69375 276.72186 70.2875 276.01874Q69.89687 275.3 69.25625 275.3Q68.6625 275.3 68.27187 276.01874Q67.88125 276.7375 67.88125 278.8156Z" fill-rule="nonzero"/><path fill="#000000" d="M35.725 155.65312Q35.13125 155.05937 34.35 155.05937Q33.521873 155.05937 32.896873 155.66875Q32.271873 156.27812 32.13125 157.34062L35.4125 157.34062L35.2875 158.1375L32.053123 158.1375L32.053123 158.90312L35.146873 158.90312L35.021873 159.68437L32.1625 159.68437Q32.31875 160.80937 32.896873 161.40312Q33.490623 161.99687 34.35 161.99687Q35.19375 161.99687 35.725 161.41875L35.725 162.6375Q35.13125 162.96562 34.365623 162.96562Q31.75625 162.96562 31.19375 159.68437L30.459375 159.68437L30.6 158.90312L31.1 158.90312Q31.1 158.7625 31.1 158.54375L31.1 158.1375L30.459375 158.1375L30.6 157.34062L31.1625 157.34062Q31.396875 155.79375 32.271873 154.95Q33.1625 154.09062 34.428123 154.09062Q35.271873 154.09062 35.928123 154.575L35.725 155.65312ZM36.00625 160.55937L36.865623 160.41875Q37.13125 162.10625 38.225 162.10625Q38.81875 162.10625 39.25625 161.60625Q39.69375 161.10625 39.69375 160.30937Q39.69375 159.55937 39.2875 159.10625Q38.896873 158.6375 38.31875 158.6375Q38.06875 158.6375 37.709373 158.7625L37.803123 157.825L37.94375 157.84062Q38.584373 157.84062 38.975 157.45Q39.38125 157.05937 39.38125 156.40312Q39.38125 155.79375 39.0375 155.43437Q38.709373 155.05937 38.225 155.05937Q37.725 155.05937 37.38125 155.45Q37.0375 155.84062 36.94375 156.60625L36.084373 156.41875Q36.25625 155.325 36.81875 154.7625Q37.396873 154.2 38.209373 154.2Q39.06875 154.2 39.6625 154.84062Q40.271873 155.46562 40.271873 156.41875Q40.271873 157.0125 40.00625 157.46562Q39.75625 157.91875 39.303123 158.16875Q39.725 158.29375 39.990623 158.55937Q40.271873 158.825 40.44375 159.27812Q40.615623 159.73125 40.615623 160.29375Q40.615623 161.46562 39.9125 162.23125Q39.209373 162.98125 38.240623 162.98125Q37.334373 162.98125 36.709373 162.325Q36.084373 161.66875 36.00625 160.55937ZM41.490623 162.825L41.490623 161.62187L42.475 161.62187L42.475 162.825Q42.475 163.52812 42.271873 163.91875Q42.06875 164.30937 41.678123 164.52812L41.428123 164.075Q41.69375 163.93437 41.81875 163.65312Q41.959373 163.37187 41.975 162.825L41.490623 162.825ZM43.990623 158.59062Q43.990623 156.41875 44.56875 155.30937Q45.1625 154.2 46.303123 154.2Q47.303123 154.2 47.88125 155.10625Q48.584373 156.18437 48.584373 158.59062Q48.584373 160.73125 48.00625 161.85625Q47.428123 162.96562 46.2875 162.96562Q45.271873 162.96562 44.63125 161.98125Q43.990623 160.99687 43.990623 158.59062ZM44.88125 158.59062Q44.88125 160.68437 45.271873 161.40312Q45.678123 162.10625 46.303123 162.10625Q46.896873 162.10625 47.2875 161.3875Q47.69375 160.66875 47.69375 158.59062Q47.69375 156.49687 47.2875 155.79375Q46.896873 155.075 46.25625 155.075Q45.6625 155.075 45.271873 155.79375Q44.88125 156.5125 44.88125 158.59062ZM48.990623 158.59062Q48.990623 156.41875 49.56875 155.30937Q50.1625 154.2 51.303123 154.2Q52.303123 154.2 52.88125 155.10625Q53.584373 156.18437 53.584373 158.59062Q53.584373 160.73125 53.00625 161.85625Q52.428123 162.96562 51.2875 162.96562Q50.271873 162.96562 49.63125 161.98125Q48.990623 160.99687 48.990623 158.59062ZM49.88125 158.59062Q49.88125 160.68437 50.271873 161.40312Q50.678123 162.10625 51.303123 162.10625Q51.896873 162.10625 52.2875 161.3875Q52.69375 160.66875 52.69375 158.59062Q52.69375 156.49687 52.2875 155.79375Q51.896873 155.075 51.25625 155.075Q50.6625 155.075 50.271873 155.79375Q49.88125 156.5125 49.88125 158.59062ZM53.990623 158.59062Q53.990623 156.41875 54.56875 155.30937Q55.1625 154.2 56.303123 154.2Q57.303123 154.2 57.88125 155.10625Q58.584373 156.18437 58.584373 158.59062Q58.584373 160.73125 58.00625 161.85625Q57.428123 162.96562 56.2875 162.96562Q55.271873 162.96562 54.63125 161.98125Q53.990623 160.99687 53.990623 158.59062ZM54.88125 158.59062Q54.88125 160.68437 55.271873 161.40312Q55.678123 162.10625 56.303123 162.10625Q56.896873 162.10625 57.2875 161.3875Q57.69375 160.66875 57.69375 158.59062Q57.69375 156.49687 57.2875 155.79375Q56.896873 155.075 56.25625 155.075Q55.6625 155.075 55.271873 155.79375Q54.88125 156.5125 54.88125 158.59062ZM59.50625 162.825L59.50625 161.62187L60.490623 161.62187L60.490623 162.825L59.50625 162.825ZM61.990623 158.59062Q61.990623 156.41875 62.56875 155.30937Q63.1625 154.2 64.30312 154.2Q65.30312 154.2 65.88125 155.10625Q66.58437 156.18437 66.58437 158.59062Q66.58437 160.73125 66.00625 161.85625Q65.42812 162.96562 64.2875 162.96562Q63.271873 162.96562 62.63125 161.98125Q61.990623 160.99687 61.990623 158.59062ZM62.88125 158.59062Q62.88125 160.68437 63.271873 161.40312Q63.678123 162.10625 64.30312 162.10625Q64.89687 162.10625 65.2875 161.3875Q65.69375 160.66875 65.69375 158.59062Q65.69375 156.49687 65.2875 155.79375Q64.89687 155.075 64.25625 155.075Q63.6625 155.075 63.271873 155.79375Q62.88125 156.5125 62.88125 158.59062ZM66.99062 158.59062Q66.99062 156.41875 67.56875 155.30937Q68.1625 154.2 69.30312 154.2Q70.30312 154.2 70.88125 155.10625Q71.58437 156.18437 71.58437 158.59062Q71.58437 160.73125 71.00625 161.85625Q70.42812 162.96562 69.2875 162.96562Q68.27187 162.96562 67.63125 161.98125Q66.99062 160.99687 66.99062 158.59062ZM67.88125 158.59062Q67.88125 160.68437 68.27187 161.40312Q68.67812 162.10625 69.30312 162.10625Q69.89687 162.10625 70.2875 161.3875Q70.69375 160.66875 70.69375 158.59062Q70.69375 156.49687 70.2875 155.79375Q69.89687 155.075 69.25625 155.075Q68.6625 155.075 68.27187 155.79375Q67.88125 156.5125 67.88125 158.59062Z" fill-rule="nonzero"/><path fill="#000000" d="M35.725 35.428123Q35.13125 34.834373 34.35 34.834373Q33.521873 34.834373 32.896873 35.44375Q32.271873 36.053123 32.13125 37.115623L35.4125 37.115623L35.2875 37.9125L32.053123 37.9125L32.053123 38.678123L35.146873 38.678123L35.021873 39.459373L32.1625 39.459373Q32.31875 40.584373 32.896873 41.178123Q33.490623 41.771873 34.35 41.771873Q35.19375 41.771873 35.725 41.19375L35.725 42.4125Q35.13125 42.740623 34.365623 42.740623Q31.75625 42.740623 31.19375 39.459373L30.459375 39.459373L30.6 38.678123L31.1 38.678123Q31.1 38.5375 31.1 38.31875L31.1 37.9125L30.459375 37.9125L30.6 37.115623L31.1625 37.115623Q31.396875 35.56875 32.271873 34.725Q33.1625 33.865623 34.428123 33.865623Q35.271873 33.865623 35.928123 34.35L35.725 35.428123ZM38.771873 42.6L38.771873 40.5375L35.709373 40.5375L35.709373 39.56875L38.928123 34.00625L39.63125 34.00625L39.63125 39.56875L40.584373 39.56875L40.584373 40.5375L39.63125 40.5375L39.63125 42.6L38.771873 42.6ZM38.771873 39.56875L38.771873 35.709373L36.56875 39.56875L38.771873 39.56875ZM41.490623 42.6L41.490623 41.396873L42.475 41.396873L42.475 42.6Q42.475 43.303123 42.271873 43.69375Q42.06875 44.084373 41.678123 44.303123L41.428123 43.85Q41.69375 43.709373 41.81875 43.428123Q41.959373 43.146873 41.975 42.6L41.490623 42.6ZM43.990623 38.365623Q43.990623 36.19375 44.56875 35.084373Q45.1625 33.975 46.303123 33.975Q47.303123 33.975 47.88125 34.88125Q48.584373 35.959373 48.584373 38.365623Q48.584373 40.50625 48.00625 41.63125Q47.428123 42.740623 46.2875 42.740623Q45.271873 42.740623 44.63125 41.75625Q43.990623 40.771873 43.990623 38.365623ZM44.88125 38.365623Q44.88125 40.459373 45.271873 41.178123Q45.678123 41.88125 46.303123 41.88125Q46.896873 41.88125 47.2875 41.1625Q47.69375 40.44375 47.69375 38.365623Q47.69375 36.271873 47.2875 35.56875Q46.896873 34.85 46.25625 34.85Q45.6625 34.85 45.271873 35.56875Q44.88125 36.2875 44.88125 38.365623ZM48.990623 38.365623Q48.990623 36.19375 49.56875 35.084373Q50.1625 33.975 51.303123 33.975Q52.303123 33.975 52.88125 34.88125Q53.584373 35.959373 53.584373 38.365623Q53.584373 40.50625 53.00625 41.63125Q52.428123 42.740623 51.2875 42.740623Q50.271873 42.740623 49.63125 41.75625Q48.990623 40.771873 48.990623 38.365623ZM49.88125 38.365623Q49.88125 40.459373 50.271873 41.178123Q50.678123 41.88125 51.303123 41.88125Q51.896873 41.88125 52.2875 41.1625Q52.69375 40.44375 52.69375 38.365623Q52.69375 36.271873 52.2875 35.56875Q51.896873 34.85 51.25625 34.85Q50.6625 34.85 50.271873 35.56875Q49.88125 36.2875 49.88125 38.365623ZM53.990623 38.365623Q53.990623 36.19375 54.56875 35.084373Q55.1625 33.975 56.303123 33.975Q57.303123 33.975 57.88125 34.88125Q58.584373 35.959373 58.584373 38.365623Q58.584373 40.50625 58.00625 41.63125Q57.428123 42.740623 56.2875 42.740623Q55.271873 42.740623 54.63125 41.75625Q53.990623 40.771873 53.990623 38.365623ZM54.88125 38.365623Q54.88125 40.459373 55.271873 41.178123Q55.678123 41.88125 56.303123 41.88125Q56.896873 41.88125 57.2875 41.1625Q57.69375 40.44375 57.69375 38.365623Q57.69375 36.271873 57.2875 35.56875Q56.896873 34.85 56.25625 34.85Q55.6625 34.85 55.271873 35.56875Q54.88125 36.2875 54.88125 38.365623ZM59.50625 42.6L59.50625 41.396873L60.490623 41.396873L60.490623 42.6L59.50625 42.6ZM61.990623 38.365623Q61.990623 36.19375 62.56875 35.084373Q63.1625 33.975 64.30312 33.975Q65.30312 33.975 65.88125 34.88125Q66.58437 35.959373 66.58437 38.365623Q66.58437 40.50625 66.00625 41.63125Q65.42812 42.740623 64.2875 42.740623Q63.271873 42.740623 62.63125 41.75625Q61.990623 40.771873 61.990623 38.365623ZM62.88125 38.365623Q62.88125 40.459373 63.271873 41.178123Q63.678123 41.88125 64.30312 41.88125Q64.89687 41.88125 65.2875 41.1625Q65.69375 40.44375 65.69375 38.365623Q65.69375 36.271873 65.2875 35.56875Q64.89687 34.85 64.25625 34.85Q63.6625 34.85 63.271873 35.56875Q62.88125 36.2875 62.88125 38.365623ZM66.99062 38.365623Q66.99062 36.19375 67.56875 35.084373Q68.1625 33.975 69.30312 33.975Q70.30312 33.975 70.88125 34.88125Q71.58437 35.959373 71.58437 38.365623Q71.58437 40.50625 71.00625 41.63125Q70.42812 42.740623 69.2875 42.740623Q68.27187 42.740623 67.63125 41.75625Q66.99062 40.771873 66.99062 38.365623ZM67.88125 38.365623Q67.88125 40.459373 68.27187 41.178123Q68.67812 41.88125 69.30312 41.88125Q69.89687 41.88125 70.2875 41.1625Q70.69375 40.44375 70.69375 38.365623Q70.69375 36.271873 70.2875 35.56875Q69.89687 34.85 69.25625 34.85Q68.6625 34.85 68.27187 35.56875Q67.88125 36.2875 67.88125 38.365623Z" fill-rule="nonzero"/><path fill="#000000" d="M147.60696 541.9844L147.60696 543.0L142.95071 543.0Q142.93509 542.3906 143.32571 541.625Q143.71634 540.8594 144.74759 539.8281Q145.96634 538.6094 146.34134 537.9531Q146.71634 537.2969 146.71634 536.7344Q146.71634 536.0781 146.32571 535.6719Q145.93509 535.25 145.37259 535.25Q144.77884 535.25 144.38821 535.7031Q143.99759 536.1406 143.99759 536.96875L143.10696 536.8594Q143.20071 535.625 143.81009 535.0Q144.41946 534.375 145.40384 534.375Q146.48196 534.375 147.02884 535.1094Q147.59134 535.8281 147.59134 536.75Q147.59134 537.5781 147.15384 538.3281Q146.73196 539.0781 145.51321 540.3281Q144.74759 541.125 144.51321 541.4219Q144.29446 541.7031 144.15384 541.9844L147.60696 541.9844ZM148.04446 538.7656Q148.04446 536.59375 148.62259 535.4844Q149.21634 534.375 150.35696 534.375Q151.35696 534.375 151.93509 535.28125Q152.63821 536.3594 152.63821 538.7656Q152.63821 540.90625 152.06009 542.03125Q151.48196 543.1406 150.34134 543.1406Q149.32571 543.1406 148.68509 542.15625Q148.04446 541.1719 148.04446 538.7656ZM148.93509 538.7656Q148.93509 540.8594 149.32571 541.5781Q149.73196 542.28125 150.35696 542.28125Q150.95071 542.28125 151.34134 541.5625Q151.74759 540.84375 151.74759 538.7656Q151.74759 536.6719 151.34134 535.96875Q150.95071 535.25 150.31009 535.25Q149.71634 535.25 149.32571 535.96875Q148.93509 536.6875 148.93509 538.7656ZM156.31009 543.0L155.43509 543.0L155.43509 536.28125Q155.13821 536.625 154.63821 537.0Q154.13821 537.3594 153.71634 537.5469L153.71634 536.53125Q154.41946 536.125 154.96634 535.53125Q155.51321 534.9375 155.74759 534.375L156.31009 534.375L156.31009 543.0ZM158.04446 538.7656Q158.04446 536.59375 158.62259 535.4844Q159.21634 534.375 160.35696 534.375Q161.35696 534.375 161.93509 535.28125Q162.63821 536.3594 162.63821 538.7656Q162.63821 540.90625 162.06009 542.03125Q161.48196 543.1406 160.34134 543.1406Q159.32571 543.1406 158.68509 542.15625Q158.04446 541.1719 158.04446 538.7656ZM158.93509 538.7656Q158.93509 540.8594 159.32571 541.5781Q159.73196 542.28125 160.35696 542.28125Q160.95071 542.28125 161.34134 541.5625Q161.74759 540.84375 161.74759 538.7656Q161.74759 536.6719 161.34134 535.96875Q160.95071 535.25 160.31009 535.25Q159.71634 535.25 159.32571 535.96875Q158.93509 536.6875 158.93509 538.7656Z" fill-rule="nonzero"/><path fill="#000000" d="M281.73285 541.9844L281.73285 543.0L277.0766 543.0Q277.06097 542.3906 277.4516 541.625Q277.84222 540.8594 278.87347 539.8281Q280.09222 538.6094 280.46722 537.9531Q280.84222 537.2969 280.84222 536.7344Q280.84222 536.0781 280.4516 535.6719Q280.06097 535.25 279.49847 535.25Q278.90472 535.25 278.5141 535.7031Q278.12347 536.1406 278.12347 536.96875L277.23285 536.8594Q277.3266 535.625 277.93597 535.0Q278.54535 534.375 279.52972 534.375Q280.60785 534.375 281.15472 535.1094Q281.71722 535.8281 281.71722 536.75Q281.71722 537.5781 281.27972 538.3281Q280.85785 539.0781 279.6391 540.3281Q278.87347 541.125 278.6391 541.4219Q278.42035 541.7031 278.27972 541.9844L281.73285 541.9844ZM282.17035 538.7656Q282.17035 536.59375 282.74847 535.4844Q283.34222 534.375 284.48285 534.375Q285.48285 534.375 286.06097 535.28125Q286.7641 536.3594 286.7641 538.7656Q286.7641 540.90625 286.18597 542.03125Q285.60785 543.1406 284.46722 543.1406Q283.4516 543.1406 282.81097 542.15625Q282.17035 541.1719 282.17035 538.7656ZM283.06097 538.7656Q283.06097 540.8594 283.4516 541.5781Q283.85785 542.28125 284.48285 542.28125Q285.0766 542.28125 285.46722 541.5625Q285.87347 540.84375 285.87347 538.7656Q285.87347 536.6719 285.46722 535.96875Q285.0766 535.25 284.43597 535.25Q283.84222 535.25 283.4516 535.96875Q283.06097 536.6875 283.06097 538.7656ZM290.43597 543.0L289.56097 543.0L289.56097 536.28125Q289.2641 536.625 288.7641 537.0Q288.2641 537.3594 287.84222 537.5469L287.84222 536.53125Q288.54535 536.125 289.09222 535.53125Q289.6391 534.9375 289.87347 534.375L290.43597 534.375L290.43597 543.0ZM296.73285 541.9844L296.73285 543.0L292.0766 543.0Q292.06097 542.3906 292.4516 541.625Q292.84222 540.8594 293.87347 539.8281Q295.09222 538.6094 295.46722 537.9531Q295.84222 537.2969 295.84222 536.7344Q295.84222 536.0781 295.4516 535.6719Q295.06097 535.25 294.49847 535.25Q293.90472 535.25 293.5141 535.7031Q293.12347 536.1406 293.12347 536.96875L292.23285 536.8594Q292.3266 535.625 292.93597 535.0Q293.54535 534.375 294.52972 534.375Q295.60785 534.375 296.15472 535.1094Q296.71722 535.8281 296.71722 536.75Q296.71722 537.5781 296.27972 538.3281Q295.85785 539.0781 294.6391 540.3281Q293.87347 541.125 293.6391 541.4219Q293.42035 541.7031 293.27972 541.9844L296.73285 541.9844Z" fill-rule="nonzero"/><path fill="#000000" d="M415.85873 541.9844L415.85873 543.0L411.20248 543.0Q411.18686 542.3906 411.57748 541.625Q411.9681 540.8594 412.99936 539.8281Q414.2181 538.6094 414.5931 537.9531Q414.9681 537.2969 414.9681 536.7344Q414.9681 536.0781 414.57748 535.6719Q414.18686 535.25 413.62436 535.25Q413.0306 535.25 412.63998 535.7031Q412.24936 536.1406 412.24936 536.96875L411.35873 536.8594Q411.45248 535.625 412.06186 535.0Q412.67123 534.375 413.6556 534.375Q414.73373 534.375 415.2806 535.1094Q415.8431 535.8281 415.8431 536.75Q415.8431 537.5781 415.4056 538.3281Q414.98373 539.0781 413.76498 540.3281Q412.99936 541.125 412.76498 541.4219Q412.54623 541.7031 412.4056 541.9844L415.85873 541.9844ZM416.29623 538.7656Q416.29623 536.59375 416.87436 535.4844Q417.4681 534.375 418.60873 534.375Q419.60873 534.375 420.18686 535.28125Q420.88998 536.3594 420.88998 538.7656Q420.88998 540.90625 420.31186 542.03125Q419.73373 543.1406 418.5931 543.1406Q417.57748 543.1406 416.93686 542.15625Q416.29623 541.1719 416.29623 538.7656ZM417.18686 538.7656Q417.18686 540.8594 417.57748 541.5781Q417.98373 542.28125 418.60873 542.28125Q419.20248 542.28125 419.5931 541.5625Q419.99936 540.84375 419.99936 538.7656Q419.99936 536.6719 419.5931 535.96875Q419.20248 535.25 418.56186 535.25Q417.9681 535.25 417.57748 535.96875Q417.18686 536.6875 417.18686 538.7656ZM424.56186 543.0L423.68686 543.0L423.68686 536.28125Q423.38998 536.625 422.88998 537.0Q422.38998 537.3594 421.9681 537.5469L421.9681 536.53125Q422.67123 536.125 423.2181 535.53125Q423.76498 534.9375 423.99936 534.375L424.56186 534.375L424.56186 543.0ZM429.07748 543.0L429.07748 540.9375L426.01498 540.9375L426.01498 539.96875L429.23373 534.40625L429.93686 534.40625L429.93686 539.96875L430.88998 539.96875L430.88998 540.9375L429.93686 540.9375L429.93686 543.0L429.07748 543.0ZM429.07748 539.96875L429.07748 536.1094L426.87436 539.96875L429.07748 539.96875Z" fill-rule="nonzero"/><path fill="#000000" d="M549.9846 541.9844L549.9846 543.0L545.32837 543.0Q545.31274 542.3906 545.70337 541.625Q546.094 540.8594 547.12524 539.8281Q548.344 538.6094 548.719 537.9531Q549.094 537.2969 549.094 536.7344Q549.094 536.0781 548.70337 535.6719Q548.31274 535.25 547.75024 535.25Q547.1565 535.25 546.76587 535.7031Q546.37524 536.1406 546.37524 536.96875L545.4846 536.8594Q545.57837 535.625 546.18774 535.0Q546.7971 534.375 547.7815 534.375Q548.8596 534.375 549.4065 535.1094Q549.969 535.8281 549.969 536.75Q549.969 537.5781 549.5315 538.3281Q549.1096 539.0781 547.89087 540.3281Q547.12524 541.125 546.89087 541.4219Q546.6721 541.7031 546.5315 541.9844L549.9846 541.9844ZM550.4221 538.7656Q550.4221 536.59375 551.00024 535.4844Q551.594 534.375 552.7346 534.375Q553.7346 534.375 554.31274 535.28125Q555.01587 536.3594 555.01587 538.7656Q555.01587 540.90625 554.43774 542.03125Q553.8596 543.1406 552.719 543.1406Q551.70337 543.1406 551.06274 542.15625Q550.4221 541.1719 550.4221 538.7656ZM551.31274 538.7656Q551.31274 540.8594 551.70337 541.5781Q552.1096 542.28125 552.7346 542.28125Q553.32837 542.28125 553.719 541.5625Q554.12524 540.84375 554.12524 538.7656Q554.12524 536.6719 553.719 535.96875Q553.32837 535.25 552.68774 535.25Q552.094 535.25 551.70337 535.96875Q551.31274 536.6875 551.31274 538.7656ZM558.68774 543.0L557.81274 543.0L557.81274 536.28125Q557.51587 536.625 557.01587 537.0Q556.51587 537.3594 556.094 537.5469L556.094 536.53125Q556.7971 536.125 557.344 535.53125Q557.89087 534.9375 558.12524 534.375L558.68774 534.375L558.68774 543.0ZM564.9065 536.5156L564.0471 536.59375Q563.9221 535.9375 563.68774 535.65625Q563.344 535.2344 562.8596 535.2344Q562.094 535.2344 561.64087 536.1719Q561.25024 536.9844 561.25024 538.5625Q561.5471 538.0 562.00024 537.71875Q562.45337 537.4219 562.95337 537.4219Q563.7815 537.4219 564.4065 538.1875Q565.0315 538.9375 565.0315 540.21875Q565.0315 541.0781 564.719 541.78125Q564.4065 542.4844 563.9065 542.8125Q563.4221 543.1406 562.82837 543.1406Q561.76587 543.1406 561.07837 542.1875Q560.39087 541.21875 560.39087 538.9844Q560.39087 536.4844 561.094 535.4375Q561.7971 534.375 562.9065 534.375Q563.719 534.375 564.25024 534.9219Q564.7971 535.46875 564.9065 536.5156ZM561.37524 540.21875Q561.37524 541.1406 561.81274 541.71875Q562.26587 542.28125 562.844 542.28125Q563.344 542.28125 563.75024 541.75Q564.1565 541.21875 564.1565 540.28125Q564.1565 539.3594 563.75024 538.8594Q563.3596 538.3594 562.7815 538.3594Q562.219 538.3594 561.7971 538.8594Q561.37524 539.3594 561.37524 540.21875Z" fill-rule="nonzero"/><path fill="#000000" d="M684.1105 541.9844L684.1105 543.0L679.4542 543.0Q679.4386 542.3906 679.8292 541.625Q680.21985 540.8594 681.2511 539.8281Q682.46985 538.6094 682.84485 537.9531Q683.21985 537.2969 683.21985 536.7344Q683.21985 536.0781 682.8292 535.6719Q682.4386 535.25 681.8761 535.25Q681.28235 535.25 680.8917 535.7031Q680.5011 536.1406 680.5011 536.96875L679.6105 536.8594Q679.7042 535.625 680.3136 535.0Q680.923 534.375 681.90735 534.375Q682.9855 534.375 683.53235 535.1094Q684.09485 535.8281 684.09485 536.75Q684.09485 537.5781 683.65735 538.3281Q683.2355 539.0781 682.0167 540.3281Q681.2511 541.125 681.0167 541.4219Q680.798 541.7031 680.65735 541.9844L684.1105 541.9844ZM684.548 538.7656Q684.548 536.59375 685.1261 535.4844Q685.71985 534.375 686.8605 534.375Q687.8605 534.375 688.4386 535.28125Q689.1417 536.3594 689.1417 538.7656Q689.1417 540.90625 688.5636 542.03125Q687.9855 543.1406 686.84485 543.1406Q685.8292 543.1406 685.1886 542.15625Q684.548 541.1719 684.548 538.7656ZM685.4386 538.7656Q685.4386 540.8594 685.8292 541.5781Q686.2355 542.28125 686.8605 542.28125Q687.4542 542.28125 687.84485 541.5625Q688.2511 540.84375 688.2511 538.7656Q688.2511 536.6719 687.84485 535.96875Q687.4542 535.25 686.8136 535.25Q686.21985 535.25 685.8292 535.96875Q685.4386 536.6875 685.4386 538.7656ZM692.8136 543.0L691.9386 543.0L691.9386 536.28125Q691.6417 536.625 691.1417 537.0Q690.6417 537.3594 690.21985 537.5469L690.21985 536.53125Q690.923 536.125 691.46985 535.53125Q692.0167 534.9375 692.2511 534.375L692.8136 534.375L692.8136 543.0ZM695.8761 538.34375Q695.3605 538.1094 695.09485 537.6719Q694.8292 537.2344 694.8292 536.5781Q694.8292 535.6094 695.40735 535.0Q695.9855 534.375 696.8605 534.375Q697.7355 534.375 698.3136 535.0Q698.8917 535.625 698.8917 536.625Q698.8917 537.2344 698.6261 537.6719Q698.3761 538.09375 697.8605 538.34375Q698.5011 538.59375 698.84485 539.15625Q699.1886 539.71875 699.1886 540.5469Q699.1886 541.7031 698.5167 542.4219Q697.8605 543.1406 696.8761 543.1406Q695.8761 543.1406 695.2042 542.4219Q694.548 541.7031 694.548 540.5156Q694.548 539.65625 694.8917 539.1094Q695.2511 538.5469 695.8761 538.34375ZM695.71985 536.5469Q695.71985 537.1875 696.048 537.5625Q696.3917 537.9375 696.8761 537.9375Q697.34485 537.9375 697.673 537.5781Q698.0167 537.2031 698.0167 536.6094Q698.0167 536.0156 697.673 535.625Q697.3292 535.2344 696.8605 535.2344Q696.3917 535.2344 696.048 535.6094Q695.71985 535.9844 695.71985 536.5469ZM695.423 540.5156Q695.423 541.3125 695.84485 541.7969Q696.28235 542.28125 696.8761 542.28125Q697.46985 542.28125 697.8761 541.8125Q698.298 541.34375 698.298 540.5625Q698.298 539.7656 697.8605 539.28125Q697.4386 538.7969 696.84485 538.7969Q696.2511 538.7969 695.8292 539.28125Q695.423 539.7656 695.423 540.5156Z" fill-rule="nonzero"/><path fill="#000000" d="M818.2363 541.9844L818.2363 543.0L813.5801 543.0Q813.56445 542.3906 813.9551 541.625Q814.3457 540.8594 815.37695 539.8281Q816.5957 538.6094 816.9707 537.9531Q817.3457 537.2969 817.3457 536.7344Q817.3457 536.0781 816.9551 535.6719Q816.56445 535.25 816.00195 535.25Q815.4082 535.25 815.0176 535.7031Q814.62695 536.1406 814.62695 536.96875L813.7363 536.8594Q813.8301 535.625 814.43945 535.0Q815.0488 534.375 816.0332 534.375Q817.1113 534.375 817.6582 535.1094Q818.2207 535.8281 818.2207 536.75Q818.2207 537.5781 817.7832 538.3281Q817.3613 539.0781 816.1426 540.3281Q815.37695 541.125 815.1426 541.4219Q814.9238 541.7031 814.7832 541.9844L818.2363 541.9844ZM818.6738 538.7656Q818.6738 536.59375 819.25195 535.4844Q819.8457 534.375 820.9863 534.375Q821.9863 534.375 822.56445 535.28125Q823.2676 536.3594 823.2676 538.7656Q823.2676 540.90625 822.68945 542.03125Q822.1113 543.1406 820.9707 543.1406Q819.9551 543.1406 819.31445 542.15625Q818.6738 541.1719 818.6738 538.7656ZM819.56445 538.7656Q819.56445 540.8594 819.9551 541.5781Q820.3613 542.28125 820.9863 542.28125Q821.5801 542.28125 821.9707 541.5625Q822.37695 540.84375 822.37695 538.7656Q822.37695 536.6719 821.9707 535.96875Q821.5801 535.25 820.93945 535.25Q820.3457 535.25 819.9551 535.96875Q819.56445 536.6875 819.56445 538.7656ZM828.2363 541.9844L828.2363 543.0L823.5801 543.0Q823.56445 542.3906 823.9551 541.625Q824.3457 540.8594 825.37695 539.8281Q826.5957 538.6094 826.9707 537.9531Q827.3457 537.2969 827.3457 536.7344Q827.3457 536.0781 826.9551 535.6719Q826.56445 535.25 826.00195 535.25Q825.4082 535.25 825.0176 535.7031Q824.62695 536.1406 824.62695 536.96875L823.7363 536.8594Q823.8301 535.625 824.43945 535.0Q825.0488 534.375 826.0332 534.375Q827.1113 534.375 827.6582 535.1094Q828.2207 535.8281 828.2207 536.75Q828.2207 537.5781 827.7832 538.3281Q827.3613 539.0781 826.1426 540.3281Q825.37695 541.125 825.1426 541.4219Q824.9238 541.7031 824.7832 541.9844L828.2363 541.9844ZM828.6738 538.7656Q828.6738 536.59375 829.25195 535.4844Q829.8457 534.375 830.9863 534.375Q831.9863 534.375 832.56445 535.28125Q833.2676 536.3594 833.2676 538.7656Q833.2676 540.90625 832.68945 542.03125Q832.1113 543.1406 830.9707 543.1406Q829.9551 543.1406 829.31445 542.15625Q828.6738 541.1719 828.6738 538.7656ZM829.56445 538.7656Q829.56445 540.8594 829.9551 541.5781Q830.3613 542.28125 830.9863 542.28125Q831.5801 542.28125 831.9707 541.5625Q832.37695 540.84375 832.37695 538.7656Q832.37695 536.6719 831.9707 535.96875Q831.5801 535.25 830.93945 535.25Q830.3457 535.25 829.9551 535.96875Q829.56445 536.6875 829.56445 538.7656Z" fill-rule="nonzero"/><path fill="#000000" d="M952.36224 541.9844L952.36224 543.0L947.706 543.0Q947.69037 542.3906 948.081 541.625Q948.4716 540.8594 949.50287 539.8281Q950.7216 538.6094 951.0966 537.9531Q951.4716 537.2969 951.4716 536.7344Q951.4716 536.0781 951.081 535.6719Q950.69037 535.25 950.12787 535.25Q949.5341 535.25 949.1435 535.7031Q948.75287 536.1406 948.75287 536.96875L947.86224 536.8594Q947.956 535.625 948.56537 535.0Q949.17474 534.375 950.1591 534.375Q951.23724 534.375 951.7841 535.1094Q952.3466 535.8281 952.3466 536.75Q952.3466 537.5781 951.9091 538.3281Q951.48724 539.0781 950.2685 540.3281Q949.50287 541.125 949.2685 541.4219Q949.04974 541.7031 948.9091 541.9844L952.36224 541.9844ZM952.79974 538.7656Q952.79974 536.59375 953.37787 535.4844Q953.9716 534.375 955.11224 534.375Q956.11224 534.375 956.69037 535.28125Q957.3935 536.3594 957.3935 538.7656Q957.3935 540.90625 956.81537 542.03125Q956.23724 543.1406 955.0966 543.1406Q954.081 543.1406 953.44037 542.15625Q952.79974 541.1719 952.79974 538.7656ZM953.69037 538.7656Q953.69037 540.8594 954.081 541.5781Q954.48724 542.28125 955.11224 542.28125Q955.706 542.28125 956.0966 541.5625Q956.50287 540.84375 956.50287 538.7656Q956.50287 536.6719 956.0966 535.96875Q955.706 535.25 955.06537 535.25Q954.4716 535.25 954.081 535.96875Q953.69037 536.6875 953.69037 538.7656ZM962.36224 541.9844L962.36224 543.0L957.706 543.0Q957.69037 542.3906 958.081 541.625Q958.4716 540.8594 959.50287 539.8281Q960.7216 538.6094 961.0966 537.9531Q961.4716 537.2969 961.4716 536.7344Q961.4716 536.0781 961.081 535.6719Q960.69037 535.25 960.12787 535.25Q959.5341 535.25 959.1435 535.7031Q958.75287 536.1406 958.75287 536.96875L957.86224 536.8594Q957.956 535.625 958.56537 535.0Q959.17474 534.375 960.1591 534.375Q961.23724 534.375 961.7841 535.1094Q962.3466 535.8281 962.3466 536.75Q962.3466 537.5781 961.9091 538.3281Q961.48724 539.0781 960.2685 540.3281Q959.50287 541.125 959.2685 541.4219Q959.04974 541.7031 958.9091 541.9844L962.36224 541.9844ZM967.36224 541.9844L967.36224 543.0L962.706 543.0Q962.69037 542.3906 963.081 541.625Q963.4716 540.8594 964.50287 539.8281Q965.7216 538.6094 966.0966 537.9531Q966.4716 537.2969 966.4716 536.7344Q966.4716 536.0781 966.081 535.6719Q965.69037 535.25 965.12787 535.25Q964.5341 535.25 964.1435 535.7031Q963.75287 536.1406 963.75287 536.96875L962.86224 536.8594Q962.956 535.625 963.56537 535.0Q964.17474 534.375 965.1591 534.375Q966.23724 534.375 966.7841 535.1094Q967.3466 535.8281 967.3466 536.75Q967.3466 537.5781 966.9091 538.3281Q966.48724 539.0781 965.2685 540.3281Q964.50287 541.125 964.2685 541.4219Q964.04974 541.7031 963.9091 541.9844L967.36224 541.9844Z" fill-rule="nonzero"/><path fill="#ff0000" d="M395.5 567.9L401.5 573.9L395.5 579.9L389.5 573.9Z" fill-rule="nonzero"/><path fill="#1a1a1a" d="M410.32812 578.4L410.32812 569.8063L415.07812 569.8063L415.07812 570.8219L411.26562 570.8219L411.26562 573.47815L414.5625 573.47815L414.5625 574.4938L411.26562 574.4938L411.26562 578.4L410.32812 578.4ZM419.48438 578.4L419.48438 577.47815Q419.1875 578.0094 418.78125 578.275Q418.375 578.54065 417.85938 578.54065Q417.26562 578.54065 416.82812 578.2125Q416.40625 577.8844 416.25 577.4Q416.10938 576.9 416.10938 576.025L416.10938 572.1813L416.98438 572.1813L416.98438 575.6344Q416.98438 576.5875 417.07812 576.91565Q417.17188 577.2438 417.42188 577.4469Q417.6875 577.6344 418.03125 577.6344Q418.64062 577.6344 419.04688 577.1188Q419.39062 576.6813 419.39062 575.5094L419.39062 572.1813L420.25 572.1813L420.25 578.4L419.48438 578.4ZM421.10938 578.4L421.10938 569.8063L421.96875 569.8063L421.96875 578.4L421.10938 578.4ZM423.10938 578.4L423.10938 569.8063L423.96875 569.8063L423.96875 578.4L423.10938 578.4ZM428.26562 578.4L428.26562 569.8063L430.92188 569.8063Q431.85938 569.8063 432.29688 569.97815Q432.90625 570.1969 433.26562 570.8063Q433.64062 571.4 433.64062 572.275Q433.64062 573.4469 433.04688 574.1813Q432.45312 574.9 431.0 574.9L429.1875 574.9L429.1875 578.4L428.26562 578.4ZM429.1875 573.9L431.01562 573.9Q431.875 573.9 432.26562 573.5094Q432.67188 573.1188 432.67188 572.3219Q432.67188 571.8219 432.46875 571.4625Q432.28125 571.0875 432.0 570.9625Q431.71875 570.8219 431.0 570.8219L429.1875 570.8219L429.1875 573.9ZM435.14062 578.4L435.14062 572.1813L435.90625 572.1813L435.90625 573.1188Q436.21875 572.4625 436.45312 572.2594Q436.70312 572.04065 437.01562 572.04065Q437.45312 572.04065 437.90625 572.3688L437.60938 573.35315Q437.29688 573.1188 436.98438 573.1188Q436.70312 573.1188 436.46875 573.3219Q436.25 573.5094 436.15625 573.85315Q436.0 574.4625 436.0 575.1344L436.0 578.4L435.14062 578.4ZM438.14062 571.025L438.14062 569.8063L439.0 569.8063L439.0 571.025L438.14062 571.025ZM438.14062 578.4L438.14062 572.1813L439.0 572.1813L439.0 578.4L438.14062 578.4ZM443.48438 576.1188L444.32812 576.2594Q444.1875 577.3688 443.59375 577.9625Q443.0 578.54065 442.17188 578.54065Q441.17188 578.54065 440.51562 577.72815Q439.875 576.9 439.875 575.275Q439.875 573.66565 440.53125 572.85315Q441.1875 572.04065 442.21875 572.04065Q443.0 572.04065 443.54688 572.54065Q444.09375 573.025 444.23438 574.0094L443.40625 574.16565Q443.28125 573.525 442.96875 573.2125Q442.67188 572.9 442.25 572.9Q441.60938 572.9 441.1875 573.47815Q440.76562 574.04065 440.76562 575.2594Q440.76562 576.54065 441.15625 577.10315Q441.5625 577.66565 442.20312 577.66565Q442.6875 577.66565 443.03125 577.29065Q443.39062 576.91565 443.48438 576.1188ZM448.625 576.4L449.51562 576.525Q449.29688 577.525 448.70312 578.04065Q448.125 578.54065 447.26562 578.54065Q446.1875 578.54065 445.51562 577.72815Q444.84375 576.9 444.84375 575.3375Q444.84375 573.72815 445.51562 572.8844Q446.1875 572.04065 447.23438 572.04065Q448.21875 572.04065 448.875 572.8688Q449.54688 573.6969 449.54688 575.275L449.54688 575.5563L445.73438 575.5563Q445.78125 576.60315 446.21875 577.1344Q446.65625 577.66565 447.26562 577.66565Q448.25 577.66565 448.625 576.4ZM445.78125 574.6969L448.625 574.6969Q448.57812 573.8844 448.28125 573.47815Q447.875 572.9 447.21875 572.9Q446.64062 572.9 446.23438 573.3844Q445.82812 573.8688 445.78125 574.6969Z" fill-rule="nonzero"/><path fill="#0000ff" d="M471.5 567.9L477.5 573.9L471.5 579.9L465.5 573.9Z" fill-rule="nonzero"/><path fill="#1a1a1a" d="M485.95312 575.6344L486.82812 575.54065Q486.89062 576.2594 487.14062 576.65Q487.39062 577.04065 487.84375 577.29065Q488.3125 577.525 488.90625 577.525Q489.73438 577.525 490.1875 577.1188Q490.65625 576.7125 490.65625 576.0563Q490.65625 575.6813 490.48438 575.4Q490.3125 575.1188 489.96875 574.9313Q489.64062 574.7438 488.53125 574.41565Q487.53125 574.1344 487.10938 573.8375Q486.6875 573.525 486.45312 573.0719Q486.21875 572.60315 486.21875 572.025Q486.21875 570.9938 486.89062 570.3375Q487.5625 569.66565 488.70312 569.66565Q489.48438 569.66565 490.07812 569.97815Q490.67188 570.29065 490.98438 570.8688Q491.3125 571.4469 491.34375 572.22815L490.45312 572.3063Q490.375 571.47815 489.9375 571.0719Q489.51562 570.66565 488.73438 570.66565Q487.9375 570.66565 487.51562 571.025Q487.10938 571.3688 487.10938 571.9313Q487.10938 572.4625 487.42188 572.7438Q487.71875 573.025 488.78125 573.3219Q489.82812 573.6188 490.25 573.8219Q490.89062 574.15 491.21875 574.6969Q491.54688 575.22815 491.54688 575.9625Q491.54688 576.7125 491.20312 577.3219Q490.85938 577.91565 490.26562 578.2438Q489.67188 578.5563 488.82812 578.5563Q487.53125 578.5563 486.75 577.775Q485.96875 576.97815 485.95312 575.6344ZM496.46875 577.6344Q496.03125 578.0875 495.5625 578.3219Q495.09375 578.54065 494.59375 578.54065Q493.79688 578.54065 493.3125 578.0563Q492.84375 577.5719 492.84375 576.7594Q492.84375 576.22815 493.0625 575.8219Q493.28125 575.4 493.67188 575.16565Q494.0625 574.9313 494.84375 574.8063Q495.90625 574.66565 496.39062 574.4469L496.39062 574.1813Q496.39062 573.54065 496.17188 573.29065Q495.84375 572.91565 495.17188 572.91565Q494.57812 572.91565 494.28125 573.16565Q493.98438 573.4 493.84375 574.0875L492.98438 573.9469Q493.17188 572.9469 493.71875 572.4938Q494.28125 572.04065 495.3125 572.04065Q496.10938 572.04065 496.5625 572.3375Q497.03125 572.6344 497.14062 573.0875Q497.26562 573.525 497.26562 574.3844L497.26562 575.79065Q497.26562 577.275 497.3125 577.66565Q497.375 578.04065 497.54688 578.4L496.64062 578.4Q496.5 578.0719 496.46875 577.6344ZM496.39062 575.275Q495.92188 575.5094 494.98438 575.6813Q494.4375 575.775 494.21875 575.9Q494.0 576.0094 493.875 576.22815Q493.76562 576.4469 493.76562 576.72815Q493.76562 577.1813 494.03125 577.4469Q494.3125 577.7125 494.79688 577.7125Q495.26562 577.7125 495.64062 577.47815Q496.01562 577.22815 496.20312 576.8375Q496.39062 576.4313 496.39062 575.66565L496.39062 575.275ZM498.10938 578.4L498.10938 569.8063L498.96875 569.8063L498.96875 578.4L498.10938 578.4ZM503.625 576.4L504.51562 576.525Q504.29688 577.525 503.70312 578.04065Q503.125 578.54065 502.26562 578.54065Q501.1875 578.54065 500.51562 577.72815Q499.84375 576.9 499.84375 575.3375Q499.84375 573.72815 500.51562 572.8844Q501.1875 572.04065 502.23438 572.04065Q503.21875 572.04065 503.875 572.8688Q504.54688 573.6969 504.54688 575.275L504.54688 575.5563L500.73438 575.5563Q500.78125 576.60315 501.21875 577.1344Q501.65625 577.66565 502.26562 577.66565Q503.25 577.66565 503.625 576.4ZM500.78125 574.6969L503.625 574.6969Q503.57812 573.8844 503.28125 573.47815Q502.875 572.9 502.21875 572.9Q501.64062 572.9 501.23438 573.3844Q500.82812 573.8688 500.78125 574.6969ZM508.26562 578.4L508.26562 569.8063L510.92188 569.8063Q511.85938 569.8063 512.2969 569.97815Q512.90625 570.1969 513.2656 570.8063Q513.6406 571.4 513.6406 572.275Q513.6406 573.4469 513.0469 574.1813Q512.4531 574.9 511.0 574.9L509.1875 574.9L509.1875 578.4L508.26562 578.4ZM509.1875 573.9L511.01562 573.9Q511.875 573.9 512.2656 573.5094Q512.6719 573.1188 512.6719 572.3219Q512.6719 571.8219 512.46875 571.4625Q512.28125 571.0875 512.0 570.9625Q511.71875 570.8219 511.0 570.8219L509.1875 570.8219L509.1875 573.9ZM515.1406 578.4L515.1406 572.1813L515.90625 572.1813L515.90625 573.1188Q516.21875 572.4625 516.4531 572.2594Q516.7031 572.04065 517.0156 572.04065Q517.4531 572.04065 517.90625 572.3688L517.6094 573.35315Q517.2969 573.1188 516.9844 573.1188Q516.7031 573.1188 516.46875 573.3219Q516.25 573.5094 516.15625 573.85315Q516.0 574.4625 516.0 575.1344L516.0 578.4L515.1406 578.4ZM518.1406 571.025L518.1406 569.8063L519.0 569.8063L519.0 571.025L518.1406 571.025ZM518.1406 578.4L518.1406 572.1813L519.0 572.1813L519.0 578.4L518.1406 578.4ZM523.4844 576.1188L524.3281 576.2594Q524.1875 577.3688 523.59375 577.9625Q523.0 578.54065 522.1719 578.54065Q521.1719 578.54065 520.5156 577.72815Q519.875 576.9 519.875 575.275Q519.875 573.66565 520.53125 572.85315Q521.1875 572.04065 522.21875 572.04065Q523.0 572.04065 523.5469 572.54065Q524.09375 573.025 524.2344 574.0094L523.40625 574.16565Q523.28125 573.525 522.96875 573.2125Q522.6719 572.9 522.25 572.9Q521.6094 572.9 521.1875 573.47815Q520.7656 574.04065 520.7656 575.2594Q520.7656 576.54065 521.15625 577.10315Q521.5625 577.66565 522.2031 577.66565Q522.6875 577.66565 523.03125 577.29065Q523.3906 576.91565 523.4844 576.1188ZM528.625 576.4L529.5156 576.525Q529.2969 577.525 528.7031 578.04065Q528.125 578.54065 527.2656 578.54065Q526.1875 578.54065 525.5156 577.72815Q524.84375 576.9 524.84375 575.3375Q524.84375 573.72815 525.5156 572.8844Q526.1875 572.04065 527.2344 572.04065Q528.21875 572.04065 528.875 572.8688Q529.5469 573.6969 529.5469 575.275L529.5469 575.5563L525.7344 575.5563Q525.78125 576.60315 526.21875 577.1344Q526.65625 577.66565 527.2656 577.66565Q528.25 577.66565 528.625 576.4ZM525.78125 574.6969L528.625 574.6969Q528.5781 573.8844 528.28125 573.47815Q527.875 572.9 527.21875 572.9Q526.6406 572.9 526.2344 573.3844Q525.8281 573.8688 525.78125 574.6969Z" fill-rule="nonzero"/><path fill="#00ff00" d="M551.5 567.9L557.5 573.9L551.5 579.9L545.5 573.9Z" fill-rule="nonzero"/><path fill="#1a1a1a" d="M565.9531 575.6344L566.8281 575.54065Q566.8906 576.2594 567.1406 576.65Q567.3906 577.04065 567.84375 577.29065Q568.3125 577.525 568.90625 577.525Q569.7344 577.525 570.1875 577.1188Q570.65625 576.7125 570.65625 576.0563Q570.65625 575.6813 570.4844 575.4Q570.3125 575.1188 569.96875 574.9313Q569.6406 574.7438 568.53125 574.41565Q567.53125 574.1344 567.1094 573.8375Q566.6875 573.525 566.4531 573.0719Q566.21875 572.60315 566.21875 572.025Q566.21875 570.9938 566.8906 570.3375Q567.5625 569.66565 568.7031 569.66565Q569.4844 569.66565 570.0781 569.97815Q570.6719 570.29065 570.9844 570.8688Q571.3125 571.4469 571.34375 572.22815L570.4531 572.3063Q570.375 571.47815 569.9375 571.0719Q569.5156 570.66565 568.7344 570.66565Q567.9375 570.66565 567.5156 571.025Q567.1094 571.3688 567.1094 571.9313Q567.1094 572.4625 567.4219 572.7438Q567.71875 573.025 568.78125 573.3219Q569.8281 573.6188 570.25 573.8219Q570.8906 574.15 571.21875 574.6969Q571.5469 575.22815 571.5469 575.9625Q571.5469 576.7125 571.2031 577.3219Q570.8594 577.91565 570.2656 578.2438Q569.6719 578.5563 568.8281 578.5563Q567.53125 578.5563 566.75 577.775Q565.96875 576.97815 565.9531 575.6344ZM576.46875 577.6344Q576.03125 578.0875 575.5625 578.3219Q575.09375 578.54065 574.59375 578.54065Q573.7969 578.54065 573.3125 578.0563Q572.84375 577.5719 572.84375 576.7594Q572.84375 576.22815 573.0625 575.8219Q573.28125 575.4 573.6719 575.16565Q574.0625 574.9313 574.84375 574.8063Q575.90625 574.66565 576.3906 574.4469L576.3906 574.1813Q576.3906 573.54065 576.1719 573.29065Q575.84375 572.91565 575.1719 572.91565Q574.5781 572.91565 574.28125 573.16565Q573.9844 573.4 573.84375 574.0875L572.9844 573.9469Q573.1719 572.9469 573.71875 572.4938Q574.28125 572.04065 575.3125 572.04065Q576.1094 572.04065 576.5625 572.3375Q577.03125 572.6344 577.1406 573.0875Q577.2656 573.525 577.2656 574.3844L577.2656 575.79065Q577.2656 577.275 577.3125 577.66565Q577.375 578.04065 577.5469 578.4L576.6406 578.4Q576.5 578.0719 576.46875 577.6344ZM576.3906 575.275Q575.9219 575.5094 574.9844 575.6813Q574.4375 575.775 574.21875 575.9Q574.0 576.0094 573.875 576.22815Q573.7656 576.4469 573.7656 576.72815Q573.7656 577.1813 574.03125 577.4469Q574.3125 577.7125 574.7969 577.7125Q575.2656 577.7125 575.6406 577.47815Q576.0156 577.22815 576.2031 576.8375Q576.3906 576.4313 576.3906 575.66565L576.3906 575.275ZM579.5625 578.4L577.625 572.1813L578.53125 572.1813L579.6406 575.9Q579.8281 576.54065 579.96875 577.15Q580.0781 576.66565 580.28125 575.97815L581.4219 572.1813L582.3125 572.1813L580.375 578.4L579.5625 578.4ZM584.1406 571.025L584.1406 569.8063L585.0 569.8063L585.0 571.025L584.1406 571.025ZM584.1406 578.4L584.1406 572.1813L585.0 572.1813L585.0 578.4L584.1406 578.4ZM586.1406 578.4L586.1406 572.1813L586.90625 572.1813L586.90625 573.0563Q587.1875 572.54065 587.59375 572.29065Q588.0156 572.04065 588.53125 572.04065Q588.9531 572.04065 589.2969 572.1969Q589.6406 572.35315 589.8594 572.6188Q590.0781 572.8844 590.1719 573.3063Q590.28125 573.7125 590.28125 574.5719L590.28125 578.4L589.4219 578.4L589.4219 574.6188Q589.4219 573.9313 589.2969 573.6188Q589.1875 573.29065 588.9375 573.1188Q588.6875 572.9469 588.3594 572.9469Q587.7344 572.9469 587.3594 573.41565Q587.0 573.8688 587.0 574.9938L587.0 578.4L586.1406 578.4ZM590.96875 578.91565L591.8125 579.0719Q591.875 579.5719 592.15625 579.8063Q592.4531 580.0563 592.9844 580.0563Q593.5469 580.0563 593.875 579.775Q594.21875 579.5094 594.34375 578.9625Q594.4219 578.6344 594.4219 577.5875Q594.1406 577.9938 593.78125 578.1969Q593.4375 578.4 593.0156 578.4Q592.09375 578.4 591.4844 577.6188Q590.7969 576.72815 590.7969 575.2438Q590.7969 574.2438 591.09375 573.4938Q591.40625 572.7438 591.90625 572.4Q592.40625 572.04065 593.0156 572.04065Q593.46875 572.04065 593.8281 572.2594Q594.2031 572.47815 594.5 572.9313L594.5 572.1813L595.2969 572.1813L595.2969 577.5563Q595.2969 578.9938 595.0625 579.60315Q594.8281 580.2125 594.2969 580.5719Q593.7656 580.9313 593.0156 580.9313Q592.0156 580.9313 591.4844 580.3844Q590.9531 579.85315 590.96875 578.91565ZM591.6875 575.1813Q591.6875 576.4 592.09375 576.9625Q592.5 577.525 593.0781 577.525Q593.6719 577.525 594.0781 576.97815Q594.4844 576.4313 594.4844 575.22815Q594.4844 574.0563 594.0625 573.4938Q593.6406 572.91565 593.0469 572.91565Q592.5 572.91565 592.09375 573.4938Q591.6875 574.0563 591.6875 575.1813ZM595.8125 576.54065L596.65625 576.3844Q596.7344 577.04065 597.0781 577.35315Q597.4219 577.66565 597.9844 577.66565Q598.5469 577.66565 598.84375 577.4Q599.15625 577.1188 599.15625 576.6813Q599.15625 576.3219 598.8906 576.1188Q598.71875 575.97815 598.0156 575.7594Q597.0 575.4469 596.65625 575.2438Q596.3281 575.025 596.1406 574.66565Q595.9531 574.29065 595.9531 573.8219Q595.9531 573.025 596.4531 572.54065Q596.96875 572.04065 597.875 572.04065Q598.4375 572.04065 598.8594 572.2438Q599.2969 572.4469 599.53125 572.79065Q599.7656 573.1344 599.84375 573.775L599.0 573.91565Q598.8906 572.9 597.8906 572.9Q597.3281 572.9 597.0469 573.1344Q596.78125 573.35315 596.78125 573.7125Q596.78125 574.0563 597.0469 574.2438Q597.2031 574.3688 597.9844 574.6188Q599.0625 574.97815 599.375 575.1813Q599.6875 575.3688 599.8594 575.72815Q600.0469 576.0719 600.0469 576.5563Q600.0469 577.4469 599.46875 577.9938Q598.90625 578.54065 597.9375 578.54065Q596.09375 578.54065 595.8125 576.54065Z" fill-rule="nonzero"/></svg>